<?xml version="1.0" standalone="no"?>
<!-- Generator: Adobe Fireworks 10, Export SVG Extension by Aaron Beall (http://fireworks.abeall.com) . Version: 0.6.1  -->
<!DOCTYPE svg PUBLIC "-//W3C//DTD SVG 1.1//EN" "http://www.w3.org/Graphics/SVG/1.1/DTD/svg11.dtd">
<svg id="bitcom_220_140.fw-Page%201" viewBox="0 0 220 140" style="background-color:#121721" version="1.1"
	xmlns="http://www.w3.org/2000/svg" xmlns:xlink="http://www.w3.org/1999/xlink" xml:space="preserve"
	x="0px" y="0px" width="220px" height="140px"
>
	<g id="Background">
		<g id="logo_bcom">
			<path d="M 37.143 57.5 L 45.0287 57.5 C 45.4074 57.5 45.7144 57.8017 45.7144 58.1739 L 45.7144 65.9239 L 37.143 65.9239 L 37.143 57.5 L 37.143 57.5 Z" fill="#0ac18e"/>
			<path opacity="0.502" d="M 45.7144 65.9239 L 37.143 65.9239 L 37.143 74.3479 L 45.7144 74.3479 L 45.7144 65.9239 L 45.7144 65.9239 Z" fill="#0ac18e"/>
			<path opacity="0.251" d="M 37.143 74.3479 L 45.7144 74.3479 L 45.7144 81.8479 C 45.7144 82.208 45.4074 82.5 45.0287 82.5 L 37.143 82.5 L 37.143 74.3479 L 37.143 74.3479 Z" fill="#0ac18e"/>
			<path opacity="0.251" d="M 20.6857 57.5 L 28.5714 57.5 L 28.5714 65.9239 L 20 65.9239 L 20 58.1739 C 20 57.8017 20.307 57.5 20.6857 57.5 L 20.6857 57.5 Z" fill="#0ac18e"/>
			<path d="M 37.143 65.9239 L 28.5715 65.9239 L 28.5715 74.3479 L 37.143 74.3479 L 37.143 65.9239 L 37.143 65.9239 Z" fill="#0ac18e"/>
			<path d="M 20 74.3479 L 28.5714 74.3479 L 28.5714 82.5 L 20.6857 82.5 C 20.307 82.5 20 82.208 20 81.8479 L 20 74.3479 L 20 74.3479 Z" fill="#0ac18e"/>
			<path opacity="0.502" d="M 37.143 74.3479 L 28.5715 74.3479 L 28.5715 82.5 L 37.143 82.5 L 37.143 74.3479 L 37.143 74.3479 Z" fill="#0ac18e"/>
			<path opacity="0.502" d="M 37.143 57.5 L 28.5715 57.5 L 28.5715 65.9239 L 37.143 65.9239 L 37.143 57.5 L 37.143 57.5 Z" fill="#0ac18e"/>
			<path opacity="0.502" d="M 28.5714 65.9239 L 20 65.9239 L 20 74.3479 L 28.5714 74.3479 L 28.5714 65.9239 L 28.5714 65.9239 Z" fill="#0ac18e"/>
			<path d="M 56.4112 76.927 L 61.1777 76.927 C 63.0782 76.927 64.5653 76.2181 64.5653 73.7998 C 64.5653 71.6165 63.0239 70.8512 61.1777 70.8512 L 56.3502 70.8512 L 56.4112 76.927 L 56.4112 76.927 ZM 56.3502 67.724 L 61.1777 67.724 C 62.9595 67.724 64.0436 66.8362 64.0436 65.1565 C 64.0436 63.3279 62.7462 62.5295 61.1777 62.5295 L 56.4112 62.5295 L 56.3502 67.724 L 56.3502 67.724 ZM 61.2692 80.0544 L 52.0377 80.0544 C 51.9084 80.0462 51.8055 79.9455 51.7973 79.8191 L 51.8886 69.7282 L 51.7973 59.6407 C 51.8038 59.513 51.9073 59.4104 52.0377 59.4022 L 61.1303 59.4022 C 65.4461 59.4022 68.6441 60.936 68.6441 64.5072 C 68.6441 66.9852 67.316 68.3998 64.9921 69.0789 C 67.8276 69.6984 69.2166 71.5271 69.2166 73.7998 C 69.203 78.2853 65.3106 80.0544 61.2692 80.0544 L 61.2692 80.0544 Z" fill="#ffffff"/>
			<path d="M 70.2926 80.0544 C 70.16 80.0462 70.0544 79.9455 70.046 79.8191 L 70.105 72.4712 L 70.046 65.0969 C 70.0544 64.9705 70.16 64.8698 70.2926 64.8617 L 74.4998 64.8617 C 74.6323 64.8698 74.738 64.9705 74.7465 65.0969 L 74.6839 72.4712 L 74.7465 79.8191 C 74.738 79.9455 74.6323 80.0462 74.4998 80.0544 L 70.2926 80.0544 L 70.2926 80.0544 ZM 70.2926 63.3875 C 70.1588 63.3792 70.0528 63.2767 70.046 63.149 L 70.046 59.6407 C 70.0528 59.513 70.1588 59.4104 70.2926 59.4022 L 74.4998 59.4022 C 74.6336 59.4104 74.7397 59.513 74.7465 59.6407 L 74.7465 63.149 C 74.7397 63.2767 74.6336 63.3792 74.4998 63.3875 L 70.2926 63.3875 L 70.2926 63.3875 Z" fill="#ffffff"/>
			<path d="M 85.7589 79.494 C 85.7655 79.6452 85.6667 79.7818 85.5186 79.8255 C 84.6048 80.1292 83.6498 80.298 82.6851 80.3261 C 80.0616 80.3261 77.5598 79.0266 77.5598 75.5724 L 77.5902 67.9478 L 75.8129 67.9478 C 75.6909 67.9393 75.5917 67.8478 75.576 67.729 L 75.576 65.0769 C 75.5843 64.9504 75.6872 64.8497 75.8164 64.8416 L 77.6071 64.8416 L 77.5767 61.268 C 77.5866 61.141 77.6906 61.0405 77.8204 61.0326 L 81.8592 61.0326 C 81.9877 61.0421 82.0897 61.1421 82.0995 61.268 L 82.0689 64.8416 L 85.566 64.8416 C 85.6952 64.8497 85.7981 64.9504 85.8063 65.0769 L 85.8063 67.729 C 85.7981 67.8555 85.6952 67.9562 85.566 67.9643 L 82.0521 67.9643 L 82.0825 75.4629 C 82.0825 76.7591 82.7595 77.1735 83.7413 77.1735 C 84.3445 77.1801 84.9449 77.0906 85.5186 76.9082 C 85.575 76.8942 85.635 76.9059 85.6816 76.94 C 85.7283 76.9741 85.7567 77.027 85.7589 77.084 L 85.7589 79.494 L 85.7589 79.494 Z" fill="#ffffff"/>
			<path d="M 93.7536 80.5978 C 88.7689 80.5978 85.8066 77.489 85.8066 72.6181 C 85.8066 67.7471 88.7689 64.5652 93.8451 64.5652 C 97.8628 64.5652 100.462 66.7862 100.7945 70.131 C 100.8023 70.1905 100.7838 70.2504 100.7436 70.2955 C 100.7033 70.3406 100.6453 70.3666 100.5841 70.3671 L 96.8516 70.3671 C 96.7137 70.3639 96.598 70.2645 96.5767 70.131 C 96.2374 68.3855 95.1278 67.5543 93.8281 67.5543 C 91.531 67.5842 90.4349 69.2167 90.4349 72.5881 C 90.4349 76.0826 91.5513 77.5755 93.8281 77.622 C 95.3688 77.652 96.519 76.5846 96.6989 74.5731 C 96.7199 74.4409 96.8338 74.3419 96.9703 74.337 L 100.8014 74.337 C 100.8628 74.3364 100.9215 74.3621 100.962 74.4076 C 101.0025 74.453 101.0207 74.5135 101.0117 74.5731 C 100.7029 78.0809 97.8323 80.5978 93.7536 80.5978 L 93.7536 80.5978 Z" fill="#ffffff"/>
			<path d="M 109.3393 77.6354 C 111.5869 77.6354 112.6476 76.1259 112.6476 72.6314 C 112.6476 69.1968 111.5562 67.541 109.3086 67.541 C 106.9996 67.5676 105.9354 69.2267 105.9354 72.6612 C 105.9354 76.0959 107.0609 77.6354 109.3393 77.6354 L 109.3393 77.6354 ZM 109.3393 80.5978 C 104.2233 80.5978 101.2902 77.489 101.2902 72.6181 C 101.2902 67.7471 104.237 64.5652 109.3393 64.5652 C 114.4416 64.5652 117.327 67.674 117.327 72.5449 C 117.327 77.4159 114.4416 80.5978 109.3393 80.5978 L 109.3393 80.5978 Z" fill="#ffffff"/>
			<path d="M 118.4035 80.326 C 118.2709 80.318 118.1653 80.2172 118.1568 80.0909 L 118.2159 72.743 L 118.1568 65.3686 C 118.1653 65.2422 118.2709 65.1415 118.4035 65.1334 L 122.6107 65.1334 C 122.7431 65.1415 122.8488 65.2422 122.8573 65.3686 L 122.7947 72.743 L 122.8573 80.0909 C 122.8488 80.2172 122.7431 80.318 122.6107 80.326 L 118.4035 80.326 L 118.4035 80.326 ZM 118.4035 63.6592 C 118.2696 63.651 118.1636 63.5484 118.1568 63.4207 L 118.1568 59.9124 C 118.1636 59.7847 118.2696 59.6821 118.4035 59.6739 L 122.6107 59.6739 C 122.7444 59.6821 122.8505 59.7847 122.8573 59.9124 L 122.8573 63.4207 C 122.8505 63.5484 122.7444 63.651 122.6107 63.6592 L 118.4035 63.6592 L 118.4035 63.6592 Z" fill="#ffffff"/>
			<path d="M 124.2086 80.3261 C 124.0779 80.3181 123.9731 80.2164 123.9632 80.0877 L 124.0245 72.9415 L 124.0245 65.1709 C 124.0329 65.0428 124.1365 64.9407 124.2666 64.9325 L 128.1843 64.9325 C 128.3144 64.9407 128.4181 65.0428 128.4264 65.1709 L 128.3377 66.8693 C 129.565 65.3752 131.4258 64.5249 133.3772 64.5667 C 136.688 64.5667 138.8327 66.7787 138.8327 70.5449 L 138.8327 73.7739 L 138.894 80.081 C 138.884 80.2096 138.7793 80.3114 138.6485 80.3194 L 134.5297 80.3194 C 134.4003 80.3098 134.2973 80.2085 134.2876 80.081 L 134.3489 73.7739 L 134.3489 70.612 C 134.3489 68.9336 133.3465 67.8629 131.9793 67.8629 C 130.3392 67.8629 128.5697 69.3566 128.5697 72.6427 L 128.5697 73.7806 L 128.631 80.0877 C 128.6213 80.2151 128.5183 80.3165 128.3889 80.3261 L 124.2086 80.3261 L 124.2086 80.3261 Z" fill="#ffffff"/>
			<path d="M 139.6873 80.3261 C 139.5589 80.3162 139.4567 80.2134 139.4471 80.0838 L 139.4471 76.224 C 139.4551 76.0931 139.5576 75.9883 139.6873 75.9782 L 143.9073 75.9782 C 144.0376 75.9867 144.1409 76.0924 144.1475 76.224 L 144.1475 80.0838 C 144.1393 80.214 144.0363 80.3177 143.9073 80.3261 L 139.6873 80.3261 L 139.6873 80.3261 Z" fill="#ffffff"/>
			<path d="M 152.3735 80.5978 C 147.3868 80.5978 144.424 77.489 144.424 72.6181 C 144.424 67.7471 147.3868 64.5652 152.4648 64.5652 C 156.4831 64.5652 159.083 66.7862 159.4164 70.131 C 159.4252 70.1908 159.4062 70.2511 159.3656 70.2966 C 159.3251 70.342 159.2668 70.3677 159.2059 70.3671 L 155.4893 70.3671 C 155.3511 70.3639 155.2358 70.2645 155.2142 70.131 C 154.8745 68.3855 153.7641 67.5543 152.4648 67.5543 C 150.1666 67.5842 149.0701 69.2167 149.0701 72.5881 C 149.0701 76.0826 150.1869 77.5755 152.4648 77.622 C 154.0062 77.652 155.1559 76.5846 155.3359 74.5731 C 155.3575 74.4409 155.4716 74.3419 155.6072 74.337 L 159.4164 74.337 C 159.4772 74.3365 159.5368 74.3623 159.5773 74.4075 C 159.6179 74.4528 159.6369 74.5131 159.6293 74.5731 C 159.3238 78.0809 156.4565 80.5978 152.3735 80.5978 L 152.3735 80.5978 Z" fill="#ffffff"/>
			<path d="M 168.2338 77.6354 C 170.4813 77.6354 171.5448 76.1259 171.5448 72.6314 C 171.5448 69.2101 170.461 67.5476 168.2021 67.5476 C 165.8938 67.5742 164.8328 69.2333 164.8328 72.668 C 164.8328 76.1025 165.9547 77.6354 168.2338 77.6354 L 168.2338 77.6354 ZM 168.2338 80.5978 C 163.1177 80.5978 160.1845 77.489 160.1845 72.6181 C 160.1845 67.7471 163.1317 64.5652 168.2338 64.5652 C 173.3359 64.5652 176.221 67.674 176.221 72.5449 C 176.221 77.4159 173.3359 80.5978 168.2338 80.5978 L 168.2338 80.5978 Z" fill="#ffffff"/>
			<path d="M 181.4093 74.7924 L 181.4676 80.0876 C 181.46 80.2158 181.356 80.3179 181.2255 80.3261 L 177.017 80.3261 C 176.8877 80.3165 176.7838 80.2151 176.7737 80.0876 L 176.8358 74.7924 L 176.8358 65.1655 C 176.8447 65.0373 176.9486 64.9352 177.0792 64.9271 L 181.0125 64.9271 C 181.1431 64.9352 181.247 65.0373 181.2559 65.1655 L 181.1634 66.8645 C 182.1546 65.3815 183.8621 64.5114 185.6685 64.5678 C 187.8639 64.5678 189.4523 65.4945 190.1811 67.4689 C 191.5235 65.1353 193.0776 64.5678 194.9372 64.5678 C 198.1062 64.5678 199.9379 66.4515 199.9379 70.5481 L 199.9379 74.7924 L 200 80.0876 C 199.9899 80.2164 199.8846 80.3181 199.7541 80.3261 L 195.6141 80.3261 C 195.4848 80.3165 195.3809 80.2151 195.372 80.0876 L 195.4328 74.7924 L 195.4328 70.6085 C 195.4328 68.755 194.6697 67.8584 193.4199 67.8584 C 192.17 67.8584 190.6806 69.5004 190.6806 72.64 L 190.6806 74.7924 L 190.7427 80.0876 C 190.7325 80.2164 190.6273 80.3181 190.4968 80.3261 L 186.353 80.3261 C 186.2237 80.3165 186.1197 80.2151 186.1109 80.0876 L 186.1717 74.7924 L 186.1717 70.6085 C 186.1717 68.755 185.439 67.8584 184.1587 67.8584 C 182.8784 67.8584 181.4207 69.5004 181.4207 72.64 L 181.4093 74.7924 L 181.4093 74.7924 Z" fill="#ffffff"/>
		</g>
	</g>
</svg>