<?xml version="1.0" standalone="no"?>
<!-- Generator: Adobe Fireworks 10, Export SVG Extension by Aaron Beall (http://fireworks.abeall.com) . Version: 0.6.1  -->
<!DOCTYPE svg PUBLIC "-//W3C//DTD SVG 1.1//EN" "http://www.w3.org/Graphics/SVG/1.1/DTD/svg11.dtd">
<svg id="casa_de_spice_2_220_140.fw-Page%201" viewBox="0 0 220 140" style="background-color:#ffffff" version="1.1"
	xmlns="http://www.w3.org/2000/svg" xmlns:xlink="http://www.w3.org/1999/xlink" xml:space="preserve"
	x="0px" y="0px" width="220px" height="140px"
>
	<g id="Background">
		<text x="7" y="38" width="205" fill="#323f50" style="font-size: 30px; font-family: Brush Script Std; text-align: center; color: #323f50; "><tspan><![CDATA[Casa de]]></tspan><tspan style="color: #d83e3d; "><![CDATA[ Spice]]></tspan></text>
		<g id="badger_nobg">
			<g>
				<g>
					<g>
						<path id="st8" d="M 137.9498 66.914 C 137.9498 66.914 143.1543 42.2007 173.4109 35 C 203.1382 68.2475 180.7324 96.25 180.7324 96.25 " stroke="#324050" stroke-width="3" fill="#8a8c8e"/>
						<path id="st9" d="M 145.7124 76.8037 C 145.7124 76.8037 149.3291 59.6466 170.3234 54.6684 C 190.9649 77.7816 175.4397 97.25 175.4397 97.25 " stroke="#324050" stroke-width="3" fill="#ababab"/>
						<path id="st82" d="M 91.1977 66.914 C 91.1977 66.914 85.9933 42.2007 55.7367 35 C 26.0094 68.2475 48.4152 96.25 48.4152 96.25 " stroke="#324050" stroke-width="3" fill="#8a8c8e"/>
						<path id="st92" d="M 83.4351 76.8037 C 83.4351 76.8037 79.8184 59.6466 58.8241 54.6684 C 38.1826 77.7816 53.7079 97.25 53.7079 97.25 " stroke="#324050" stroke-width="3" fill="#ababab"/>
						<path id="st10" d="M 69.0863 415.7458 L 69.0863 437.1699 C 69.0863 437.1699 67.0575 447.6598 48.2684 451.5713 C 29.4793 455.4828 6.9854 453.2603 5.7505 449.8822 C -2.4532 457.0829 -19.3898 453.9715 -21.6833 447.2153 C -31.1219 451.3046 -34.7386 441.4371 -32.8862 435.0365 C -31.0337 428.6359 -22.2126 411.5677 25.157 416.1014 L 25.157 408.9008 " stroke="#324050" stroke-width="3" fill="#ffffff"/>
						<path id="st11" d="M 8.1907 451.4824 C 8.1907 451.4824 3.0745 438.6812 16.7472 431.4806 " stroke="#324050" stroke-width="3" fill="none"/>
						<path id="st112" d="M -19.1548 448.8155 C -19.1548 448.8155 -24.8886 436.0144 -11.3922 428.1914 " stroke="#324050" stroke-width="3" fill="none"/>
						<path id="st12" d="M 88.9925 275.9109 C 88.9925 275.9109 -11.2158 248.5306 -48 326.1377 C -48 326.1377 -39.4435 320.626 -35.2976 320.626 C -52.0577 348.4508 -41.8252 379.0314 -35.2976 387.2988 C -36.0915 367.208 -32.0337 362.6743 -32.0337 362.6743 C -32.0337 362.6743 -12.3625 433.4363 83.2587 415.2124 C 178.9682 396.9885 120.925 323.0263 120.925 323.0263 " stroke="#324050" stroke-width="3" fill="#ffffff"/>
						<path id="st102" d="M 162.9137 415.7458 L 162.9137 437.1699 C 162.9137 437.1699 164.9426 447.6598 183.7316 451.5713 C 202.5206 455.4828 225.0145 453.2603 226.2495 449.8822 C 234.4532 457.0829 251.3897 453.9715 253.6833 447.2153 C 263.1219 451.3046 266.7386 441.4371 264.8861 435.0365 C 263.0337 428.6359 254.2126 411.5677 206.843 416.1014 L 206.843 408.9008 " stroke="#324050" stroke-width="3" fill="#ffffff"/>
						<path id="st113" d="M 222.8092 451.4824 C 222.8092 451.4824 227.9255 438.6812 214.2528 431.4806 " stroke="#324050" stroke-width="3" fill="none"/>
						<path id="st114" d="M 250.1548 448.8155 C 250.1548 448.8155 255.8885 436.0144 242.3922 428.1914 " stroke="#324050" stroke-width="3" fill="none"/>
						<path id="st122" d="M 142.0075 275.9109 C 142.0075 275.9109 242.2158 248.5306 279 326.1377 C 279 326.1377 270.4435 320.626 266.2975 320.626 C 283.0577 348.4508 272.8252 379.0314 266.2975 387.2988 C 267.0914 367.208 263.0337 362.6743 263.0337 362.6743 C 263.0337 362.6743 243.3625 433.4363 147.7413 415.2124 C 52.0318 396.8997 110.075 322.9373 110.075 322.9373 " stroke="#324050" stroke-width="3" fill="#ffffff"/>
						<path id="st13" d="M 181.2617 304.0912 C 201.5503 290.4899 214.2528 270.7549 214.2528 248.7973 C 214.2528 207.638 169.4413 174.3016 114.2209 174.3016 C 59.0005 174.3016 14.1891 207.638 14.1891 248.7973 C 14.1891 270.7549 26.9798 290.4011 47.1802 304.0912 C 26.8916 316.6257 14.1891 334.7607 14.1891 354.8514 C 14.1891 392.6326 59.0005 423.3021 114.2209 423.3021 C 169.4413 423.3021 214.2528 392.6326 214.2528 354.8514 C 214.2528 334.6718 201.5503 316.5368 181.2617 304.0912 L 181.2617 304.0912 Z" stroke="#324050" stroke-width="3" fill="#324050"/>
						<path id="st123" d="M 57.4127 253.4199 C 75.5843 221.9504 115.6323 211.1939 146.8592 229.5066 C 178.086 247.8193 188.7597 288.1786 170.5881 319.6482 C 152.4164 351.1177 112.3685 361.8742 81.1416 343.5614 C 49.9147 325.3376 39.2412 284.9783 57.4127 253.4199 L 57.4127 253.4199 Z" stroke="#324050" stroke-width="3" fill="#ffffff"/>
						<path id="st14" d="M 66.6749 314.67 C 66.6749 314.67 92.6091 328.2712 95.8729 339.8278 C 99.1368 351.3844 88.9042 352.9845 88.9042 352.9845 C 88.9042 352.9845 89.6981 362.2298 80.9652 365.3412 C 72.144 368.4526 66.6749 361.8742 66.6749 361.8742 C 66.6749 361.8742 47.0038 364.9856 44.7985 357.785 C 45.5924 337.6053 35.3599 326.8488 30.2436 324.6264 " stroke="#324050" stroke-width="3" fill="#ffffff"/>
						<path id="st124" d="M 70.9973 152.0773 C 70.9973 152.0773 -26.741 191.192 -31.2398 254.3089 C -31.2398 254.3089 -22.8597 245.6859 -18.1845 245.0636 C -25.9471 252.442 -24.0947 286.4896 -13.0683 298.4018 C -13.0683 298.4018 -14.7443 291.6456 -13.6858 289.3344 C -11.2158 296.0905 8.3671 323.7374 21.8635 329.5157 C 17.9822 326.2265 18.5996 321.515 18.5996 321.515 C 18.5996 321.515 33.772 335.1162 39.8586 335.9164 C 46.0334 336.7164 50.8851 336.3608 50.8851 336.3608 C 50.8851 336.3608 43.1225 329.9603 42.505 325.2487 C 52.7375 331.8271 61.294 333.5161 61.294 333.5161 C 61.294 333.5161 57.2363 325.0709 57.2363 322.404 C 64.8225 325.5154 72.4087 327.7378 72.4087 327.7378 C 72.4087 327.7378 71.7912 316.4479 69.5859 313.9588 C 67.3806 311.4696 40.9171 285.6895 47.2684 254.3978 C 47.2684 254.3978 36.0655 257.0647 34.8306 264.0875 C 33.5956 271.1104 30.1554 219.8168 67.7334 192.97 C 67.7334 192.97 61.9997 204.5266 61.9997 214.8386 C 73.4672 197.5037 99.225 177.7686 115.9852 171.9903 " stroke="#324050" stroke-width="3" fill="#ffffff"/>
						<path id="st15" d="M 80.9652 336.2719 C 80.9652 336.2719 88.9042 342.6725 88.5514 353.7846 " stroke="#324050" stroke-width="3" fill="none"/>
						<path id="st152" d="M 65.881 362.052 C 65.881 362.052 74.2611 350.7621 64.0286 342.0502 " stroke="#324050" stroke-width="3" fill="none"/>
						<path id="st142" d="M 164.325 314.67 C 164.325 314.67 138.3909 328.2712 135.127 339.8278 C 131.8632 351.3844 142.0958 352.9845 142.0958 352.9845 C 142.0958 352.9845 141.3018 362.2298 150.0348 365.3412 C 158.7678 368.4526 164.325 361.8742 164.325 361.8742 C 164.325 361.8742 183.9962 364.9856 186.2015 357.785 C 185.4076 337.6053 195.6401 326.8488 200.7563 324.6264 " stroke="#324050" stroke-width="3" fill="#ffffff"/>
						<path id="st125" d="M 160.0027 152.0773 C 160.0027 152.0773 257.741 191.192 262.2398 254.3089 C 262.2398 254.3089 253.8597 245.6859 249.1845 245.0636 C 256.9471 252.442 255.0946 286.4896 244.0682 298.4018 C 244.0682 298.4018 245.7443 291.6456 244.6857 289.3344 C 242.2158 296.0905 222.6328 323.7374 209.1364 329.5157 C 213.0178 326.2265 212.4004 321.515 212.4004 321.515 C 212.4004 321.515 197.2279 335.1162 191.1413 335.9164 C 184.9665 336.7164 180.1149 336.3608 180.1149 336.3608 C 180.1149 336.3608 187.8775 329.9603 188.495 325.2487 C 178.2624 331.8271 169.7059 333.5161 169.7059 333.5161 C 169.7059 333.5161 173.7637 325.0709 173.7637 322.404 C 166.1775 325.5154 158.5913 327.7378 158.5913 327.7378 C 158.5913 327.7378 159.2088 316.4479 161.414 313.9588 C 163.6194 311.4696 190.0829 285.6895 183.7316 254.3978 C 183.7316 254.3978 194.9344 257.0647 196.1694 264.0875 C 197.4044 271.1104 200.8446 219.8168 163.2665 192.97 C 163.2665 192.97 169.0002 204.5266 169.0002 214.8386 C 157.5328 197.5037 131.775 177.7686 115.0148 171.9903 " stroke="#324050" stroke-width="3" fill="#ffffff"/>
						<path id="st153" d="M 150.0348 336.2719 C 150.0348 336.2719 142.0958 342.6725 142.4486 353.7846 " stroke="#324050" stroke-width="3" fill="none"/>
						<path id="st154" d="M 165.119 362.052 C 165.119 362.052 156.7389 350.7621 166.9714 342.0502 " stroke="#324050" stroke-width="3" fill="none"/>
						<path id="st16" d="M 205.167 157.6111 C 201.1974 75.3814 132.5689 62.2246 116.5144 60.2689 C 115.8969 60.18 115.2795 60.0911 114.8384 60.0911 C 114.3973 60.18 113.7799 60.18 113.1624 60.2689 C 97.1079 62.2246 28.4793 75.4703 24.5098 157.6111 C 24.5098 157.6111 29.6261 150.2326 40.6526 152.6329 C 40.6526 152.6329 32.7135 156.3665 31.4786 166.8564 C 31.4786 166.8564 57.6774 165.1673 72.144 178.1463 C 85.5522 190.1474 102.1359 207.9268 114.8384 195.7479 C 127.6291 207.8379 144.1246 190.0585 157.5328 178.1463 C 172.0877 165.1673 198.1982 166.8564 198.1982 166.8564 C 196.9633 156.3665 189.0243 152.6329 189.0243 152.6329 C 200.1389 150.1437 205.167 157.6111 205.167 157.6111 L 205.167 157.6111 Z" stroke="#324050" stroke-width="3" fill="#ffffff"/>
						<path id="st83" d="M 47.2684 93.3164 C 43.5635 122.208 83.5234 140.4318 81.4944 164.1673 C 108.7518 134.3869 95.9611 80.2486 91.3741 64.336 C 77.6132 68.8698 60.6766 77.4928 47.2684 93.3164 L 47.2684 93.3164 ZM 182.4084 93.3164 C 169.0002 77.4928 152.0637 68.9587 138.3027 64.336 C 133.7157 80.2486 120.925 134.4757 148.1824 164.1673 C 146.1534 140.3429 186.1133 122.208 182.4084 93.3164 L 182.4084 93.3164 Z" stroke="#324050" stroke-width="3" fill="#8a8c8e"/>
						<path id="st155" d="M 133.5393 196.4369 C 133.5393 196.4369 145.7124 192.1699 147.3002 174.2127 " stroke="#324050" stroke-width="3" fill="none"/>
						<path id="st156" d="M 142.5368 172.5237 C 142.5368 172.5237 148.0941 172.5237 150.2994 177.3241 " stroke="#324050" stroke-width="3" fill="none"/>
						<path id="st157" d="M 96.314 196.4369 C 96.314 196.4369 84.1408 192.1699 82.553 174.2127 " stroke="#324050" stroke-width="3" fill="none"/>
						<path id="st158" d="M 87.3164 172.5237 C 87.3164 172.5237 81.7591 172.5237 79.5538 177.3241 " stroke="#324050" stroke-width="3" fill="none"/>
						<path id="st17" d="M 134.686 118.0298 C 134.686 108.3086 141.9922 100.4282 151.0051 100.4282 C 160.018 100.4282 167.3242 108.3086 167.3242 118.0298 C 167.3242 127.751 160.018 135.6314 151.0051 135.6314 C 141.9922 135.6314 134.686 127.751 134.686 118.0298 Z" fill="#324050"/>
						<path id="st18" d="M 151.2697 104.6064 C 150.8287 104.6064 150.3876 104.6064 149.8584 104.6952 C 153.4751 107.0955 155.8568 111.2737 155.8568 116.163 C 155.8568 123.0969 151.0051 128.7863 144.7421 129.4975 C 146.5945 130.7421 148.888 131.4532 151.2697 131.4532 C 158.1502 131.4532 163.7076 125.4083 163.7076 118.0298 C 163.7076 110.6514 158.1502 104.6064 151.2697 104.6064 L 151.2697 104.6064 Z" fill="#ffffff"/>
						<path id="st182" d="M 158.1502 112.7849 C 158.1502 115.3629 156.1214 117.4964 153.7397 117.4964 C 151.2697 117.4964 149.3291 115.3629 149.3291 112.7849 C 149.3291 110.2069 151.358 108.0733 153.7397 108.0733 C 156.1214 108.1622 158.1502 110.2069 158.1502 112.7849 L 158.1502 112.7849 Z" fill="#ffffff"/>
						<path id="st172" d="M 62.4408 118.0298 C 62.4408 108.3086 69.747 100.4282 78.7599 100.4282 C 87.7729 100.4282 95.079 108.3086 95.079 118.0298 C 95.079 127.751 87.7729 135.6314 78.7599 135.6314 C 69.747 135.6314 62.4408 127.751 62.4408 118.0298 Z" fill="#324050"/>
						<path id="st19" d="M 127.4527 185.147 C 127.4527 190.303 121.5425 194.4812 114.2209 194.4812 C 106.8994 194.4812 100.9892 190.303 100.9892 185.147 C 100.9892 179.991 106.8994 175.8128 114.2209 175.8128 C 121.5425 175.7239 127.4527 179.991 127.4527 185.147 L 127.4527 185.147 Z" stroke="#324050" stroke-width="3" fill="#77787b"/>
						<path id="st173" d="M 123.5714 185.147 C 123.5714 187.3694 122.16 189.2363 120.4839 189.2363 C 118.7197 189.2363 117.3966 187.3694 117.3966 185.147 C 117.3966 182.9246 118.8079 181.0578 120.4839 181.0578 C 122.16 181.1467 123.5714 182.9246 123.5714 185.147 L 123.5714 185.147 Z" fill="#324050"/>
						<path id="st174" d="M 111.6628 185.147 C 111.6628 187.3694 110.2514 189.2363 108.5754 189.2363 C 106.8112 189.2363 105.488 187.3694 105.488 185.147 C 105.488 182.9246 106.8994 181.0578 108.5754 181.0578 C 110.2514 181.1467 111.6628 182.9246 111.6628 185.147 L 111.6628 185.147 Z" fill="#324050"/>
						<path id="st183" d="M 78.3188 104.6064 C 78.7599 104.6064 79.201 104.6064 79.7303 104.6952 C 76.1136 107.0955 73.7319 111.2737 73.7319 116.163 C 73.7319 123.0969 78.5835 128.7863 84.8465 129.4975 C 82.9941 130.7421 80.7005 131.4532 78.3188 131.4532 C 71.4383 131.4532 65.881 125.4083 65.881 118.0298 C 65.881 110.6514 71.4383 104.6064 78.3188 104.6064 L 78.3188 104.6064 Z" fill="#ffffff"/>
						<path id="st184" d="M 71.4383 112.7849 C 71.4383 115.3629 73.4672 117.4964 75.8489 117.4964 C 78.3188 117.4964 80.2595 115.3629 80.2595 112.7849 C 80.2595 110.2069 78.2306 108.0733 75.8489 108.0733 C 73.4672 108.1622 71.4383 110.2069 71.4383 112.7849 L 71.4383 112.7849 Z" fill="#ffffff"/>
					</g>
				</g>
			</g>
			<g>
				<path id="st185" d="M 114.2209 239.2853 L 147.1238 258.7537 L 146.2416 295.7349 L 113.5152 315.9145 L 81.4944 296.8905 L 81.0534 257.4203 L 114.2209 239.2853 L 114.2209 239.2853 Z" fill="#ffffff"/>
				<path id="st20" d="M 78.8481 256.798 L 78.8481 298.224 L 113.3388 318.4036 L 114.2209 318.4036 L 148.888 298.224 L 148.888 256.9758 L 114.662 237.0629 L 113.0742 237.0629 L 78.8481 256.798 L 78.8481 256.798 ZM 113.7799 241.3299 L 144.9185 259.2871 L 144.9185 295.8238 L 113.7799 313.7809 L 83.0823 295.8238 L 83.0823 259.1093 L 113.7799 241.3299 L 113.7799 241.3299 Z" stroke="#324050" stroke-width="3" fill="#324050"/>
				<path id="st21" d="M 113.7799 247.8193 L 87.7575 262.3985 L 87.7575 274.044 L 132.6571 284.8005 L 132.6571 288.3564 L 113.7799 299.3796 L 94.8144 288.8898 L 94.8144 284.0005 L 87.6692 281.3336 L 87.6692 292.3568 L 113.6917 307.3804 L 139.7141 292.6235 L 139.7141 280.7113 L 95.079 269.7769 L 95.079 266.3989 L 113.7799 255.3756 L 133.0982 266.1322 L 133.0982 270.8437 L 139.9787 273.7773 L 139.9787 262.5763 L 113.7799 247.8193 L 113.7799 247.8193 Z" stroke="#324050" stroke-width="3" fill="#ef3e3a"/>
			</g>
		</g>
		<rect x="0" y="0" width="220" height="140" stroke="#bbbbbb" stroke-width="1" fill="none"/>
	</g>
	<g id="Layer%201">
	</g>
</svg>