<?xml version="1.0" standalone="no"?>
<!-- Generator: Adobe Fireworks 10, Export SVG Extension by Aaron Beall (http://fireworks.abeall.com) . Version: 0.6.1  -->
<!DOCTYPE svg PUBLIC "-//W3C//DTD SVG 1.1//EN" "http://www.w3.org/Graphics/SVG/1.1/DTD/svg11.dtd">
<svg id="coinex_220_140.fw-Page%201" viewBox="0 0 220 140" style="background-color:#000040" version="1.1"
	xmlns="http://www.w3.org/2000/svg" xmlns:xlink="http://www.w3.org/1999/xlink" xml:space="preserve"
	x="0px" y="0px" width="220px" height="140px"
>
	<g id="Background">
		<g id="5dac68e%20%281%29">
			<path id="path9" d="M 52.0445 63.4753 C 48.1961 59.6824 42.0791 59.6824 38.2713 63.4753 C 34.4619 67.3088 34.5024 73.5491 38.3103 77.3826 C 42.1197 81.2161 48.3176 81.2568 52.1255 77.4232 C 52.19 77.357 52.4571 77.062 52.9282 76.5352 L 48.3371 71.9055 C 47.8645 72.4579 47.614 72.7468 47.5869 72.7739 C 46.2911 74.0786 44.1852 74.0786 42.8893 72.7739 C 41.593 71.469 41.593 69.3483 42.8488 68.084 C 44.1046 66.8197 46.2096 66.8197 47.5074 68.1246 L 59.7863 80.4771 C 56.4255 85.3718 50.7887 88.4753 44.7123 88.4753 C 34.6644 88.4753 26.483 80.1972 26.483 70 C 26.483 59.8043 34.6644 51.5247 44.7123 51.5247 C 50.4949 51.5303 55.9278 54.3037 59.3362 58.9901 C 58.7946 59.6222 57.4112 61.2101 55.1847 63.7553 L 59.7158 68.3037 L 67.2355 59.7637 C 63.3127 50.7954 54.475 45.0024 44.7123 45 C 31.0576 45 20 56.2161 20 70 C 20 83.7854 31.0591 95 44.7108 95 C 50.9102 95 56.0549 93.0434 61.0796 88.7191 C 65.6557 84.8058 67.8072 79.3754 67.8072 79.3754 L 52.0445 63.4753 Z" fill="#ffffff"/>
			<path id="path11" d="M 186.3303 73.8832 L 178.9066 63.1577 L 185.046 63.1577 C 185.226 63.4588 185.4916 63.8712 185.8382 64.3964 C 186.6833 65.6727 187.5275 66.9495 188.3708 68.227 C 188.7759 68.8381 189.0639 69.2911 189.235 69.5846 L 189.4825 70.0105 L 193.8936 63.1577 L 199.7344 63.1577 L 192.4427 73.7041 L 200 84.702 L 193.9341 84.702 L 189.28 77.6595 L 189.0279 78.0313 C 188.8224 78.3338 188.5163 78.8004 188.1082 79.4341 C 187.7001 80.0632 187.265 80.7315 186.7999 81.4359 C 186.3333 82.1433 185.8952 82.8116 185.4871 83.4437 C 185.1405 83.981 184.8765 84.3995 184.6964 84.702 L 178.9036 84.702 L 186.3303 73.8847 L 186.3303 73.8832 ZM 176.1864 59.3468 L 162.3937 59.3468 L 162.3937 67.1779 L 175.7874 67.1779 L 175.7874 72.0394 L 162.3937 72.0394 L 162.3937 79.842 L 176.1879 79.842 L 176.1879 84.7035 L 157.2025 84.7035 L 157.2025 54.4822 L 176.1894 54.4822 L 176.1894 59.3438 L 176.1864 59.3468 ZM 123.7492 63.1607 L 128.5713 63.1607 L 128.5713 84.705 L 123.7492 84.705 L 123.7492 63.1592 L 123.7492 63.1607 ZM 109.886 79.9172 C 113.2153 79.9172 115.9129 77.2381 115.9129 73.9329 C 115.9129 70.6276 113.2153 67.9485 109.886 67.9485 C 106.5567 67.9485 103.8591 70.6276 103.8591 73.9329 C 103.8591 77.2381 106.5567 79.9172 109.886 79.9172 L 109.886 79.9172 ZM 109.886 84.705 C 103.8936 84.705 99.0369 79.8826 99.0369 73.9329 C 99.0369 67.9846 103.8936 63.1607 109.8845 63.1607 C 115.8784 63.1607 120.735 67.9846 120.735 73.9329 C 120.735 79.8826 115.8784 84.705 109.886 84.705 L 109.886 84.705 ZM 102.6228 60.3612 C 101.0098 61.1975 99.5602 62.3187 98.3438 63.671 C 96.4664 61.0877 93.4692 59.5628 90.2824 59.5695 C 84.7956 59.5695 80.3471 63.9901 80.3471 69.4431 C 80.3471 74.8961 84.7956 79.3167 90.2824 79.3167 C 91.998 79.32 93.6853 78.8788 95.181 78.0358 C 95.7189 79.7689 96.5686 81.3886 97.6881 82.8146 C 95.417 84.0584 92.87 84.7081 90.2824 84.7035 C 81.8024 84.7035 74.9278 77.8703 74.9278 69.4431 C 74.9278 61.0145 81.8024 54.1842 90.2824 54.1842 C 95.3386 54.1842 99.8246 56.6135 102.6228 60.3612 L 102.6228 60.3612 ZM 153.8762 72.7995 L 153.8762 84.7035 L 148.9926 84.7035 L 148.9926 72.5421 C 148.4975 69.7456 146.0219 67.6204 143.0437 67.6204 C 140.019 67.6204 137.5134 69.8119 137.0723 72.6701 L 137.0723 84.7035 L 132.1887 84.7035 L 132.1887 63.1051 L 135.9335 65.4681 C 137.9191 63.7785 140.44 62.8543 143.0437 62.8612 C 148.784 62.8612 153.4861 67.2456 153.8882 72.801 L 153.8762 72.801 L 153.8762 72.7995 Z" fill="#ffffff"/>
			<path id="path13" d="M 122.846 57.4413 C 122.846 56.5578 123.1701 55.7947 123.8197 55.1505 C 124.4316 54.5217 125.2739 54.1724 126.1498 54.1842 C 127.0332 54.1693 127.8842 54.5186 128.5038 55.1505 C 129.152 55.7796 129.476 56.5503 129.476 57.4639 C 129.476 58.3775 129.152 59.1571 128.5038 59.8013 C 127.8692 60.4455 127.0935 60.7661 126.1723 60.7661 C 125.2894 60.7814 124.439 60.4326 123.8197 59.8013 C 123.1819 59.1849 122.829 58.3296 122.846 57.4413 L 122.846 57.4413 Z" fill="#ffffff"/>
		</g>
	</g>
</svg>