<?xml version="1.0" standalone="no"?>
<!-- Generator: Adobe Fireworks 10, Export SVG Extension by Aaron Beall (http://fireworks.abeall.com) . Version: 0.6.1  -->
<!DOCTYPE svg PUBLIC "-//W3C//DTD SVG 1.1//EN" "http://www.w3.org/Graphics/SVG/1.1/DTD/svg11.dtd">
<svg id="crescent_cash_220_140.fw-Page%201" viewBox="0 0 220 140" style="background-color:#ffffff" version="1.1"
	xmlns="http://www.w3.org/2000/svg" xmlns:xlink="http://www.w3.org/1999/xlink" xml:space="preserve"
	x="0px" y="0px" width="220px" height="140px"
>
	<g id="Background">
		<rect x="0" y="0" width="220" height="140" stroke="#bbbbbb" stroke-width="1" fill="none"/>
		<path d="M 59.5 70 C 59.5 100.3761 84.1646 125 114.5909 125 C 119.8555 125 124.9467 124.2638 129.7685 122.8871 C 103.1854 120.15 82.4545 97.7211 82.4545 70.4583 C 82.4545 42.3983 104.4148 19.4604 132.1144 17.8417 C 126.6092 15.9988 120.7178 15 114.5909 15 C 84.1646 15 59.5 39.6239 59.5 70 Z" fill="#22cc76"/>
		<path d="M 89.8 70 C 89.8 92.782 108.2006 111.25 130.8996 111.25 C 134.8272 111.25 138.6254 110.6978 142.2226 109.6653 C 122.3907 107.6125 106.9248 90.7908 106.9248 70.3438 C 106.9248 49.2987 123.3079 32.0953 143.9727 30.8812 C 139.8656 29.4991 135.4704 28.75 130.8996 28.75 C 108.2006 28.75 89.8 47.218 89.8 70 Z" fill="#22cc76"/>
		<path id="Ellipse" d="M 116.4273 70 C 116.4273 57.8496 126.2931 48 138.4636 48 C 150.6341 48 160.5 57.8496 160.5 70 C 160.5 82.1504 150.6341 92 138.4636 92 C 126.2931 92 116.4273 82.1504 116.4273 70 Z" fill="#22cc76"/>
	</g>
	<g id="Layer%201">
	</g>
</svg>