<?xml version="1.0" standalone="no"?>
<!-- Generator: Adobe Fireworks 10, Export SVG Extension by Aaron Beall (http://fireworks.abeall.com) . Version: 0.6.1  -->
<!DOCTYPE svg PUBLIC "-//W3C//DTD SVG 1.1//EN" "http://www.w3.org/Graphics/SVG/1.1/DTD/svg11.dtd">
<svg id="got_spice.fw-Page%201" viewBox="0 0 208 336" style="background-color:#ffffff00" version="1.1"
	xmlns="http://www.w3.org/2000/svg" xmlns:xlink="http://www.w3.org/1999/xlink" xml:space="preserve"
	x="0px" y="0px" width="208px" height="336px"
>
	<g id="Layer%201">
		<text visibility="hidden" x="0" y="329" width="211" fill="#211f1f" style="font-size: 68px; font-family: RIO & MA; color: #211f1f; text-align: center; "><tspan><![CDATA[GOT]]></tspan><tspan style="color: #ffff04; "><![CDATA[ ]]></tspan><tspan style="color: #eb1e26; "><![CDATA[SPICE?]]></tspan></text>
		<g>
			<path d="M 86.2247 252 C 86.7105 248.6893 87.1133 245.0851 87.3937 241.1789 L 87.3937 216.8217 C 87.3937 216.8217 79.8943 212.7621 78.1637 205.223 C 76.433 197.6839 79.3174 194.7842 79.3174 194.7842 C 79.3174 194.7842 81.9134 190.1448 93.1625 186.6652 C 93.1625 186.6652 86.5284 182.6056 82.7787 169.2672 C 82.7787 169.2672 75.5677 157.6685 77.0099 149.5494 C 77.0099 149.5494 73.1641 142.2036 67.3953 139.1106 C 63.9681 137.2731 60.088 130.6048 66.6261 124.0324 C 67.0107 123.6458 64.7032 118.233 69.3182 111.2738 C 69.3182 111.2738 75.2793 102.8648 85.0862 98.5153 C 85.0862 98.5153 83.3556 85.7568 88.5475 76.4778 C 93.7394 67.1989 97.7776 64.8792 97.7776 64.8792 C 97.7776 64.8792 103.8348 60.5297 105.8539 60.2397 L 111.6227 63.7193 L 123.1602 63.7193 C 123.1602 63.7193 119.4105 57.0501 102.3926 55.6003 C 102.3926 55.6003 96.6238 50.9608 122.0065 49.8009 C 122.0065 49.8009 100.9504 36.1725 112.7764 16.1648 C 112.7764 16.1648 120.2758 32.4029 148.5429 39.3621 C 148.5429 39.3621 154.3117 40.812 162.388 45.1614 C 162.388 45.1614 162.6765 22.834 137.0054 4.5661 C 137.0054 4.5661 143.0626 -2.6831 153.158 1.0865 C 163.2533 4.8561 167.0031 31.243 167.0031 31.243 C 167.0031 31.243 167.5799 35.8825 167.0031 47.4812 C 167.0031 47.4812 176.8099 45.1614 183.1556 47.4812 C 183.1556 47.4812 175.3678 49.8009 173.9256 52.1207 C 173.9256 52.1207 188.9244 50.9608 195.847 54.4404 C 202.7695 57.92 207 57.1467 207 57.1467 C 207 57.1467 194.3087 78.7009 194.3087 77.831 C 194.3087 76.9611 191.2319 79.9574 191.2319 79.9574 L 200.462 81.1173 C 200.462 81.1173 200.7504 84.017 195.847 88.0765 L 190.0782 88.0765 C 190.0782 88.0765 194.6932 104.3146 194.6932 112.4337 C 194.6932 112.4337 196.4238 129.9283 198.1545 132.538 C 198.1545 132.538 206.2531 165.711 198.1545 185.1187 C 194.6797 193.4457 191.6166 198.6505 190.4628 202.9033 C 190.4628 202.9033 189.7897 225.9408 178.5406 252.6177 L 86.2247 252 Z" stroke="#000000" stroke-width="2" fill="#221f20"/>
			<path d="M 90.967 252 C 92.8901 237.3875 93.1625 222.4612 93.1625 222.4612 C 120.8527 230.5802 118.5452 223.621 118.5452 223.621 C 118.5452 223.621 96.8161 224.201 85.0862 208.5428 C 85.0862 208.5428 76.8176 195.7842 94.3163 192.3046 L 95.47 198.104 L 95.47 199.2638 L 90.855 199.2638 L 92.0088 201.5836 C 92.0088 201.5836 107.7768 220.9147 143.9279 215.502 C 180.0789 210.0892 201.808 190.1299 183.9248 144.7501 L 188.9244 141.6571 L 181.2327 141.6571 C 166.8107 168.7207 140.4666 176.0665 140.4666 176.0665 C 96.8161 185.5388 81.6249 159.8284 81.6249 159.8284 C 81.6249 159.8284 87.2014 163.5013 89.7012 163.308 C 92.201 163.1146 84.5093 159.2484 83.9325 157.5086 C 83.3556 155.7688 85.0862 156.3488 85.0862 156.3488 C 96.6238 162.5347 104.7001 160.9883 104.7001 160.9883 C 120.8527 162.9214 127.7753 154.029 127.7753 154.029 C 132.0057 160.0217 146.2354 162.1481 146.2354 162.1481 L 138.1591 169.1073 L 142.7741 169.1073 C 142.7741 169.1073 168.1568 158.4752 171.618 149.3896 C 175.0793 140.304 177.3868 135.4712 177.3868 135.4712 L 193.5394 130.8317 C 193.5394 130.8317 218.153 194.6244 162.388 218.9816 C 162.388 218.9816 167.5799 223.0411 185.4631 208.5428 C 185.4631 208.5428 179.667 233.4574 171.965 252 " stroke="#ed1e26" stroke-width="1" fill="#ca151f"/>
			<path d="M 162.437 252 C 166.0973 244.1182 168.859 234.5461 168.7336 223.3311 C 168.7336 223.3311 155.7539 232.9 140.4666 232.9 C 125.1793 232.9 103.5464 230.2903 103.5464 230.2903 L 102.3926 231.7401 C 102.3926 231.7401 102.9431 241.9793 102.6986 252 " fill="#ed1e26"/>
			<path d="M 111.8474 252 L 112.7764 239.8592 C 112.7764 239.8592 122.5834 231.4501 128.929 243.3388 C 128.929 243.3388 129.5706 245.8113 127.5983 252 " stroke="#ffffff00" stroke-width="1" fill="#f79274"/>
			<path d="M 145.0817 215.502 C 145.0817 215.502 152.8695 216.3719 158.9268 216.6618 C 164.9839 216.9518 149.1198 222.1712 149.1198 222.1712 C 149.1198 222.1712 120.8527 226.2307 105.8539 221.3013 C 90.855 216.3719 92.0088 209.7026 92.0088 209.7026 C 92.0088 209.7026 92.8741 206.513 95.47 207.3829 C 98.066 208.2528 101.2388 209.7026 101.2388 209.7026 C 101.2388 209.7026 112.488 214.3421 115.0839 214.3421 C 117.6799 214.3421 125.1793 218.1117 145.0817 215.502 Z" stroke="#ffffff00" stroke-width="1" fill="#ed1d25"/>
			<path d="M 131.2366 220.1414 C 131.2366 220.1414 131.8134 223.0411 122.0065 222.4612 C 112.1995 221.8812 105.8539 216.6618 105.8539 216.6618 C 105.8539 216.6618 101.8157 212.8923 109.3151 213.1822 C 109.3151 213.1822 114.7955 217.8217 128.929 218.9816 C 133.5308 219.3592 131.2366 220.1414 131.2366 220.1414 Z" stroke="#ffffff00" stroke-width="1" fill="#f49678"/>
			<path d="M 107.0076 191.1448 L 104.7001 189.9849 L 98.2102 193.7545 C 97.7776 202.4535 100.0851 201.5836 100.0851 201.5836 L 100.8062 200.4237 L 101.2388 200.4237 L 101.2388 202.7434 C 102.5368 209.5577 117.3914 210.8625 117.3914 210.8625 L 118.5452 209.7026 L 118.5452 205.0632 L 118.8336 203.1784 L 119.1221 202.8884 L 120.1316 210.4276 C 131.0923 216.5168 143.9279 212.0224 143.9279 212.0224 L 144.9374 209.4127 L 145.8027 206.368 L 146.2354 206.223 L 146.2354 210.8625 C 158.4941 210.7175 163.5417 205.0632 163.5417 205.0632 L 163.8302 201.2936 L 164.6956 200.7137 L 165.8492 202.7434 C 170.897 201.5836 178.5406 192.3046 178.5406 192.3046 L 176.2331 189.9849 C 176.2331 189.9849 144.0721 206.513 104.7001 193.4645 L 107.0076 191.1448 Z" stroke="#000000" stroke-width="1" fill="#ffffff"/>
			<path d="M 179.6943 162.1481 C 179.6943 162.1481 178.829 182.0108 133.5441 189.9849 C 133.5441 189.9849 103.4021 192.7396 90.855 181.8658 L 87.3937 174.9066 L 89.7012 171.427 C 89.7012 171.427 94.749 177.2264 97.7776 177.2264 L 97.7776 180.706 L 98.9313 179.5461 L 98.9313 177.2264 C 98.9313 177.2264 102.1041 180.706 115.0839 181.8658 L 117.3914 184.1856 L 117.3914 185.3454 L 118.5452 183.0257 L 119.699 181.8658 C 119.699 181.8658 135.2747 183.4606 146.2354 179.5461 L 147.3892 181.8658 L 148.5429 180.706 L 148.5429 178.3862 C 148.5429 178.3862 163.1091 171.2821 168.1568 165.6277 L 169.3105 170.2672 L 169.3105 165.6277 L 169.3105 163.308 C 169.3105 163.308 176.5215 158.3785 177.3868 151.7093 L 179.6943 152.8692 L 179.6943 162.1481 Z" stroke="#000000" stroke-width="1" fill="#fdfdfd"/>
			<path d="M 120.8527 162.1481 C 120.8527 162.1481 127.7753 157.3636 133.5441 162.1481 C 133.5441 162.1481 136.5726 165.0478 130.0828 169.1073 C 130.0828 169.1073 128.929 170.7021 140.4666 170.2672 L 145.0817 169.1073 L 143.9279 171.427 C 143.9279 171.427 140.4666 174.3267 123.1602 176.0665 C 105.8539 177.8063 96.6238 170.2672 96.6238 170.2672 C 96.6238 170.2672 95.1816 168.6724 96.6238 167.9474 C 96.6238 167.9474 95.6143 166.2076 103.5464 166.7876 L 102.1041 163.308 C 102.1041 163.308 113.4975 164.0329 120.8527 162.1481 Z" fill="#ed1e26"/>
			<path d="M 123.1602 169.1073 C 123.1602 169.1073 116.2377 170.2672 113.9302 169.1073 C 111.6227 167.9474 113.9302 165.6277 113.9302 165.6277 C 113.9302 165.6277 117.9683 162.3414 124.314 166.7876 C 124.314 166.7876 125.0832 168.1408 123.1602 169.1073 Z" stroke="#ffffff00" stroke-width="1" fill="#f79274"/>
			<path d="M 133.5441 120.3929 C 133.5441 120.3929 117.5837 88.3033 89.7012 102.9949 C 61.8188 117.6866 75.8561 141.2705 75.8561 141.2705 C 75.8561 141.2705 86.4323 157.702 105.8539 157.5086 C 125.2755 157.3153 125.4678 149.3896 125.4678 149.3896 L 124.314 147.0698 C 124.314 147.0698 117.1991 159.4418 96.6238 150.5494 C 96.6238 150.5494 79.702 143.2036 92.0088 122.7126 C 92.0088 122.7126 97.5852 116.5267 107.0076 114.5936 C 116.43 112.6605 127.7753 125.0324 127.7753 125.0324 L 133.5441 120.3929 Z" stroke="#000000" stroke-width="1" fill="#ffffff"/>
			<path d="M 126.6215 129.6718 C 126.6215 129.6718 123.1602 134.3113 123.1602 141.2705 C 123.1602 148.2297 109.3151 149.3896 109.3151 149.3896 C 109.3151 149.3896 97.5852 150.3561 92.0088 141.2705 C 86.4323 132.1849 95.47 121.5528 95.47 121.5528 C 95.47 121.5528 102.9695 114.5936 112.7764 118.0732 C 122.5834 121.5528 126.2369 125.8056 126.6215 129.6718 Z" stroke="#000000" stroke-width="1" fill="#ffff04"/>
			<path d="M 120.8527 140.1106 C 120.8527 140.1106 117.776 147.2632 104.7001 147.0698 C 104.7001 147.0698 96.6238 145.1367 95.47 141.2705 C 94.3163 137.4043 100.0851 138.9508 100.0851 138.9508 C 100.0851 138.9508 101.0465 143.5902 105.8539 143.5902 C 110.6612 143.5902 116.6223 142.0438 118.5452 140.1106 C 120.4681 138.1775 120.8527 140.1106 120.8527 140.1106 Z" stroke="#ffffff00" stroke-width="1" fill="#fcda00"/>
			<path d="M 95.47 126.1922 C 95.47 126.1922 89.1244 133.9247 95.47 142.4304 L 100.0851 138.9508 C 100.0851 138.9508 98.9313 132.1849 100.0851 129.6718 C 101.2388 127.1588 95.47 126.1922 95.47 126.1922 Z" stroke="#ffffff00" stroke-width="1" fill="#fdc50d"/>
			<path d="M 100.0851 130.8317 L 94.6047 127.9321 C 94.6047 127.9321 96.6238 119.6197 107.0076 120.3929 C 117.3914 121.1661 121.6219 126.5789 122.3911 126.3856 C 123.1602 126.1922 119.8912 129.8652 119.8912 129.8652 C 119.8912 129.8652 113.5456 121.3594 105.8539 126.1922 C 98.1621 131.0251 100.0851 130.8317 100.0851 130.8317 Z" fill="#eaa319"/>
			<path d="M 97.7776 123.8725 L 97.7776 125.0324 L 100.0851 126.1922 L 102.3926 125.0324 L 104.7001 123.8725 L 105.8539 121.5528 L 104.7001 120.3929 L 102.3926 119.233 L 100.0851 120.3929 L 98.9313 121.5528 L 97.7776 123.8725 Z" fill="#ffff92"/>
			<path d="M 112.7764 141.2705 L 115.0839 141.2705 L 116.2377 142.4304 L 115.0839 144.7501 L 112.7764 145.91 L 110.4689 145.91 L 108.1614 145.91 L 108.1614 144.7501 L 109.3151 143.5902 L 110.4689 142.4304 L 112.7764 141.2705 Z" fill="#fdf583"/>
			<path d="M 106.3926 131.1514 C 106.3926 131.1514 110.8153 123.419 116.7764 125.3521 C 122.7375 127.2852 121.3914 132.3113 121.3914 132.3113 C 121.3914 132.3113 121.776 136.3708 117.9302 138.1106 C 114.0844 139.8504 108.7001 138.1106 108.7001 138.1106 C 108.7001 138.1106 107.354 136.9508 106.3926 135.7909 C 105.4312 134.631 106.3926 131.1514 106.3926 131.1514 Z" stroke="#000000" stroke-width="1" fill="#221f20"/>
			<path d="M 130.0828 106.4745 C 130.0828 106.4745 119.4105 95.1658 104.7001 93.716 C 104.7001 93.716 92.8741 94.2959 89.7012 97.1956 C 89.7012 97.1956 88.8359 83.2772 92.0088 79.7976 C 92.0088 79.7976 96.0469 73.4183 103.5464 73.9982 C 111.0458 74.5782 123.1602 93.716 123.1602 93.716 C 123.1602 93.716 126.3331 98.0655 130.0828 98.3554 C 133.8325 98.6454 137.0054 94.8759 137.0054 94.8759 C 137.0054 94.8759 141.3319 87.9166 140.4666 78.6377 L 133.5441 83.2772 C 133.5441 83.2772 124.0255 72.2584 119.699 70.5186 C 115.3723 68.7788 125.4678 69.3588 125.4678 69.3588 C 125.4678 69.3588 132.9672 70.2287 134.6978 72.8384 C 134.6978 72.8384 138.4475 72.8384 130.0828 67.039 C 130.0828 67.039 160.3689 58.92 170.4643 68.1989 C 180.5597 77.4778 186.3285 88.4966 186.6169 91.3962 C 186.6169 91.3962 191.0397 108.8909 192.7703 126.5788 C 192.7703 126.5788 187.3861 130.4451 180.079 131.2183 L 175.0793 130.8317 C 175.0793 130.8317 175.0793 126.1922 171.618 121.5528 C 168.1568 116.9133 183.1556 116.9133 183.1556 116.9133 C 183.1556 116.9133 187.1938 118.6531 186.6169 119.233 C 186.6169 119.233 187.7707 113.1437 173.9256 113.4337 C 173.9256 113.4337 170.4643 113.1437 167.0031 116.9133 C 167.0031 116.9133 161.8112 113.7237 157.7729 114.5936 C 157.7729 114.5936 172.7719 101.835 172.7719 97.1956 C 172.7719 92.5561 183.4441 109.9541 183.1556 112.2738 C 183.1556 112.2738 186.04 111.4039 183.1556 97.1956 C 180.2712 82.9872 167.0031 78.6377 167.0031 78.6377 L 167.0031 80.9574 C 167.0031 80.9574 151.4273 78.9277 147.3892 87.9166 C 147.3892 87.9166 159.7921 82.4073 164.6956 85.5969 C 164.6956 85.5969 157.7729 96.9056 148.5429 99.5153 C 148.5429 99.5153 146.8123 101.835 142.7741 96.0357 C 142.7741 96.0357 133.2556 107.9243 139.3129 114.5936 L 139.3129 116.9133 C 139.3129 116.9133 132.9672 113.4337 134.6978 106.4745 C 134.6978 106.4745 134.4094 102.415 139.3129 96.0357 C 139.3129 96.0357 131.2366 100.3852 130.0828 106.4745 Z" stroke="#ed1e26" stroke-width="1" fill="#ca151f"/>
			<path d="M 129.7943 132.8615 C 129.7943 132.8615 134.6978 120.3929 147.3892 118.0732 C 160.0804 115.7534 167.0031 125.0324 167.0031 125.0324 C 167.0031 125.0324 175.0793 133.4414 167.5799 144.7501 C 162.5968 152.2643 164.4071 153.4491 147.3892 157.5086 C 147.3892 157.5086 132.9672 156.6387 130.0828 148.2297 C 128.7686 144.3983 128.1272 141.3969 128.0637 138.9508 C 127.9879 136.0281 129.7943 132.8615 129.7943 132.8615 Z" stroke="#000000" stroke-width="1" fill="#ffffff"/>
			<path d="M 137.0054 131.9916 C 137.0054 131.9916 142.4857 124.7424 149.1198 124.4524 C 155.7539 124.1625 161.2343 128.512 161.2343 128.512 C 161.2343 128.512 167.2915 134.8912 164.6956 142.4304 C 162.0995 149.9695 156.0424 151.9993 155.4655 151.7093 C 154.8885 151.4193 145.6585 156.0588 139.3129 149.3896 C 132.9672 142.7203 134.9863 137.5009 134.9863 137.5009 C 134.9863 137.5009 136.14 132.5715 137.0054 131.9916 Z" stroke="#000000" stroke-width="1" fill="#221f20"/>
			<path d="M 162.388 141.2705 C 162.388 141.2705 154.8885 149.6795 145.0817 148.2297 C 145.0817 148.2297 137.8707 145.33 137.0054 140.1106 C 136.14 134.8912 140.4666 131.9916 140.4666 131.9916 C 140.4666 131.9916 141.3319 127.9321 149.6967 126.1922 C 158.0614 124.4524 163.5417 134.3113 163.5417 134.3113 C 163.5417 134.3113 164.4071 139.5307 162.388 141.2705 Z" stroke="#000000" stroke-width="1" fill="#ffff04"/>
			<path d="M 160.6573 140.1106 C 160.6573 140.1106 157.7599 146.0363 148.1599 145.9074 C 148.1599 145.9074 141.8906 145.2008 141.0435 142.6237 C 140.1964 140.0466 143.9279 140.304 143.9279 140.304 C 143.9279 140.304 145.4775 143.588 149.007 143.588 C 152.5364 143.588 156.7457 141.0126 158.1575 139.724 C 159.5693 138.4355 160.6573 140.1106 160.6573 140.1106 Z" stroke="#ffffff00" stroke-width="1" fill="#fcda00"/>
			<path d="M 141.3834 131.9909 C 141.3834 131.9909 136.3846 137.1473 141.0435 142.817 L 144.1202 140.6906 C 144.1202 140.6906 143.9246 135.9855 144.7717 134.3103 C 145.6187 132.6352 141.3834 131.9909 141.3834 131.9909 Z" stroke="#ffffff00" stroke-width="1" fill="#fdc50d"/>
			<path d="M 144.5048 135.0846 L 140.7482 133.1507 C 140.7482 133.1507 142.2305 127.6098 149.8541 128.1252 C 157.4777 128.6407 159.5157 132.507 160.0804 132.3782 C 160.6452 132.2493 157.9653 135.0846 157.9653 135.0846 C 157.9653 135.0846 153.4208 128.3835 147.7737 131.605 C 142.1266 134.8264 144.5048 135.0846 144.5048 135.0846 Z" fill="#eaa319"/>
			<path d="M 143.0775 130.4447 L 143.0775 131.2178 L 144.7717 131.9909 L 146.4658 131.2178 L 148.1599 130.4447 L 149.007 128.8984 L 148.1599 128.1252 L 146.4658 127.3521 L 144.7717 128.1252 L 143.9246 128.8984 L 143.0775 130.4447 Z" fill="#ffff92"/>
			<path d="M 154.0894 142.0417 L 155.7834 142.0417 L 156.6306 142.8148 L 155.7834 144.3611 L 154.0894 145.1343 L 152.3953 145.1343 L 150.7011 145.1343 L 150.7011 144.3611 L 151.5482 143.588 L 152.3953 142.8148 L 154.0894 142.0417 Z" fill="#fdf583"/>
			<path d="M 140.0817 136.9508 C 140.0817 136.9508 141.2354 127.0919 148.158 131.1514 C 155.0804 135.211 147.0042 139.2705 147.0042 139.2705 C 147.0042 139.2705 142.6776 141.8802 140.0817 136.9508 Z" stroke="#000000" stroke-width="1" fill="#221f20"/>
			<path d="M 75.8561 126.1922 C 75.8561 126.1922 77.0099 138.9508 83.9325 141.2705 C 83.9325 141.2705 87.3937 146.1033 92.0088 150.5494 C 96.6238 154.9956 84.7017 148.6163 83.9325 147.0698 C 83.1633 145.5234 84.8939 143.5902 82.7787 142.4304 C 80.6635 141.2705 79.3174 142.4304 79.3174 142.4304 C 79.3174 142.4304 73.741 135.8578 75.8561 126.1922 Z" fill="#e6e6e6"/>
			<path d="M 94.3163 92.5561 C 94.3163 92.5561 90.2781 84.8237 97.7776 79.7976 C 105.277 74.7715 116.2377 90.2364 116.2377 90.2364 C 116.2377 90.2364 116.8146 92.7494 113.9302 92.5561 C 111.0458 92.3628 104.8925 90.8163 94.3163 92.5561 Z" fill="#ed1e26"/>
			<path d="M 97.7776 83.2772 C 97.7776 83.2772 100.4697 78.6377 104.7001 83.2772 C 108.9305 87.9166 103.5464 87.9166 103.5464 87.9166 C 103.5464 87.9166 100.2774 88.4966 97.7776 83.2772 Z" fill="#f79274"/>
			<path d="M 139.3129 69.3588 C 139.3129 69.3588 151.235 61.433 168.1568 72.8384 C 168.1568 72.8384 171.2335 78.2511 156.6192 78.6377 C 142.0049 79.0243 139.3129 69.3588 139.3129 69.3588 Z" stroke="#ffffff00" stroke-width="1" fill="#ed1e26"/>
			<path d="M 148.5429 72.8384 C 148.5429 72.8384 147.3892 69.1655 152.0042 69.3588 C 156.6192 69.5521 157.7729 71.6785 157.7729 71.6785 C 157.7729 71.6785 157.5807 73.8049 155.4655 73.9982 C 153.3502 74.1915 149.5043 74.5782 148.5429 72.8384 Z" stroke="#ffffff00" stroke-width="1" fill="#f79274"/>
			<path d="M 147.0046 92.5561 C 147.0046 92.5561 143.9279 87.7233 158.9268 86.7568 C 158.9268 86.7568 150.0812 94.8759 149.6967 94.8759 C 149.3121 94.8759 147.0046 96.229 147.0046 92.5561 Z" stroke="#ffffff00" stroke-width="1" fill="#ed1e26"/>
			<path d="M 148.5429 91.3962 C 148.5429 91.3962 148.7352 87.1434 153.158 90.2364 C 153.158 90.2364 151.235 95.2625 148.5429 91.3962 Z" stroke="#ffffff00" stroke-width="1" fill="#f79274"/>
			<path d="M 173.9256 122.7126 C 173.9256 122.7126 177.6753 118.3631 180.8481 120.3929 C 184.0209 122.4227 178.5406 125.0324 178.5406 125.0324 L 173.9256 122.7126 Z" stroke="#ffffff00" stroke-width="1" fill="#ed1e26"/>
			<path d="M 176.2331 121.5528 C 176.2331 121.5528 176.4254 117.2999 180.8481 120.3929 C 180.8481 120.3929 178.9252 125.419 176.2331 121.5528 Z" stroke="#ffffff00" stroke-width="1" fill="#f79274"/>
			<path d="M 120.8527 42.6818 C 120.8527 42.6818 111.6227 31.2765 113.9302 23.3507 C 113.9302 23.3507 111.6227 31.2765 145.0817 42.6818 C 145.0817 42.6818 159.6959 48.0945 165.8492 54.2805 L 167.0031 56.6003 C 167.0031 56.6003 176.0408 52.1541 201.6158 61.2397 L 192.3857 75.1581 C 192.3857 75.1581 193.3472 67.619 177.3868 62.3996 C 177.3868 62.3996 167.1953 59.4999 164.6956 62.3996 C 164.6956 62.3996 147.7737 43.6484 120.8527 42.6818 Z" stroke="#568e37" stroke-width="1" fill="#416b2a"/>
			<path d="M 124.314 54.2805 L 124.314 60.0798 C 124.314 60.0798 120.8527 55.4404 112.7764 55.4404 L 124.314 54.2805 Z" stroke="#568e37" stroke-width="1" fill="#416b2a"/>
			<path d="M 143.9279 7.8858 C 143.9279 7.8858 147.9661 5.1795 150.8505 5.5661 C 150.8505 5.5661 163.7341 21.6109 164.6956 39.2022 C 164.6956 39.2022 158.1575 18.3246 143.9279 7.8858 Z" stroke="#568e37" stroke-width="1" fill="#416b2a"/>
			<path d="M 169.3105 50.8009 C 169.3105 50.8009 175.2717 49.6411 177.3868 49.6411 L 171.618 51.9608 L 169.3105 50.8009 Z" stroke="#568e37" stroke-width="1" fill="none"/>
			<path d="M 188.9244 84.437 C 189.309 83.6638 197.0007 85.2103 198.1545 84.437 C 198.1545 84.437 197.1931 85.4036 190.0782 86.7568 C 190.0782 86.7568 188.5399 85.2103 188.9244 84.437 Z" stroke="#568e37" stroke-width="1" fill="#416b2a"/>
			<path d="M 135.8516 118.0732 C 135.8516 118.0732 105.8539 75.1581 75.8561 111.114 C 75.8561 111.114 69.7328 119.2935 69.7028 123.4859 C 69.691 125.1219 71.7219 125.0324 73.5486 126.1922 C 74.5284 126.8143 68.7913 126.644 68.9336 127.9321 C 68.9336 127.9321 62.588 133.7314 68.9336 135.4712 C 68.9336 135.4712 88.5475 126.1922 125.4678 136.631 C 125.4678 136.631 121.4296 131.4117 135.8516 118.0732 Z" stroke="#ed1e26" stroke-width="1" fill="#ca151f"/>
			<path d="M 171.618 137.7909 C 171.618 137.7909 180.2712 133.7314 172.7719 130.8317 C 172.7719 130.8317 158.3499 101.2551 132.3903 122.7126 C 132.3903 122.7126 128.3522 126.1922 126.6215 133.1514 C 126.6215 133.1514 118.5452 135.4712 126.6215 137.7909 C 126.6215 137.7909 138.1591 128.512 171.618 137.7909 Z" stroke="#ed1e26" stroke-width="1" fill="#ca151f"/>
			<path d="M 81.0481 113.4337 C 78.3453 115.6074 78.1637 119.233 78.1637 119.233 C 101.8157 109.9541 120.2758 122.7126 125.4678 121.5528 C 130.6597 120.3929 128.929 114.5936 128.929 114.5936 C 128.929 114.5936 103.5464 89.0765 87.3937 108.7942 C 87.3937 108.7942 83.9325 111.114 81.0481 113.4337 Z" fill="#ed1e26"/>
			<path d="M 98.3544 105.3146 C 98.3544 105.3146 99.8651 101.0808 112.2987 105.9862 C 125.8318 111.3255 116.2377 112.8538 116.2377 112.8538 C 116.2377 112.8538 101.5907 110.6868 98.3544 105.3146 Z" fill="#f79274"/>
			<path d="M 135.4348 125.9083 C 133.6631 127.5219 133.5441 130.2135 133.5441 130.2135 C 149.0483 123.3251 161.1492 132.7967 164.5526 131.9356 C 167.956 131.0746 166.8215 126.7693 166.8215 126.7693 C 166.8215 126.7693 150.1828 107.826 139.5945 122.464 C 139.5945 122.464 137.3256 124.1861 135.4348 125.9083 Z" fill="#ed1e26"/>
			<path d="M 144.5105 121.1724 C 144.5105 121.1724 147.8813 116.8523 155.4769 120.3114 C 164.9308 124.6167 160.0148 128.0609 160.0148 128.0609 C 160.0148 128.0609 146.1492 125.0472 144.5105 121.1724 Z" fill="#f79274"/>
		</g>
		<g>
			<path d="M 57.3921 225.0484 C 57.3921 225.0484 65.1946 231.4951 57.8511 242.0863 C 50.5076 252.6774 42.705 251.7564 42.705 251.7564 C 42.705 251.7564 36.2794 253.5984 32.1487 247.1516 C 32.1487 247.1516 32.6077 246.2306 27.559 244.3887 C 22.5103 242.5468 20.0624 242.8537 12.4129 235.6395 C 12.4129 235.6395 10.118 232.7231 10.118 225.9694 C 10.118 225.9694 8.2822 224.8949 6.9053 219.5226 C 6.9053 219.5226 6.5992 215.3782 8.7411 213.9968 C 8.7411 213.9968 6.1403 210.1594 6.9053 203.4056 C 6.9053 203.4056 8.7411 201.1032 12.4129 200.1823 C 12.4129 200.1823 3.6924 197.5728 3.2335 194.6564 C 3.2335 194.6564 0.1737 192.8145 3.6924 187.2887 C 7.2112 181.7629 26.1821 187.2887 26.1821 187.2887 C 26.1821 187.2887 35.2085 191.5866 37.1974 193.7355 C 37.1974 193.7355 35.2085 186.6747 39.0333 184.0653 C 42.858 181.4559 44.9999 181.7629 44.9999 181.7629 C 44.9999 181.7629 48.6716 182.9908 49.1306 187.7492 C 49.5896 192.5075 52.0375 193.7355 52.8024 194.6564 C 53.5674 195.5774 57.8511 200.1823 57.8511 200.1823 C 57.8511 200.1823 59.687 206.4755 59.228 214.9177 C 58.769 223.3599 57.3921 225.0484 57.3921 225.0484 Z" stroke="#000000" stroke-width="1" fill="#221f20"/>
			<path d="M 50.0486 233.3371 C 50.0486 233.3371 54.7913 230.8812 56.4742 226.8903 C 56.4742 226.8903 59.84 226.5833 59.228 235.6395 C 58.6161 244.6957 46.8358 249.454 46.8358 249.454 C 46.8358 249.454 40.2572 252.0634 36.2794 249.454 C 36.2794 249.454 33.6786 247.4586 33.9846 246.6911 C 33.9846 246.6911 40.7162 245.7701 42.2461 241.6258 C 42.2461 241.6258 34.9025 245.6166 33.0667 244.8492 C 31.2307 244.0817 23.4282 241.6258 23.4282 241.6258 L 18.8385 238.8629 C 18.8385 238.8629 13.4839 234.7185 12.8719 233.3371 C 12.2599 231.9556 10.73 229.0392 11.495 226.8903 C 11.495 226.8903 21.1334 234.4116 24.3462 234.7185 C 27.559 235.0255 31.2307 234.2581 31.2307 234.2581 C 31.2307 234.2581 33.9846 232.5696 33.9846 231.9556 C 33.9846 231.3416 38.7273 235.0255 37.6564 238.4024 C 36.5854 241.7793 30.7718 240.7048 30.7718 240.7048 C 30.7718 240.7048 23.1223 239.6303 19.7565 237.4814 C 19.7565 237.4814 21.8983 241.4723 33.9846 243.0072 C 33.9846 243.0072 40.4102 242.5468 39.4922 236.5605 C 38.5743 230.5742 34.4435 230.5742 34.4435 230.5742 C 34.4435 230.5742 34.4435 223.0529 27.559 220.4435 C 20.6744 217.8341 20.6744 216.7597 20.6744 216.7597 C 20.6744 216.7597 26.794 211.6944 27.1 209.8524 C 27.406 208.0105 27.8649 207.3965 27.1 203.4056 C 27.1 203.4056 30.9248 200.7962 30.7718 197.4193 C 30.7718 197.4193 27.253 202.0242 25.7231 202.0242 C 25.7231 202.0242 23.2753 200.0287 11.495 197.8798 C -0.2853 195.7309 4.6104 188.6702 4.6104 188.6702 C 4.6104 188.6702 4.9164 185.7538 13.7898 186.8282 C 22.6633 187.9027 27.559 190.0516 27.559 190.0516 L 34.4435 194.196 L 38.5743 196.4984 C 38.5743 196.4984 41.1752 207.857 43.623 208.471 C 43.623 208.471 45.1528 209.8524 49.5896 209.8524 C 49.5896 209.8524 43.7759 208.778 42.705 203.8661 C 42.705 203.8661 40.2572 198.6473 39.4922 195.5774 C 38.7273 192.5075 38.1153 188.6702 38.1153 188.6702 C 38.1153 188.6702 38.8802 185.7538 43.623 183.1443 C 43.623 183.1443 47.6007 181.7629 48.6716 192.354 C 48.6716 192.354 54.1793 199.4148 56.0152 200.1823 C 57.8511 200.9497 58.3101 214.9177 58.3101 214.9177 C 58.3101 214.9177 58.463 222.132 54.6383 226.8903 C 54.6383 226.8903 52.4964 231.1882 50.0486 233.3371 Z" fill="#ffffff"/>
			<path d="M 35.3615 200.1823 C 35.3615 200.1823 34.7495 204.3266 32.1487 207.0895 C 29.5479 209.8524 30.3128 215.9922 30.3128 217.2202 C 30.3128 218.4481 31.6897 220.904 31.6897 220.904 C 31.6897 220.904 30.1598 212.0013 33.0667 209.3919 C 33.0667 209.3919 32.4547 223.9739 41.7871 229.6532 C 41.7871 229.6532 33.5256 221.211 34.4435 206.629 C 34.4435 206.629 37.3503 203.5591 35.3615 200.1823 Z" fill="#221f20"/>
			<path d="M 14.2488 203.4056 C 14.2488 203.4056 20.5214 204.1731 21.1334 213.0758 C 21.1334 213.0758 18.8385 218.9086 13.7898 215.8387 C 8.7411 212.7688 9.2001 210.7734 9.2001 210.7734 L 8.2822 203.8661 C 8.2822 203.8661 12.4129 200.6427 13.7898 201.1032 C 13.7898 201.1032 20.5214 200.1823 25.2641 203.4056 C 25.2641 203.4056 27.406 211.2339 23.4282 212.1548 L 22.5103 211.6944 C 22.5103 211.6944 22.5103 205.7081 19.7565 204.7871 C 17.0026 203.8661 14.2488 203.4056 14.2488 203.4056 Z" stroke="#ffffff00" stroke-width="1" fill="#fdfdfd"/>
			<path d="M 37.1974 197.4193 C 37.1974 197.4193 17.2321 181.9931 5.0693 190.0516 C 5.0693 190.0516 15.052 184.4107 35.3615 197.4193 L 37.1974 197.4193 Z" fill="#e6e6e6"/>
			<path d="M 13.3309 204.7871 C 13.3309 204.7871 10.2328 206.3988 10.577 208.9314 C 10.577 208.9314 8.6264 205.7081 9.6591 205.2476 C 9.6591 205.2476 11.2655 203.1754 12.4129 203.4056 C 13.5603 203.6359 13.3309 204.7871 13.3309 204.7871 Z" fill="#e6e6e6"/>
			<path d="M 49.1306 207.0895 C 49.1306 207.0895 42.1313 196.6135 40.8691 189.5911 C 40.8691 189.5911 42.2461 200.0671 44.0819 204.7871 C 45.9178 209.507 48.7864 206.9744 49.1306 207.0895 Z" stroke="#ffffff00" stroke-width="1" fill="#e6e6e6"/>
			<path d="M 53.7203 232.4161 L 56.9332 229.1927 C 56.9332 229.1927 58.8838 233.3371 57.8511 236.1 C 57.8511 236.1 55.7857 232.4161 53.7203 232.4161 Z" stroke="#ffffff00" stroke-width="1" fill="#e6e6e6"/>
			<path d="M 18.8385 217.2202 C 18.8385 217.2202 30.0068 222.2855 31.6897 225.0484 C 33.3726 227.8113 32.1487 230.5742 32.1487 230.5742 C 32.1487 230.5742 32.1487 231.6487 31.2307 232.4161 C 30.3128 233.1836 27.1 233.3371 27.1 233.3371 L 24.3462 232.8766 C 24.3462 232.8766 16.2377 229.3463 16.0847 227.8113 C 15.9317 226.2763 16.0847 221.3645 18.8385 219.0621 C 18.8385 219.0621 13.6368 219.3691 14.7078 226.4298 C 14.7078 226.4298 10.73 227.3508 8.7411 219.9831 C 8.7411 219.9831 8.5881 215.5317 10.118 214.9177 C 11.6479 214.3037 9.9651 218.4481 18.8385 217.2202 Z" stroke="#ffffff00" stroke-width="1" fill="#ffffff"/>
			<path d="M 20.2155 219.5226 C 20.2155 219.5226 31.6897 225.2786 30.3128 226.8903 C 30.3128 226.8903 23.543 221.4796 19.7565 221.3645 L 20.2155 219.5226 Z" stroke="#ffffff00" stroke-width="1" fill="#e6e6e6"/>
		</g>
		<g>
			<path d="M 13.1342 186.4692 L 24.7542 179.7307 L 36.9351 186.794 L 36.855 200.2711 L 25.235 207.5779 L 13.2944 200.5958 L 13.1342 186.4692 Z" fill="#ffffff"/>
			<path d="M 24.9946 180.5426 L 36.2139 187.0375 L 36.2139 200.2711 L 24.9946 206.766 L 13.9355 200.2711 L 13.9355 186.9564 L 24.9946 180.5426 ZM 12.4129 186.1445 L 12.4129 201.1641 L 24.8343 208.471 L 25.1548 208.471 L 37.6564 201.1641 L 37.6564 186.2257 L 25.3151 179 L 24.7542 179 L 12.4129 186.1445 Z" stroke="#000000" stroke-width="1" fill="#000000"/>
			<path d="M 24.9946 182.897 L 15.6184 188.1741 L 15.6184 192.3959 L 31.8063 196.2929 L 31.8063 197.5919 L 24.9946 201.5701 L 18.1829 197.7543 L 18.1829 195.9681 L 15.6184 194.9939 L 15.6184 198.972 L 24.9946 204.4116 L 34.3707 199.0533 L 34.3707 194.7503 L 18.2629 190.8533 L 18.2629 189.6355 L 24.9946 185.6573 L 31.9666 189.5543 L 31.9666 191.2593 L 34.4508 192.3147 L 34.4508 188.2553 L 24.9946 182.897 Z" stroke="#221f20" stroke-width="1" fill="#ed1d25"/>
		</g>
		<g>
			<path d="M 9.6094 273.9531 C 9.6719 273.6719 9.75 273.375 9.8438 273.0625 C 10.2344 271.4375 10.8281 269.8906 11.6406 268.4531 C 12.1406 267.6406 12.625 267.4063 13.0781 267.7656 C 13.5313 268.1406 13.875 268.75 14.125 269.6094 C 14.3906 270.2031 15 270.5 15.9531 270.5 C 16.8906 270.5 17.7813 270.2813 18.625 269.8281 C 19.4531 269.375 19.7969 268.8281 19.6719 268.1719 C 19.0938 266.5 18.0781 265.375 16.6406 264.7813 C 15.2031 264.1875 13.6719 264.0781 12.0625 264.4219 C 10.0469 264.9375 8.4531 265.9688 7.2813 267.5 C 6.1094 269.0313 5.2188 270.7656 4.625 272.7031 C 4.4219 273.2656 4.25 273.8281 4.125 274.3906 C 3.5625 274.6406 3.2031 274.9688 3 275.375 C 2.7656 276.1563 2.9844 276.6406 3.6406 276.8281 C 3.1406 280.4531 2.9063 284.1094 2.9375 287.7656 C 2.9375 288.5625 2.9375 289.3594 2.9063 290.1719 C 2.6563 294.7656 2.875 299.2813 3.5625 303.75 C 3.8906 305.7031 4.5469 307.6406 5.5313 309.5781 C 6.5156 311.5156 8 312.7813 9.9688 313.375 C 11.8125 313.7969 13.5313 313.5938 15.125 312.75 C 16.7188 311.9063 17.8125 310.5781 18.4375 308.7344 C 19.8438 303.5469 20.75 298.2344 21.125 292.7969 L 21.2656 291.5938 C 21.8125 286 22.0781 280.375 22.0625 274.75 C 22.0625 274.5313 21.9375 274.375 21.7188 274.2656 C 21.5 274.1563 21.25 274.0781 20.9844 274.0313 C 20.7188 273.9844 20.5313 273.9531 20.4063 273.9531 L 9.6094 273.9531 L 9.6094 273.9531 ZM 13.8281 305.5469 C 13.7031 306.8281 13.4375 307.9688 13.0313 308.9688 C 12.8906 309.2344 12.8125 309.4375 12.7969 309.5625 C 12.75 309.6875 12.7031 309.75 12.6719 309.75 C 12.6406 309.7656 12.5625 309.7188 12.4688 309.5938 C 12.375 309.5156 12.2344 309.4063 12.0625 309.2656 C 11.7969 309.0781 11.5625 308.7969 11.375 308.4219 C 11.1719 308.0625 11 307.7188 10.8438 307.4063 C 10.7813 307.3281 10.7344 307.25 10.7031 307.1719 C 10.0313 305.7656 9.5469 304.2969 9.25 302.7344 C 8.2031 296.4844 7.9531 290.1563 8.5156 283.7188 C 8.5313 283.25 8.5469 282.75 8.5781 282.25 C 8.6406 280.5156 8.7969 278.7656 9.0469 277 L 16.5156 277 C 16.4844 284.2188 15.9688 291.4063 14.9531 298.5625 C 14.6719 300.4531 14.3594 302.3281 14.0313 304.1719 C 13.9375 304.6094 13.8594 305.0625 13.8281 305.5469 L 13.8281 305.5469 Z" fill="#211f1f"/>
			<path d="M 38.4531 266.7656 C 38.1563 266.2656 37.6406 266 36.9219 266 C 34.1719 264.5625 31.9531 264.7344 30.2344 266.4844 C 28.5156 268.2344 27.2031 270.5938 26.3125 273.5625 C 25.4219 276.5313 24.8594 279.0938 24.6094 281.2188 C 24.0156 286.3125 23.9688 291.4219 24.4375 296.5313 C 24.4375 296.6875 24.4531 296.8438 24.4688 297 C 24.6094 299.4063 24.9063 301.875 25.3438 304.4219 C 25.8125 306.9688 26.6875 309.2344 28 311.2188 C 29.0781 312.7188 30.4531 313.5625 32.1094 313.7656 C 33.7656 313.9375 35.3438 313.5156 36.8281 312.4844 C 38.4844 311.2031 39.75 309.4844 40.6563 307.3438 C 41.5469 305.2188 42.1563 303.125 42.5 301.0625 C 43.2813 295.5938 43.3125 290.125 42.6094 284.6563 C 42.2031 278.4219 40.8125 272.4531 38.4531 266.7656 L 38.4531 266.7656 ZM 36.2969 303.5313 C 36.1563 304.2813 36 305.0625 35.8281 305.875 C 35.6406 306.6875 35.4375 307.375 35.2031 307.9375 C 34.8594 308.7656 34.4688 309.5469 34 310.2969 C 33.8438 309.9844 33.625 309.6406 33.3438 309.2344 C 33.0938 308.8906 32.9063 308.5938 32.8125 308.375 C 32.4688 307.5938 32.2031 306.7813 31.9844 305.9531 C 31.7813 305.2031 31.5938 304.3438 31.4375 303.375 C 31.2656 302.4063 31.1094 301.4844 30.9844 300.625 C 30.9531 300.4063 30.9219 300.2031 30.8906 299.9844 C 30.375 296.4531 30.0938 292.9063 30.0469 289.3281 C 29.9531 285.5313 30.2188 281.75 30.8438 277.9844 C 31.1719 276.1875 31.6094 274.4063 32.1719 272.625 C 32.2188 272.4688 32.2813 272.2656 32.3438 272 C 32.5313 271.2969 32.7813 270.5156 33.0781 269.6406 C 35.5469 276.2969 36.875 283.1875 37.0313 290.3438 C 37.3281 294.4063 37.1563 298.4688 36.5 302.5156 C 36.4219 302.8281 36.3594 303.1563 36.2969 303.5313 L 36.2969 303.5313 Z" fill="#211f1f"/>
			<path d="M 58.4219 265.9063 L 54 265.9063 C 53.7344 265.3125 53.125 265 52.1875 265 C 51.25 265 50.3594 265.25 49.5156 265.7188 C 48.2969 265.8125 47.0938 265.9844 45.9063 266.2188 C 45.5938 266.2969 45.1875 266.4063 44.6875 266.5469 C 44.1875 266.7031 43.7344 266.9063 43.3125 267.1719 C 42.9063 267.4531 42.6719 267.7969 42.6094 268.2344 C 42.6094 268.6719 42.75 268.9844 43.0313 269.1875 C 43.3125 269.3906 43.6563 269.4844 44.0313 269.4844 L 45.0781 269.4844 C 46.1719 268.9531 47.2656 268.6875 48.3906 268.6875 C 49.0469 283.4375 49.0938 298.1719 48.5 312.8906 C 48.5313 313.6094 49.0156 314.0156 49.9375 314.0938 C 50.8438 314.1406 51.7656 314 52.6875 313.6406 C 53.6094 313.25 54.125 312.7813 54.2344 312.1563 C 54.7969 297.625 54.7813 283.1094 54.1719 268.5938 L 56.3594 268.5938 L 60.7813 268.5938 C 61.2813 268.5938 61.9688 268.5 62.8281 268.2969 C 63.6875 268.0938 64.2656 267.75 64.5625 267.2656 C 64.75 266.7656 64.6875 266.4219 64.375 266.2188 C 64.0625 266.0156 63.6094 265.9063 63.0313 265.9063 L 58.4219 265.9063 L 58.4219 265.9063 Z" fill="#211f1f"/>
			<path d="M 91.25 302.4375 C 91.5625 302.7344 91.8906 303.0156 92.25 303.2656 C 93.0781 303.9219 93.7813 304.6563 94.3438 305.4688 C 95.0156 306.7813 95.0313 307.875 94.375 308.7813 C 93.7188 309.6875 92.8438 310.4531 91.7188 311.0781 C 91.2031 311.3594 90.875 311.6875 90.7188 312.0469 C 90.5625 312.4219 90.7031 312.7969 91.1563 313.2031 C 91.4688 313.4375 91.8906 313.5313 92.4219 313.5 C 92.9375 313.4531 93.4531 313.3438 93.9844 313.1719 C 94.5 313 94.9063 312.8281 95.2031 312.6406 C 96.6406 311.8906 97.9688 310.875 99.2188 309.625 C 100.4531 308.375 100.9063 306.875 100.5781 305.0938 C 100.3594 304.2813 99.9688 303.5781 99.4219 302.9531 C 98.8594 302.3281 98.2813 301.75 97.6563 301.2188 C 97.5 301.0938 97.3438 300.9688 97.2188 300.8438 C 95.4219 299.2969 93.9844 297.4688 92.9063 295.375 C 90.8438 290.9531 90.25 286.3438 91.1094 281.5313 C 91.5469 279.0938 92.25 276.7344 93.2031 274.4219 C 93.625 273.3594 94.1094 272.3281 94.6406 271.2969 C 94.6719 271.2031 94.75 271.0156 94.875 270.7344 C 95.125 270.1406 95.4531 269.4688 95.8281 268.7031 C 96.3281 269.6875 96.5938 270.8594 96.625 272.2344 C 96.6406 273.6094 96.6094 274.8125 96.5313 275.8438 C 96.5 276.1875 96.5 276.4688 96.5 276.7188 C 96.4219 278.0625 96.3594 279.4219 96.2969 280.7656 L 95.9375 289.2344 C 95.9688 289.9688 96.4531 290.375 97.3594 290.4531 C 98.2656 290.5313 99.1719 290.375 100.1094 290 C 101.0469 289.625 101.5625 289.125 101.6719 288.5 C 101.7344 286.9688 101.8125 285.4531 101.875 283.9219 L 102.2656 274.7188 C 102.2656 274.4688 102.2813 274.2031 102.3125 273.9219 C 102.3906 272.6875 102.375 271.4375 102.2813 270.1719 C 102.1875 268.9219 101.7969 267.75 101.1406 266.6875 C 99.5 264.5938 97.3906 263.9844 94.8281 264.8906 C 93.3906 265.4219 92.25 266.2813 91.4219 267.4688 C 90.5938 268.6563 89.875 269.9219 89.25 271.2969 C 89.1406 271.5469 89.0156 271.7969 88.8906 272.0313 C 85.2031 278.9063 84.1875 286.0781 85.875 293.5781 C 86.875 297.0156 88.6719 299.9688 91.25 302.4375 L 91.25 302.4375 Z" fill="#eb1e26"/>
			<path d="M 112.8125 265.5781 L 112.8125 265.5469 C 112.7656 265.1406 112.4531 264.875 111.875 264.7656 C 111.2969 264.6719 110.6406 264.7031 109.8906 264.8594 C 109.1406 265.0313 108.4844 265.3125 107.9375 265.6875 C 107.3906 266.0625 107.0938 266.5313 107.0625 267.0781 C 107.8125 282.1719 107.8906 297.2813 107.2656 312.4063 C 107.3125 313.1094 107.7813 313.5 108.6875 313.5938 C 109.5938 313.6563 110.5156 313.5 111.4531 313.1406 C 112.375 312.7656 112.8906 312.2656 112.9844 311.6406 C 113.4375 300.2031 113.5313 288.75 113.25 277.2813 C 116.0938 276.5313 118.8594 275.5469 121.5469 274.2969 C 122.7188 273.7969 123.875 273.0938 125.0156 272.2188 C 126.1406 271.3438 126.7188 270.1719 126.7188 268.7344 C 126.5156 267.0156 125.6406 265.875 124.0938 265.3281 C 122.5469 264.7969 120.7344 264.6094 118.6406 264.7813 C 116.5469 264.9688 114.5938 265.25 112.8125 265.6406 L 112.8125 265.5781 L 112.8125 265.5781 ZM 117.8906 273.0625 C 116.3281 273.6875 114.7656 274.1563 113.1719 274.5 C 113.1094 272.5 113.0313 270.4844 112.9531 268.4688 C 114.1563 268.1563 115.4219 268 116.7344 268 C 118.0469 268 119.125 268.1719 119.9688 268.5 C 120.7969 268.8438 121.0781 269.5313 120.8125 270.5938 C 120.4063 271.625 119.4375 272.4375 117.8906 273.0625 L 117.8906 273.0625 Z" fill="#eb1e26"/>
			<path d="M 135.2188 265.8906 C 135.0313 265.2969 134.4688 265 133.5156 265 C 132.5625 265 131.6406 265.2344 130.7656 265.6875 C 129.875 266.1563 129.4531 266.7344 129.4688 267.4375 C 129.7969 269.7813 129.9688 272.1406 129.9688 274.5156 C 129.9844 274.9531 130.2813 275.2188 130.8594 275.3125 C 131.4219 275.4063 132.0781 275.375 132.8281 275.2031 C 133.5781 275.0469 134.2344 274.7656 134.7969 274.375 C 135.3594 274 135.6563 273.5313 135.7031 272.9688 C 135.7031 270.625 135.5313 268.2656 135.2188 265.8906 L 135.2188 265.8906 ZM 134.2188 277.75 C 133.6406 277.6563 132.9688 277.6875 132.2188 277.8438 C 131.4688 278.0156 130.8125 278.2969 130.25 278.6875 C 129.6875 279.0781 129.4063 279.5469 129.4063 280.0938 C 129.6406 290.8438 130.1875 301.5781 131.0313 312.2969 C 131.0938 312.7344 131.4063 313 132 313.1094 C 132.5938 313.2031 133.25 313.1719 134 313 C 134.7344 312.8281 135.375 312.5469 135.9375 312.1563 C 136.4844 311.7656 136.75 311.2969 136.7344 310.7344 C 135.8906 300.0313 135.3594 289.2969 135.1094 278.5313 C 135.0781 278.1094 134.7813 277.8438 134.2188 277.75 L 134.2188 277.75 Z" fill="#eb1e26"/>
			<path d="M 153.25 307.2031 C 153.1875 308.25 153.0781 309.2813 152.9531 310.2969 C 152.5469 309.9219 152.1875 309.5313 151.8594 309.1094 C 151.1719 308.25 150.5625 307.3281 150.0625 306.3594 C 148.25 302.5 147.1094 298.4375 146.6719 294.1563 C 145.9844 289.4844 145.8125 284.7969 146.1719 280.0781 C 146.1719 279.9063 146.1875 279.7188 146.2188 279.5156 C 146.25 278.3906 146.3906 276.9375 146.625 275.125 C 146.8438 273.3281 147.2656 271.7031 147.8906 270.2344 C 148.5156 268.7656 149.4219 267.9844 150.625 267.8594 C 151.2188 267.8594 151.9375 267.7656 152.75 267.5625 C 153.5625 267.3594 154.1406 266.9844 154.4531 266.4531 C 154.6406 265.9531 154.5938 265.5938 154.2813 265.3594 C 153.9688 265.125 153.5156 265 152.9219 265 C 147.8438 265 144.3906 266.9531 142.5781 270.8594 C 140.75 274.7656 139.9063 279.2188 140 284.25 C 140.125 289.2813 140.5156 293.6719 141.2344 297.3906 C 141.6094 300.2969 142.4219 303.4375 143.6875 306.8438 C 144.9375 310.25 146.9844 312.625 149.8281 313.9531 C 150.9844 314.3594 152.2031 314.4531 153.4844 314.2188 C 154.7656 313.9688 155.875 313.4688 156.8438 312.6875 C 157.6563 311.9844 158.1719 311.1719 158.4063 310.25 C 158.6406 309.3281 158.7813 308.3594 158.8281 307.3594 C 158.8438 306.5469 158.9375 305.75 159.0938 304.9688 C 159.1875 304.4688 158.9688 304.125 158.4531 303.9531 C 157.9219 303.7969 157.2813 303.7656 156.5313 303.875 C 155.7813 303.9844 155.0938 304.2031 154.4844 304.5156 C 153.875 304.8438 153.5156 305.2344 153.3906 305.7031 C 153.3281 305.9531 153.2813 306.4531 153.25 307.2031 L 153.25 307.2031 Z" fill="#eb1e26"/>
			<path d="M 169.4844 265.4375 C 169.3281 265.4688 169.1719 265.4688 169.0469 265.4688 C 169.0469 265.4531 169.0313 265.4219 169.0156 265.3594 L 169.0156 265.2656 C 168.9688 264.8594 168.6563 264.5938 168.0781 264.4844 C 167.5 264.3906 166.8438 264.4219 166.0938 264.5781 C 165.3438 264.75 164.6875 265.0313 164.125 265.4063 C 163.5625 265.7813 163.2969 266.25 163.2969 266.7969 C 164 281.5625 164.0625 296.3281 163.5 311.0781 L 163.4063 311.4063 C 163.3906 311.625 163.4063 311.8125 163.4688 311.9375 L 163.4688 312.0625 L 163.4688 312.2031 C 163.5 312.8281 163.8438 313.1875 164.5469 313.3281 C 165.2344 313.4531 166 313.4063 166.8438 313.2031 C 167.6875 312.9844 168.3438 312.6406 168.8125 312.2031 C 170.625 312.0781 172.4375 312 174.2656 312 C 174.8906 312 175.5938 311.8906 176.3438 311.6563 C 177.0938 311.4219 177.6719 311.0156 178.0781 310.4531 C 178.3594 309.8906 178.3125 309.5 177.9063 309.25 C 177.5 309 177.0469 308.875 176.5469 308.875 C 174.1094 308.875 171.6875 308.9844 169.2813 309.2031 C 169.6719 298.125 169.7188 287.0625 169.4063 276 L 170.0156 276 L 171.5625 276 L 172.4375 276 C 172.6875 276.0781 172.9688 276.1094 173.2656 276.1094 C 173.75 276.1094 174.2188 276.0781 174.6875 276 C 176.0625 276 177.2656 275.6094 178.3125 274.7969 C 178.7188 274.4219 178.9063 274.0313 178.8594 273.6406 C 178.7969 273.25 178.4531 273.0156 177.8125 272.9219 C 176.9688 272.8594 176.1719 272.875 175.4219 272.9844 C 173.8594 272.8594 172.2969 272.7813 170.7031 272.7813 L 169.3125 272.7813 C 169.2656 271.3281 169.2031 269.8906 169.1406 268.4531 C 171.2656 268.2344 173.375 268.125 175.4844 268.125 C 176.125 268.125 176.8281 268 177.5938 267.75 C 178.3438 267.5 178.9219 267.1094 179.3125 266.5469 C 179.5313 266.1719 179.5625 265.875 179.4219 265.6563 C 179.2656 265.4375 179.0469 265.2813 178.7344 265.1875 C 178.4219 265.0938 178.1094 265.0313 177.7813 265 C 175 265 172.2344 265.1563 169.4844 265.4375 L 169.4844 265.4375 Z" fill="#eb1e26"/>
			<path d="M 187.8906 271.8906 C 189.9531 269.9688 191.9219 269 193.7969 269 C 195.625 269 197.0625 269.5313 198.1094 270.5781 C 199.1406 271.625 199.6719 273.0625 199.6719 274.875 C 199.6719 277.2344 198.375 280.6719 195.7969 285.1719 C 193.2188 289.6875 191.9375 293.1563 191.9375 295.5781 C 191.9375 297.2031 192.4844 299.5469 193.5938 302.6094 L 195.1563 302.6094 C 194.375 299.8125 194 297.7188 194 296.3125 C 194 294.8125 194.5625 293.2188 195.7031 291.5625 C 196.8281 289.9063 198.4063 287.8281 200.4063 285.3125 C 202.4375 282.75 203.8125 280.6875 204.5313 279.1094 C 205.25 277.5469 205.6094 275.9844 205.6094 274.4375 C 205.6094 271.9063 204.7188 269.8906 202.9531 268.375 C 201.1719 266.875 198.8281 266.1094 195.9219 266.1094 C 193.3906 266.1094 190.7188 267.3438 187.8906 269.7813 L 187.8906 271.8906 L 187.8906 271.8906 ZM 190.375 309.3281 C 190.375 309.625 190.4844 309.9063 190.7031 310.1875 L 193.625 313.5313 C 193.9063 313.8438 194.2344 314 194.5938 314 C 194.7813 314 195.1094 313.7813 195.5469 313.3438 L 198.2031 310.4219 C 198.5156 310.0781 198.6719 309.7344 198.6719 309.4063 C 198.6719 309.125 198.5313 308.7969 198.2813 308.4375 L 195.625 305.5938 C 195.2188 305.25 194.875 305.0625 194.5938 305.0625 C 194.2813 305.0625 193.9531 305.2188 193.625 305.5313 L 190.9063 308.3125 C 190.5469 308.6719 190.375 309.0156 190.375 309.3281 L 190.375 309.3281 Z" fill="#eb1e26"/>
		</g>
	</g>
</svg>