<?xml version="1.0" standalone="no"?>
<!-- Generator: Adobe Fireworks 10, Export SVG Extension by Aaron Beall (http://fireworks.abeall.com) . Version: 0.6.1  -->
<!DOCTYPE svg PUBLIC "-//W3C//DTD SVG 1.1//EN" "http://www.w3.org/Graphics/SVG/1.1/DTD/svg11.dtd">
<svg id="Untitled-Page%201" viewBox="0 0 940 380" style="background-color:#ffffff" version="1.1"
	xmlns="http://www.w3.org/2000/svg" xmlns:xlink="http://www.w3.org/1999/xlink" xml:space="preserve"
	x="0px" y="0px" width="940px" height="380px"
>
	<g id="Layer%201">
		<g>
			<g>
				<rect x="0" y="0" width="597" height="380" fill="#282e59"/>
				<g id="CTPHYL_logo">
					<path d="M 86.1315 209.1357 C 84.5076 217.55 82.3422 223.3857 75.576 223.3857 C 68.8095 223.3857 67.8623 217.55 69.2156 209 L 79.771 142.7714 C 80.9891 134.7643 83.6956 129.8786 90.1913 129.8786 C 96.687 129.8786 97.4991 135.0357 96.4164 142.6357 L 93.1686 163.4 L 107.2426 163.4 L 110.2199 143.7215 C 112.385 129.4715 110.8965 116.7143 92.2212 116.7143 C 76.6586 116.7143 67.727 126.8929 65.2911 143.3143 L 55.2768 207.6429 C 52.5702 223.5214 54.3295 236.0072 73.2755 236.0072 C 94.1158 236.0072 98.717 220.1286 100.7469 207.5072 L 104.5361 188.1 L 90.3266 188.1 L 86.1315 209.1357 L 86.1315 209.1357 Z" fill="#ffffff"/>
					<path d="M 150.0063 152.8143 C 141.21 152.95 133.3609 158.5143 130.3837 166.9286 C 131.1956 162.0429 131.8724 155.8 132.0075 154.0357 L 118.8809 154.0357 C 117.9335 161.9071 116.851 168.2857 114.6856 181.45 L 106.0246 234.7857 L 120.0988 234.7857 L 127.2711 189.7286 C 129.707 173.9857 137.8267 170.05 147.2996 170.05 L 150.0063 152.8143 L 150.0063 152.8143 Z" fill="#ffffff"/>
					<path d="M 191.6872 153.9 C 181.9435 183.8929 174.6358 204.1143 170.9819 217.8214 L 170.576 217.8214 C 171.5232 208.0501 171.1174 181.8571 170.576 154.1714 L 155.6899 154.1714 L 160.5617 238.0429 C 157.1786 248.2215 154.3367 250.3929 148.9236 250.3929 C 147.4351 250.3929 145.8111 250.2572 144.3224 249.9857 L 142.1572 262.6071 C 144.3224 263.0143 146.623 263.15 148.9236 263.2857 C 157.9905 263.2857 165.8396 262.0642 174.3652 239.1286 L 205.7613 154.0357 L 191.6872 154.0357 L 191.6872 153.9 Z" fill="#ffffff"/>
					<path d="M 273.0191 216.8714 L 285.0633 139.3786 L 372.485 139.3786 L 374.515 126.6214 L 287.0933 126.6214 L 288.1758 119.2929 L 274.1018 119.2929 L 273.0191 126.6214 L 217.5348 126.6214 L 215.5049 139.3786 L 270.9893 139.3786 L 258.6743 219.3143 C 256.5092 232.6143 261.7869 235.8714 270.9893 235.8714 C 274.3724 236.0072 277.6202 235.4643 280.7328 234.3786 L 282.3567 223.6571 C 280.7328 223.9286 279.1089 224.2 277.4849 224.0643 C 272.4778 224.2 272.4778 220.8072 273.0191 216.8714 " fill="#ffffff"/>
					<path d="M 322.4138 152.6786 C 308.7457 152.6786 298.3254 160.6857 295.6187 177.2428 L 290.4763 210.3571 C 287.7698 227.4571 294.1302 236.0072 308.7457 236.0072 C 323.361 236.0072 332.834 227.5929 335.5405 210.0857 L 340.4123 177.9214 C 343.2541 161.6357 336.4879 152.6786 322.4138 152.6786 M 326.6089 177.2428 L 321.3311 210.7643 C 319.9779 219.45 316.7299 223.5214 311.0463 223.5214 C 305.3624 223.5214 303.3325 218.6357 304.4152 210.9 L 309.6929 177.2428 C 310.9108 169.3714 314.1587 165.1643 320.1132 165.1643 C 326.0677 165.3 327.6915 170.1857 326.6089 177.2428 L 326.6089 177.2428 L 326.6089 177.2428 Z" fill="#ffffff"/>
					<path d="M 442.3141 152.6786 C 435.8184 152.2714 429.7286 155.3929 426.2102 160.8214 L 432.4351 119.1571 L 418.2258 119.1571 L 400.4979 234.65 L 414.4366 234.65 L 422.9622 180.5 C 424.5862 170.1857 427.2927 165.0285 434.6005 165.0285 C 441.9082 165.0285 441.3669 170.4571 440.4195 176.8357 L 431.3526 234.65 L 445.4266 234.65 L 455.1703 173.3072 C 456.7943 161.9071 454.4937 152.6786 442.3141 152.6786 " fill="#ffffff"/>
					<path d="M 501.7229 153.9 C 491.9794 183.8929 484.6716 204.1143 481.0179 217.8214 L 480.7473 217.8214 C 481.6945 208.0501 481.2885 181.8571 480.7473 154.1714 L 465.8612 154.1714 L 470.7329 238.0429 C 467.3497 248.2215 464.5078 250.3929 459.0948 250.3929 C 457.6061 250.3929 455.9822 250.2572 454.4937 249.9857 L 452.3283 262.6071 C 454.4937 263.0143 456.7943 263.15 459.0948 263.2857 C 468.1617 263.2857 476.0107 262.0642 484.5363 239.1286 L 515.9324 154.0357 L 501.7229 154.0357 L 501.7229 153.9 Z" fill="#ffffff"/>
					<path d="M 528.7886 119.4286 L 510.79 234.7857 L 524.8641 234.7857 L 542.7273 119.4286 L 528.7886 119.4286 Z" fill="#ffffff"/>
					<path d="M 242.1644 152.6786 C 235.398 152.5429 229.1729 156.2071 225.9251 162.1786 C 226.4664 159.4643 226.737 156.75 226.8724 153.9 L 213.3396 153.9 C 212.663 158.7857 211.5803 166.25 209.821 177.1071 L 196.4236 261.7929 L 210.4976 261.7929 L 215.7755 228.5429 C 217.5348 233.4286 222.4066 236.55 227.549 235.8714 C 239.1873 235.8714 246.7655 228 249.7427 209.6786 L 255.0205 176.0214 C 257.4564 160.4143 253.2612 152.6786 242.1644 152.6786 M 240.6759 177.2428 L 235.5333 209.95 C 234.3155 218.2286 231.4735 223.25 225.1132 223.25 C 217.9407 223.25 217.6701 216.0572 219.0235 207.3715 L 223.3539 179.9571 C 224.9778 170.1857 228.2257 165.1643 234.9921 165.1643 C 239.7285 165.3 242.0291 168.9643 240.6759 177.2428 " fill="#ffffff"/>
					<path d="M 384.9352 152.6786 C 378.4393 152.5429 372.3497 156.0714 369.1019 161.7714 L 368.8311 162.1786 C 369.2371 159.4643 369.5077 156.75 369.6432 153.9 L 356.1104 153.9 C 355.4337 158.7857 354.3512 166.25 352.5919 177.1071 L 339.1943 261.7929 L 353.2685 261.7929 L 358.5462 228.5429 C 360.3055 233.4286 365.1772 236.55 370.3198 235.8714 C 381.9579 235.8714 389.6717 228 392.5135 209.6786 L 397.9267 176.0214 C 400.2272 160.4143 396.0319 152.6786 384.9352 152.6786 M 383.4466 177.2428 L 378.5748 209.95 C 377.2215 218.2286 374.3796 223.25 368.0192 223.25 C 360.8467 223.25 360.5761 216.0572 361.9294 207.3715 L 366.2599 179.9571 C 367.8839 170.1857 371.1318 165.1643 377.898 165.1643 C 382.4992 165.3 384.7999 168.9643 383.4466 177.2428 " fill="#ffffff"/>
				</g>
			</g>
			<rect x="-52" y="-3" width="258" height="76" fill="#3faee8" rx="5" ry="5"/>
			<g>
				<rect x="597" y="162" width="343" height="218" fill="#000000"/>
				<g>
					<g>
						<path d="M 644.8008 254.0549 L 648.0786 254.0549 L 648.0786 252.4653 C 648.0786 251.4081 647.8639 250.3965 647.4346 249.4268 C 647.0051 248.457 646.3726 247.6127 645.5407 246.894 C 644.7088 246.1752 643.689 245.601 642.4776 245.1712 C 641.2661 244.7454 639.8976 244.5286 638.3641 244.5286 C 637.0377 244.5286 635.8185 244.6997 634.7144 245.042 C 633.6103 245.3842 632.6595 245.871 631.866 246.5023 C 631.0724 247.1336 630.4552 247.8789 630.0143 248.7384 C 629.5696 249.5979 629.3511 250.5448 629.3511 251.5792 L 629.3511 252.0355 C 629.3511 253.1726 629.5581 254.1576 629.976 254.9904 C 630.39 255.8271 630.988 256.5382 631.7701 257.1315 C 632.5484 257.7247 633.4915 258.2077 634.5956 258.5728 C 635.6996 258.9417 636.9456 259.2117 638.3257 259.3866 C 640.6911 259.7175 642.4009 260.2499 643.4552 260.98 C 644.5056 261.714 645.0346 262.775 645.0346 264.1631 L 645.0346 264.3913 C 645.0346 265.8326 644.5209 266.9887 643.4935 267.8595 C 642.4661 268.7343 640.9364 269.1678 638.9084 269.1678 C 636.5661 269.1678 634.7374 268.5859 633.4263 267.4222 C 632.1151 266.2585 631.4596 264.5092 631.4596 262.1818 L 631.4596 261.2691 L 628.1818 261.2691 L 628.1818 262.3986 C 628.1818 263.779 628.4157 265.053 628.8834 266.2167 C 629.3511 267.3842 630.0334 268.3995 630.9306 269.2667 C 631.8276 270.1337 632.9432 270.8106 634.285 271.2974 C 635.6268 271.788 637.1679 272.0314 638.9084 272.0314 C 640.442 272.0314 641.7952 271.8412 642.9683 271.4648 C 644.1376 271.0883 645.119 270.5596 645.9126 269.8789 C 646.7023 269.1982 647.3003 268.3843 647.7067 267.4374 C 648.1093 266.4943 648.3124 265.4523 648.3124 264.3152 L 648.3124 263.8627 C 648.3124 261.8471 647.6339 260.2385 646.2806 259.0406 C 644.9273 257.8464 642.8226 257.0326 639.9627 256.6029 C 638.7397 256.4279 637.674 256.2188 636.7616 255.9792 C 635.8492 255.7396 635.0901 255.4354 634.4806 255.0703 C 633.8672 254.7052 633.4071 254.264 633.0966 253.7469 C 632.7822 253.2297 632.6289 252.606 632.6289 251.8758 L 632.6289 251.6477 C 632.6289 250.9669 632.7822 250.3699 633.0966 249.8526 C 633.4071 249.3355 633.8287 248.9019 634.3616 248.5483 C 634.8945 248.1946 635.5003 247.9246 636.1788 247.7344 C 636.8536 247.5443 637.5704 247.4493 638.3257 247.4493 C 639.1806 247.4493 639.9972 247.5633 640.7793 247.7915 C 641.5613 248.0197 642.2514 248.3505 642.8495 248.7803 C 643.4474 249.21 643.9191 249.7538 644.2717 250.4117 C 644.6244 251.0696 644.8008 251.8302 644.8008 252.6897 L 644.8008 254.0549 L 644.8008 254.0549 Z" fill="#ffffff"/>
						<path d="M 653.5032 247.6926 L 660.5227 247.6926 L 660.5227 268.8673 L 653.5032 268.8673 L 653.5032 271.788 L 670.8238 271.788 L 670.8238 268.8673 L 663.8004 268.8673 L 663.8004 247.6926 L 670.8238 247.6926 L 670.8238 244.772 L 653.5032 244.772 L 653.5032 247.6926 L 653.5032 247.6926 Z" fill="#ffffff"/>
						<path d="M 676.8734 247.6926 L 679.2118 247.6926 L 679.2118 268.6239 L 676.8734 268.6239 L 676.8734 271.788 L 685.8441 271.788 C 689.2254 271.788 691.6943 270.9932 693.2546 269.3959 C 694.8149 267.8025 695.5969 265.2545 695.5969 261.752 L 695.5969 254.8079 C 695.5969 251.3092 694.8149 248.7612 693.2546 247.164 C 691.6943 245.5706 689.2254 244.772 685.8441 244.772 L 676.8734 244.772 L 676.8734 247.6926 L 676.8734 247.6926 ZM 682.4896 268.6239 L 682.4896 247.6926 L 685.3764 247.6926 C 686.5726 247.6926 687.6037 247.8105 688.4778 248.0387 C 689.3481 248.2706 690.0688 248.6624 690.6439 249.2138 C 691.2151 249.7652 691.6367 250.503 691.9128 251.4271 C 692.1851 252.3512 692.3231 253.5187 692.3231 254.9258 L 692.3231 261.3907 C 692.3231 262.8017 692.1851 263.9691 691.9128 264.8932 C 691.6367 265.8174 691.2151 266.5551 690.6439 267.1066 C 690.0688 267.658 689.3481 268.0497 688.4778 268.2778 C 687.6037 268.5098 686.5726 268.6239 685.3764 268.6239 L 682.4896 268.6239 L 682.4896 268.6239 Z" fill="#ffffff"/>
						<path d="M 701.4932 271.788 L 718.2654 271.788 L 718.2654 268.8673 L 704.7671 268.8673 L 704.7671 259.6186 L 717.7978 259.6186 L 717.7978 256.6979 L 704.7671 256.6979 L 704.7671 247.6926 L 718.0317 247.6926 L 718.0317 244.772 L 701.4932 244.772 L 701.4932 271.788 L 701.4932 271.788 Z" fill="#ffffff"/>
						<path d="M 739.9985 254.0549 L 743.2763 254.0549 L 743.2763 252.4653 C 743.2763 251.4081 743.0616 250.3965 742.6323 249.4268 C 742.2029 248.457 741.5704 247.6127 740.7384 246.894 C 739.9065 246.1752 738.8868 245.601 737.6754 245.1712 C 736.4639 244.7454 735.0953 244.5286 733.5619 244.5286 C 732.2354 244.5286 731.0162 244.6997 729.9121 245.042 C 728.8081 245.3842 727.8574 245.871 727.0638 246.5023 C 726.2702 247.1336 725.653 247.8789 725.2121 248.7384 C 724.7674 249.5979 724.5488 250.5448 724.5488 251.5792 L 724.5488 252.0355 C 724.5488 253.1726 724.7558 254.1576 725.1738 254.9904 C 725.5878 255.8271 726.1859 256.5382 726.9679 257.1315 C 727.7461 257.7247 728.6892 258.2077 729.7933 258.5728 C 730.8974 258.9417 732.1434 259.2117 733.5235 259.3866 C 735.8889 259.7175 737.5987 260.2499 738.6529 260.98 C 739.7034 261.714 740.2324 262.775 740.2324 264.1631 L 740.2324 264.3913 C 740.2324 265.8326 739.7187 266.9887 738.6913 267.8595 C 737.6638 268.7343 736.1342 269.1678 734.1062 269.1678 C 731.7639 269.1678 729.9351 268.5859 728.624 267.4222 C 727.3129 266.2585 726.6574 264.5092 726.6574 262.1818 L 726.6574 261.2691 L 723.3796 261.2691 L 723.3796 262.3986 C 723.3796 263.779 723.6134 265.053 724.0811 266.2167 C 724.5488 267.3842 725.2312 268.3995 726.1284 269.2667 C 727.0254 270.1337 728.141 270.8106 729.4828 271.2974 C 730.8246 271.788 732.3657 272.0314 734.1062 272.0314 C 735.6396 272.0314 736.9929 271.8412 738.1661 271.4648 C 739.3354 271.0883 740.3168 270.5596 741.1103 269.8789 C 741.9001 269.1982 742.4981 268.3843 742.9044 267.4374 C 743.307 266.4943 743.5102 265.4523 743.5102 264.3152 L 743.5102 263.8627 C 743.5102 261.8471 742.8316 260.2385 741.4783 259.0406 C 740.1251 257.8464 738.0204 257.0326 735.1605 256.6029 C 733.9376 256.4279 732.8718 256.2188 731.9594 255.9792 C 731.047 255.7396 730.2878 255.4354 729.6783 255.0703 C 729.0649 254.7052 728.6048 254.264 728.2944 253.7469 C 727.98 253.2297 727.8266 252.606 727.8266 251.8758 L 727.8266 251.6477 C 727.8266 250.9669 727.98 250.3699 728.2944 249.8526 C 728.6048 249.3355 729.0266 248.9019 729.5594 248.5483 C 730.0923 248.1946 730.6981 247.9246 731.3766 247.7344 C 732.0513 247.5443 732.7682 247.4493 733.5235 247.4493 C 734.3784 247.4493 735.195 247.5633 735.977 247.7915 C 736.7591 248.0197 737.4491 248.3505 738.0472 248.7803 C 738.6453 249.21 739.1168 249.7538 739.4695 250.4117 C 739.8222 251.0696 739.9985 251.8302 739.9985 252.6897 L 739.9985 254.0549 L 739.9985 254.0549 Z" fill="#ffffff"/>
						<path d="M 748.2716 271.788 L 751.5494 271.788 L 751.5494 259.6186 L 763.1732 259.6186 L 763.1732 271.788 L 766.4509 271.788 L 766.4509 244.772 L 763.1732 244.772 L 763.1732 256.6979 L 751.5494 256.6979 L 751.5494 244.772 L 748.2716 244.772 L 748.2716 271.788 L 748.2716 271.788 Z" fill="#ffffff"/>
						<path d="M 772.5004 247.6926 L 779.5198 247.6926 L 779.5198 268.8673 L 772.5004 268.8673 L 772.5004 271.788 L 789.821 271.788 L 789.821 268.8673 L 782.7977 268.8673 L 782.7977 247.6926 L 789.821 247.6926 L 789.821 244.772 L 772.5004 244.772 L 772.5004 247.6926 L 772.5004 247.6926 Z" fill="#ffffff"/>
						<path d="M 796.7292 271.788 L 800.0071 271.788 L 800.0071 259.6186 L 813.2677 259.6186 L 813.2677 256.6979 L 800.0071 256.6979 L 800.0071 247.6926 L 813.5016 247.6926 L 813.5016 244.772 L 796.7292 244.772 L 796.7292 271.788 L 796.7292 271.788 Z" fill="#ffffff"/>
						<path d="M 819.1639 247.6926 L 827.1187 247.6926 L 827.1187 271.788 L 830.3966 271.788 L 830.3966 247.6926 L 838.3552 247.6926 L 838.3552 244.772 L 819.1639 244.772 L 819.1639 247.6926 L 819.1639 247.6926 Z" fill="#ffffff"/>
						<path d="M 884.1984 271.788 L 887.71 271.788 L 879.4408 244.772 L 873.2762 244.772 L 865.007 271.788 L 868.5148 271.788 L 870.5045 264.9731 L 882.2087 264.9731 L 884.1984 271.788 L 884.1984 271.788 ZM 876.5923 246.2323 L 881.3116 262.0525 L 871.4053 262.0525 L 876.1246 246.2323 L 876.5923 246.2323 L 876.5923 246.2323 Z" fill="#ffffff"/>
						<path d="M 891.4977 247.6926 L 898.5171 247.6926 L 898.5171 268.8673 L 891.4977 268.8673 L 891.4977 271.788 L 908.8182 271.788 L 908.8182 268.8673 L 901.7949 268.8673 L 901.7949 247.6926 L 908.8182 247.6926 L 908.8182 244.772 L 891.4977 244.772 L 891.4977 247.6926 L 891.4977 247.6926 Z" fill="#ffffff"/>
					</g>
					<g>
						<rect x="729.8309" y="287.077" width="77.3382" height="19.7373" fill="#20e38a" rx="5" ry="5"/>
						<g>
							<path d="M 751.4016 302.9845 L 754.2313 302.9845 L 757.6912 290.9067 L 756.1183 290.9067 L 752.9212 302.3317 L 752.7117 302.3317 L 749.5146 290.9067 L 747.9418 290.9067 L 751.4016 302.9845 L 751.4016 302.9845 Z" fill="#ffffff"/>
							<path d="M 759.1782 298.2632 C 759.1782 299.841 759.5558 301.0396 760.313 301.8607 C 761.0686 302.6836 762.1229 303.0933 763.476 303.0933 C 764.8255 303.0933 765.8798 302.6836 766.637 301.8607 C 767.3942 301.0396 767.7737 299.841 767.7737 298.2632 L 767.7737 295.628 C 767.7737 294.0979 767.3942 292.9095 766.637 292.0646 C 765.8798 291.2213 764.8255 290.798 763.476 290.798 C 762.1229 290.798 761.0686 291.2213 760.313 292.0646 C 759.5558 292.9095 759.1782 294.0979 759.1782 295.628 L 759.1782 298.2632 L 759.1782 298.2632 ZM 761.3519 300.8593 C 760.8798 300.2235 760.6445 299.3242 760.6445 298.1629 L 760.6445 295.7283 C 760.6445 295.1877 760.7028 294.6964 760.8196 294.2509 C 760.9363 293.8055 761.1133 293.4229 761.3519 293.1017 C 761.5906 292.7803 761.8842 292.5287 762.2345 292.3484 C 762.5847 292.1683 762.9985 292.0782 763.476 292.0782 C 763.9412 292.0782 764.3516 292.1683 764.707 292.3484 C 765.0624 292.5287 765.3596 292.7803 765.5982 293.1017 C 765.8369 293.4229 766.0137 293.8055 766.1304 294.2509 C 766.2472 294.6964 766.3056 295.1877 766.3056 295.7283 L 766.3056 298.1629 C 766.3056 299.3242 766.0687 300.2235 765.5982 300.8593 C 765.126 301.4952 764.4186 301.8131 763.476 301.8131 C 762.5315 301.8131 761.8241 301.4952 761.3519 300.8593 L 761.3519 300.8593 ZM 762.6896 297.5475 C 762.9093 297.7634 763.172 297.8705 763.476 297.8705 C 763.7781 297.8705 764.0391 297.7634 764.2606 297.5475 C 764.4821 297.3333 764.5937 297.0782 764.5937 296.7824 C 764.5937 296.4883 764.4821 296.2333 764.2606 296.0174 C 764.0391 295.8032 763.7781 295.6944 763.476 295.6944 C 763.172 295.6944 762.9093 295.8032 762.6896 296.0174 C 762.468 296.2333 762.3582 296.4883 762.3582 296.7824 C 762.3582 297.0782 762.468 297.3333 762.6896 297.5475 L 762.6896 297.5475 Z" fill="#ffffff"/>
							<path d="M 773.27 302.7431 C 773.5086 302.9777 773.7971 303.0933 774.1353 303.0933 C 774.4719 303.0933 774.7603 302.9777 774.999 302.7431 C 775.2377 302.5102 775.358 302.228 775.358 301.8964 C 775.358 301.5666 775.2377 301.2844 774.999 301.0498 C 774.7603 300.8169 774.4719 300.6995 774.1353 300.6995 C 773.7971 300.6995 773.5086 300.8169 773.27 301.0498 C 773.0313 301.2844 772.9128 301.5666 772.9128 301.8964 C 772.9128 302.228 773.0313 302.5102 773.27 302.7431 L 773.27 302.7431 Z" fill="#ffffff"/>
							<path d="M 782.1385 301.6788 L 782.1385 301.1654 C 782.1385 300.4139 782.3995 299.841 782.9249 299.4466 C 783.4486 299.0538 784.2694 298.7375 785.3889 298.4962 C 786.6698 298.2242 787.6005 297.7651 788.1843 297.1207 C 788.7663 296.4764 789.0582 295.6977 789.0582 294.7848 L 789.0582 294.4771 C 789.0582 294.0214 788.9724 293.5726 788.8041 293.134 C 788.6359 292.6953 788.3766 292.3008 788.0263 291.9523 C 787.676 291.6055 787.2399 291.325 786.7162 291.1142 C 786.1907 290.9034 785.5743 290.798 784.8652 290.798 C 784.1647 290.798 783.5482 290.9119 783.0125 291.1397 C 782.4768 291.3675 782.0269 291.6735 781.6663 292.0594 C 781.3058 292.4471 781.0309 292.8892 780.8456 293.389 C 780.6584 293.8888 780.5657 294.4124 780.5657 294.9565 L 780.5657 295.8083 L 782.0338 295.8083 L 782.0338 295.0534 C 782.0338 294.1625 782.2811 293.4467 782.7756 292.9095 C 783.2701 292.3723 783.9672 292.1036 784.8652 292.1036 C 785.3425 292.1036 785.753 292.175 786.0963 292.3179 C 786.4397 292.4607 786.7213 292.6528 786.9428 292.8908 C 787.1644 293.1306 787.3275 293.3992 787.4321 293.695 C 787.537 293.9908 787.5902 294.2935 787.5902 294.6012 L 787.5902 294.7048 C 787.5902 295.3203 787.36 295.8405 786.8999 296.2622 C 786.4397 296.6838 785.6911 297.0086 784.6541 297.2364 C 784.0359 297.3741 783.483 297.539 782.9937 297.7328 C 782.5042 297.9266 782.0887 298.1697 781.7453 298.4605 C 781.4019 298.7512 781.1358 299.0981 780.9503 299.5026 C 780.7632 299.9073 780.6705 300.3833 780.6705 300.9308 L 780.6705 302.9845 L 788.9536 302.9845 L 788.9536 301.6788 L 782.1385 301.6788 L 782.1385 301.6788 Z" fill="#ffffff"/>
						</g>
					</g>
				</g>
			</g>
			<rect x="597" y="0" width="343" height="162" fill="#ec1e26"/>
			<g>
				<path d="M 696.7871 70.7535 L 696.7871 60.75 L 664.1818 60.75 L 664.1818 100.4856 L 677.7399 100.4856 L 677.7399 87.5663 L 694.442 87.5663 L 694.442 77.5628 L 677.7399 77.5628 L 677.7399 70.7535 L 696.7871 70.7535 L 696.7871 70.7535 Z" fill="#ffffff"/>
				<path d="M 714.4548 68.5686 C 709.4715 68.5686 703.8934 69.8239 700.213 72.1063 L 704.3534 80.6503 C 706.4236 79.0831 709.5865 78.1545 712.4407 78.1545 C 716.2321 78.1545 718.1278 79.4314 718.5425 81.8692 L 713.1516 81.8692 C 703.3182 81.8692 698.7178 85.1472 698.7178 91.2988 C 698.7178 96.8879 702.6857 101.2373 710.3916 101.2373 C 714.9288 101.2373 718.0093 99.6921 719.5496 96.5445 L 719.5496 100.4796 L 731.3763 100.4796 L 731.3763 83.5916 C 731.3763 73.1904 725.2943 68.5686 714.4548 68.5686 L 714.4548 68.5686 ZM 714.3956 93.347 C 712.3814 93.347 711.1966 92.2025 711.1966 90.6964 C 711.1966 88.8893 712.4407 87.9252 715.2842 87.9252 L 718.6017 87.9252 L 718.6017 90.2145 C 717.8909 92.3832 716.2321 93.347 714.3956 93.347 L 714.3956 93.347 Z" fill="#ffffff"/>
				<path d="M 758.4025 69.3088 L 758.4025 83.9559 C 758.4025 88.5723 756.2665 90.2252 754.0743 90.2252 C 751.601 90.2252 750.0833 88.7433 750.0833 84.2979 L 750.0833 69.3088 L 737.1772 69.3088 L 737.1772 86.5206 C 737.1772 96.7942 742.8307 101.2033 750.3081 101.2033 C 753.6246 101.2033 756.7162 100.0581 759.0307 97.6531 L 759.0307 100.4856 L 771.3085 100.4856 L 771.3085 69.3088 L 758.4025 69.3088 L 758.4025 69.3088 Z" fill="#ffffff"/>
				<path d="M 793.9532 101.2063 C 801.5607 101.2063 807.2806 97.7391 809.3397 91.9982 L 799.33 86.9794 C 798.0143 89.971 796.1268 91.2028 793.896 91.2028 C 790.9789 91.2028 788.5765 89.0911 788.5765 84.8678 C 788.5765 80.703 790.9789 78.5916 793.896 78.5916 C 796.1268 78.5916 798.0143 79.8232 799.33 82.8147 L 809.3397 77.7958 C 807.2806 72.055 801.5607 68.5881 793.9532 68.5881 C 783.2226 68.5881 775.6705 75.238 775.6705 84.8678 C 775.6705 94.556 783.2226 101.2063 793.9532 101.2063 L 793.9532 101.2063 Z" fill="#ffffff"/>
				<path d="M 845.417 84.9805 C 845.417 74.1306 837.489 68.6782 828.2485 68.6782 C 818.1525 68.6782 810.5662 75.1877 810.5662 84.9805 C 810.5662 94.3107 817.9814 101.25 829.4464 101.25 C 835.6638 101.25 840.0557 99.5295 843.0789 96.2032 L 836.3482 89.3305 C 834.2947 90.9115 832.6977 91.6726 829.8456 91.6726 C 826.6514 91.6726 824.4839 90.3845 823.5712 87.9252 L 845.2464 87.9252 C 845.3034 87.0362 845.417 85.8695 845.417 84.9805 L 845.417 84.9805 ZM 828.3626 77.2462 C 830.9865 77.2462 832.8687 78.9561 833.3821 81.8692 L 823.3431 81.8692 C 823.8565 78.9561 825.6817 77.2462 828.3626 77.2462 L 828.3626 77.2462 Z" fill="#ffffff"/>
				<path d="M 869.7294 90.6504 C 868.8715 91.2334 867.8419 91.5249 866.8123 91.5249 C 865.2679 91.5249 864.124 90.4171 864.124 88.4349 L 864.124 80.3889 L 870.5302 80.3889 L 870.5302 71.1031 L 864.124 71.1031 L 864.124 62.3731 L 851.218 62.3731 L 851.218 71.1031 L 846.928 71.1031 L 846.928 80.3889 L 851.218 80.3889 L 851.218 88.5515 C 851.218 97.165 856.2432 101.1695 864.8676 101.1695 C 867.899 101.1695 870.8162 100.6619 872.8182 99.5339 L 869.7294 90.6504 L 869.7294 90.6504 Z" fill="#ffffff"/>
			</g>
			<text x="18" y="70" width="171" fill="#ffffff" style="font-size: 55px; font-family: RIO & MA; color: #ffffff; text-align: center; "><tspan><![CDATA[Got ]]></tspan><tspan><![CDATA[Spice?]]></tspan></text>
		</g>
	</g>
</svg>