<?xml version="1.0" standalone="no"?>
<!-- Generator: Adobe Fireworks 10, Export SVG Extension by Aaron Beall (http://fireworks.abeall.com) . Version: 0.6.1  -->
<!DOCTYPE svg PUBLIC "-//W3C//DTD SVG 1.1//EN" "http://www.w3.org/Graphics/SVG/1.1/DTD/svg11.dtd">
<svg id="memo_220_140.fw-Page%201" viewBox="0 0 220 140" style="background-color:#58951f" version="1.1"
	xmlns="http://www.w3.org/2000/svg" xmlns:xlink="http://www.w3.org/1999/xlink" xml:space="preserve"
	x="0px" y="0px" width="220px" height="140px"
>
	<g id="Background">
		<g>
			<path d="M 39.5427 43.5 L 45.0643 74.1199 L 45.2091 74.1199 L 50.7307 43.5 L 70.2941 43.5 L 70.2941 95.175 L 57.0588 95.175 L 57.0588 56.6672 L 56.9141 56.6672 L 49.9035 95.175 L 40.3906 95.175 L 33.3801 56.6672 L 33.2353 56.6672 L 33.2353 95.175 L 20 95.175 L 20 43.5 L 39.5427 43.5 L 39.5427 43.5 Z" fill="#ffffff"/>
			<path d="M 93.4145 64.8656 C 92.9389 63.8719 92.0496 63.375 90.7675 63.375 C 89.5266 63.375 88.6581 63.8719 88.2031 64.8656 C 87.7275 65.8594 87.5 67.4328 87.5 69.5445 L 87.5 71.325 L 94.1176 71.325 L 94.1176 69.5445 C 94.1176 67.4328 93.8695 65.8594 93.4145 64.8656 L 93.4145 64.8656 ZM 87.5 83.1672 C 87.5 85.341 87.8309 86.7902 88.4926 87.4941 C 89.1544 88.1981 89.8989 88.55 90.7468 88.55 C 91.8015 88.55 92.6287 88.0945 93.2284 87.1422 C 93.8074 86.1898 94.1176 84.3887 94.1176 81.6973 L 107.3529 81.6973 C 107.2495 86.5832 105.9674 90.2684 103.5271 92.7527 C 101.0869 95.2371 97.0749 96.5 91.4913 96.5 C 88.2238 96.5 85.5147 96.1273 83.3226 95.4234 C 81.1305 94.6988 79.352 93.498 78.0078 91.8211 C 76.6429 90.1649 75.6916 87.9703 75.1126 85.2789 C 74.5335 82.5875 74.2647 79.2957 74.2647 75.4449 C 74.2647 71.5527 74.5749 68.2609 75.216 65.5695 C 75.8571 62.8781 76.8704 60.6629 78.256 58.9652 C 79.6415 57.2676 81.3994 56.0461 83.5501 55.2594 C 85.7008 54.4934 88.2652 54.1 91.2845 54.1 C 93.9522 54.1 96.2891 54.4313 98.2744 55.0938 C 100.2597 55.7563 101.9347 56.8535 103.2996 58.3855 C 104.6645 59.9176 105.6778 61.9465 106.3396 64.4309 C 107.0014 66.9359 107.3529 70.0621 107.3529 73.7887 L 107.3529 77.95 L 87.5 77.95 L 87.5 83.1672 L 87.5 83.1672 Z" fill="#ffffff"/>
			<path d="M 129.0878 64.5137 C 128.5914 63.7684 127.7436 63.375 126.5441 63.375 C 125.3447 63.375 124.4761 63.7684 123.9798 64.5137 C 123.4835 65.259 123.2353 66.5012 123.2353 68.2195 L 123.2353 95.175 L 110 95.175 L 110 55.425 L 122.801 55.425 L 122.801 59.6277 L 123.2353 59.6277 C 124.9311 55.9426 128.1158 54.1 132.7895 54.1 C 135.5193 54.1 137.5873 54.5762 139.0349 55.5285 C 140.4619 56.4809 141.5993 57.9094 142.4265 59.8348 C 143.4605 57.7231 144.8667 56.2324 146.6866 55.3836 C 148.4857 54.5348 150.4297 54.1 152.4977 54.1 C 153.966 54.1 155.3309 54.2656 156.5924 54.5762 C 157.8539 54.9074 158.9499 55.4871 159.9012 56.3152 C 160.8318 57.1641 161.5763 58.282 162.114 59.6484 C 162.6516 61.0356 162.9412 62.816 162.9412 64.9691 L 162.9412 95.175 L 149.7059 95.175 L 149.7059 68.2195 C 149.7059 66.5012 149.437 65.259 148.9407 64.5137 C 148.4444 63.7684 147.5965 63.375 146.397 63.375 C 145.1976 63.375 144.329 63.7684 143.8327 64.5137 C 143.3364 65.259 143.0882 66.5012 143.0882 68.2195 L 143.0882 95.175 L 129.8529 95.175 L 129.8529 68.2195 C 129.8529 66.5012 129.5841 65.259 129.0878 64.5137 L 129.0878 64.5137 Z" fill="#ffffff"/>
			<path d="M 178.9683 81.2418 C 179.0717 82.7738 179.2785 83.9953 179.6094 84.8856 C 179.9196 85.7965 180.3332 86.3969 180.8295 86.7281 C 181.3258 87.0594 181.9876 87.225 182.7941 87.225 C 183.58 87.225 184.2417 87.0594 184.7794 86.7281 C 185.2964 86.3969 185.71 85.7965 185.9995 84.8856 C 186.2891 83.9953 186.4959 82.7738 186.5993 81.2418 C 186.7027 79.7098 186.7647 77.743 186.7647 75.3414 C 186.7647 72.9398 186.7027 70.9523 186.5993 69.3996 C 186.4959 67.8469 186.2891 66.6254 185.9995 65.7145 C 185.71 64.8242 185.2964 64.2031 184.7794 63.8719 C 184.2417 63.5406 183.58 63.375 182.7941 63.375 C 181.9876 63.375 181.3258 63.5406 180.8295 63.8719 C 180.3332 64.2031 179.9196 64.8242 179.6094 65.7145 C 179.2785 66.6254 179.0717 67.8469 178.9683 69.3996 C 178.8649 70.9523 178.8235 72.9398 178.8235 75.3414 C 178.8235 77.743 178.8649 79.7098 178.9683 81.2418 L 178.9683 81.2418 ZM 199.4416 83.25 C 199.0694 85.7965 198.2835 88.0531 197.0841 90.0199 C 195.8846 92.0074 194.1475 93.5809 191.8727 94.7402 C 189.5979 95.8996 186.5786 96.5 182.7941 96.5 C 178.8442 96.5 175.7215 95.9617 173.426 94.8852 C 171.1305 93.8086 169.4141 92.318 168.2766 90.3926 C 167.1186 88.4879 166.3948 86.2313 166.0639 83.6641 C 165.733 81.0969 165.5882 78.3227 165.5882 75.3828 C 165.5882 72.7328 165.7744 70.1449 166.1466 67.5984 C 166.5188 65.052 167.3047 62.7746 168.5041 60.7664 C 169.7036 58.7789 171.42 57.1641 173.6949 55.9426 C 175.9697 54.7211 178.989 54.1 182.7941 54.1 C 186.7233 54.1 189.846 54.6797 192.1415 55.7977 C 194.437 56.9156 196.1535 58.4477 197.3116 60.3938 C 198.449 62.3398 199.1728 64.6172 199.5037 67.1844 C 199.8345 69.7516 200 72.5051 200 75.4449 C 200 78.0949 199.8139 80.7035 199.4416 83.25 L 199.4416 83.25 Z" fill="#ffffff"/>
		</g>
	</g>
</svg>