<?xml version="1.0" standalone="no"?>
<!-- Generator: Adobe Fireworks 10, Export SVG Extension by Aaron Beall (http://fireworks.abeall.com) . Version: 0.6.1  -->
<!DOCTYPE svg PUBLIC "-//W3C//DTD SVG 1.1//EN" "http://www.w3.org/Graphics/SVG/1.1/DTD/svg11.dtd">
<svg id="sideshift_220_140.fw-Page%201" viewBox="0 0 220 140" style="background-color:#000000" version="1.1"
	xmlns="http://www.w3.org/2000/svg" xmlns:xlink="http://www.w3.org/1999/xlink" xml:space="preserve"
	x="0px" y="0px" width="220px" height="140px"
>
	<g id="Background">
		<g>
			<g>
				<path d="M 30.6594 59.1178 L 32.7618 59.1178 L 32.7618 58.097 C 32.7618 57.418 32.6241 56.7684 32.3487 56.1456 C 32.0733 55.5228 31.6676 54.9807 31.134 54.5191 C 30.6004 54.0575 29.9463 53.6887 29.1693 53.4127 C 28.3923 53.1392 27.5144 53 26.5309 53 C 25.6801 53 24.8982 53.1099 24.19 53.3297 C 23.4818 53.5495 22.872 53.8621 22.363 54.2675 C 21.854 54.6729 21.4581 55.1516 21.1754 55.7036 C 20.8901 56.2555 20.75 56.8636 20.75 57.5279 L 20.75 57.821 C 20.75 58.5512 20.8828 59.1838 21.1508 59.7186 C 21.4163 60.2559 21.7999 60.7126 22.3015 61.0936 C 22.8007 61.4746 23.4056 61.7848 24.1138 62.0192 C 24.8219 62.2561 25.6211 62.4295 26.5063 62.5419 C 28.0234 62.7543 29.1201 63.0963 29.7963 63.5652 C 30.4701 64.0365 30.8094 64.7179 30.8094 65.6093 L 30.8094 65.7559 C 30.8094 66.6815 30.4799 67.4239 29.8209 67.9832 C 29.1619 68.5449 28.1808 68.8233 26.88 68.8233 C 25.3776 68.8233 24.2047 68.4497 23.3638 67.7023 C 22.5228 66.955 22.1024 65.8316 22.1024 64.3369 L 22.1024 63.7508 L 20 63.7508 L 20 64.4761 C 20 65.3627 20.15 66.1808 20.45 66.9281 C 20.75 67.6779 21.1877 68.33 21.763 68.8868 C 22.3384 69.4437 23.054 69.8784 23.9146 70.191 C 24.7752 70.506 25.7637 70.6623 26.88 70.6623 C 27.8636 70.6623 28.7316 70.5402 29.484 70.2984 C 30.234 70.0567 30.8635 69.7172 31.3725 69.28 C 31.879 68.8429 32.2626 68.3202 32.5233 67.7121 C 32.7814 67.1064 32.9118 66.4372 32.9118 65.707 L 32.9118 65.4164 C 32.9118 64.122 32.4765 63.0889 31.6085 62.3196 C 30.7405 61.5528 29.3906 61.0301 27.5562 60.7541 C 26.7719 60.6418 26.0883 60.5075 25.5031 60.3536 C 24.9178 60.1997 24.431 60.0044 24.04 59.7699 C 23.6466 59.5354 23.3515 59.2522 23.1523 58.92 C 22.9507 58.5879 22.8523 58.1873 22.8523 57.7184 L 22.8523 57.5719 C 22.8523 57.1347 22.9507 56.7513 23.1523 56.4191 C 23.3515 56.087 23.622 55.8086 23.9638 55.5815 C 24.3056 55.3543 24.6941 55.1809 25.1293 55.0588 C 25.5621 54.9367 26.0219 54.8757 26.5063 54.8757 C 27.0546 54.8757 27.5784 54.9489 28.08 55.0954 C 28.5816 55.242 29.0242 55.4545 29.4078 55.7304 C 29.7914 56.0064 30.0938 56.3556 30.3201 56.7782 C 30.5463 57.2007 30.6594 57.6891 30.6594 58.2411 L 30.6594 59.1178 L 30.6594 59.1178 Z" fill="#ffffff"/>
				<path d="M 36.2411 55.032 L 40.7434 55.032 L 40.7434 68.6304 L 36.2411 68.6304 L 36.2411 70.506 L 47.3505 70.506 L 47.3505 68.6304 L 42.8458 68.6304 L 42.8458 55.032 L 47.3505 55.032 L 47.3505 53.1563 L 36.2411 53.1563 L 36.2411 55.032 L 36.2411 55.032 Z" fill="#ffffff"/>
				<path d="M 51.2307 55.032 L 52.7306 55.032 L 52.7306 68.4741 L 51.2307 68.4741 L 51.2307 70.506 L 56.9846 70.506 C 59.1533 70.506 60.7369 69.9956 61.7376 68.9699 C 62.7384 67.9466 63.24 66.3103 63.24 64.0609 L 63.24 59.6014 C 63.24 57.3545 62.7384 55.7182 61.7376 54.6925 C 60.7369 53.6692 59.1533 53.1563 56.9846 53.1563 L 51.2307 53.1563 L 51.2307 55.032 L 51.2307 55.032 ZM 54.833 68.4741 L 54.833 55.032 L 56.6846 55.032 C 57.4517 55.032 58.1132 55.1077 58.6738 55.2542 C 59.232 55.4032 59.6943 55.6547 60.0631 56.0089 C 60.4295 56.363 60.7 56.8368 60.877 57.4302 C 61.0516 58.0237 61.1401 58.7735 61.1401 59.6771 L 61.1401 63.8289 C 61.1401 64.735 61.0516 65.4848 60.877 66.0782 C 60.7 66.6717 60.4295 67.1455 60.0631 67.4996 C 59.6943 67.8538 59.232 68.1053 58.6738 68.2518 C 58.1132 68.4008 57.4517 68.4741 56.6846 68.4741 L 54.833 68.4741 L 54.833 68.4741 Z" fill="#ffffff"/>
				<path d="M 67.0218 70.506 L 77.7796 70.506 L 77.7796 68.6304 L 69.1217 68.6304 L 69.1217 62.6908 L 77.4796 62.6908 L 77.4796 60.8152 L 69.1217 60.8152 L 69.1217 55.032 L 77.6296 55.032 L 77.6296 53.1563 L 67.0218 53.1563 L 67.0218 70.506 L 67.0218 70.506 Z" fill="#ffffff"/>
				<path d="M 91.7192 59.1178 L 93.8216 59.1178 L 93.8216 58.097 C 93.8216 57.418 93.6839 56.7684 93.4085 56.1456 C 93.1331 55.5228 92.7273 54.9807 92.1938 54.5191 C 91.6602 54.0575 91.0061 53.6887 90.2291 53.4127 C 89.4521 53.1392 88.5742 53 87.5907 53 C 86.7399 53 85.958 53.1099 85.2498 53.3297 C 84.5416 53.5495 83.9318 53.8621 83.4228 54.2675 C 82.9138 54.6729 82.5179 55.1516 82.2352 55.7036 C 81.9499 56.2555 81.8098 56.8636 81.8098 57.5279 L 81.8098 57.821 C 81.8098 58.5512 81.9425 59.1838 82.2106 59.7186 C 82.4761 60.2559 82.8597 60.7126 83.3613 61.0936 C 83.8605 61.4746 84.4654 61.7848 85.1736 62.0192 C 85.8817 62.2561 86.6809 62.4295 87.5661 62.5419 C 89.0832 62.7543 90.1799 63.0963 90.8561 63.5652 C 91.5299 64.0365 91.8692 64.7179 91.8692 65.6093 L 91.8692 65.7559 C 91.8692 66.6815 91.5397 67.4239 90.8807 67.9832 C 90.2217 68.5449 89.2406 68.8233 87.9398 68.8233 C 86.4374 68.8233 85.2645 68.4497 84.4236 67.7023 C 83.5826 66.955 83.1622 65.8316 83.1622 64.3369 L 83.1622 63.7508 L 81.0598 63.7508 L 81.0598 64.4761 C 81.0598 65.3627 81.2098 66.1808 81.5098 66.9281 C 81.8098 67.6779 82.2474 68.33 82.8228 68.8868 C 83.3982 69.4437 84.1138 69.8784 84.9744 70.191 C 85.835 70.506 86.8235 70.6623 87.9398 70.6623 C 88.9234 70.6623 89.7914 70.5402 90.5438 70.2984 C 91.2938 70.0567 91.9233 69.7172 92.4323 69.28 C 92.9388 68.8429 93.3224 68.3202 93.583 67.7121 C 93.8412 67.1064 93.9716 66.4372 93.9716 65.707 L 93.9716 65.4164 C 93.9716 64.122 93.5363 63.0889 92.6683 62.3196 C 91.8003 61.5528 90.4504 61.0301 88.616 60.7541 C 87.8316 60.6418 87.1481 60.5075 86.5629 60.3536 C 85.9776 60.1997 85.4908 60.0044 85.0998 59.7699 C 84.7064 59.5354 84.4113 59.2522 84.2121 58.92 C 84.0105 58.5879 83.9121 58.1873 83.9121 57.7184 L 83.9121 57.5719 C 83.9121 57.1347 84.0105 56.7513 84.2121 56.4191 C 84.4113 56.087 84.6818 55.8086 85.0236 55.5815 C 85.3654 55.3543 85.7539 55.1809 86.1891 55.0588 C 86.6219 54.9367 87.0817 54.8757 87.5661 54.8757 C 88.1144 54.8757 88.6382 54.9489 89.1398 55.0954 C 89.6414 55.242 90.084 55.4545 90.4676 55.7304 C 90.8512 56.0064 91.1536 56.3556 91.3799 56.7782 C 91.6061 57.2007 91.7192 57.6891 91.7192 58.2411 L 91.7192 59.1178 L 91.7192 59.1178 Z" fill="#ffffff"/>
				<path d="M 97.0255 70.506 L 99.1279 70.506 L 99.1279 62.6908 L 106.5833 62.6908 L 106.5833 70.506 L 108.6857 70.506 L 108.6857 53.1563 L 106.5833 53.1563 L 106.5833 60.8152 L 99.1279 60.8152 L 99.1279 53.1563 L 97.0255 53.1563 L 97.0255 70.506 L 97.0255 70.506 Z" fill="#ffffff"/>
				<path d="M 112.5659 55.032 L 117.0681 55.032 L 117.0681 68.6304 L 112.5659 68.6304 L 112.5659 70.506 L 123.6753 70.506 L 123.6753 68.6304 L 119.1705 68.6304 L 119.1705 55.032 L 123.6753 55.032 L 123.6753 53.1563 L 112.5659 53.1563 L 112.5659 55.032 L 112.5659 55.032 Z" fill="#ffffff"/>
				<path d="M 128.1062 70.506 L 130.2086 70.506 L 130.2086 62.6908 L 138.714 62.6908 L 138.714 60.8152 L 130.2086 60.8152 L 130.2086 55.032 L 138.864 55.032 L 138.864 53.1563 L 128.1062 53.1563 L 128.1062 70.506 L 128.1062 70.506 Z" fill="#ffffff"/>
				<path d="M 142.4958 55.032 L 147.5981 55.032 L 147.5981 70.506 L 149.7004 70.506 L 149.7004 55.032 L 154.8051 55.032 L 154.8051 53.1563 L 142.4958 53.1563 L 142.4958 55.032 L 142.4958 55.032 Z" fill="#ffffff"/>
				<path d="M 184.2088 70.506 L 186.4612 70.506 L 181.1573 53.1563 L 177.2034 53.1563 L 171.8995 70.506 L 174.1494 70.506 L 175.4256 66.1295 L 182.9327 66.1295 L 184.2088 70.506 L 184.2088 70.506 ZM 179.3304 54.0941 L 182.3573 64.2539 L 176.0034 64.2539 L 179.0304 54.0941 L 179.3304 54.0941 L 179.3304 54.0941 Z" fill="#ffffff"/>
				<path d="M 188.8906 55.032 L 193.3929 55.032 L 193.3929 68.6304 L 188.8906 68.6304 L 188.8906 70.506 L 200 70.506 L 200 68.6304 L 195.4953 68.6304 L 195.4953 55.032 L 200 55.032 L 200 53.1563 L 188.8906 53.1563 L 188.8906 55.032 L 188.8906 55.032 Z" fill="#ffffff"/>
			</g>
			<g>
				<rect x="85.1977" y="80.3247" width="49.6047" height="12.6753" fill="#20e38a" rx="5" ry="5"/>
			</g>
		</g>
		<g>
			<path d="M 99.0779 90.871 L 100.7787 90.871 L 102.8566 83.3871 L 101.9098 83.3871 L 99.9918 90.5726 L 99.8648 90.5726 L 97.9467 83.3871 L 97 83.3871 L 99.0779 90.871 L 99.0779 90.871 Z" fill="#ffffff"/>
			<path d="M 104.168 87.7016 C 104.168 88.6936 104.3934 89.4516 104.8484 89.9677 C 105.2992 90.4839 105.9344 90.7419 106.7459 90.7419 C 107.5574 90.7419 108.1885 90.4839 108.6434 89.9677 C 109.0984 89.4516 109.3279 88.6936 109.3279 87.7016 L 109.3279 86.0403 C 109.3279 85.0806 109.0984 84.3306 108.6434 83.7984 C 108.1885 83.2661 107.5574 83 106.7459 83 C 105.9344 83 105.2992 83.2661 104.8484 83.7984 C 104.3934 84.3306 104.168 85.0806 104.168 86.0403 L 104.168 87.7016 L 104.168 87.7016 ZM 105.4713 89.3548 C 105.1885 88.9516 105.0492 88.379 105.0492 87.6411 L 105.0492 86.0968 C 105.0492 85.7581 105.082 85.4436 105.1516 85.1613 C 105.2213 84.879 105.3279 84.6371 105.4713 84.4314 C 105.6148 84.2298 105.791 84.0686 106 83.9556 C 106.209 83.8427 106.459 83.7823 106.7459 83.7823 C 107.0246 83.7823 107.2746 83.8427 107.4877 83.9556 C 107.7008 84.0686 107.8771 84.2298 108.0205 84.4314 C 108.1639 84.6371 108.2705 84.879 108.3402 85.1613 C 108.4098 85.4436 108.4467 85.7581 108.4467 86.0968 L 108.4467 87.6411 C 108.4467 88.379 108.3033 88.9516 108.0205 89.3548 C 107.7377 89.7581 107.3115 89.9597 106.7459 89.9597 C 106.1803 89.9597 105.7541 89.7581 105.4713 89.3548 L 105.4713 89.3548 ZM 106.2746 87.3266 C 106.4057 87.4556 106.5656 87.5161 106.7459 87.5161 C 106.9262 87.5161 107.0861 87.4556 107.2172 87.3266 C 107.3484 87.1976 107.418 87.0484 107.418 86.871 C 107.418 86.6976 107.3484 86.5484 107.2172 86.4194 C 107.0861 86.2903 106.9262 86.2258 106.7459 86.2258 C 106.5656 86.2258 106.4057 86.2903 106.2746 86.4194 C 106.1434 86.5484 106.0779 86.6976 106.0779 86.871 C 106.0779 87.0484 106.1434 87.1976 106.2746 87.3266 L 106.2746 87.3266 Z" fill="#ffffff"/>
			<path d="M 113.0451 90.5161 C 113.1885 90.6653 113.3607 90.7419 113.5656 90.7419 C 113.7705 90.7419 113.9426 90.6653 114.0861 90.5161 C 114.2295 90.3669 114.3033 90.1855 114.3033 89.9677 C 114.3033 89.754 114.2295 89.5726 114.0861 89.4194 C 113.9426 89.2702 113.7705 89.1936 113.5656 89.1936 C 113.3607 89.1936 113.1885 89.2702 113.0451 89.4194 C 112.9016 89.5726 112.832 89.754 112.832 89.9677 C 112.832 90.1855 112.9016 90.3669 113.0451 90.5161 L 113.0451 90.5161 Z" fill="#ffffff"/>
			<path d="M 120.6475 87.2581 C 121.0656 87.2581 121.418 87.3831 121.6967 87.629 C 121.9754 87.875 122.1189 88.2177 122.1189 88.6532 L 122.1189 88.7177 C 122.1189 88.9274 122.0738 89.121 121.9918 89.3064 C 121.9057 89.4919 121.791 89.6492 121.6434 89.7863 C 121.4959 89.9234 121.3238 90.0282 121.127 90.1048 C 120.9262 90.1814 120.709 90.2177 120.4795 90.2177 C 120.2254 90.2177 119.9918 90.1814 119.7787 90.1048 C 119.5615 90.0282 119.3729 89.9194 119.2172 89.7742 C 119.0574 89.6331 118.9344 89.4597 118.8484 89.254 C 118.7582 89.0484 118.7172 88.8145 118.7172 88.5484 L 118.7172 88.0484 L 117.8361 88.0484 L 117.8361 88.6048 C 117.8361 88.9355 117.8975 89.25 118.0205 89.5403 C 118.1434 89.8347 118.3197 90.0887 118.5492 90.3064 C 118.7787 90.5242 119.0615 90.6936 119.3893 90.8145 C 119.7172 90.9355 120.0861 91 120.5041 91 C 120.8566 91 121.1885 90.9395 121.4918 90.8266 C 121.7951 90.7097 122.0615 90.5524 122.2869 90.3508 C 122.5082 90.1492 122.6844 89.9113 122.8115 89.6371 C 122.9344 89.3629 123 89.0686 123 88.75 L 123 88.5564 C 123 88.2218 122.9385 87.9234 122.8156 87.6653 C 122.6926 87.4073 122.5287 87.1936 122.332 87.0161 C 122.1311 86.8387 121.9016 86.7056 121.6434 86.6129 C 121.3852 86.5242 121.1148 86.4758 120.8361 86.4758 L 120.418 86.4758 L 120.418 86.3427 L 122.8115 84.746 L 122.8115 83.3871 L 117.9016 83.3871 L 117.9016 84.1694 L 122.0533 84.1694 L 122.0533 84.3266 L 119.6639 85.9274 L 119.6639 87.2581 L 120.6475 87.2581 L 120.6475 87.2581 Z" fill="#ffffff"/>
		</g>
	</g>
</svg>