<?xml version="1.0" standalone="no"?>
<!-- Generator: Adobe Fireworks 10, Export SVG Extension by Aaron Beall (http://fireworks.abeall.com) . Version: 0.6.1  -->
<!DOCTYPE svg PUBLIC "-//W3C//DTD SVG 1.1//EN" "http://www.w3.org/Graphics/SVG/1.1/DTD/svg11.dtd">
<svg id="Untitled-6.fw-Page%201" viewBox="0 0 680 600" style="background-color:#ffffff" version="1.1"
	xmlns="http://www.w3.org/2000/svg" xmlns:xlink="http://www.w3.org/1999/xlink" xml:space="preserve"
	x="0px" y="0px" width="680px" height="600px"
>
	<g id="Layer%201">
		<g visibility="hidden">
			<path d="M 339.7254 48.416 L 556.6143 172.2727 L 556.6143 424.6309 L 339.7254 548.4876 L 125.9349 424.6309 L 125.9349 170.7245 L 339.7254 48.416 ZM 96.5 155.2424 L 96.5 441.6612 L 336.627 581 L 342.8238 581 L 584.5 441.6612 L 584.5 156.7906 L 345.9222 19 L 335.0778 19 L 96.5 155.2424 Z" stroke="#000000" stroke-width="6" fill="#000000"/>
			<path d="M 339.7254 93.314 L 158.4683 193.9477 L 158.4683 274.4546 L 471.4079 348.7686 L 471.4079 373.5399 L 339.7254 449.4022 L 208.0428 376.6364 L 208.0428 342.5757 L 158.4683 323.9973 L 158.4683 399.8595 L 339.7254 503.5895 L 520.9825 401.4077 L 520.9825 319.3526 L 209.5921 245.0386 L 209.5921 221.8154 L 339.7254 145.9532 L 474.5063 220.2672 L 474.5063 252.7796 L 522.5317 272.9063 L 522.5317 195.4959 L 339.7254 93.314 Z" stroke="#221f20" stroke-width="6" fill="#ed1e26"/>
			<g>
				<path d="M 344.373 57.7052 C 344.373 57.7052 352.5063 48.0289 366.0619 53.0606 C 379.6175 58.0923 384.6524 93.314 384.6524 93.314 C 384.6524 93.314 385.427 99.5069 384.6524 114.989 C 384.6524 114.989 397.8206 111.8926 406.3413 114.989 C 406.3413 114.989 395.8841 118.0854 393.9476 121.1818 C 393.9476 121.1818 414.0873 119.6336 423.3825 124.2782 C 432.6778 128.9229 438.3582 127.8907 438.3582 127.8907 C 438.3582 127.8907 421.317 156.6616 421.317 155.5005 C 421.317 154.3393 417.1857 158.3388 417.1857 158.3388 L 429.5794 159.8871 C 429.5794 159.8871 429.9667 163.7576 423.3825 169.1763 L 415.6365 169.1763 C 415.6365 169.1763 421.8333 190.8512 421.8333 201.6887 C 421.8333 201.6887 426.481 203.2369 426.481 180.0138 C 426.481 180.0138 435.0016 185.0455 432.6778 201.6887 C 432.6778 201.6887 427.2556 212.1391 429.5794 215.6226 C 431.9032 219.1061 438.8746 209.4297 438.8746 209.4297 C 438.8746 209.4297 441.4566 194.4637 435.7762 176.4013 C 435.7762 176.4013 426.481 133.5675 455.9159 110.3444 C 455.9159 110.3444 440.8111 135.8898 451.2682 142.8568 C 461.7254 149.8237 459.0143 122.73 459.0143 122.73 C 459.0143 122.73 455.5286 95.2493 472.9572 85.573 C 472.9572 85.573 463.6619 108.022 474.5063 130.4711 C 474.5063 130.4711 485.7381 166.854 469.8587 189.303 C 453.9794 211.7521 446.6206 214.0744 440.4238 232.6529 C 434.227 251.2314 445.0714 248.135 445.0714 248.135 C 445.0714 248.135 451.6555 245.8127 454.3667 232.6529 C 454.3667 232.6529 451.2682 222.2025 463.6619 212.5262 C 463.6619 212.5262 456.6905 224.5248 459.0143 241.9422 C 461.3381 259.3595 440.4238 282.1956 440.4238 282.1956 C 440.4238 282.1956 432.2905 288.3884 426.481 291.4849 C 426.481 291.4849 423.3825 310.4504 417.1857 316.2562 C 417.1857 316.2562 415.2492 351.865 400.1444 387.4738 C 385.0397 423.0826 352.119 452.4986 352.119 452.4986 C 352.119 452.4986 324.2333 476.8829 288.6016 492.7521 C 260.7604 505.1516 241.4317 495.3385 234.3104 490.4547 C 232.3178 489.0881 231.4746 483.6563 231.5845 482.3275 C 232.1333 475.6874 233.9118 465.0959 239.027 460.2397 C 239.027 460.2397 244.0619 449.0151 263.8143 427.7273 C 263.8143 427.7273 275.046 411.084 277.7571 373.5399 L 277.7571 341.0276 C 277.7571 341.0276 267.6873 335.6088 265.3635 325.5454 C 263.0397 315.4821 266.9127 311.6116 266.9127 311.6116 C 266.9127 311.6116 270.3984 305.4187 285.5032 300.7741 C 285.5032 300.7741 276.5952 295.3554 271.5603 277.551 C 271.5603 277.551 261.8778 262.0688 263.8143 251.2314 C 263.8143 251.2314 239.027 234.5882 254.519 203.2369 C 254.519 203.2369 261.4905 188.916 274.6587 183.1102 C 274.6587 183.1102 272.3349 166.0799 279.3063 153.6942 C 286.2778 141.3085 291.7 138.2121 291.7 138.2121 C 291.7 138.2121 299.8333 132.4063 302.5444 132.0193 L 310.2905 136.6639 L 325.7825 136.6639 C 325.7825 136.6639 320.7476 127.7617 297.8968 125.8264 C 297.8968 125.8264 290.1508 119.6336 324.2333 118.0854 C 324.2333 118.0854 295.9603 99.8939 311.8397 73.1873 C 311.8397 73.1873 321.9095 94.8623 359.8651 104.1515 C 359.8651 104.1515 367.6111 106.0868 378.4556 111.8926 C 378.4556 111.8926 378.8429 82.0895 344.373 57.7052 Z" stroke="#000000" stroke-width="3" fill="#221f20"/>
				<path d="M 240.0598 472.1093 C 242.6984 466.5059 264.8471 439.0808 264.8471 439.0808 C 275.1751 429.7916 287.0524 408.6327 287.0524 408.6327 L 273.6259 419.4702 C 284.4704 403.472 285.5032 347.2204 285.5032 347.2204 C 322.6841 358.0579 319.5857 348.7686 319.5857 348.7686 C 319.5857 348.7686 290.409 349.5427 274.6587 328.6419 C 274.6587 328.6419 263.5561 311.6116 287.0524 306.9669 L 288.6016 314.708 L 288.6016 316.2562 L 282.4048 316.2562 L 283.954 319.3526 C 283.954 319.3526 305.1265 345.1561 353.6682 337.9311 C 402.21 330.7061 402.21 305.4187 409.4397 297.6777 L 418.7349 296.1295 C 418.7349 296.1295 405.8249 331.7383 378.4556 342.5757 C 378.4556 342.5757 384.6524 347.7365 409.4397 328.6419 C 409.4397 328.6419 394.464 392.6346 378.4556 409.1488 C 378.4556 409.1488 359.8651 439.0808 311.8397 471.0771 C 311.8397 471.0771 268.9783 499.977 241.609 487.5913 C 241.609 487.5913 235.9286 480.8824 240.0598 472.1093 Z" stroke="#ed1e26" stroke-width="2" fill="#ca151f"/>
				<path d="M 386.9762 348.3815 C 386.9762 348.3815 369.5476 361.1543 349.0206 361.1543 C 328.4937 361.1543 299.446 357.6708 299.446 357.6708 L 297.8968 359.606 C 297.8968 359.606 300.2206 402.5689 294.7984 410.697 C 289.3762 418.8251 282.0175 431.5978 252.9698 463.3361 C 248.7095 469.916 248.3186 476.1473 255.7529 479.485 C 275.8206 488.4945 352.2442 424.9124 359.0905 416.1157 C 367.2238 405.6653 387.3635 382.8292 386.9762 348.3815 Z" fill="#ed1e26"/>
				<path d="M 311.8397 370.4435 C 311.8397 370.4435 325.0079 359.219 333.5286 375.0882 C 333.5286 375.0882 335.8524 383.9904 321.1349 409.1488 C 306.4175 434.3072 273.1095 473.0124 265.3635 467.9807 C 257.6175 462.949 272.0767 448.8861 272.0767 448.8861 L 299.446 413.7934 C 299.446 413.7934 311.8397 397.5372 310.2905 390.5703 L 311.8397 370.4435 Z" stroke="#ffffff00" stroke-width="2" fill="#f79274"/>
				<path d="M 355.2175 337.9311 C 355.2175 337.9311 365.6746 339.0923 373.8079 339.4793 C 381.9413 339.8664 360.6397 346.8333 360.6397 346.8333 C 360.6397 346.8333 322.6841 352.2521 302.5444 345.6722 C 282.4048 339.0923 283.954 330.1901 283.954 330.1901 C 283.954 330.1901 285.1159 325.9325 288.6016 327.0937 C 292.0873 328.2548 296.3476 330.1901 296.3476 330.1901 C 296.3476 330.1901 311.4524 336.3829 314.9381 336.3829 C 318.4238 336.3829 328.4937 341.4146 355.2175 337.9311 Z" stroke="#ffffff00" stroke-width="2" fill="#ed1d25"/>
				<path d="M 336.627 344.124 C 336.627 344.124 337.4016 347.9945 324.2333 347.2204 C 311.0651 346.4463 302.5444 339.4793 302.5444 339.4793 C 302.5444 339.4793 297.1222 334.4477 307.1921 334.8347 C 307.1921 334.8347 314.5508 341.0276 333.5286 342.5757 C 339.7076 343.0798 336.627 344.124 336.627 344.124 Z" stroke="#ffffff00" stroke-width="2" fill="#f49678"/>
				<path d="M 304.0936 305.4187 L 300.9952 303.8705 L 292.2809 308.9022 C 291.7 320.5138 294.7984 319.3526 294.7984 319.3526 L 295.7667 317.8044 L 296.3476 317.8044 L 296.3476 320.9008 C 298.0905 329.9966 318.0365 331.7383 318.0365 331.7383 L 319.5857 330.1901 L 319.5857 323.9973 L 319.973 321.4814 L 320.3603 321.0944 L 321.7159 331.1577 C 336.4333 339.2858 353.6682 333.2865 353.6682 333.2865 L 355.0238 329.803 L 356.1857 325.739 L 356.7667 325.5454 L 356.7667 331.7383 C 373.227 331.5448 380.0048 323.9973 380.0048 323.9973 L 380.3921 318.9656 L 381.554 318.1915 L 383.1032 320.9008 C 389.881 319.3526 400.1444 306.9669 400.1444 306.9669 L 397.046 303.8705 C 397.046 303.8705 353.8619 325.9325 300.9952 308.5151 L 304.0936 305.4187 Z" stroke="#000000" stroke-width="2" fill="#ffffff"/>
				<path d="M 401.6937 266.7135 C 401.6937 266.7135 400.5317 293.2266 339.7254 303.8705 C 339.7254 303.8705 299.2524 307.5475 282.4048 293.0331 L 277.7571 283.7438 L 280.8556 279.0992 C 280.8556 279.0992 287.6333 286.8402 291.7 286.8402 L 291.7 291.4849 L 293.2492 289.9366 L 293.2492 286.8402 C 293.2492 286.8402 297.5095 291.4849 314.9381 293.0331 L 318.0365 296.1295 L 318.0365 297.6777 L 319.5857 294.5813 L 321.1349 293.0331 C 321.1349 293.0331 342.0492 295.1618 356.7667 289.9366 L 358.3159 293.0331 L 359.8651 291.4849 L 359.8651 288.3884 C 359.8651 288.3884 379.4238 278.9056 386.2016 271.3581 L 387.7508 277.551 L 387.7508 271.3581 L 387.7508 268.2617 C 387.7508 268.2617 397.4333 261.6818 398.5952 252.7796 L 401.6937 254.3278 L 401.6937 266.7135 Z" stroke="#000000" stroke-width="2" fill="#fdfdfd"/>
				<path d="M 274.6587 258.9725 C 274.6587 258.9725 272.3349 258.1984 273.1095 260.5207 C 273.8841 262.843 284.2122 268.0037 280.8556 268.2617 C 277.4989 268.5197 270.0111 263.6171 270.0111 263.6171 C 270.0111 263.6171 290.409 297.9357 349.0206 285.292 C 349.0206 285.292 380.0048 278.067 399.3698 241.9422 L 399.6281 231.8788 L 396.2714 230.5886 L 394.9804 232.1368 C 394.9804 232.1368 395.4968 237.5556 390.8492 249.6832 C 386.2016 261.8108 352.119 276.0027 352.119 276.0027 L 345.9222 276.0027 L 356.7667 266.7135 C 356.7667 266.7135 337.6598 263.8751 331.9794 255.876 C 331.9794 255.876 322.6841 267.7456 300.9952 265.1653 C 300.9952 265.1653 290.1508 267.2296 274.6587 258.9725 Z" stroke="#ed1e26" stroke-width="2" fill="#ca151f"/>
				<path d="M 322.6841 266.7135 C 322.6841 266.7135 331.9794 260.3271 339.7254 266.7135 C 339.7254 266.7135 343.7921 270.584 335.0778 276.0027 C 335.0778 276.0027 333.5286 278.1315 349.0206 277.551 L 355.2175 276.0027 L 353.6682 279.0992 C 353.6682 279.0992 349.0206 282.9697 325.7825 285.292 C 302.5444 287.6143 290.1508 277.551 290.1508 277.551 C 290.1508 277.551 288.2143 275.4222 290.1508 274.4546 C 290.1508 274.4546 288.7952 272.1322 299.446 272.9063 L 297.5095 268.2617 C 297.5095 268.2617 312.8079 269.2293 322.6841 266.7135 Z" fill="#ed1e26"/>
				<path d="M 325.7825 276.0027 C 325.7825 276.0027 316.4873 277.551 313.3889 276.0027 C 310.2905 274.4546 313.3889 271.3581 313.3889 271.3581 C 313.3889 271.3581 318.8111 266.9715 327.3317 272.9063 C 327.3317 272.9063 328.3646 274.7126 325.7825 276.0027 Z" stroke="#ffffff00" stroke-width="2" fill="#f79274"/>
				<path d="M 339.7254 210.978 C 339.7254 210.978 318.2947 168.1442 280.8556 187.7548 C 243.4164 207.3655 262.2651 238.8457 262.2651 238.8457 C 262.2651 238.8457 276.4661 260.7787 302.5444 260.5207 C 328.6227 260.2626 328.881 249.6832 328.881 249.6832 L 327.3317 246.5868 C 327.3317 246.5868 317.7783 263.101 290.1508 251.2314 C 290.1508 251.2314 267.4291 241.4261 283.954 214.0744 C 283.954 214.0744 291.4418 205.8172 304.0936 203.2369 C 316.7455 200.6566 331.9794 217.1708 331.9794 217.1708 L 339.7254 210.978 Z" stroke="#000000" stroke-width="2" fill="#ffffff"/>
				<path d="M 330.4302 223.3636 C 330.4302 223.3636 325.7825 229.5565 325.7825 238.8457 C 325.7825 248.135 307.1921 249.6832 307.1921 249.6832 C 307.1921 249.6832 291.4418 250.9734 283.954 238.8457 C 276.4661 226.7181 288.6016 212.5262 288.6016 212.5262 C 288.6016 212.5262 298.6714 203.2369 311.8397 207.8815 C 325.0079 212.5262 329.9138 218.2029 330.4302 223.3636 Z" stroke="#000000" stroke-width="2" fill="#ffff04"/>
				<path d="M 322.6841 237.2975 C 322.6841 237.2975 318.5529 246.8448 300.9952 246.5868 C 300.9952 246.5868 290.1508 244.0064 288.6016 238.8457 C 287.0524 233.685 294.7984 235.7493 294.7984 235.7493 C 294.7984 235.7493 296.0894 241.9422 302.5444 241.9422 C 308.9995 241.9422 317.0037 239.8779 319.5857 237.2975 C 322.1677 234.7172 322.6841 237.2975 322.6841 237.2975 Z" stroke="#ffffff00" stroke-width="2" fill="#fcda00"/>
				<path d="M 288.6016 218.719 C 288.6016 218.719 280.0809 229.0404 288.6016 240.3939 L 294.7984 235.7493 C 294.7984 235.7493 293.2492 226.7181 294.7984 223.3636 C 296.3476 220.0092 288.6016 218.719 288.6016 218.719 Z" stroke="#ffffff00" stroke-width="2" fill="#fdc50d"/>
				<path d="M 294.7984 224.9118 L 287.4397 221.0413 C 287.4397 221.0413 290.1508 209.9458 304.0936 210.978 C 318.0365 212.0101 323.7169 219.2351 324.7497 218.9771 C 325.7825 218.719 321.3931 223.6217 321.3931 223.6217 C 321.3931 223.6217 312.8725 212.2681 302.5444 218.719 C 292.2164 225.1699 294.7984 224.9118 294.7984 224.9118 Z" fill="#eaa319"/>
				<path d="M 291.7 215.6226 L 291.7 217.1708 L 294.7984 218.719 L 297.8968 217.1708 L 300.9952 215.6226 L 302.5444 212.5262 L 300.9952 210.978 L 297.8968 209.4297 L 294.7984 210.978 L 293.2492 212.5262 L 291.7 215.6226 Z" fill="#ffff92"/>
				<path d="M 311.8397 238.8457 L 314.9381 238.8457 L 316.4873 240.3939 L 314.9381 243.4904 L 311.8397 245.0386 L 308.7413 245.0386 L 305.6429 245.0386 L 305.6429 243.4904 L 307.1921 241.9422 L 308.7413 240.3939 L 311.8397 238.8457 Z" fill="#fdf583"/>
				<path d="M 297.8968 228.0083 C 297.8968 228.0083 303.8354 217.6869 311.8397 220.2672 C 319.8439 222.8476 318.0365 229.5565 318.0365 229.5565 C 318.0365 229.5565 318.5529 234.9752 313.3889 237.2975 C 308.2249 239.6198 300.9952 237.2975 300.9952 237.2975 C 300.9952 237.2975 299.1878 235.7493 297.8968 234.2011 C 296.6058 232.6529 297.8968 228.0083 297.8968 228.0083 Z" stroke="#000000" stroke-width="2" fill="#221f20"/>
				<path d="M 335.0778 192.3994 C 335.0778 192.3994 320.7476 177.3044 300.9952 175.3691 C 300.9952 175.3691 285.1159 176.1432 280.8556 180.0138 C 280.8556 180.0138 279.6937 161.4353 283.954 156.7906 C 283.954 156.7906 289.3762 148.2755 299.446 149.0496 C 309.5159 149.8237 325.7825 175.3691 325.7825 175.3691 C 325.7825 175.3691 330.0428 181.1749 335.0778 181.562 C 340.1127 181.949 344.373 176.9174 344.373 176.9174 C 344.373 176.9174 350.1825 167.6281 349.0206 155.2424 L 339.7254 161.4353 C 339.7254 161.4353 326.9445 146.7273 321.1349 144.405 C 315.3254 142.0826 328.881 142.8568 328.881 142.8568 C 328.881 142.8568 338.9508 144.0179 341.2746 147.5014 C 341.2746 147.5014 346.3095 147.5014 335.0778 139.7603 C 335.0778 139.7603 374.1953 130.4711 387.7508 142.8568 C 401.3063 155.2424 407.5032 168.4022 407.8905 172.2727 C 407.8905 172.2727 414.8619 182.7231 417.1857 206.3333 C 417.1857 206.3333 400.919 217.9449 400.1444 224.9118 L 395.4968 224.9118 C 395.4968 224.9118 395.4968 218.719 390.8492 212.5262 C 386.2016 206.3333 406.3413 206.3333 406.3413 206.3333 C 406.3413 206.3333 411.7635 208.6557 410.9889 209.4297 C 410.9889 209.4297 412.5381 201.3017 393.9476 201.6887 C 393.9476 201.6887 389.3 201.3017 384.6524 206.3333 C 384.6524 206.3333 377.6809 202.0758 372.2587 203.2369 C 372.2587 203.2369 392.3984 186.2066 392.3984 180.0138 C 392.3984 173.8209 406.7286 197.0441 406.3413 200.1405 C 406.3413 200.1405 410.2143 198.9793 406.3413 180.0138 C 402.4683 161.0482 384.6524 155.2424 384.6524 155.2424 L 384.6524 158.3388 C 384.6524 158.3388 363.7381 155.6295 358.3159 167.6281 C 358.3159 167.6281 374.9698 160.2741 381.554 164.5317 C 381.554 164.5317 372.2587 179.6267 359.8651 183.1102 C 359.8651 183.1102 357.5413 186.2066 352.119 178.4656 C 352.119 178.4656 339.3381 194.3347 347.4714 203.2369 L 347.4714 206.3333 C 347.4714 206.3333 338.9508 201.6887 341.2746 192.3994 C 341.2746 192.3994 340.8873 186.9807 347.4714 178.4656 C 347.4714 178.4656 336.627 184.2713 335.0778 192.3994 Z" stroke="#ed1e26" stroke-width="2" fill="#ca151f"/>
				<path d="M 334.6905 227.6212 C 334.6905 227.6212 341.2746 210.978 358.3159 207.8815 C 375.3571 204.7851 384.6524 217.1708 384.6524 217.1708 C 384.6524 217.1708 395.4968 228.3953 385.427 243.4904 C 378.736 253.5204 381.1667 255.1019 358.3159 260.5207 C 358.3159 260.5207 338.9508 259.3595 335.0778 248.135 C 333.3131 243.0208 332.4519 239.0145 332.3667 235.7493 C 332.2648 231.8481 334.6905 227.6212 334.6905 227.6212 Z" stroke="#000000" stroke-width="2" fill="#ffffff"/>
				<path d="M 344.373 226.4601 C 344.373 226.4601 351.7318 216.7838 360.6397 216.3967 C 369.5476 216.0096 376.9063 221.8154 376.9063 221.8154 C 376.9063 221.8154 385.0397 230.3306 381.554 240.3939 C 378.0683 250.4573 369.9349 253.1667 369.1603 252.7796 C 368.3857 252.3926 355.9921 258.5854 347.4714 249.6832 C 338.9508 240.781 341.6619 233.8141 341.6619 233.8141 C 341.6619 233.8141 343.2111 227.2342 344.373 226.4601 Z" stroke="#000000" stroke-width="2" fill="#221f20"/>
				<path d="M 378.4556 238.8457 C 378.4556 238.8457 368.3857 250.0703 355.2175 248.135 C 355.2175 248.135 345.5349 244.2645 344.373 237.2975 C 343.2111 230.3306 349.0206 226.4601 349.0206 226.4601 C 349.0206 226.4601 350.1825 221.0413 361.4143 218.719 C 372.646 216.3967 380.0048 229.5565 380.0048 229.5565 C 380.0048 229.5565 381.1667 236.5234 378.4556 238.8457 Z" stroke="#000000" stroke-width="2" fill="#ffff04"/>
				<path d="M 376.1317 237.2975 C 376.1317 237.2975 372.2413 245.2072 359.3508 245.0351 C 359.3508 245.0351 350.9326 244.092 349.7952 240.652 C 348.6578 237.212 353.6682 237.5556 353.6682 237.5556 C 353.6682 237.5556 355.7491 241.9391 360.4882 241.9391 C 365.2274 241.9391 370.8795 238.5014 372.7751 236.7815 C 374.6707 235.0615 376.1317 237.2975 376.1317 237.2975 Z" stroke="#ffffff00" stroke-width="2" fill="#fcda00"/>
				<path d="M 350.2517 226.4592 C 350.2517 226.4592 343.5396 233.342 349.7952 240.91 L 353.9265 238.0716 C 353.9265 238.0716 353.6639 231.7912 354.8013 229.5552 C 355.9387 227.3192 350.2517 226.4592 350.2517 226.4592 Z" stroke="#ffffff00" stroke-width="2" fill="#fdc50d"/>
				<path d="M 354.4429 230.5886 L 349.3987 228.0072 C 349.3987 228.0072 351.3891 220.6112 361.6256 221.2992 C 371.8622 221.9872 374.5989 227.1481 375.3571 226.9761 C 376.1154 226.8041 372.5169 230.5886 372.5169 230.5886 C 372.5169 230.5886 366.4149 221.644 358.8323 225.944 C 351.2497 230.244 354.4429 230.5886 354.4429 230.5886 Z" fill="#eaa319"/>
				<path d="M 352.5265 224.3952 L 352.5265 225.4272 L 354.8013 226.4592 L 357.076 225.4272 L 359.3508 224.3952 L 360.4882 222.3312 L 359.3508 221.2992 L 357.076 220.2672 L 354.8013 221.2992 L 353.6639 222.3312 L 352.5265 224.3952 Z" fill="#ffff92"/>
				<path d="M 367.3126 239.8751 L 369.5873 239.8751 L 370.7247 240.9072 L 369.5873 242.9712 L 367.3126 244.0032 L 365.0378 244.0032 L 362.763 244.0032 L 362.763 242.9712 L 363.9004 241.9391 L 365.0378 240.9072 L 367.3126 239.8751 Z" fill="#fdf583"/>
				<path d="M 355.2175 235.7493 C 355.2175 235.7493 356.7667 222.5895 366.0619 228.0083 C 375.3571 233.427 364.5127 238.8457 364.5127 238.8457 C 364.5127 238.8457 358.7032 242.3292 355.2175 235.7493 Z" stroke="#000000" stroke-width="2" fill="#221f20"/>
				<path d="M 381.554 293.0331 C 381.554 293.0331 399.1116 287.8724 407.8905 265.1653 C 407.8905 265.1653 408.2657 260.5129 407.1159 253.844 C 406.5568 250.6015 406.4796 246.7305 405.1794 244.6515 C 405.1794 244.6515 403.7592 222.8476 412.5381 218.719 C 421.3169 214.5904 424.9317 206.3333 424.9317 206.3333 C 424.9317 206.3333 419.2513 220.2672 426.481 224.9118 C 433.7106 229.5565 438.8746 217.1708 438.8746 217.1708 C 438.8746 217.1708 446.6206 211.494 443.5222 184.6584 C 443.5222 184.6584 443.5222 179.4977 440.4238 167.6281 C 437.3254 155.7585 439.391 150.0817 443.5222 138.2121 C 443.5222 138.2121 443.0058 152.6621 454.3667 152.146 C 465.7275 151.6299 465.2111 136.6639 465.2111 136.6639 L 465.2111 124.2782 C 465.2111 124.2782 472.9572 146.9853 471.4079 156.7906 C 471.4079 156.7906 476.5719 169.6924 454.3667 198.5923 C 432.1614 227.4922 431.1286 234.2011 431.1286 234.2011 C 431.1286 234.2011 428.8047 249.6832 435.7762 253.0377 C 435.7762 253.0377 441.973 259.4885 451.2682 251.2314 C 451.2682 251.2314 445.5878 273.9385 424.9317 282.1956 C 424.9317 282.1956 404.7921 295.0973 381.554 293.0331 Z" stroke="#ffdd00" stroke-width="2" fill="#fdc30d"/>
				<path d="M 406.3413 282.1956 C 406.3413 282.1956 413.3127 279.8733 412.5381 271.3581 C 411.7635 262.843 409.4397 258.9725 409.4397 258.9725 C 409.4397 258.9725 408.5493 245.0089 409.4397 237.2975 C 410.6016 227.2342 416.4111 223.3636 418.2185 222.3315 C 418.2185 222.3315 417.9603 229.5565 419.7677 231.6207 C 421.5751 233.685 427.5138 232.1368 427.5138 232.1368 C 427.5138 232.1368 422.3497 245.8127 429.5794 252.7796 C 429.5794 252.7796 430.6122 258.7144 440.4238 260.5207 C 440.4238 260.5207 440.1656 269.2939 421.8333 280.6474 C 421.8333 280.6474 409.9561 285.292 406.3413 282.1956 Z" fill="#ffde00"/>
				<path d="M 452.8175 193.9477 C 452.8175 193.9477 462.8873 179.7557 465.2111 170.7245 C 467.5349 161.6933 469.0196 156.6616 466.954 147.8884 C 466.954 147.8884 465.2111 152.9201 452.8175 156.7906 C 452.8175 156.7906 444.555 155.565 442.7476 149.6302 C 442.7476 149.6302 443.4214 166.8269 445.0714 170.7245 C 447.9117 177.4334 447.6139 179.7137 447.3952 182.3361 C 447.2016 184.6584 446.6206 189.303 446.6206 200.1405 C 446.6206 200.1405 449.9772 198.8503 452.8175 193.9477 Z" stroke="#ffffff00" stroke-width="2" fill="#ffde00"/>
				<path d="M 446.6206 159.8871 C 446.6206 159.8871 454.1085 166.854 463.6619 159.8871 C 463.6619 159.8871 458.7561 179.2397 454.3667 183.1102 C 454.3667 183.1102 445.5878 168.9183 446.6206 159.8871 Z" stroke="#fdd866" stroke-width="2" fill="#fff686"/>
				<path d="M 415.6365 237.2975 C 415.6365 237.2975 416.9275 241.4261 423.3825 241.9422 C 423.3825 241.9422 421.8333 260.5207 434.227 265.1653 C 434.227 265.1653 428.5465 274.7126 417.1857 279.0992 L 415.6365 237.2975 Z" stroke="#fdd866" stroke-width="2" fill="#fff686"/>
				<path d="M 262.2651 218.719 C 262.2651 218.719 263.8143 235.7493 273.1095 238.8457 C 273.1095 238.8457 277.7571 245.2966 283.954 251.2314 C 290.1508 257.1662 274.1423 248.651 273.1095 246.5868 C 272.0767 244.5225 274.4005 241.9422 271.5603 240.3939 C 268.7201 238.8457 266.9127 240.3939 266.9127 240.3939 C 266.9127 240.3939 259.4249 231.6208 262.2651 218.719 Z" fill="#e6e6e6"/>
				<path d="M 287.0524 173.8209 C 287.0524 173.8209 281.6302 163.4995 291.7 156.7906 C 301.7698 150.0817 316.4873 170.7245 316.4873 170.7245 C 316.4873 170.7245 317.2619 174.079 313.3889 173.8209 C 309.5159 173.5629 301.2534 171.4986 287.0524 173.8209 Z" fill="#ed1e26"/>
				<path d="M 291.7 161.4353 C 291.7 161.4353 295.3148 155.2424 300.9952 161.4353 C 306.6757 167.6281 299.446 167.6281 299.446 167.6281 C 299.446 167.6281 295.0566 168.4022 291.7 161.4353 Z" fill="#f79274"/>
				<path d="M 347.4714 142.8568 C 347.4714 142.8568 363.4799 132.2773 386.2016 147.5014 C 386.2016 147.5014 390.3328 154.7263 370.7095 155.2424 C 351.0862 155.7585 347.4714 142.8568 347.4714 142.8568 Z" stroke="#ffffff00" stroke-width="2" fill="#ed1e26"/>
				<path d="M 359.8651 147.5014 C 359.8651 147.5014 358.3159 142.5987 364.5127 142.8568 C 370.7095 143.1148 372.2587 145.9532 372.2587 145.9532 C 372.2587 145.9532 372.0005 148.7915 369.1603 149.0496 C 366.3201 149.3076 361.1561 149.8237 359.8651 147.5014 Z" stroke="#ffffff00" stroke-width="2" fill="#f79274"/>
				<path d="M 357.7995 173.8209 C 357.7995 173.8209 353.6682 167.3701 373.8079 166.0799 C 373.8079 166.0799 361.9307 176.9174 361.4143 176.9174 C 360.8979 176.9174 357.7995 178.7236 357.7995 173.8209 Z" stroke="#ffffff00" stroke-width="2" fill="#ed1e26"/>
				<path d="M 359.8651 172.2727 C 359.8651 172.2727 360.1233 166.596 366.0619 170.7245 C 366.0619 170.7245 363.4799 177.4334 359.8651 172.2727 Z" stroke="#ffffff00" stroke-width="2" fill="#f79274"/>
				<path d="M 393.9476 214.0744 C 393.9476 214.0744 398.9825 208.2686 403.2429 210.978 C 407.5032 213.6873 400.1444 217.1708 400.1444 217.1708 L 393.9476 214.0744 Z" stroke="#ffffff00" stroke-width="2" fill="#ed1e26"/>
				<path d="M 397.046 212.5262 C 397.046 212.5262 397.3042 206.8494 403.2429 210.978 C 403.2429 210.978 400.6608 217.6869 397.046 212.5262 Z" stroke="#ffffff00" stroke-width="2" fill="#f79274"/>
				<path d="M 322.6841 107.2479 C 322.6841 107.2479 310.2905 92.0239 313.3889 81.4444 C 313.3889 81.4444 310.2905 92.0239 355.2175 107.2479 C 355.2175 107.2479 374.8408 114.4729 383.1032 122.73 L 384.6524 125.8264 C 384.6524 125.8264 396.7878 119.8916 431.1286 132.0193 L 418.7349 150.5978 C 418.7349 150.5978 420.0259 140.5344 398.5952 133.5675 C 398.5952 133.5675 384.9106 129.697 381.554 133.5675 C 381.554 133.5675 358.8323 108.5381 322.6841 107.2479 Z" stroke="#568e37" stroke-width="2" fill="#416b2a"/>
				<path d="M 327.3317 122.73 L 327.3317 130.4711 C 327.3317 130.4711 322.6841 124.2782 311.8397 124.2782 L 327.3317 122.73 Z" stroke="#568e37" stroke-width="2" fill="#416b2a"/>
				<path d="M 353.6682 59.2534 C 353.6682 59.2534 359.0905 55.6409 362.9635 56.157 C 362.9635 56.157 380.263 77.5739 381.554 101.0551 C 381.554 101.0551 372.7751 73.1873 353.6682 59.2534 Z" stroke="#568e37" stroke-width="2" fill="#416b2a"/>
				<path d="M 387.7508 118.0854 C 387.7508 118.0854 395.755 116.5372 398.5952 116.5372 L 390.8492 119.6336 L 387.7508 118.0854 Z" stroke="#568e37" stroke-width="2" fill="none"/>
				<path d="M 414.0873 162.9835 C 414.6037 161.9513 424.9317 164.0156 426.481 162.9835 C 426.481 162.9835 425.1899 164.2737 415.6365 166.0799 C 415.6365 166.0799 413.5709 164.0156 414.0873 162.9835 Z" stroke="#568e37" stroke-width="2" fill="#416b2a"/>
			</g>
			<path d="M 209.5921 232.6529 L 209.5921 221.8154 L 339.7254 145.9532 L 474.5063 220.2672 L 474.5063 252.7796 L 522.5317 272.9063 L 522.5317 195.4959 L 339.7254 93.314 L 158.4683 193.9477 L 158.4683 232.6529 " stroke="#221f20" stroke-width="6" fill="#ed1e26"/>
			<path d="M 471.4079 362.7025 L 471.4079 373.5399 L 339.7254 449.4022 L 208.0428 376.6364 L 208.0428 342.5757 L 158.4683 323.9973 L 158.4683 399.8595 L 339.7254 503.5895 L 520.9825 401.4077 L 520.9825 362.7025 " stroke="#221f20" stroke-width="6" fill="#ed1e26"/>
			<g>
				<path d="M 422.4885 201.6011 C 423.7693 201.0384 426.481 197.7526 426.481 180.0138 C 426.481 180.0138 435.0016 185.0455 432.6778 201.6887 C 432.6778 201.6887 427.2556 212.1391 429.5794 215.6226 C 431.9032 219.1061 438.8746 209.4297 438.8746 209.4297 C 438.8746 209.4297 441.4566 194.4637 435.7762 176.4013 C 435.7762 176.4013 426.481 133.5675 455.9159 110.3444 C 455.9159 110.3444 440.8111 135.8898 451.2682 142.8568 C 461.7254 149.8237 459.0143 122.73 459.0143 122.73 C 459.0143 122.73 455.5286 95.2493 472.9572 85.573 C 472.9572 85.573 463.6619 108.022 474.5063 130.4711 C 474.5063 130.4711 485.7381 166.854 469.8587 189.303 C 453.9794 211.7521 446.6206 214.0744 440.4238 232.6529 C 434.227 251.2314 445.0714 248.135 445.0714 248.135 C 445.0714 248.135 451.6555 245.8127 454.3667 232.6529 C 454.3667 232.6529 451.2682 222.2025 463.6619 212.5262 C 463.6619 212.5262 456.6905 224.5248 459.0143 241.9422 C 461.3381 259.3595 440.4238 282.1956 440.4238 282.1956 C 440.4238 282.1956 432.9916 287.8546 427.2617 291.0582 " stroke="#000000" stroke-width="3" fill="#221f20"/>
				<path d="M 381.554 293.0331 C 381.554 293.0331 399.1116 287.8724 407.8905 265.1653 C 407.8905 265.1653 408.2657 260.5129 407.1159 253.844 C 406.5568 250.6015 406.4796 246.7305 405.1794 244.6515 C 405.1794 244.6515 403.7592 222.8476 412.5381 218.719 C 421.3169 214.5904 424.9317 206.3333 424.9317 206.3333 C 424.9317 206.3333 419.2513 220.2672 426.481 224.9118 C 433.7106 229.5565 438.8746 217.1708 438.8746 217.1708 C 438.8746 217.1708 446.6206 211.494 443.5222 184.6584 C 443.5222 184.6584 443.5222 179.4977 440.4238 167.6281 C 437.3254 155.7585 439.391 150.0817 443.5222 138.2121 C 443.5222 138.2121 443.0058 152.6621 454.3667 152.146 C 465.7275 151.6299 465.2111 136.6639 465.2111 136.6639 L 465.2111 124.2782 C 465.2111 124.2782 472.9572 146.9853 471.4079 156.7906 C 471.4079 156.7906 476.5719 169.6924 454.3667 198.5923 C 432.1614 227.4922 431.1286 234.2011 431.1286 234.2011 C 431.1286 234.2011 428.8047 249.6832 435.7762 253.0377 C 435.7762 253.0377 441.973 259.4885 451.2682 251.2314 C 451.2682 251.2314 445.5878 273.9385 424.9317 282.1956 C 424.9317 282.1956 404.7921 295.0973 381.554 293.0331 Z" stroke="#ffdd00" stroke-width="2" fill="#fdc30d"/>
				<path d="M 406.3413 282.1956 C 406.3413 282.1956 413.3127 279.8733 412.5381 271.3581 C 411.7635 262.843 409.4397 258.9725 409.4397 258.9725 C 409.4397 258.9725 408.5493 245.0089 409.4397 237.2975 C 410.6016 227.2342 416.4111 223.3636 418.2185 222.3315 C 418.2185 222.3315 417.9603 229.5565 419.7677 231.6207 C 421.5751 233.685 427.5138 232.1368 427.5138 232.1368 C 427.5138 232.1368 422.3497 245.8127 429.5794 252.7796 C 429.5794 252.7796 430.6122 258.7144 440.4238 260.5207 C 440.4238 260.5207 440.1656 269.2939 421.8333 280.6474 C 421.8333 280.6474 409.9561 285.292 406.3413 282.1956 Z" fill="#ffde00"/>
				<path d="M 452.8175 193.9477 C 452.8175 193.9477 462.8873 179.7557 465.2111 170.7245 C 467.5349 161.6933 469.0196 156.6616 466.954 147.8884 C 466.954 147.8884 465.2111 152.9201 452.8175 156.7906 C 452.8175 156.7906 444.555 155.565 442.7476 149.6302 C 442.7476 149.6302 443.4214 166.8269 445.0714 170.7245 C 447.9117 177.4334 447.6139 179.7137 447.3952 182.3361 C 447.2016 184.6584 446.6206 189.303 446.6206 200.1405 C 446.6206 200.1405 449.9772 198.8503 452.8175 193.9477 Z" stroke="#ffffff00" stroke-width="2" fill="#ffde00"/>
				<path d="M 446.6206 159.8871 C 446.6206 159.8871 454.1085 166.854 463.6619 159.8871 C 463.6619 159.8871 458.7561 179.2397 454.3667 183.1102 C 454.3667 183.1102 445.5878 168.9183 446.6206 159.8871 Z" stroke="#fdd866" stroke-width="2" fill="#fff686"/>
				<path d="M 415.6365 237.2975 C 415.6365 237.2975 416.9275 241.4261 423.3825 241.9422 C 423.3825 241.9422 421.8333 260.5207 434.227 265.1653 C 434.227 265.1653 428.5465 274.7126 417.1857 279.0992 L 415.6365 237.2975 Z" stroke="#fdd866" stroke-width="2" fill="#fff686"/>
			</g>
		</g>
		<g>
			<path d="M 339.7254 48.416 L 556.6143 172.2727 L 556.6143 424.6309 L 339.7254 548.4876 L 125.9349 424.6309 L 125.9349 170.7245 L 339.7254 48.416 ZM 96.5 155.2424 L 96.5 441.6612 L 336.627 581 L 342.8238 581 L 584.5 441.6612 L 584.5 156.7906 L 345.9222 19 L 335.0778 19 L 96.5 155.2424 Z" stroke="#000000" stroke-width="6" fill="#000000"/>
			<path d="M 339.7254 93.314 L 158.4683 193.9477 L 158.4683 274.4546 L 471.4079 348.7686 L 471.4079 373.5399 L 339.7254 449.4022 L 208.0428 376.6364 L 208.0428 342.5757 L 158.4683 323.9973 L 158.4683 399.8595 L 339.7254 503.5895 L 520.9825 401.4077 L 520.9825 319.3526 L 209.5921 245.0386 L 209.5921 221.8154 L 339.7254 145.9532 L 474.5063 220.2672 L 474.5063 252.7796 L 522.5317 272.9063 L 522.5317 195.4959 L 339.7254 93.314 Z" stroke="#221f20" stroke-width="6" fill="#ed1e26"/>
		</g>
	</g>
</svg>