<?xml version="1.0" standalone="no"?>
<!-- Generator: Adobe Fireworks 10, Export SVG Extension by Aaron Beall (http://fireworks.abeall.com) . Version: 0.6.1  -->
<!DOCTYPE svg PUBLIC "-//W3C//DTD SVG 1.1//EN" "http://www.w3.org/Graphics/SVG/1.1/DTD/svg11.dtd">
<svg id="Untitled-7.fw-Page%201" viewBox="0 0 680 600" style="background-color:#ffffff" version="1.1"
	xmlns="http://www.w3.org/2000/svg" xmlns:xlink="http://www.w3.org/1999/xlink" xml:space="preserve"
	x="0px" y="0px" width="680px" height="600px"
>
	<g id="Layer%201">
		<g>
			<g>
				<path d="M 166.6661 539.2969 C 168.8738 541.6098 171.4516 543.4644 174.4456 544.8376 C 177.4167 546.2108 180.6661 546.9196 184.217 546.9178 C 186.8687 546.9166 189.2446 546.5488 191.3677 545.8605 C 193.4909 545.1494 195.292 544.1632 196.7708 542.9254 C 198.2497 541.6874 199.3833 540.2206 200.1715 538.5477 C 200.9597 536.8977 201.3563 535.1105 201.3611 533.2088 C 201.3656 531.4446 201.0698 529.8868 200.5198 528.5582 C 199.9698 527.2297 199.2119 526.0387 198.246 525.031 C 197.2802 524.0234 196.1525 523.1533 194.8632 522.3979 C 193.5508 521.6425 192.169 520.9786 190.6948 520.3837 L 183.9232 517.4543 C 182.8867 517.0195 181.8502 516.5847 180.8137 516.1271 C 179.7772 515.6921 178.8562 515.1657 178.0508 514.5474 C 177.2453 513.9521 176.5784 513.2422 176.0731 512.4406 C 175.5679 511.6389 175.3168 510.6539 175.3198 509.4625 C 175.325 507.4234 176.1822 505.8193 177.9145 504.6729 C 179.6238 503.5265 181.9772 502.9297 184.9286 502.9283 C 187.3267 502.9271 189.47 503.3385 191.3588 504.1395 C 193.2475 504.9633 194.9971 506.0622 196.5614 507.4591 L 199.8227 503.5168 C 198.052 501.6389 195.8885 500.082 193.3322 498.8689 C 190.7757 497.6788 187.9873 497.0616 184.9436 497.063 C 182.6147 497.0641 180.4695 497.3859 178.531 498.0284 C 176.5924 498.6708 174.9069 499.5651 173.5205 500.7114 C 172.111 501.8576 171.0239 503.2099 170.2359 504.7682 C 169.448 506.3265 169.0517 508.0222 169.047 509.8321 C 169.0425 511.5963 169.3383 513.1541 169.9805 514.4826 C 170.6228 515.834 171.4268 517.0021 172.4389 517.9639 C 173.451 518.9486 174.5556 519.7729 175.799 520.4596 C 177.0194 521.1464 178.2399 521.7415 179.4839 522.222 L 186.4167 525.22 L 189.8254 526.7534 C 190.8848 527.257 191.8058 527.8064 192.5882 528.4017 C 193.3706 529.02 193.9913 529.7528 194.4272 530.6002 C 194.8631 531.4707 195.0911 532.5016 195.088 533.7158 C 195.0824 535.9153 194.1325 537.7028 192.2614 539.0326 C 190.3902 540.3853 187.7368 541.051 184.3011 541.0526 C 181.6264 541.0538 179.0914 540.5052 176.6962 539.4067 C 174.3009 538.308 172.1832 536.8657 170.3663 535.0338 L 166.6661 539.2969 L 166.6661 539.2969 Z" fill="#ec1e26"/>
				<path d="M 218.7702 542.1816 C 220.3804 543.693 222.153 544.8376 224.0878 545.6616 C 226.0226 546.4855 227.8431 546.8969 229.5263 546.8961 C 231.6938 546.8951 233.7471 546.4587 235.7323 545.5872 C 237.6945 544.7157 239.4271 543.4318 240.9302 541.7357 C 242.4333 540.0396 243.6375 537.9998 244.52 535.5709 C 245.4023 533.1418 245.8705 530.3923 245.8784 527.2993 C 245.8857 524.4584 245.5693 521.9153 244.9295 519.6475 C 244.2896 517.3795 243.3492 515.4326 242.1082 513.8065 C 240.8671 512.2034 239.3255 510.944 237.483 510.0742 C 235.6406 509.2045 233.4973 508.7702 231.0992 508.7713 C 228.8857 508.7725 226.6707 509.3004 224.4775 510.3554 C 222.2843 511.4103 220.3441 512.7172 218.6799 514.2989 L 218.4723 514.299 L 217.9523 510.244 L 212.9487 510.2464 L 212.8216 560.101 L 218.8629 560.098 L 218.8921 548.6196 L 218.7702 542.1816 L 218.7702 542.1816 ZM 218.9647 520.164 C 220.8372 518.2615 222.6624 516.863 224.4632 515.9686 C 226.264 515.0971 227.9484 514.6381 229.5394 514.6373 C 231.2918 514.6365 232.8128 514.9565 234.1025 515.5745 C 235.3691 516.1925 236.4045 517.0626 237.2318 518.162 C 238.0361 519.2613 238.6322 520.5898 239.0202 522.1476 C 239.4082 523.7054 239.6113 525.4465 239.6065 527.3252 C 239.5955 531.6326 238.5493 535.0009 236.468 537.4076 C 234.3866 539.8372 231.7318 541.0298 228.5037 541.0314 C 227.2585 541.032 225.7837 540.689 224.0793 539.9567 C 222.3517 539.2473 220.6254 538.0338 218.9235 536.3163 L 218.9647 520.164 L 218.9647 520.164 Z" fill="#ec1e26"/>
				<path d="M 256.9749 516.0905 L 273.6459 516.0825 L 273.5712 545.4086 L 279.6355 545.4058 L 279.7252 510.2143 L 256.9898 510.2253 L 256.9749 516.0905 L 256.9749 516.0905 ZM 279.5163 501.7144 C 280.4406 500.935 280.9276 499.8579 280.931 498.5291 C 280.9343 497.2003 280.4529 496.1237 279.5327 495.2993 C 278.5893 494.4979 277.4374 494.086 276.077 494.0867 C 274.6474 494.0874 273.4704 494.5003 272.546 495.3027 C 271.6216 496.1279 271.1807 497.2049 271.1774 498.5338 C 271.174 499.8626 271.6093 500.9392 272.5296 501.7177 C 273.45 502.4963 274.625 502.8852 276.0546 502.8845 C 277.415 502.8839 278.5689 502.4939 279.5163 501.7144 L 279.5163 501.7144 Z" fill="#ec1e26"/>
				<path d="M 301.9339 535.9099 C 302.8963 538.2922 304.2747 540.2848 306.0461 541.8878 C 307.7943 543.5136 309.8664 544.7498 312.2623 545.5964 C 314.6582 546.42 317.2397 546.854 320.0527 546.8527 C 322.7044 546.8514 325.2423 546.2546 327.6894 545.1308 C 330.1365 543.984 332.3311 542.4021 334.3192 540.385 L 331.6773 536.5142 C 330.1292 537.798 328.4433 538.8528 326.5964 539.7013 C 324.7496 540.5728 322.7194 540.9862 320.5058 540.9872 C 318.4306 540.9883 316.5636 540.6913 314.8589 540.0507 C 313.1543 539.4099 311.7039 538.5171 310.5078 537.3721 C 309.3117 536.2271 308.3699 534.83 307.7283 533.2266 C 307.0637 531.6232 306.7455 529.8362 306.7505 527.8658 C 306.7555 525.8954 307.1059 524.1083 307.8018 522.4813 C 308.4977 520.8542 309.4467 519.4562 310.6487 518.2642 C 311.8507 517.0951 313.3056 516.2009 315.0367 515.5586 C 316.7446 514.9163 318.6592 514.5945 320.7345 514.5936 C 322.5792 514.5927 324.3076 514.9584 325.9198 515.6908 C 327.5089 516.4232 329.0512 517.4306 330.5237 518.6901 L 333.5773 514.8165 C 332.1058 513.1676 330.2878 511.7481 328.1465 510.5348 C 326.0051 509.3444 323.4703 508.7271 320.5189 508.7284 C 317.798 508.7297 315.2374 509.1663 312.7911 510.0152 C 310.3448 510.864 308.2202 512.1023 306.4175 513.7527 C 304.5917 515.4032 303.157 517.3972 302.0903 519.7576 C 301.0236 522.1408 300.4864 524.8445 300.4786 527.8689 C 300.471 530.8701 300.9484 533.5505 301.9339 535.9099 L 301.9339 535.9099 Z" fill="#ec1e26"/>
				<path d="M 345.4217 535.8661 C 346.4303 538.2026 347.7856 540.1952 349.5339 541.7982 C 351.2822 543.424 353.3082 544.6602 355.6579 545.5297 C 357.9846 546.3992 360.4737 546.8334 363.1485 546.832 C 366.0538 546.8307 368.6376 546.3253 370.8999 545.3163 C 373.1622 544.3071 375.1712 543.1376 376.9502 541.7621 L 374.8393 537.662 C 373.1534 538.6938 371.4451 539.4965 369.6911 540.093 C 367.9372 540.6896 366.0227 540.9655 363.9013 540.9664 C 359.9584 540.9683 356.7559 539.9389 354.271 537.8323 C 351.7861 535.7256 350.4329 532.8624 350.2116 529.2426 L 378.2503 529.2291 C 378.391 528.3355 378.463 527.2128 378.4665 525.8381 C 378.473 523.295 378.11 520.9583 377.3775 518.8508 C 376.6451 516.7433 375.5659 514.9568 374.1862 513.4453 C 372.7835 511.9339 371.0801 510.7662 369.0762 509.9424 C 367.0492 509.1185 364.7675 508.7072 362.2081 508.7085 C 359.9022 508.7096 357.6414 509.146 355.4487 510.0177 C 353.2559 510.8893 351.3158 512.1503 349.6053 513.8008 C 347.8948 515.4512 346.5292 517.468 345.5086 519.8284 C 344.465 522.1887 343.9509 524.8695 343.9433 527.848 C 343.9357 530.8494 344.413 533.5297 345.4217 535.8661 L 345.4217 535.8661 ZM 350.1536 524.8436 C 350.3423 523.194 350.8071 521.7504 351.5943 520.4899 C 352.3585 519.2294 353.2835 518.1521 354.3695 517.281 C 355.4323 516.4098 356.6562 515.7448 358.0178 515.286 C 359.3563 514.8271 360.7866 514.5743 362.2622 514.5737 C 365.6057 514.5721 368.209 515.4644 370.0723 517.2047 C 371.9355 518.9679 372.8744 521.5106 372.8659 524.8328 L 350.1536 524.8436 L 350.1536 524.8436 Z" fill="#ec1e26"/>
				<path d="M 389.9458 545.3529 L 394.8111 545.3506 L 395.3272 541.8908 L 395.5578 541.8907 C 397.2601 543.4478 399.1248 544.6383 401.1056 545.5079 C 403.0863 546.3776 404.953 546.812 406.6823 546.8112 C 408.8037 546.8102 410.8339 546.3739 412.8191 545.5023 C 414.7813 544.6308 416.5139 543.3469 418.0171 541.6508 C 419.5201 539.9547 420.7244 537.892 421.6069 535.4401 C 422.4893 533.0111 422.9575 530.2386 422.9654 527.1456 C 422.9725 524.3505 422.6561 521.8304 422.0163 519.5626 C 421.3764 517.2947 420.436 515.3477 419.195 513.7216 C 417.954 512.1184 416.3892 510.859 414.5237 509.9893 C 412.6352 509.1196 410.515 508.6853 408.1169 508.6865 C 405.9955 508.6875 403.8499 509.1925 401.726 510.1788 C 399.579 511.1878 397.6387 512.5177 395.9281 514.2139 L 396.0844 507.1572 L 396.1216 492.5628 L 390.0804 492.5657 L 389.9458 545.3529 L 389.9458 545.3529 ZM 396.0515 520.079 C 397.9241 518.1765 399.7491 516.7781 401.55 515.8837 C 403.3508 515.0122 405.0352 514.5531 406.6263 514.5524 C 408.3787 514.5516 409.8996 514.8716 411.1893 515.4896 C 412.456 516.1075 413.4914 516.9777 414.3186 518.077 C 415.1229 519.1764 415.719 520.5049 416.107 522.0627 C 416.495 523.6205 416.6982 525.3616 416.6933 527.2404 C 416.6879 529.3939 416.4062 531.3186 415.8716 533.0143 C 415.3139 534.71 414.5492 536.1537 413.5779 537.2998 C 412.5835 538.4457 411.4283 539.3399 410.0893 539.9821 C 408.7503 540.6243 407.2968 540.9456 405.7288 540.9464 C 404.4376 540.947 402.9397 540.5812 401.1892 539.826 C 399.4387 539.0937 397.7126 537.8115 396.0108 536.0252 L 396.0515 520.079 L 396.0515 520.079 Z" fill="#006633"/>
				<path d="M 433.2271 535.847 C 434.1895 538.2292 435.4757 540.2219 437.0857 541.825 C 438.6956 543.4508 440.5833 544.6871 442.7255 545.5338 C 444.8447 546.3575 447.1033 546.7918 449.4783 546.7907 C 451.8303 546.7896 454.0911 546.3531 456.2376 545.5273 C 458.3611 544.6786 460.255 543.4404 461.8732 541.813 C 463.4914 540.2084 464.7877 538.2145 465.7623 535.8313 C 466.7367 533.4711 467.2278 530.7902 467.2354 527.7888 C 467.2431 524.7646 466.7658 522.0613 465.8034 519.679 C 464.841 517.3196 463.5548 515.327 461.9449 513.6782 C 460.3351 512.0293 458.4474 510.7931 456.3283 509.9463 C 454.186 509.0997 451.9274 508.6655 449.5755 508.6666 C 447.2005 508.6677 444.9397 509.1041 442.8162 509.9528 C 440.6696 510.8015 438.7757 512.0397 437.1574 513.6901 C 435.5391 515.3404 434.2428 517.3343 433.2683 519.6946 C 432.2938 522.0779 431.8257 524.7816 431.8181 527.8059 C 431.8104 530.8072 432.2647 533.4875 433.2271 535.847 L 433.2271 535.847 ZM 438.9106 522.4183 C 439.4451 520.7914 440.2326 519.3935 441.2502 518.2016 C 442.2678 517.0326 443.4691 516.1385 444.8773 515.4963 C 446.2624 514.8541 447.8312 514.5326 449.5605 514.5319 C 451.2668 514.531 452.834 514.851 454.2389 515.4918 C 455.6208 516.1327 456.8406 517.0256 457.8521 518.1936 C 458.8636 519.3845 459.621 520.7817 460.1703 522.4082 C 460.6964 524.0345 460.9686 525.8215 460.9636 527.7918 C 460.9586 529.7622 460.6773 531.5494 460.1428 533.1534 C 459.5854 534.7575 458.8209 536.1555 457.8034 537.3015 C 456.7859 538.4475 455.5616 539.3417 454.1765 539.9838 C 452.7682 540.626 451.1996 540.9246 449.4933 540.9254 C 447.7639 540.9262 446.1967 540.6291 444.8148 539.9882 C 443.4099 539.3475 442.2132 538.4545 441.2016 537.3094 C 440.1899 536.1644 439.4095 534.7672 438.8832 533.1636 C 438.3339 531.5602 438.0848 529.7732 438.0898 527.8029 C 438.0949 525.8325 438.3531 524.0453 438.9106 522.4183 L 438.9106 522.4183 Z" fill="#006633"/>
				<path d="M 486.8461 532.4075 C 486.8407 534.5612 487.0662 536.5314 487.5229 538.2724 C 487.9796 540.0363 488.7597 541.5481 489.8172 542.8077 C 490.8745 544.0902 492.2787 545.0518 494.0524 545.7383 C 495.803 546.4247 497.9927 546.7674 500.6213 546.7661 C 502.5813 546.7651 504.5419 546.5121 506.5261 546.0302 C 508.4874 545.5023 510.2644 544.9286 511.8341 544.2176 L 510.6015 539.2924 C 509.309 539.797 507.9706 540.1871 506.5864 540.4627 C 505.2022 540.7612 503.6569 540.8994 501.9506 540.9003 C 500.2213 540.9011 498.7691 540.7184 497.5941 540.3295 C 496.4191 539.9407 495.4983 539.3682 494.8085 538.5897 C 494.1187 537.811 493.6138 536.8719 493.34 535.7494 C 493.0431 534.6269 492.9082 533.2982 492.912 531.786 L 492.9523 515.9773 L 510.4995 515.9689 L 510.5145 510.1037 L 492.9673 510.1121 L 492.9934 499.8479 L 487.9667 499.8503 L 487.1335 510.1149 L 476.8023 510.5551 L 476.7885 515.9851 L 486.888 515.9802 L 486.8461 532.4075 L 486.8461 532.4075 Z" fill="#006633"/>
			</g>
			<g>
				<path d="M 276.2531 39 L 319.1202 39.0161 L 340.3736 95.826 L 297.493 95.8301 L 276.2531 39 Z" fill="#006633"/>
				<path d="M 192.1695 103.7293 L 457.0192 80.1998 C 483.0685 77.8855 506.0114 96.7823 508.2767 122.4198 L 531.3174 383.1995 C 533.597 409.0002 514.262 431.879 488.1174 434.289 L 222.3011 458.7921 C 196.0139 461.2153 172.9233 442.1761 170.7393 416.2786 L 148.665 154.5255 C 146.4949 128.7925 165.9778 106.0562 192.1695 103.7293 Z" stroke="#ec1e26" stroke-width="18" fill="#ffffff"/>
				<g>
					<path d="M 292.5957 226.8896 C 290.8357 204.6416 271.0783 188.1427 248.4562 190.0285 C 225.825 191.9149 208.8827 211.4869 210.6235 233.7535 C 212.3655 256.0311 232.1464 272.5535 254.7968 270.6483 C 258.7548 270.3154 262.5407 269.4508 266.0798 268.1177 C 259.2697 265.4933 250.1496 256.7984 249.2385 245.6843 C 248.1119 231.944 254.451 220.1792 263.3958 219.4027 C 272.339 218.6263 280.5043 229.1287 281.6355 242.8643 C 281.9939 247.217 281.8924 254.9349 280.9065 258.6063 C 286.8782 250.9135 293.4153 237.2528 292.5957 226.8896 Z" fill="#ec1e26"/>
					<path d="M 461.3582 219.4037 C 463.4237 197.2084 446.843 177.5357 424.3182 175.451 C 401.7863 173.3657 381.8225 189.6669 379.7329 211.8733 C 377.6418 234.0919 394.2366 253.7944 416.7926 255.8688 C 420.735 256.2313 424.5983 256.0407 428.2994 255.3459 C 422.0623 251.5765 414.5936 241.4322 415.5947 230.3388 C 416.8325 216.6248 425.0605 206.1553 433.9723 206.9499 C 442.8829 207.7443 449.1072 219.4995 447.8753 233.2108 C 447.4852 237.5558 446.0693 245.1318 444.4758 248.5725 C 451.6493 242.0442 460.396 229.7428 461.3582 219.4037 Z" fill="#ec1e26"/>
				</g>
				<path d="M 349.1293 372.986 C 306.811 376.7029 259.5434 365.285 253.4394 350.7658 C 247.6394 339.0291 261.3687 329.8818 268.7399 332.5944 C 296.173 342.6896 314.547 348.4757 346.4639 345.6805 C 378.9388 342.8365 396.0099 333.9531 421.2258 319.2684 C 427.9971 315.3251 443.0486 321.9437 439.3771 334.4873 C 435.8854 349.8219 391.4144 369.2719 349.1293 372.986 Z" fill="#ec1e26"/>
			</g>
		</g>
	</g>
</svg>