<?xml version="1.0" standalone="no"?>
<!-- Generator: Adobe Fireworks 10, Export SVG Extension by Aaron Beall (http://fireworks.abeall.com) . Version: 0.6.1  -->
<!DOCTYPE svg PUBLIC "-//W3C//DTD SVG 1.1//EN" "http://www.w3.org/Graphics/SVG/1.1/DTD/svg11.dtd">
<svg id="spicebot_220_140.fw-Page%201" viewBox="0 0 220 140" style="background-color:#ffffff" version="1.1"
	xmlns="http://www.w3.org/2000/svg" xmlns:xlink="http://www.w3.org/1999/xlink" xml:space="preserve"
	x="0px" y="0px" width="220px" height="140px"
>
	<g id="Background">
		<rect visibility="hidden" x="0" y="0" width="220" height="140" stroke="#bbbbbb" stroke-width="1" fill="none"/>
		<text visibility="hidden" x="8" y="140" width="204" fill="#eb1e26" style="font-weight: bold; font-family: Source Code Pro; font-size: 40px; text-align: center; color: #eb1e26; "><tspan><![CDATA[Spice]]></tspan><tspan style="color: #006633; "><![CDATA[bot]]></tspan></text>
		<g>
			<g>
				<path d="M 91.7048 9.0761 L 103.7866 9 L 109.8149 25.025 L 97.7237 25.0876 L 91.7048 9.0761 Z" fill="#006633"/>
				<path d="M 68.156 27.4606 L 142.8526 20.426 C 150.2619 19.7282 156.7945 25.0576 157.4366 32.3307 L 163.949 106.0906 C 164.5914 113.3664 159.095 119.7889 151.6793 120.435 L 76.919 126.9482 C 69.5883 127.5869 63.1355 122.2475 62.4994 115.0231 L 56.0507 41.7847 C 55.4148 34.563 60.8314 28.1504 68.156 27.4606 Z" stroke="#ed1e26" stroke-width="5" fill="none"/>
				<path d="M 112.4119 103.0729 C 100.5176 104.0831 87.2548 100.85 85.534 96.7804 C 83.9006 93.4902 87.7391 90.9334 89.8071 91.6968 C 97.5099 94.5401 102.674 96.1729 111.6493 95.4057 C 120.7986 94.6237 125.6129 92.1339 132.7344 88.0107 C 134.6489 86.9022 138.9096 88.7717 137.8717 92.3036 C 136.8857 96.6194 124.326 102.061 112.4119 103.0729 Z" fill="#ed1e26"/>
			</g>
			<g>
				<path d="M 121.3409 61.8313 C 119.6626 55.7645 123.3058 49.4829 129.4829 47.7983 C 135.6654 46.1123 142.0452 49.669 143.7283 55.7449 C 145.4117 61.8218 141.7569 68.1094 135.5696 69.7864 C 134.4885 70.0794 133.4022 70.2148 132.3362 70.2023 C 133.8879 68.851 135.4673 65.6679 134.6384 62.6338 C 133.6133 58.8822 130.7996 56.3741 128.3544 57.0311 C 125.91 57.6879 124.759 61.2593 125.7829 65.0087 C 126.1072 66.1967 126.8777 68.232 127.4924 69.1099 C 125.1698 67.6466 122.1224 64.6566 121.3409 61.8313 Z" fill="#ed1e26"/>
				<path d="M 96.4303 62.0175 C 95.921 55.7594 90.3574 51.1295 84.0086 51.6756 C 77.6656 52.2212 72.9398 57.7279 73.448 63.976 C 73.9563 70.2241 79.507 74.8555 85.8512 74.3199 C 86.9606 74.2262 88.0216 73.9834 89.0134 73.6089 C 87.1013 72.8727 84.5374 70.4331 84.273 67.3131 C 83.9461 63.4549 85.7144 60.1472 88.2236 59.9249 C 90.7336 59.7026 93.0343 62.6518 93.3615 66.5125 C 93.4652 67.7357 93.442 69.9044 93.1677 70.936 C 94.8396 68.7734 96.6675 64.9315 96.4303 62.0175 Z" fill="#ed1e26"/>
			</g>
		</g>
	</g>
</svg>