<?xml version="1.0" standalone="no"?>
<!-- Generator: Adobe Fireworks 10, Export SVG Extension by Aaron Beall (http://fireworks.abeall.com) . Version: 0.6.1  -->
<!DOCTYPE svg PUBLIC "-//W3C//DTD SVG 1.1//EN" "http://www.w3.org/Graphics/SVG/1.1/DTD/svg11.dtd">
<svg id="spice_slp_logo_black_bg_white_outer.fw-Page%201" viewBox="0 0 355 551" style="background-color:#ffffff00" version="1.1"
	xmlns="http://www.w3.org/2000/svg" xmlns:xlink="http://www.w3.org/1999/xlink" xml:space="preserve"
	x="0px" y="0px" width="355px" height="551px"
>
	<g id="Layer%201">
		<rect x="0.5" y="0" width="355" height="551" fill="#000000"/>
		<g>
			<path d="M 177 41 L 317 121 L 317 284 L 177 364 L 39 284 L 39 120 L 177 41 ZM 20 110 L 20 295 L 175 385 L 179 385 L 335 295 L 335 111 L 181 22 L 174 22 L 20 110 Z" stroke="#ffffff" stroke-width="4" fill="#ffffff"/>
			<path d="M 177 70 L 60 135 L 60 187 L 262 235 L 262 251 L 177 300 L 92 253 L 92 231 L 60 219 L 60 268 L 177 335 L 294 269 L 294 216 L 93 168 L 93 153 L 177 104 L 264 152 L 264 173 L 295 186 L 295 136 L 177 70 Z" stroke="#221f20" stroke-width="4" fill="#ed1e26"/>
			<g>
				<path d="M 180 47 C 180 47 185.25 40.75 194 44 C 202.75 47.25 206 70 206 70 C 206 70 206.5 74 206 84 C 206 84 214.5 82 220 84 C 220 84 213.25 86 212 88 C 212 88 225 87 231 90 C 237 93 240.6667 92.3333 240.6667 92.3333 C 240.6667 92.3333 229.6667 110.9167 229.6667 110.1667 C 229.6667 109.4167 227 112 227 112 L 235 113 C 235 113 235.25 115.5 231 119 L 226 119 C 226 119 230 133 230 140 C 230 140 233 141 233 126 C 233 126 238.5 129.25 237 140 C 237 140 233.5 146.75 235 149 C 236.5 151.25 241 145 241 145 C 241 145 242.6667 135.3333 239 123.6667 C 239 123.6667 233 96 252 81 C 252 81 242.25 97.5 249 102 C 255.75 106.5 254 89 254 89 C 254 89 251.75 71.25 263 65 C 263 65 257 79.5 264 94 C 264 94 271.25 117.5 261 132 C 250.75 146.5 246 148 242 160 C 238 172 245 170 245 170 C 245 170 249.25 168.5 251 160 C 251 160 249 153.25 257 147 C 257 147 252.5 154.75 254 166 C 255.5 177.25 242 192 242 192 C 242 192 236.75 196 233 198 C 233 198 231 210.25 227 214 C 227 214 225.75 237 216 260 C 206.25 283 185 302 185 302 C 185 302 167 317.75 144 328 C 126.0287 336.0089 113.5522 329.6706 108.9555 326.5161 C 107.6693 325.6334 107.125 322.125 107.1959 321.2667 C 107.5502 316.9778 108.6982 310.1367 112 307 C 112 307 115.25 299.75 128 286 C 128 286 135.25 275.25 137 251 L 137 230 C 137 230 130.5 226.5 129 220 C 127.5 213.5 130 211 130 211 C 130 211 132.25 207 142 204 C 142 204 136.25 200.5 133 189 C 133 189 126.75 179 128 172 C 128 172 112 161.25 122 141 C 122 141 126.5 131.75 135 128 C 135 128 133.5 117 138 109 C 142.5 101 146 99 146 99 C 146 99 151.25 95.25 153 95 L 158 98 L 168 98 C 168 98 164.75 92.25 150 91 C 150 91 145 87 167 86 C 167 86 148.75 74.25 159 57 C 159 57 165.5 71 190 77 C 190 77 195 78.25 202 82 C 202 82 202.25 62.75 180 47 Z" stroke="#000000" stroke-width="2" fill="#221f20"/>
				<path d="M 112.6667 314.6667 C 114.3698 311.0474 128.6667 293.3333 128.6667 293.3333 C 135.3333 287.3333 143 273.6667 143 273.6667 L 134.3333 280.6667 C 141.3333 270.3333 142 234 142 234 C 166 241 164 235 164 235 C 164 235 145.1667 235.5 135 222 C 135 222 127.8333 211 143 208 L 144 213 L 144 214 L 140 214 L 141 216 C 141 216 154.6667 232.6667 186 228 C 217.3333 223.3333 217.3333 207 222 202 L 228 201 C 228 201 219.6667 224 202 231 C 202 231 206 234.3333 222 222 C 222 222 212.3333 263.3333 202 274 C 202 274 190 293.3333 159 314 C 159 314 131.3333 332.6667 113.6667 324.6667 C 113.6667 324.6667 110 320.3333 112.6667 314.6667 Z" stroke="#ed1e26" stroke-width="1" fill="#ca151f"/>
				<path d="M 207.5 234.75 C 207.5 234.75 196.25 243 183 243 C 169.75 243 151 240.75 151 240.75 L 150 242 C 150 242 151.5 269.75 148 275 C 144.5 280.25 139.75 288.5 121 309 C 118.25 313.25 117.9977 317.2749 122.7964 319.4307 C 135.75 325.25 185.0808 284.1818 189.5 278.5 C 194.75 271.75 207.75 257 207.5 234.75 Z" fill="#ed1e26"/>
				<path d="M 159 249 C 159 249 167.5 241.75 173 252 C 173 252 174.5 257.75 165 274 C 155.5 290.25 134 315.25 129 312 C 124 308.75 133.3333 299.6667 133.3333 299.6667 L 151 277 C 151 277 159 266.5 158 262 L 159 249 Z" stroke="#ffffff00" stroke-width="1" fill="#f79274"/>
				<path d="M 187 228 C 187 228 193.75 228.75 199 229 C 204.25 229.25 190.5 233.75 190.5 233.75 C 190.5 233.75 166 237.25 153 233 C 140 228.75 141 223 141 223 C 141 223 141.75 220.25 144 221 C 146.25 221.75 149 223 149 223 C 149 223 158.75 227 161 227 C 163.25 227 169.75 230.25 187 228 Z" stroke="#ffffff00" stroke-width="1" fill="#ed1d25"/>
				<path d="M 175 232 C 175 232 175.5 234.5 167 234 C 158.5 233.5 153 229 153 229 C 153 229 149.5 225.75 156 226 C 156 226 160.75 230 173 231 C 176.9885 231.3256 175 232 175 232 Z" stroke="#ffffff00" stroke-width="1" fill="#f49678"/>
				<path d="M 154 207 L 152 206 L 146.375 209.25 C 146 216.75 148 216 148 216 L 148.625 215 L 149 215 L 149 217 C 150.125 222.875 163 224 163 224 L 164 223 L 164 219 L 164.25 217.375 L 164.5 217.125 L 165.375 223.625 C 174.875 228.875 186 225 186 225 L 186.875 222.75 L 187.625 220.125 L 188 220 L 188 224 C 198.625 223.875 203 219 203 219 L 203.25 215.75 L 204 215.25 L 205 217 C 209.375 216 216 208 216 208 L 214 206 C 214 206 186.125 220.25 152 209 L 154 207 Z" stroke="#000000" stroke-width="1" fill="#ffffff"/>
				<path d="M 217 182 C 217 182 216.25 199.125 177 206 C 177 206 150.875 208.375 140 199 L 137 193 L 139 190 C 139 190 143.375 195 146 195 L 146 198 L 147 197 L 147 195 C 147 195 149.75 198 161 199 L 163 201 L 163 202 L 164 200 L 165 199 C 165 199 178.5 200.375 188 197 L 189 199 L 190 198 L 190 196 C 190 196 202.625 189.875 207 185 L 208 189 L 208 185 L 208 183 C 208 183 214.25 178.75 215 173 L 217 174 L 217 182 Z" stroke="#000000" stroke-width="1" fill="#fdfdfd"/>
				<path d="M 135 177 C 135 177 133.5 176.5 134 178 C 134.5 179.5 141.1667 182.8333 139 183 C 136.8333 183.1667 132 180 132 180 C 132 180 145.1667 202.1667 183 194 C 183 194 203 189.3333 215.5 166 L 215.6667 159.5 L 213.5 158.6667 L 212.6667 159.6667 C 212.6667 159.6667 213 163.1667 210 171 C 207 178.8333 185 188 185 188 L 181 188 L 188 182 C 188 182 175.6667 180.1667 172 175 C 172 175 166 182.6667 152 181 C 152 181 145 182.3333 135 177 Z" stroke="#ed1e26" stroke-width="1" fill="#ca151f"/>
				<path d="M 166 182 C 166 182 172 177.875 177 182 C 177 182 179.625 184.5 174 188 C 174 188 173 189.375 183 189 L 187 188 L 186 190 C 186 190 183 192.5 168 194 C 153 195.5 145 189 145 189 C 145 189 143.75 187.625 145 187 C 145 187 144.125 185.5 151 186 L 149.75 183 C 149.75 183 159.625 183.625 166 182 Z" fill="#ed1e26"/>
				<path d="M 168 188 C 168 188 162 189 160 188 C 158 187 160 185 160 185 C 160 185 163.5 182.1667 169 186 C 169 186 169.6667 187.1667 168 188 Z" stroke="#ffffff00" stroke-width="1" fill="#f79274"/>
				<path d="M 177 146 C 177 146 163.1666 118.3333 139 131 C 114.8333 143.6667 127 164 127 164 C 127 164 136.1667 178.1667 153 178 C 169.8333 177.8333 170 171 170 171 L 169 169 C 169 169 162.8333 179.6667 145 172 C 145 172 130.3333 165.6667 141 148 C 141 148 145.8333 142.6667 154 141 C 162.1667 139.3333 172 150 172 150 L 177 146 Z" stroke="#000000" stroke-width="1" fill="#ffffff"/>
				<path d="M 171 154 C 171 154 168 158 168 164 C 168 170 156 171 156 171 C 156 171 145.8333 171.8333 141 164 C 136.1667 156.1667 144 147 144 147 C 144 147 150.5 141 159 144 C 167.5 147 170.6667 150.6667 171 154 Z" stroke="#000000" stroke-width="1" fill="#ffff04"/>
				<path d="M 166 163 C 166 163 163.3333 169.1667 152 169 C 152 169 145 167.3333 144 164 C 143 160.6667 148 162 148 162 C 148 162 148.8333 166 153 166 C 157.1667 166 162.3333 164.6667 164 163 C 165.6667 161.3333 166 163 166 163 Z" stroke="#ffffff00" stroke-width="1" fill="#fcda00"/>
				<path d="M 144 151 C 144 151 138.5 157.6667 144 165 L 148 162 C 148 162 147 156.1667 148 154 C 149 151.8333 144 151 144 151 Z" stroke="#ffffff00" stroke-width="1" fill="#fdc50d"/>
				<path d="M 148 155 L 143.25 152.5 C 143.25 152.5 145 145.3333 154 146 C 163 146.6667 166.6666 151.3333 167.3333 151.1667 C 168 151 165.1667 154.1667 165.1667 154.1667 C 165.1667 154.1667 159.6667 146.8333 153 151 C 146.3333 155.1667 148 155 148 155 Z" fill="#eaa319"/>
				<path d="M 146 149 L 146 150 L 148 151 L 150 150 L 152 149 L 153 147 L 152 146 L 150 145 L 148 146 L 147 147 L 146 149 Z" fill="#ffff92"/>
				<path d="M 159 164 L 161 164 L 162 165 L 161 167 L 159 168 L 157 168 L 155 168 L 155 167 L 156 166 L 157 165 L 159 164 Z" fill="#fdf583"/>
				<path d="M 150 157 C 150 157 153.8333 150.3333 159 152 C 164.1667 153.6667 163 158 163 158 C 163 158 163.3333 161.5 160 163 C 156.6667 164.5 152 163 152 163 C 152 163 150.8333 162 150 161 C 149.1667 160 150 157 150 157 Z" stroke="#000000" stroke-width="1" fill="#221f20"/>
				<path d="M 174 134 C 174 134 164.75 124.25 152 123 C 152 123 141.75 123.5 139 126 C 139 126 138.25 114 141 111 C 141 111 144.5 105.5 151 106 C 157.5 106.5 168 123 168 123 C 168 123 170.75 126.75 174 127 C 177.25 127.25 180 124 180 124 C 180 124 183.75 118 183 110 L 177 114 C 177 114 168.75 104.5 165 103 C 161.25 101.5 170 102 170 102 C 170 102 176.5 102.75 178 105 C 178 105 181.25 105 174 100 C 174 100 199.25 94 208 102 C 216.75 110 220.75 118.5 221 121 C 221 121 225.5 127.75 227 143 C 227 143 216.5 150.5 216 155 L 213 155 C 213 155 213 151 210 147 C 207 143 220 143 220 143 C 220 143 223.5 144.5 223 145 C 223 145 224 139.75 212 140 C 212 140 209 139.75 206 143 C 206 143 201.5 140.25 198 141 C 198 141 211 130 211 126 C 211 122 220.25 137 220 139 C 220 139 222.5 138.25 220 126 C 217.5 113.75 206 110 206 110 L 206 112 C 206 112 192.5 110.25 189 118 C 189 118 199.75 113.25 204 116 C 204 116 198 125.75 190 128 C 190 128 188.5 130 185 125 C 185 125 176.75 135.25 182 141 L 182 143 C 182 143 176.5 140 178 134 C 178 134 177.75 130.5 182 125 C 182 125 175 128.75 174 134 Z" stroke="#ed1e26" stroke-width="1" fill="#ca151f"/>
				<path d="M 173.75 156.75 C 173.75 156.75 178 146 189 144 C 200 142 206 150 206 150 C 206 150 213 157.25 206.5 167 C 202.181 173.4785 203.75 174.5 189 178 C 189 178 176.5 177.25 174 170 C 172.861 166.6967 172.3051 164.109 172.25 162 C 172.1843 159.4802 173.75 156.75 173.75 156.75 Z" stroke="#000000" stroke-width="1" fill="#ffffff"/>
				<path d="M 180 156 C 180 156 184.75 149.75 190.5 149.5 C 196.25 149.25 201 153 201 153 C 201 153 206.25 158.5 204 165 C 201.75 171.5 196.5 173.25 196 173 C 195.5 172.75 187.5 176.75 182 171 C 176.5 165.25 178.25 160.75 178.25 160.75 C 178.25 160.75 179.25 156.5 180 156 Z" stroke="#000000" stroke-width="1" fill="#221f20"/>
				<path d="M 202 164 C 202 164 195.5 171.25 187 170 C 187 170 180.75 167.5 180 163 C 179.25 158.5 183 156 183 156 C 183 156 183.75 152.5 191 151 C 198.25 149.5 203 158 203 158 C 203 158 203.75 162.5 202 164 Z" stroke="#000000" stroke-width="1" fill="#ffff04"/>
				<path d="M 200.5 163 C 200.5 163 197.9887 168.1089 189.6681 167.9978 C 189.6681 167.9978 184.2342 167.3886 183.5 165.1667 C 182.7658 162.9448 186 163.1667 186 163.1667 C 186 163.1667 187.3431 165.9981 190.4022 165.9981 C 193.4613 165.9981 197.1097 163.7776 198.3333 162.6667 C 199.5569 161.5557 200.5 163 200.5 163 Z" stroke="#ffffff00" stroke-width="1" fill="#fcda00"/>
				<path d="M 183.7947 155.9995 C 183.7947 155.9995 179.462 160.4451 183.5 165.3333 L 186.1667 163.5 C 186.1667 163.5 185.9972 159.4434 186.7313 157.9992 C 187.4655 156.5549 183.7947 155.9995 183.7947 155.9995 Z" stroke="#ffffff00" stroke-width="1" fill="#fdc50d"/>
				<path d="M 186.5 158.6667 L 183.244 156.9993 C 183.244 156.9993 184.5288 152.2222 191.1364 152.6666 C 197.744 153.1109 199.5106 156.4444 200 156.3333 C 200.4894 156.2222 198.1667 158.6667 198.1667 158.6667 C 198.1667 158.6667 194.2278 152.8893 189.3333 155.6667 C 184.4388 158.4441 186.5 158.6667 186.5 158.6667 Z" fill="#eaa319"/>
				<path d="M 185.263 154.6663 L 185.263 155.3329 L 186.7313 155.9995 L 188.1997 155.3329 L 189.6681 154.6663 L 190.4022 153.3331 L 189.6681 152.6666 L 188.1997 152 L 186.7313 152.6666 L 185.9972 153.3331 L 185.263 154.6663 Z" fill="#ffff92"/>
				<path d="M 194.8073 164.6649 L 196.2756 164.6649 L 197.0098 165.3315 L 196.2756 166.6646 L 194.8073 167.3312 L 193.3389 167.3312 L 191.8706 167.3312 L 191.8706 166.6646 L 192.6047 165.9981 L 193.3389 165.3315 L 194.8073 164.6649 Z" fill="#fdf583"/>
				<path d="M 187 162 C 187 162 188 153.5 194 157 C 200 160.5 193 164 193 164 C 193 164 189.25 166.25 187 162 Z" stroke="#000000" stroke-width="1" fill="#221f20"/>
				<path d="M 204 199 C 204 199 215.3333 195.6667 221 181 C 221 181 221.2422 177.995 220.5 173.6875 C 220.1392 171.5931 220.0893 169.0928 219.25 167.75 C 219.25 167.75 218.3333 153.6667 224 151 C 229.6667 148.3333 232 143 232 143 C 232 143 228.3333 152 233 155 C 237.6667 158 241 150 241 150 C 241 150 246 146.3333 244 129 C 244 129 244 125.6667 242 118 C 240 110.3333 241.3334 106.6667 244 99 C 244 99 243.6666 108.3333 251 108 C 258.3334 107.6667 258 98 258 98 L 258 90 C 258 90 263 104.6667 262 111 C 262 111 265.3333 119.3333 251 138 C 236.6667 156.6667 236 161 236 161 C 236 161 234.5 171 239 173.1667 C 239 173.1667 243 177.3333 249 172 C 249 172 245.3333 186.6667 232 192 C 232 192 219 200.3333 204 199 Z" stroke="#ffdd00" stroke-width="1" fill="#fdc30d"/>
				<path d="M 220 192 C 220 192 224.5 190.5 224 185 C 223.5 179.5 222 177 222 177 C 222 177 221.4253 167.9808 222 163 C 222.75 156.5 226.5 154 227.6667 153.3333 C 227.6667 153.3333 227.5 158 228.6667 159.3333 C 229.8334 160.6667 233.6667 159.6667 233.6667 159.6667 C 233.6667 159.6667 230.3333 168.5 235 173 C 235 173 235.6666 176.8333 242 178 C 242 178 241.8333 183.6667 230 191 C 230 191 222.3333 194 220 192 Z" fill="#ffde00"/>
				<path d="M 250 135 C 250 135 256.5 125.8333 258 120 C 259.5 114.1667 260.4584 110.9167 259.125 105.25 C 259.125 105.25 258 108.5 250 111 C 250 111 244.6667 110.2083 243.5 106.375 C 243.5 106.375 243.9349 117.4825 245 120 C 246.8334 124.3333 246.6411 125.8062 246.5 127.5 C 246.375 129 246 132 246 139 C 246 139 248.1666 138.1667 250 135 Z" stroke="#ffffff00" stroke-width="1" fill="#ffde00"/>
				<path d="M 246 113 C 246 113 250.8334 117.5 257 113 C 257 113 253.8334 125.5 251 128 C 251 128 245.3333 118.8333 246 113 Z" stroke="#fdd866" stroke-width="1" fill="#fff686"/>
				<path d="M 226 163 C 226 163 226.8333 165.6667 231 166 C 231 166 230 178 238 181 C 238 181 234.3333 187.1667 227 190 L 226 163 Z" stroke="#fdd866" stroke-width="1" fill="#fff686"/>
				<path d="M 127 151 C 127 151 128 162 134 164 C 134 164 137 168.1667 141 172 C 145 175.8333 134.6667 170.3333 134 169 C 133.3333 167.6667 134.8333 166 133 165 C 131.1667 164 130 165 130 165 C 130 165 125.1667 159.3333 127 151 Z" fill="#e6e6e6"/>
				<path d="M 143 122 C 143 122 139.5 115.3333 146 111 C 152.5 106.6667 162 120 162 120 C 162 120 162.5 122.1667 160 122 C 157.5 121.8333 152.1667 120.5 143 122 Z" fill="#ed1e26"/>
				<path d="M 146 114 C 146 114 148.3333 110 152 114 C 155.6667 118 151 118 151 118 C 151 118 148.1667 118.5 146 114 Z" fill="#f79274"/>
				<path d="M 182 102 C 182 102 192.3333 95.1667 207 105 C 207 105 209.6667 109.6667 197 110 C 184.3333 110.3333 182 102 182 102 Z" stroke="#ffffff00" stroke-width="1" fill="#ed1e26"/>
				<path d="M 190 105 C 190 105 189 101.8333 193 102 C 197 102.1667 198 104 198 104 C 198 104 197.8333 105.8333 196 106 C 194.1667 106.1667 190.8333 106.5 190 105 Z" stroke="#ffffff00" stroke-width="1" fill="#f79274"/>
				<path d="M 188.6667 122 C 188.6667 122 186 117.8333 199 117 C 199 117 191.3333 124 191 124 C 190.6667 124 188.6667 125.1667 188.6667 122 Z" stroke="#ffffff00" stroke-width="1" fill="#ed1e26"/>
				<path d="M 190 121 C 190 121 190.1667 117.3333 194 120 C 194 120 192.3333 124.3333 190 121 Z" stroke="#ffffff00" stroke-width="1" fill="#f79274"/>
				<path d="M 212 148 C 212 148 215.25 144.25 218 146 C 220.75 147.75 216 150 216 150 L 212 148 Z" stroke="#ffffff00" stroke-width="1" fill="#ed1e26"/>
				<path d="M 214 147 C 214 147 214.1667 143.3333 218 146 C 218 146 216.3333 150.3333 214 147 Z" stroke="#ffffff00" stroke-width="1" fill="#f79274"/>
				<path d="M 166 79 C 166 79 158 69.1667 160 62.3333 C 160 62.3333 158 69.1667 187 79 C 187 79 199.6667 83.6667 205 89 L 206 91 C 206 91 213.8334 87.1667 236 95 L 228 107 C 228 107 228.8333 100.5 215 96 C 215 96 206.1667 93.5 204 96 C 204 96 189.3333 79.8333 166 79 Z" stroke="#568e37" stroke-width="1" fill="#416b2a"/>
				<path d="M 169 89 L 169 94 C 169 94 166 90 159 90 L 169 89 Z" stroke="#568e37" stroke-width="1" fill="#416b2a"/>
				<path d="M 186 48 C 186 48 189.5 45.6667 192 46 C 192 46 203.1667 59.8333 204 75 C 204 75 198.3333 57 186 48 Z" stroke="#568e37" stroke-width="1" fill="#416b2a"/>
				<path d="M 208 86 C 208 86 213.1667 85 215 85 L 210 87 L 208 86 Z" stroke="#568e37" stroke-width="1" fill="none"/>
				<path d="M 225 115 C 225.3333 114.3333 232 115.6667 233 115 C 233 115 232.1667 115.8333 226 117 C 226 117 224.6667 115.6667 225 115 Z" stroke="#568e37" stroke-width="1" fill="#416b2a"/>
			</g>
			<path d="M 93 160 L 93 153 L 177 104 L 264 152 L 264 173 L 295 186 L 295 136 L 177 70 L 60 135 L 60 160 " stroke="#221f20" stroke-width="4" fill="#ed1e26"/>
			<path d="M 262 244 L 262 251 L 177 300 L 92 253 L 92 231 L 60 219 L 60 268 L 177 335 L 294 269 L 294 244 " stroke="#221f20" stroke-width="4" fill="#ed1e26"/>
			<g>
				<path d="M 230.4229 139.9434 C 231.2496 139.58 233 137.4576 233 126 C 233 126 238.5 129.25 237 140 C 237 140 233.5 146.75 235 149 C 236.5 151.25 241 145 241 145 C 241 145 242.6667 135.3333 239 123.6667 C 239 123.6667 233 96 252 81 C 252 81 242.25 97.5 249 102 C 255.75 106.5 254 89 254 89 C 254 89 251.75 71.25 263 65 C 263 65 257 79.5 264 94 C 264 94 271.25 117.5 261 132 C 250.75 146.5 246 148 242 160 C 238 172 245 170 245 170 C 245 170 249.25 168.5 251 160 C 251 160 249 153.25 257 147 C 257 147 252.5 154.75 254 166 C 255.5 177.25 242 192 242 192 C 242 192 237.2026 195.6552 233.504 197.7244 " stroke="#000000" stroke-width="2" fill="#221f20"/>
				<path d="M 204 199 C 204 199 215.3333 195.6667 221 181 C 221 181 221.2422 177.995 220.5 173.6875 C 220.1392 171.5931 220.0893 169.0928 219.25 167.75 C 219.25 167.75 218.3333 153.6667 224 151 C 229.6667 148.3333 232 143 232 143 C 232 143 228.3333 152 233 155 C 237.6667 158 241 150 241 150 C 241 150 246 146.3333 244 129 C 244 129 244 125.6667 242 118 C 240 110.3333 241.3334 106.6667 244 99 C 244 99 243.6666 108.3333 251 108 C 258.3334 107.6667 258 98 258 98 L 258 90 C 258 90 263 104.6667 262 111 C 262 111 265.3333 119.3333 251 138 C 236.6667 156.6667 236 161 236 161 C 236 161 234.5 171 239 173.1667 C 239 173.1667 243 177.3333 249 172 C 249 172 245.3333 186.6667 232 192 C 232 192 219 200.3333 204 199 Z" stroke="#ffdd00" stroke-width="1" fill="#fdc30d"/>
				<path d="M 220 192 C 220 192 224.5 190.5 224 185 C 223.5 179.5 222 177 222 177 C 222 177 221.4253 167.9808 222 163 C 222.75 156.5 226.5 154 227.6667 153.3333 C 227.6667 153.3333 227.5 158 228.6667 159.3333 C 229.8334 160.6667 233.6667 159.6667 233.6667 159.6667 C 233.6667 159.6667 230.3333 168.5 235 173 C 235 173 235.6666 176.8333 242 178 C 242 178 241.8333 183.6667 230 191 C 230 191 222.3333 194 220 192 Z" fill="#ffde00"/>
				<path d="M 250 135 C 250 135 256.5 125.8333 258 120 C 259.5 114.1667 260.4584 110.9167 259.125 105.25 C 259.125 105.25 258 108.5 250 111 C 250 111 244.6667 110.2083 243.5 106.375 C 243.5 106.375 243.9349 117.4825 245 120 C 246.8334 124.3333 246.6411 125.8062 246.5 127.5 C 246.375 129 246 132 246 139 C 246 139 248.1666 138.1667 250 135 Z" stroke="#ffffff00" stroke-width="1" fill="#ffde00"/>
				<path d="M 246 113 C 246 113 250.8334 117.5 257 113 C 257 113 253.8334 125.5 251 128 C 251 128 245.3333 118.8333 246 113 Z" stroke="#fdd866" stroke-width="1" fill="#fff686"/>
				<path d="M 226 163 C 226 163 226.8333 165.6667 231 166 C 231 166 230 178 238 181 C 238 181 234.3333 187.1667 227 190 L 226 163 Z" stroke="#fdd866" stroke-width="1" fill="#fff686"/>
			</g>
		</g>
		<g>
			<path d="M 78.5 480 L 38.5 480 L 38.5 420 L 68.5 420 L 68.5 469.5469 L 78.5 469.5469 L 78.5 410 L 28.5 410 L 28.5 490 L 68.5 490 L 68.5 509.0469 C 68.5 512.0469 66.7656 514.625 63.3281 516.7813 C 59.875 518.9219 56.5938 520 53.5 520 C 50.8906 520 47.9844 519.1875 44.7969 517.5625 C 40.5938 515.4219 38.5 512.5781 38.5 509.0156 L 38.5 499.7031 L 28.5 499.7031 L 28.5 509.9063 C 28.5 515.7813 31.5469 520.7656 37.6563 524.8281 C 42.8594 528.2656 48.1094 530 53.4219 530 C 59.3281 530 64.8281 528.2031 69.9375 524.6094 C 75.6406 520.7031 78.5 515.9219 78.5 510.2344 L 78.5 480 L 78.5 480 Z" stroke="#ffffff" stroke-width="2" fill="#f90b0b"/>
			<path d="M 147.5 410 L 97.5 410 L 97.5 530 L 107.5 530 L 107.5 489 L 126.9063 489 C 131 489 135.4688 486.7813 140.2813 482.3281 C 145.0938 477.875 147.5 473.6094 147.5 469.5469 L 147.5 410 L 147.5 410 ZM 133.125 475.3125 C 130.2031 477.7813 127.5938 479 125.2813 479 L 107.5 479 L 107.5 420 L 137.5 420 L 137.5 468.375 C 137.5 470.5469 136.0313 472.8594 133.125 475.3125 L 133.125 475.3125 Z" stroke="#ffffff" stroke-width="2" fill="#f90b0b"/>
			<path d="M 192.5 520 L 182.5 520 L 182.5 420 L 192.5 420 L 192.5 410 L 162.5 410 L 162.5 420 L 172.5 420 L 172.5 520 L 162.5 520 L 162.5 530 L 192.5 530 L 192.5 520 L 192.5 520 Z" stroke="#ffffff" stroke-width="2" fill="#f90b0b"/>
			<path d="M 259.5 499.7031 L 249.5 499.7031 L 249.5 508.8594 C 249.5 511.8125 247.7656 514.4063 244.3281 516.6406 C 240.875 518.875 237.5938 520 234.5 520 C 231.1875 520 228 519.0469 224.9063 517.1563 C 221.2969 514.9688 219.5 512.3125 219.5 509.2031 L 219.5 420 L 249.5 420 L 249.5 479.5938 L 259.5 479.5938 L 259.5 410 L 209.5 410 L 209.5 509.4219 C 209.5 515.3281 212.25 520.2813 217.7656 524.2969 C 222.7656 528.0938 228.3125 530 234.4219 530 C 240.3281 530 245.8281 528.1719 250.9375 524.5156 C 256.6406 520.5469 259.5 515.6875 259.5 509.9063 L 259.5 499.7031 L 259.5 499.7031 Z" stroke="#ffffff" stroke-width="2" fill="#f90b0b"/>
			<path d="M 326.5 499.7031 L 316.5 499.7031 L 316.5 508.8594 C 316.5 511.9219 314.7656 514.5313 311.3281 516.7188 C 307.875 518.9063 304.5938 520 301.5 520 C 298.8906 520 295.9844 519.1719 292.7969 517.5313 C 288.5938 515.375 286.5 512.5 286.5 508.8906 L 286.5 489 L 326.5 489 L 326.5 479 L 286.5 479 L 286.5 420 L 316.5 420 L 316.5 469.5469 L 326.5 469.5469 L 326.5 410 L 276.5 410 L 276.5 509.4219 C 276.5 515.3281 279.25 520.2813 284.7656 524.2969 C 289.7656 528.0938 295.3125 530 301.4219 530 C 307.3281 530 312.8281 528.1719 317.9375 524.5156 C 323.6406 520.5469 326.5 515.6875 326.5 509.9063 L 326.5 499.7031 L 326.5 499.7031 Z" stroke="#ffffff" stroke-width="2" fill="#f90b0b"/>
		</g>
	</g>
</svg>