<?xml version="1.0" standalone="no"?>
<!-- Generator: Adobe Fireworks 10, Export SVG Extension by Aaron Beall (http://fireworks.abeall.com) . Version: 0.6.1  -->
<!DOCTYPE svg PUBLIC "-//W3C//DTD SVG 1.1//EN" "http://www.w3.org/Graphics/SVG/1.1/DTD/svg11.dtd">
<svg id="spicefeed_220_140.fw-Page%201" viewBox="0 0 220 140" style="background-color:#ffffff" version="1.1"
	xmlns="http://www.w3.org/2000/svg" xmlns:xlink="http://www.w3.org/1999/xlink" xml:space="preserve"
	x="0px" y="0px" width="220px" height="140px"
>
	<g id="Background">
		<rect visibility="hidden" x="0" y="0" width="220" height="140" stroke="#dddddd" stroke-width="1" fill="none"/>
		<g>
			<path d="M 18.9531 83.0135 C 26.7807 83.0135 30.8663 79.0008 30.8663 73.7924 C 30.8663 64.2144 16.8663 66.9961 16.8663 63.6013 C 16.8663 62.5503 17.6189 61.674 19.9794 61.674 C 22.0663 61.674 24.4947 62.4189 27.0805 63.9517 L 29.7412 57.2525 C 27.0055 55.7292 23.3704 54.9865 20.0479 54.9865 C 12.2185 54.9865 8.1337 58.9245 8.1337 64.1268 C 8.1337 73.8377 22.1337 70.9627 22.1337 74.6068 C 22.1337 75.6926 21.3136 76.326 19.0215 76.326 C 16.3409 76.326 13.043 75.1949 10.5696 73.4305 L 7.7267 80.3383 C 10.3448 81.936 14.7669 83.0135 18.9531 83.0135 L 18.9531 83.0135 Z" fill="#f30000"/>
			<path d="M 45.8879 60.9125 C 43.4661 60.9125 41.721 61.5969 40.5555 63.0027 L 40.5555 61.1337 L 33.0625 61.1337 L 33.0625 88.9375 L 40.9375 88.9375 L 40.9375 81.3018 C 42.1128 82.5176 43.751 83.0875 45.8879 83.0875 C 51.2519 83.0875 55.8663 79.0221 55.8663 71.7256 C 55.8663 65.0164 51.2519 60.9125 45.8879 60.9125 L 45.8879 60.9125 ZM 43.9647 76.4 C 42.184 76.4 40.7994 74.8273 40.7994 71.7256 C 40.7994 68.6239 42.184 67.0087 43.9647 67.0087 C 45.7454 67.0087 47.1337 68.6239 47.1337 71.7256 C 47.1337 74.8273 45.7454 76.4 43.9647 76.4 L 43.9647 76.4 Z" fill="#f30000"/>
			<path d="M 63.0007 59.8438 C 65.8933 59.8438 67.7886 57.9555 67.7886 55.3497 C 67.7886 52.8949 65.8933 51.1562 63.0007 51.1562 C 60.108 51.1562 58.2114 53.046 58.2114 55.5007 C 58.2114 57.9555 60.108 59.8438 63.0007 59.8438 L 63.0007 59.8438 ZM 59.0625 81.9375 L 66.9375 81.9375 L 66.9375 61.0625 L 59.0625 61.0625 L 59.0625 81.9375 L 59.0625 81.9375 Z" fill="#f30000"/>
			<path d="M 82.3445 83.0875 C 87.2659 83.0875 90.9661 80.7699 92.2982 76.9324 L 85.8228 73.4535 C 84.9717 75.5406 83.7506 76.4 82.3075 76.4 C 80.4204 76.4 78.8663 74.9267 78.8663 71.9802 C 78.8663 69.0746 80.4204 67.6 82.3075 67.6 C 83.7506 67.6 84.9717 68.4607 85.8228 70.5479 L 92.2982 67.0681 C 90.9661 63.2306 87.2659 60.9125 82.3445 60.9125 C 75.2433 60.9125 70.1337 65.3583 70.1337 71.9802 C 70.1337 78.6422 75.2433 83.0875 82.3445 83.0875 L 82.3445 83.0875 Z" fill="#f30000"/>
			<path d="M 115.8438 72.0532 C 115.8438 64.6263 110.6791 61 104.6649 61 C 98.0938 61 93.1563 65.3293 93.1563 72.0532 C 93.1563 78.5902 97.9825 82.8478 105.4445 82.8478 C 109.4911 82.8478 112.3497 81.7922 114.3173 79.7514 L 109.9366 75.0758 C 108.6001 76.3563 107.5606 76.9728 105.7044 76.9728 C 103.6254 76.9728 102.2147 75.9294 101.6207 73.9375 L 115.728 73.9375 C 115.7652 73.3687 115.8438 72.622 115.8438 72.0532 L 115.8438 72.0532 ZM 104.7391 66.6984 C 106.4469 66.6984 107.672 67.9427 108.0061 70.0625 L 101.4722 70.0625 C 101.8063 67.9427 102.9943 66.6984 104.7391 66.6984 L 104.7391 66.6984 Z" fill="#f30000"/>
			<path d="M 139.1882 61.637 L 139.1882 54.9495 L 118.1337 54.9495 L 118.1337 81.9375 L 126.8663 81.9375 L 126.8663 73.8438 L 137.6711 73.8438 L 137.6711 67.1562 L 126.8663 67.1562 L 126.8663 61.637 L 139.1882 61.637 L 139.1882 61.637 Z" fill="#f30000"/>
			<path d="M 163.8438 72.0532 C 163.8438 64.6263 158.6791 61 152.6649 61 C 146.0938 61 141.1563 65.3293 141.1563 72.0532 C 141.1563 78.5902 145.9825 82.8478 153.4445 82.8478 C 157.4911 82.8478 160.3497 81.7922 162.3173 79.7514 L 157.9366 75.0758 C 156.6001 76.3563 155.5606 76.9728 153.7044 76.9728 C 151.6254 76.9728 150.2147 75.9294 149.6207 73.9375 L 163.728 73.9375 C 163.7652 73.3687 163.8438 72.622 163.8438 72.0532 L 163.8438 72.0532 ZM 152.7391 66.6984 C 154.4469 66.6984 155.672 67.9427 156.0061 70.0625 L 149.4722 70.0625 C 149.8063 67.9427 150.9943 66.6984 152.7391 66.6984 L 152.7391 66.6984 Z" fill="#f30000"/>
			<path d="M 187.8438 72.0532 C 187.8438 64.6263 182.6791 61 176.6649 61 C 170.0938 61 165.1563 65.3293 165.1563 72.0532 C 165.1563 78.5902 169.9825 82.8478 177.4445 82.8478 C 181.4911 82.8478 184.3497 81.7922 186.3173 79.7514 L 181.9366 75.0758 C 180.6001 76.3563 179.5606 76.9728 177.7044 76.9728 C 175.6254 76.9728 174.2147 75.9294 173.6207 73.9375 L 187.728 73.9375 C 187.7652 73.3687 187.8438 72.622 187.8438 72.0532 L 187.8438 72.0532 ZM 176.7391 66.6984 C 178.4469 66.6984 179.672 67.9427 180.0061 70.0625 L 173.4722 70.0625 C 173.8063 67.9427 174.9943 66.6984 176.7391 66.6984 L 176.7391 66.6984 Z" fill="#f30000"/>
			<path d="M 204.0625 54.0625 L 204.0625 62.6987 C 202.8879 61.4829 201.2496 60.9125 199.1128 60.9125 C 193.7476 60.9125 189.1337 64.9784 189.1337 71.7758 C 189.1337 78.9841 193.7476 83.0875 199.1128 83.0875 C 201.5345 83.0875 203.2796 82.4036 204.4459 80.9978 L 204.4459 81.8663 L 211.9375 81.8663 L 211.9375 54.0625 L 204.0625 54.0625 L 204.0625 54.0625 ZM 201.0359 75.9913 C 199.2552 75.9913 197.8663 74.5471 197.8663 71.7758 C 197.8663 69.0045 199.2552 67.6 201.0359 67.6 C 202.8167 67.6 204.2019 69.0045 204.2019 71.7758 C 204.2019 74.5471 202.8167 75.9913 201.0359 75.9913 L 201.0359 75.9913 Z" fill="#f30000"/>
		</g>
	</g>
	<g id="Layer%201">
	</g>
</svg>