<?xml version="1.0" standalone="no"?>
<!-- Generator: Adobe Fireworks 10, Export SVG Extension by Aaron Beall (http://fireworks.abeall.com) . Version: 0.6.1  -->
<!DOCTYPE svg PUBLIC "-//W3C//DTD SVG 1.1//EN" "http://www.w3.org/Graphics/SVG/1.1/DTD/svg11.dtd">
<svg id="spice_220_140.fw-Page%201" viewBox="0 0 220 140" style="background-color:#ffffff" version="1.1"
	xmlns="http://www.w3.org/2000/svg" xmlns:xlink="http://www.w3.org/1999/xlink" xml:space="preserve"
	x="0px" y="0px" width="220px" height="140px"
>
	<g id="Background">
		<g>
			<path d="M 109.8365 17.1763 L 155.6143 43.1818 L 155.6143 96.168 L 109.8365 122.1735 L 64.7127 96.168 L 64.7127 42.8568 L 109.8365 17.1763 ZM 58.5 39.6061 L 58.5 99.7438 L 109.1825 129 L 110.4905 129 L 161.5 99.7438 L 161.5 39.9311 L 111.1444 11 L 108.8556 11 L 58.5 39.6061 Z" stroke="#000000" stroke-width="1" fill="#000000"/>
			<path d="M 109.8365 26.6033 L 71.5794 47.7328 L 71.5794 64.6364 L 137.6302 80.2397 L 137.6302 85.4408 L 109.8365 101.3691 L 82.0429 86.0909 L 82.0429 78.9394 L 71.5794 75.0386 L 71.5794 90.9669 L 109.8365 112.7466 L 148.0936 91.292 L 148.0936 74.0634 L 82.3698 58.4601 L 82.3698 53.584 L 109.8365 37.6556 L 138.2841 53.259 L 138.2841 60.0854 L 148.4206 64.3113 L 148.4206 48.0578 L 109.8365 26.6033 Z" stroke="#221f20" stroke-width="1" fill="#ed1e26"/>
		</g>
		<rect visibility="hidden" x="0" y="0" width="220" height="140" stroke="#dddddd" stroke-width="1" fill="none"/>
	</g>
	<g id="Layer%201">
	</g>
</svg>