<?xml version="1.0" standalone="no"?>
<!-- Generator: Adobe Fireworks 10, Export SVG Extension by Aaron Beall (http://fireworks.abeall.com) . Version: 0.6.1  -->
<!DOCTYPE svg PUBLIC "-//W3C//DTD SVG 1.1//EN" "http://www.w3.org/Graphics/SVG/1.1/DTD/svg11.dtd">
<svg id="spice_220_140.fw-Page%201" viewBox="0 0 220 140" style="background-color:#ffffff" version="1.1"
	xmlns="http://www.w3.org/2000/svg" xmlns:xlink="http://www.w3.org/1999/xlink" xml:space="preserve"
	x="0px" y="0px" width="220px" height="140px"
>
	<g id="Background">
		<g visibility="hidden">
			<path d="M 109.8365 17.1763 L 155.6143 43.1818 L 155.6143 96.168 L 109.8365 122.1735 L 64.7127 96.168 L 64.7127 42.8568 L 109.8365 17.1763 ZM 58.5 39.6061 L 58.5 99.7438 L 109.1825 129 L 110.4905 129 L 161.5 99.7438 L 161.5 39.9311 L 111.1444 11 L 108.8556 11 L 58.5 39.6061 Z" stroke="#000000" stroke-width="1" fill="#000000"/>
			<path d="M 109.8365 26.6033 L 71.5794 47.7328 L 71.5794 64.6364 L 137.6302 80.2397 L 137.6302 85.4408 L 109.8365 101.3691 L 82.0429 86.0909 L 82.0429 78.9394 L 71.5794 75.0386 L 71.5794 90.9669 L 109.8365 112.7466 L 148.0936 91.292 L 148.0936 74.0634 L 82.3698 58.4601 L 82.3698 53.584 L 109.8365 37.6556 L 138.2841 53.259 L 138.2841 60.0854 L 148.4206 64.3113 L 148.4206 48.0578 L 109.8365 26.6033 Z" stroke="#221f20" stroke-width="1" fill="#ed1e26"/>
		</g>
		<rect visibility="hidden" x="0" y="0" width="220" height="140" stroke="#dddddd" stroke-width="1" fill="none"/>
		<g>
			<path d="M 109.8381 17.1763 L 155.1714 43.1818 L 155.1714 96.168 L 109.8381 122.1736 L 65.1524 96.168 L 65.1524 42.8567 L 109.8381 17.1763 ZM 59 39.6061 L 59 99.7438 L 109.1905 129 L 110.4857 129 L 161 99.7438 L 161 39.9311 L 111.1333 11 L 108.8667 11 L 59 39.6061 Z" stroke="#000000" stroke-width="1" fill="#000000"/>
			<path d="M 109.8381 26.6033 L 71.9524 47.7328 L 71.9524 64.6364 L 137.3619 80.2397 L 137.3619 85.4408 L 109.8381 101.3691 L 82.3143 86.0909 L 82.3143 78.9394 L 71.9524 75.0386 L 71.9524 90.9669 L 109.8381 112.7466 L 147.7238 91.292 L 147.7238 74.0634 L 82.6381 58.4601 L 82.6381 53.584 L 109.8381 37.6556 L 138.0095 53.259 L 138.0095 60.0854 L 148.0476 64.3113 L 148.0476 48.0578 L 109.8381 26.6033 Z" stroke="#221f20" stroke-width="1" fill="#ed1e26"/>
			<g>
				<path d="M 110.8095 19.1267 C 110.8095 19.1267 112.5095 17.095 115.3429 18.1515 C 118.1762 19.208 119.2286 26.6033 119.2286 26.6033 C 119.2286 26.6033 119.3905 27.9036 119.2286 31.1543 C 119.2286 31.1543 121.981 30.5041 123.7619 31.1543 C 123.7619 31.1543 121.5762 31.8044 121.1714 32.4545 C 121.1714 32.4545 125.381 32.1295 127.3238 33.1047 C 129.2667 34.0799 130.454 33.8632 130.454 33.8632 C 130.454 33.8632 126.8921 39.904 126.8921 39.6602 C 126.8921 39.4164 126.0286 40.2562 126.0286 40.2562 L 128.619 40.5813 C 128.619 40.5813 128.7 41.3939 127.3238 42.5317 L 125.7048 42.5317 C 125.7048 42.5317 127 47.0826 127 49.3581 C 127 49.3581 127.9714 49.6832 127.9714 44.8072 C 127.9714 44.8072 129.7524 45.8636 129.2667 49.3581 C 129.2667 49.3581 128.1333 51.5523 128.619 52.2837 C 129.1048 53.0152 130.5619 50.9835 130.5619 50.9835 C 130.5619 50.9835 131.1016 47.8411 129.9143 44.0487 C 129.9143 44.0487 127.9714 35.0551 134.1238 30.1791 C 134.1238 30.1791 130.9667 35.5427 133.1524 37.0055 C 135.3381 38.4683 134.7714 32.7796 134.7714 32.7796 C 134.7714 32.7796 134.0429 27.0096 137.6857 24.978 C 137.6857 24.978 135.7429 29.6915 138.0095 34.405 C 138.0095 34.405 140.3571 42.0441 137.0381 46.7576 C 133.7191 51.4711 132.181 51.9587 130.8857 55.8595 C 129.5905 59.7603 131.8571 59.1102 131.8571 59.1102 C 131.8571 59.1102 133.2333 58.6226 133.8 55.8595 C 133.8 55.8595 133.1524 53.6653 135.7429 51.6336 C 135.7429 51.6336 134.2857 54.1529 134.7714 57.8099 C 135.2571 61.4669 130.8857 66.2617 130.8857 66.2617 C 130.8857 66.2617 129.1857 67.562 127.9714 68.2121 C 127.9714 68.2121 127.3238 72.1942 126.0286 73.4132 C 126.0286 73.4132 125.6238 80.8898 122.4667 88.3664 C 119.3095 95.843 112.4286 102.0193 112.4286 102.0193 C 112.4286 102.0193 106.6 107.1391 99.1524 110.4711 C 93.3331 113.0745 89.2931 111.0141 87.8046 109.9887 C 87.3881 109.7018 87.2119 108.5613 87.2349 108.2823 C 87.3496 106.8881 87.7213 104.6643 88.7905 103.6446 C 88.7905 103.6446 89.8429 101.2879 93.9714 96.8182 C 93.9714 96.8182 96.319 93.3237 96.8857 85.4408 L 96.8857 78.6143 C 96.8857 78.6143 94.781 77.4766 94.2952 75.3636 C 93.8095 73.2507 94.619 72.438 94.619 72.438 C 94.619 72.438 95.3476 71.1377 98.5048 70.1625 C 98.5048 70.1625 96.6429 69.0248 95.5905 65.2865 C 95.5905 65.2865 93.5667 62.0358 93.9714 59.7603 C 93.9714 59.7603 88.7905 56.2658 92.0286 49.6832 C 92.0286 49.6832 93.4857 46.6763 96.2381 45.4573 C 96.2381 45.4573 95.7524 41.8815 97.2095 39.281 C 98.6667 36.6804 99.8 36.0303 99.8 36.0303 C 99.8 36.0303 101.5 34.8113 102.0667 34.73 L 103.6857 35.7052 L 106.9238 35.7052 C 106.9238 35.7052 105.8714 33.8361 101.0952 33.4298 C 101.0952 33.4298 99.4762 32.1295 106.6 31.8044 C 106.6 31.8044 100.6905 27.9848 104.0095 22.3774 C 104.0095 22.3774 106.1143 26.9284 114.0476 28.8788 C 114.0476 28.8788 115.6667 29.2851 117.9333 30.5041 C 117.9333 30.5041 118.0143 24.2466 110.8095 19.1267 Z" stroke="#000000" stroke-width="1" fill="#221f20"/>
				<path d="M 89.0063 106.1368 C 89.5579 104.9603 94.1873 99.202 94.1873 99.202 C 96.346 97.2516 98.8286 92.809 98.8286 92.809 L 96.0222 95.0845 C 98.2889 91.7254 98.5048 79.9146 98.5048 79.9146 C 106.2762 82.1901 105.6286 80.2397 105.6286 80.2397 C 105.6286 80.2397 99.5302 80.4022 96.2381 76.0138 C 96.2381 76.0138 93.9175 72.438 98.8286 71.4628 L 99.1524 73.0882 L 99.1524 73.4132 L 97.8571 73.4132 L 98.181 74.0634 C 98.181 74.0634 102.6064 79.4812 112.7524 77.9642 C 122.8984 76.4472 122.8984 71.1377 124.4095 69.5124 L 126.3524 69.1873 C 126.3524 69.1873 123.654 76.6639 117.9333 78.9394 C 117.9333 78.9394 119.2286 80.023 124.4095 76.0138 C 124.4095 76.0138 121.2794 89.45 117.9333 92.9174 C 117.9333 92.9174 114.0476 99.202 104.0095 105.9201 C 104.0095 105.9201 95.0508 111.9881 89.3302 109.3875 C 89.3302 109.3875 88.1429 107.9789 89.0063 106.1368 Z" stroke="#ed1e26" stroke-width="1" fill="#ca151f"/>
				<path d="M 119.7143 80.1584 C 119.7143 80.1584 116.0714 82.8402 111.781 82.8402 C 107.4905 82.8402 101.4191 82.1088 101.4191 82.1088 L 101.0952 82.5152 C 101.0952 82.5152 101.581 91.5358 100.4476 93.2424 C 99.3143 94.949 97.7762 97.6309 91.7048 104.2948 C 90.8143 105.6763 90.7326 106.9847 92.2865 107.6855 C 96.481 109.5771 112.4547 96.2271 113.8857 94.3802 C 115.5857 92.186 119.7952 87.3912 119.7143 80.1584 Z" fill="#ed1e26"/>
				<path d="M 104.0095 84.7906 C 104.0095 84.7906 106.7619 82.4339 108.5429 85.7658 C 108.5429 85.7658 109.0286 87.635 105.9524 92.9174 C 102.8762 98.1997 95.9143 106.3264 94.2952 105.27 C 92.6762 104.2135 95.6984 101.2608 95.6984 101.2608 L 101.4191 93.8926 C 101.4191 93.8926 104.0095 90.4793 103.6857 89.0165 L 104.0095 84.7906 Z" stroke="#ffffff00" stroke-width="1" fill="#f79274"/>
				<path d="M 113.0762 77.9642 C 113.0762 77.9642 115.2619 78.208 116.9619 78.2893 C 118.6619 78.3705 114.2095 79.8333 114.2095 79.8333 C 114.2095 79.8333 106.2762 80.9711 102.0667 79.5895 C 97.8571 78.208 98.181 76.3388 98.181 76.3388 C 98.181 76.3388 98.4238 75.4449 99.1524 75.6887 C 99.881 75.9325 100.7714 76.3388 100.7714 76.3388 C 100.7714 76.3388 103.9286 77.6391 104.6571 77.6391 C 105.3857 77.6391 107.4905 78.6956 113.0762 77.9642 Z" stroke="#ffffff00" stroke-width="1" fill="#ed1d25"/>
				<path d="M 109.1905 79.2645 C 109.1905 79.2645 109.3524 80.0771 106.6 79.9146 C 103.8476 79.7521 102.0667 78.2893 102.0667 78.2893 C 102.0667 78.2893 100.9333 77.2328 103.0381 77.314 C 103.0381 77.314 104.5762 78.6143 108.5429 78.9394 C 109.8344 79.0452 109.1905 79.2645 109.1905 79.2645 Z" stroke="#ffffff00" stroke-width="1" fill="#f49678"/>
				<path d="M 102.3905 71.1377 L 101.7429 70.8127 L 99.9214 71.8691 C 99.8 74.3072 100.4476 74.0634 100.4476 74.0634 L 100.65 73.7383 L 100.7714 73.7383 L 100.7714 74.3884 C 101.1357 76.2982 105.3048 76.6639 105.3048 76.6639 L 105.6286 76.3388 L 105.6286 75.0386 L 105.7095 74.5103 L 105.7905 74.4291 L 106.0738 76.542 C 109.15 78.2486 112.7524 76.989 112.7524 76.989 L 113.0357 76.2576 L 113.2786 75.4043 L 113.4 75.3636 L 113.4 76.6639 C 116.8405 76.6233 118.2571 75.0386 118.2571 75.0386 L 118.3381 73.9821 L 118.581 73.8196 L 118.9048 74.3884 C 120.3214 74.0634 122.4667 71.4628 122.4667 71.4628 L 121.819 70.8127 C 121.819 70.8127 112.7929 75.4449 101.7429 71.7879 L 102.3905 71.1377 Z" stroke="#000000" stroke-width="1" fill="#ffffff"/>
				<path d="M 122.7905 63.011 C 122.7905 63.011 122.5476 68.5778 109.8381 70.8127 C 109.8381 70.8127 101.3786 71.5847 97.8571 68.5372 L 96.8857 66.5868 L 97.5333 65.6116 C 97.5333 65.6116 98.95 67.2369 99.8 67.2369 L 99.8 68.2121 L 100.1238 67.8871 L 100.1238 67.2369 C 100.1238 67.2369 101.0143 68.2121 104.6571 68.5372 L 105.3048 69.1873 L 105.3048 69.5124 L 105.6286 68.8623 L 105.9524 68.5372 C 105.9524 68.5372 110.3238 68.9842 113.4 67.8871 L 113.7238 68.5372 L 114.0476 68.2121 L 114.0476 67.562 C 114.0476 67.562 118.1357 65.5709 119.5524 63.9862 L 119.8762 65.2865 L 119.8762 63.9862 L 119.8762 63.3361 C 119.8762 63.3361 121.9 61.9545 122.1429 60.0854 L 122.7905 60.4105 L 122.7905 63.011 Z" stroke="#000000" stroke-width="1" fill="#fdfdfd"/>
				<path d="M 96.2381 61.3857 C 96.2381 61.3857 95.7524 61.2231 95.9143 61.7107 C 96.0762 62.1983 98.2349 63.2819 97.5333 63.3361 C 96.8317 63.3903 95.2667 62.3609 95.2667 62.3609 C 95.2667 62.3609 99.5302 69.5666 111.781 66.9118 C 111.781 66.9118 118.2571 65.3949 122.3048 57.8099 L 122.3587 55.697 L 121.6571 55.4261 L 121.3873 55.7511 C 121.3873 55.7511 121.4952 56.8889 120.5238 59.4353 C 119.5524 61.9816 112.4286 64.9614 112.4286 64.9614 L 111.1333 64.9614 L 113.4 63.011 C 113.4 63.011 109.4064 62.4151 108.219 60.7355 C 108.219 60.7355 106.2762 63.2277 101.7429 62.6859 C 101.7429 62.6859 99.4762 63.1194 96.2381 61.3857 Z" stroke="#ed1e26" stroke-width="1" fill="#ca151f"/>
				<path d="M 106.2762 63.011 C 106.2762 63.011 108.219 61.6701 109.8381 63.011 C 109.8381 63.011 110.6881 63.8237 108.8667 64.9614 C 108.8667 64.9614 108.5429 65.4084 111.781 65.2865 L 113.0762 64.9614 L 112.7524 65.6116 C 112.7524 65.6116 111.781 66.4242 106.9238 66.9118 C 102.0667 67.3994 99.4762 65.2865 99.4762 65.2865 C 99.4762 65.2865 99.0714 64.8395 99.4762 64.6364 C 99.4762 64.6364 99.1929 64.1488 101.4191 64.3113 L 101.0143 63.3361 C 101.0143 63.3361 104.2119 63.5393 106.2762 63.011 Z" fill="#ed1e26"/>
				<path d="M 106.9238 64.9614 C 106.9238 64.9614 104.981 65.2865 104.3333 64.9614 C 103.6857 64.6364 104.3333 63.9862 104.3333 63.9862 C 104.3333 63.9862 105.4667 63.0652 107.2476 64.3113 C 107.2476 64.3113 107.4635 64.6905 106.9238 64.9614 Z" stroke="#ffffff00" stroke-width="1" fill="#f79274"/>
				<path d="M 109.8381 51.3085 C 109.8381 51.3085 105.3587 42.315 97.5333 46.4325 C 89.7079 50.55 93.6476 57.1598 93.6476 57.1598 C 93.6476 57.1598 96.6159 61.7649 102.0667 61.7107 C 107.5175 61.6566 107.5714 59.4353 107.5714 59.4353 L 107.2476 58.7851 C 107.2476 58.7851 105.2508 62.2525 99.4762 59.7603 C 99.4762 59.7603 94.727 57.7016 98.181 51.9587 C 98.181 51.9587 99.746 50.225 102.3905 49.6832 C 105.0349 49.1414 108.219 52.6088 108.219 52.6088 L 109.8381 51.3085 Z" stroke="#000000" stroke-width="1" fill="#ffffff"/>
				<path d="M 107.8952 53.9091 C 107.8952 53.9091 106.9238 55.2094 106.9238 57.1598 C 106.9238 59.1102 103.0381 59.4353 103.0381 59.4353 C 103.0381 59.4353 99.746 59.7062 98.181 57.1598 C 96.6159 54.6134 99.1524 51.6336 99.1524 51.6336 C 99.1524 51.6336 101.2571 49.6832 104.0095 50.6584 C 106.7619 51.6336 107.7873 52.8255 107.8952 53.9091 Z" stroke="#000000" stroke-width="1" fill="#ffff04"/>
				<path d="M 106.2762 56.8347 C 106.2762 56.8347 105.4127 58.8393 101.7429 58.7851 C 101.7429 58.7851 99.4762 58.2433 99.1524 57.1598 C 98.8286 56.0762 100.4476 56.5096 100.4476 56.5096 C 100.4476 56.5096 100.7175 57.8099 102.0667 57.8099 C 103.4159 57.8099 105.0889 57.3765 105.6286 56.8347 C 106.1683 56.2929 106.2762 56.8347 106.2762 56.8347 Z" stroke="#ffffff00" stroke-width="1" fill="#fcda00"/>
				<path d="M 99.1524 52.9339 C 99.1524 52.9339 97.3714 55.101 99.1524 57.4848 L 100.4476 56.5096 C 100.4476 56.5096 100.1238 54.6134 100.4476 53.9091 C 100.7714 53.2048 99.1524 52.9339 99.1524 52.9339 Z" stroke="#ffffff00" stroke-width="1" fill="#fdc50d"/>
				<path d="M 100.4476 54.2342 L 98.9095 53.4215 C 98.9095 53.4215 99.4762 51.0918 102.3905 51.3085 C 105.3048 51.5252 106.4921 53.0422 106.7079 52.9881 C 106.9238 52.9339 106.0063 53.9633 106.0063 53.9633 C 106.0063 53.9633 104.2254 51.5794 102.0667 52.9339 C 99.9079 54.2883 100.4476 54.2342 100.4476 54.2342 Z" fill="#eaa319"/>
				<path d="M 99.8 52.2837 L 99.8 52.6088 L 100.4476 52.9339 L 101.0952 52.6088 L 101.7429 52.2837 L 102.0667 51.6336 L 101.7429 51.3085 L 101.0952 50.9835 L 100.4476 51.3085 L 100.1238 51.6336 L 99.8 52.2837 Z" fill="#ffff92"/>
				<path d="M 104.0095 57.1598 L 104.6571 57.1598 L 104.981 57.4848 L 104.6571 58.135 L 104.0095 58.4601 L 103.3619 58.4601 L 102.7143 58.4601 L 102.7143 58.135 L 103.0381 57.8099 L 103.3619 57.4848 L 104.0095 57.1598 Z" fill="#fdf583"/>
				<path d="M 101.0952 54.8843 C 101.0952 54.8843 102.3365 52.7172 104.0095 53.259 C 105.6825 53.8007 105.3048 55.2094 105.3048 55.2094 C 105.3048 55.2094 105.4127 56.3471 104.3333 56.8347 C 103.254 57.3223 101.7429 56.8347 101.7429 56.8347 C 101.7429 56.8347 101.3651 56.5096 101.0952 56.1846 C 100.8254 55.8595 101.0952 54.8843 101.0952 54.8843 Z" stroke="#000000" stroke-width="1" fill="#221f20"/>
				<path d="M 108.8667 47.4077 C 108.8667 47.4077 105.8714 44.2383 101.7429 43.832 C 101.7429 43.832 98.4238 43.9945 97.5333 44.8072 C 97.5333 44.8072 97.2905 40.9063 98.181 39.9311 C 98.181 39.9311 99.3143 38.1432 101.4191 38.3058 C 103.5238 38.4683 106.9238 43.832 106.9238 43.832 C 106.9238 43.832 107.8143 45.051 108.8667 45.1322 C 109.9191 45.2135 110.8095 44.157 110.8095 44.157 C 110.8095 44.157 112.0238 42.2066 111.781 39.6061 L 109.8381 40.9063 C 109.8381 40.9063 107.1667 37.8182 105.9524 37.3306 C 104.7381 36.843 107.5714 37.0055 107.5714 37.0055 C 107.5714 37.0055 109.6762 37.2493 110.1619 37.9807 C 110.1619 37.9807 111.2143 37.9807 108.8667 36.3554 C 108.8667 36.3554 117.0429 34.405 119.8762 37.0055 C 122.7095 39.6061 124.0048 42.3691 124.0857 43.1818 C 124.0857 43.1818 125.5429 45.376 126.0286 50.3333 C 126.0286 50.3333 122.6286 52.7713 122.4667 54.2342 L 121.4952 54.2342 C 121.4952 54.2342 121.4952 52.9339 120.5238 51.6336 C 119.5524 50.3333 123.7619 50.3333 123.7619 50.3333 C 123.7619 50.3333 124.8952 50.8209 124.7333 50.9835 C 124.7333 50.9835 125.0571 49.2769 121.1714 49.3581 C 121.1714 49.3581 120.2 49.2769 119.2286 50.3333 C 119.2286 50.3333 117.7714 49.4394 116.6381 49.6832 C 116.6381 49.6832 120.8476 46.1074 120.8476 44.8072 C 120.8476 43.5069 123.8429 48.3829 123.7619 49.0331 C 123.7619 49.0331 124.5714 48.7893 123.7619 44.8072 C 122.9524 40.8251 119.2286 39.6061 119.2286 39.6061 L 119.2286 40.2562 C 119.2286 40.2562 114.8571 39.6873 113.7238 42.2066 C 113.7238 42.2066 117.2048 40.6625 118.581 41.5565 C 118.581 41.5565 116.6381 44.7259 114.0476 45.4573 C 114.0476 45.4573 113.5619 46.1074 112.4286 44.4821 C 112.4286 44.4821 109.7571 47.814 111.4571 49.6832 L 111.4571 50.3333 C 111.4571 50.3333 109.6762 49.3581 110.1619 47.4077 C 110.1619 47.4077 110.081 46.27 111.4571 44.4821 C 111.4571 44.4821 109.1905 45.7011 108.8667 47.4077 Z" stroke="#ed1e26" stroke-width="1" fill="#ca151f"/>
				<path d="M 108.7857 54.803 C 108.7857 54.803 110.1619 51.3085 113.7238 50.6584 C 117.2857 50.0083 119.2286 52.6088 119.2286 52.6088 C 119.2286 52.6088 121.4952 54.9656 119.3905 58.135 C 117.9919 60.2409 118.5 60.573 113.7238 61.7107 C 113.7238 61.7107 109.6762 61.4669 108.8667 59.1102 C 108.4978 58.0364 108.3178 57.1952 108.3 56.5096 C 108.2787 55.6905 108.7857 54.803 108.7857 54.803 Z" stroke="#000000" stroke-width="1" fill="#ffffff"/>
				<path d="M 110.8095 54.5592 C 110.8095 54.5592 112.3476 52.5275 114.2095 52.4463 C 116.0714 52.365 117.6095 53.584 117.6095 53.584 C 117.6095 53.584 119.3095 55.3719 118.581 57.4848 C 117.8524 59.5978 116.1524 60.1667 115.9905 60.0854 C 115.8286 60.0041 113.2381 61.3044 111.4571 59.4353 C 109.6762 57.5661 110.2429 56.1033 110.2429 56.1033 C 110.2429 56.1033 110.5667 54.7218 110.8095 54.5592 Z" stroke="#000000" stroke-width="1" fill="#221f20"/>
				<path d="M 117.9333 57.1598 C 117.9333 57.1598 115.8286 59.5165 113.0762 59.1102 C 113.0762 59.1102 111.0524 58.2975 110.8095 56.8347 C 110.5667 55.3719 111.781 54.5592 111.781 54.5592 C 111.781 54.5592 112.0238 53.4215 114.3714 52.9339 C 116.719 52.4463 118.2571 55.2094 118.2571 55.2094 C 118.2571 55.2094 118.5 56.6722 117.9333 57.1598 Z" stroke="#000000" stroke-width="1" fill="#ffff04"/>
				<path d="M 117.4476 56.8347 C 117.4476 56.8347 116.6344 58.4954 113.9401 58.4593 C 113.9401 58.4593 112.1806 58.2613 111.9429 57.539 C 111.7051 56.8168 112.7524 56.8889 112.7524 56.8889 C 112.7524 56.8889 113.1873 57.8093 114.1779 57.8093 C 115.1684 57.8093 116.3498 57.0875 116.746 56.7264 C 117.1423 56.3652 117.4476 56.8347 117.4476 56.8347 Z" stroke="#ffffff00" stroke-width="1" fill="#fcda00"/>
				<path d="M 112.0383 54.559 C 112.0383 54.559 110.6353 56.0042 111.9429 57.5932 L 112.8064 56.9972 C 112.8064 56.9972 112.7515 55.6786 112.9892 55.2091 C 113.2269 54.7396 112.0383 54.559 112.0383 54.559 Z" stroke="#ffffff00" stroke-width="1" fill="#fdc50d"/>
				<path d="M 112.9143 55.4261 L 111.86 54.8841 C 111.86 54.8841 112.276 53.3312 114.4156 53.4756 C 116.5552 53.6201 117.1272 54.7037 117.2857 54.6676 C 117.4442 54.6315 116.6921 55.4261 116.6921 55.4261 C 116.6921 55.4261 115.4166 53.548 113.8317 54.4509 C 112.2469 55.3537 112.9143 55.4261 112.9143 55.4261 Z" fill="#eaa319"/>
				<path d="M 112.5137 54.1257 L 112.5137 54.3424 L 112.9892 54.559 L 113.4647 54.3424 L 113.9401 54.1257 L 114.1779 53.6923 L 113.9401 53.4756 L 113.4647 53.259 L 112.9892 53.4756 L 112.7515 53.6923 L 112.5137 54.1257 Z" fill="#ffff92"/>
				<path d="M 115.6043 57.3759 L 116.0797 57.3759 L 116.3175 57.5926 L 116.0797 58.026 L 115.6043 58.2427 L 115.1288 58.2427 L 114.6533 58.2427 L 114.6533 58.026 L 114.8911 57.8093 L 115.1288 57.5926 L 115.6043 57.3759 Z" fill="#fdf583"/>
				<path d="M 113.0762 56.5096 C 113.0762 56.5096 113.4 53.7466 115.3429 54.8843 C 117.2857 56.022 115.0191 57.1598 115.0191 57.1598 C 115.0191 57.1598 113.8048 57.8912 113.0762 56.5096 Z" stroke="#000000" stroke-width="1" fill="#221f20"/>
				<path d="M 118.581 68.5372 C 118.581 68.5372 122.2508 67.4536 124.0857 62.6859 C 124.0857 62.6859 124.1641 61.7091 123.9238 60.3089 C 123.807 59.6281 123.7908 58.8153 123.5191 58.3788 C 123.5191 58.3788 123.2222 53.8007 125.0571 52.9339 C 126.8921 52.067 127.6476 50.3333 127.6476 50.3333 C 127.6476 50.3333 126.4603 53.259 127.9714 54.2342 C 129.4825 55.2094 130.5619 52.6088 130.5619 52.6088 C 130.5619 52.6088 132.181 51.4169 131.5333 45.7824 C 131.5333 45.7824 131.5333 44.6988 130.8857 42.2066 C 130.2381 39.7144 130.6698 38.5225 131.5333 36.0303 C 131.5333 36.0303 131.4254 39.0643 133.8 38.9559 C 136.1746 38.8476 136.0667 35.7052 136.0667 35.7052 L 136.0667 33.1047 C 136.0667 33.1047 137.6857 37.8724 137.3619 39.9311 C 137.3619 39.9311 138.4413 42.64 133.8 48.708 C 129.1587 54.7759 128.9429 56.1846 128.9429 56.1846 C 128.9429 56.1846 128.4572 59.4353 129.9143 60.1396 C 129.9143 60.1396 131.2095 61.494 133.1524 59.7603 C 133.1524 59.7603 131.9651 64.528 127.6476 66.2617 C 127.6476 66.2617 123.4381 68.9706 118.581 68.5372 Z" stroke="#ffdd00" stroke-width="1" fill="#fdc30d"/>
				<path d="M 123.7619 66.2617 C 123.7619 66.2617 125.219 65.7741 125.0571 63.9862 C 124.8952 62.1983 124.4095 61.3857 124.4095 61.3857 C 124.4095 61.3857 124.2234 58.4538 124.4095 56.8347 C 124.6524 54.7218 125.8667 53.9091 126.2444 53.6924 C 126.2444 53.6924 126.1905 55.2094 126.5683 55.6428 C 126.946 56.0762 128.1873 55.7511 128.1873 55.7511 C 128.1873 55.7511 127.1079 58.6226 128.619 60.0854 C 128.619 60.0854 128.8349 61.3315 130.8857 61.7107 C 130.8857 61.7107 130.8318 63.5528 127 65.9366 C 127 65.9366 124.5175 66.9118 123.7619 66.2617 Z" fill="#ffde00"/>
				<path d="M 133.4762 47.7328 C 133.4762 47.7328 135.581 44.753 136.0667 42.8567 C 136.5524 40.9605 136.8627 39.904 136.431 38.062 C 136.431 38.062 136.0667 39.1185 133.4762 39.9311 C 133.4762 39.9311 131.7492 39.6738 131.3714 38.4277 C 131.3714 38.4277 131.5123 42.0384 131.8571 42.8567 C 132.4508 44.2654 132.3886 44.7442 132.3429 45.2948 C 132.3024 45.7824 132.181 46.7576 132.181 49.0331 C 132.181 49.0331 132.8825 48.7622 133.4762 47.7328 Z" stroke="#ffffff00" stroke-width="1" fill="#ffde00"/>
				<path d="M 132.181 40.5813 C 132.181 40.5813 133.746 42.0441 135.7429 40.5813 C 135.7429 40.5813 134.7175 44.6446 133.8 45.4573 C 133.8 45.4573 131.9651 42.4775 132.181 40.5813 Z" stroke="#fdd866" stroke-width="1" fill="#fff686"/>
				<path d="M 125.7048 56.8347 C 125.7048 56.8347 125.9746 57.7016 127.3238 57.8099 C 127.3238 57.8099 127 61.7107 129.5905 62.6859 C 129.5905 62.6859 128.4032 64.6905 126.0286 65.6116 L 125.7048 56.8347 Z" stroke="#fdd866" stroke-width="1" fill="#fff686"/>
				<path d="M 93.6476 52.9339 C 93.6476 52.9339 93.9714 56.5096 95.9143 57.1598 C 95.9143 57.1598 96.8857 58.5142 98.181 59.7603 C 99.4762 61.0064 96.1302 59.2185 95.9143 58.7851 C 95.6984 58.3517 96.1841 57.8099 95.5905 57.4848 C 94.9968 57.1598 94.619 57.4848 94.619 57.4848 C 94.619 57.4848 93.054 55.6428 93.6476 52.9339 Z" fill="#e6e6e6"/>
				<path d="M 98.8286 43.5069 C 98.8286 43.5069 97.6952 41.3398 99.8 39.9311 C 101.9048 38.5225 104.981 42.8567 104.981 42.8567 C 104.981 42.8567 105.1429 43.5611 104.3333 43.5069 C 103.5238 43.4527 101.7968 43.0193 98.8286 43.5069 Z" fill="#ed1e26"/>
				<path d="M 99.8 40.9063 C 99.8 40.9063 100.5556 39.6061 101.7429 40.9063 C 102.9302 42.2066 101.4191 42.2066 101.4191 42.2066 C 101.4191 42.2066 100.5016 42.3691 99.8 40.9063 Z" fill="#f79274"/>
				<path d="M 111.4571 37.0055 C 111.4571 37.0055 114.8032 34.7842 119.5524 37.9807 C 119.5524 37.9807 120.4159 39.4977 116.3143 39.6061 C 112.2127 39.7144 111.4571 37.0055 111.4571 37.0055 Z" stroke="#ffffff00" stroke-width="1" fill="#ed1e26"/>
				<path d="M 114.0476 37.9807 C 114.0476 37.9807 113.7238 36.9513 115.0191 37.0055 C 116.3143 37.0597 116.6381 37.6556 116.6381 37.6556 C 116.6381 37.6556 116.5841 38.2516 115.9905 38.3058 C 115.3968 38.36 114.3175 38.4683 114.0476 37.9807 Z" stroke="#ffffff00" stroke-width="1" fill="#f79274"/>
				<path d="M 113.6159 43.5069 C 113.6159 43.5069 112.7524 42.1524 116.9619 41.8815 C 116.9619 41.8815 114.4794 44.157 114.3714 44.157 C 114.2635 44.157 113.6159 44.5363 113.6159 43.5069 Z" stroke="#ffffff00" stroke-width="1" fill="#ed1e26"/>
				<path d="M 114.0476 43.1818 C 114.0476 43.1818 114.1016 41.9899 115.3429 42.8567 C 115.3429 42.8567 114.8032 44.2654 114.0476 43.1818 Z" stroke="#ffffff00" stroke-width="1" fill="#f79274"/>
				<path d="M 121.1714 51.9587 C 121.1714 51.9587 122.2238 50.7397 123.1143 51.3085 C 124.0048 51.8774 122.4667 52.6088 122.4667 52.6088 L 121.1714 51.9587 Z" stroke="#ffffff00" stroke-width="1" fill="#ed1e26"/>
				<path d="M 121.819 51.6336 C 121.819 51.6336 121.873 50.4417 123.1143 51.3085 C 123.1143 51.3085 122.5746 52.7172 121.819 51.6336 Z" stroke="#ffffff00" stroke-width="1" fill="#f79274"/>
				<path d="M 106.2762 29.5289 C 106.2762 29.5289 103.6857 26.3324 104.3333 24.1111 C 104.3333 24.1111 103.6857 26.3324 113.0762 29.5289 C 113.0762 29.5289 117.1778 31.0459 118.9048 32.7796 L 119.2286 33.4298 C 119.2286 33.4298 121.7651 32.1837 128.9429 34.73 L 126.3524 38.6309 C 126.3524 38.6309 126.6222 36.5179 122.1429 35.0551 C 122.1429 35.0551 119.2825 34.2424 118.581 35.0551 C 118.581 35.0551 113.8317 29.7998 106.2762 29.5289 Z" stroke="#568e37" stroke-width="1" fill="#416b2a"/>
				<path d="M 107.2476 32.7796 L 107.2476 34.405 C 107.2476 34.405 106.2762 33.1047 104.0095 33.1047 L 107.2476 32.7796 Z" stroke="#568e37" stroke-width="1" fill="#416b2a"/>
				<path d="M 112.7524 19.4518 C 112.7524 19.4518 113.8857 18.6933 114.6952 18.8017 C 114.6952 18.8017 118.3111 23.2984 118.581 28.2286 C 118.581 28.2286 116.746 22.3774 112.7524 19.4518 Z" stroke="#568e37" stroke-width="1" fill="#416b2a"/>
				<path d="M 119.8762 31.8044 C 119.8762 31.8044 121.5492 31.4793 122.1429 31.4793 L 120.5238 32.1295 L 119.8762 31.8044 Z" stroke="#568e37" stroke-width="1" fill="none"/>
				<path d="M 125.381 41.2314 C 125.4889 41.0147 127.6476 41.4481 127.9714 41.2314 C 127.9714 41.2314 127.7016 41.5023 125.7048 41.8815 C 125.7048 41.8815 125.273 41.4481 125.381 41.2314 Z" stroke="#568e37" stroke-width="1" fill="#416b2a"/>
			</g>
			<path d="M 82.6381 55.8595 L 82.6381 53.584 L 109.8381 37.6556 L 138.0095 53.259 L 138.0095 60.0854 L 148.0476 64.3113 L 148.0476 48.0578 L 109.8381 26.6033 L 71.9524 47.7328 L 71.9524 55.8595 " stroke="#221f20" stroke-width="1" fill="#ed1e26"/>
			<path d="M 137.3619 83.1653 L 137.3619 85.4408 L 109.8381 101.3691 L 82.3143 86.0909 L 82.3143 78.9394 L 71.9524 75.0386 L 71.9524 90.9669 L 109.8381 112.7466 L 147.7238 91.292 L 147.7238 83.1653 " stroke="#221f20" stroke-width="1" fill="#ed1e26"/>
			<g>
				<path d="M 127.1369 49.3397 C 127.4046 49.2216 127.9714 48.5317 127.9714 44.8072 C 127.9714 44.8072 129.7524 45.8636 129.2667 49.3581 C 129.2667 49.3581 128.1333 51.5523 128.619 52.2837 C 129.1048 53.0152 130.5619 50.9835 130.5619 50.9835 C 130.5619 50.9835 131.1016 47.8411 129.9143 44.0487 C 129.9143 44.0487 127.9714 35.0551 134.1238 30.1791 C 134.1238 30.1791 130.9667 35.5427 133.1524 37.0055 C 135.3381 38.4683 134.7714 32.7796 134.7714 32.7796 C 134.7714 32.7796 134.0429 27.0096 137.6857 24.978 C 137.6857 24.978 135.7429 29.6915 138.0095 34.405 C 138.0095 34.405 140.3571 42.0441 137.0381 46.7576 C 133.7191 51.4711 132.181 51.9587 130.8857 55.8595 C 129.5905 59.7603 131.8571 59.1102 131.8571 59.1102 C 131.8571 59.1102 133.2333 58.6226 133.8 55.8595 C 133.8 55.8595 133.1524 53.6653 135.7429 51.6336 C 135.7429 51.6336 134.2857 54.1529 134.7714 57.8099 C 135.2571 61.4669 130.8857 66.2617 130.8857 66.2617 C 130.8857 66.2617 129.3323 67.4499 128.1346 68.1225 " stroke="#000000" stroke-width="1" fill="#221f20"/>
				<path d="M 118.581 68.5372 C 118.581 68.5372 122.2508 67.4536 124.0857 62.6859 C 124.0857 62.6859 124.1641 61.7091 123.9238 60.3089 C 123.807 59.6281 123.7908 58.8153 123.5191 58.3788 C 123.5191 58.3788 123.2222 53.8007 125.0571 52.9339 C 126.8921 52.067 127.6476 50.3333 127.6476 50.3333 C 127.6476 50.3333 126.4603 53.259 127.9714 54.2342 C 129.4825 55.2094 130.5619 52.6088 130.5619 52.6088 C 130.5619 52.6088 132.181 51.4169 131.5333 45.7824 C 131.5333 45.7824 131.5333 44.6988 130.8857 42.2066 C 130.2381 39.7144 130.6698 38.5225 131.5333 36.0303 C 131.5333 36.0303 131.4254 39.0643 133.8 38.9559 C 136.1746 38.8476 136.0667 35.7052 136.0667 35.7052 L 136.0667 33.1047 C 136.0667 33.1047 137.6857 37.8724 137.3619 39.9311 C 137.3619 39.9311 138.4413 42.64 133.8 48.708 C 129.1587 54.7759 128.9429 56.1846 128.9429 56.1846 C 128.9429 56.1846 128.4572 59.4353 129.9143 60.1396 C 129.9143 60.1396 131.2095 61.494 133.1524 59.7603 C 133.1524 59.7603 131.9651 64.528 127.6476 66.2617 C 127.6476 66.2617 123.4381 68.9706 118.581 68.5372 Z" stroke="#ffdd00" stroke-width="1" fill="#fdc30d"/>
				<path d="M 123.7619 66.2617 C 123.7619 66.2617 125.219 65.7741 125.0571 63.9862 C 124.8952 62.1983 124.4095 61.3857 124.4095 61.3857 C 124.4095 61.3857 124.2234 58.4538 124.4095 56.8347 C 124.6524 54.7218 125.8667 53.9091 126.2444 53.6924 C 126.2444 53.6924 126.1905 55.2094 126.5683 55.6428 C 126.946 56.0762 128.1873 55.7511 128.1873 55.7511 C 128.1873 55.7511 127.1079 58.6226 128.619 60.0854 C 128.619 60.0854 128.8349 61.3315 130.8857 61.7107 C 130.8857 61.7107 130.8318 63.5528 127 65.9366 C 127 65.9366 124.5175 66.9118 123.7619 66.2617 Z" fill="#ffde00"/>
				<path d="M 133.4762 47.7328 C 133.4762 47.7328 135.581 44.753 136.0667 42.8567 C 136.5524 40.9605 136.8627 39.904 136.431 38.062 C 136.431 38.062 136.0667 39.1185 133.4762 39.9311 C 133.4762 39.9311 131.7492 39.6738 131.3714 38.4277 C 131.3714 38.4277 131.5123 42.0384 131.8571 42.8567 C 132.4508 44.2654 132.3886 44.7442 132.3429 45.2948 C 132.3024 45.7824 132.181 46.7576 132.181 49.0331 C 132.181 49.0331 132.8825 48.7622 133.4762 47.7328 Z" stroke="#ffffff00" stroke-width="1" fill="#ffde00"/>
				<path d="M 132.181 40.5813 C 132.181 40.5813 133.746 42.0441 135.7429 40.5813 C 135.7429 40.5813 134.7175 44.6446 133.8 45.4573 C 133.8 45.4573 131.9651 42.4775 132.181 40.5813 Z" stroke="#fdd866" stroke-width="1" fill="#fff686"/>
				<path d="M 125.7048 56.8347 C 125.7048 56.8347 125.9746 57.7016 127.3238 57.8099 C 127.3238 57.8099 127 61.7107 129.5905 62.6859 C 129.5905 62.6859 128.4032 64.6905 126.0286 65.6116 L 125.7048 56.8347 Z" stroke="#fdd866" stroke-width="1" fill="#fff686"/>
			</g>
		</g>
	</g>
	<g id="Layer%201">
	</g>
</svg>