<?xml version="1.0" standalone="no"?>
<!-- Generator: Adobe Fireworks 10, Export SVG Extension by Aaron Beall (http://fireworks.abeall.com) . Version: 0.6.1  -->
<!DOCTYPE svg PUBLIC "-//W3C//DTD SVG 1.1//EN" "http://www.w3.org/Graphics/SVG/1.1/DTD/svg11.dtd">
<svg id="telegram_220_140.fw-Page%201" viewBox="0 0 220 140" style="background-color:#3faee8" version="1.1"
	xmlns="http://www.w3.org/2000/svg" xmlns:xlink="http://www.w3.org/1999/xlink" xml:space="preserve"
	x="0px" y="0px" width="220px" height="140px"
>
	<g id="Background">
		<g>
			<path d="M 34.6939 81.4057 L 34.6939 54.9151 L 44.9796 54.9151 L 44.9796 51.9717 L 20 51.9717 L 20 54.9151 L 30.2857 54.9151 L 30.2857 81.4057 L 34.6939 81.4057 L 34.6939 81.4057 Z" fill="#ffffff"/>
			<path d="M 64.8163 76.9906 C 62.3597 77.9794 60.3048 78.4623 58.6288 78.4623 C 54.037 78.4623 51.4426 76.2547 50.8571 71.8396 L 64.8163 71.8396 L 64.8278 70.6554 C 64.8278 67.2751 64.1161 64.6651 62.6926 62.8255 C 61.2691 60.9859 59.2487 60.066 56.6314 60.066 C 53.8763 60.066 51.6033 61.0548 49.8355 63.0324 C 48.0676 65.01 47.1837 67.551 47.1837 70.6439 C 47.1837 73.8287 48.1824 76.4157 50.2028 78.4163 C 52.2117 80.4169 54.8291 81.4057 58.0434 81.4057 C 59.9145 81.4057 62.176 80.9228 64.8163 79.934 L 64.8163 76.9906 L 64.8163 76.9906 ZM 56.6314 63.0094 C 59.639 63.0094 61.1429 64.9755 61.1429 68.8962 L 51.5918 68.8962 C 51.9362 64.9755 53.6122 63.0094 56.6314 63.0094 L 56.6314 63.0094 Z" fill="#ffffff"/>
			<path d="M 75.102 81.4057 L 75.102 50.5 L 71.4286 50.5 L 71.4286 81.4057 L 75.102 81.4057 L 75.102 81.4057 Z" fill="#ffffff"/>
			<path d="M 99.3469 76.9906 C 96.8903 77.9794 94.8355 78.4623 93.1594 78.4623 C 88.5676 78.4623 85.9732 76.2547 85.3878 71.8396 L 99.3469 71.8396 L 99.3584 70.6554 C 99.3584 67.2751 98.6467 64.6651 97.2232 62.8255 C 95.7997 60.9859 93.7793 60.066 91.162 60.066 C 88.4069 60.066 86.1339 61.0548 84.3661 63.0324 C 82.5982 65.01 81.7143 67.551 81.7143 70.6439 C 81.7143 73.8287 82.713 76.4157 84.7334 78.4163 C 86.7423 80.4169 89.3597 81.4057 92.574 81.4057 C 94.4452 81.4057 96.7066 80.9228 99.3469 79.934 L 99.3469 76.9906 L 99.3469 76.9906 ZM 91.162 63.0094 C 94.1696 63.0094 95.6735 64.9755 95.6735 68.8962 L 86.1225 68.8962 C 86.4668 64.9755 88.1429 63.0094 91.162 63.0094 L 91.162 63.0094 Z" fill="#ffffff"/>
			<path d="M 113.1225 89.5 C 116.727 89.5 119.3903 88.6032 121.1008 86.8211 C 122.0651 85.7978 122.7194 84.487 123.0638 82.9004 C 123.4082 81.3137 123.5918 78.8532 123.5918 75.5189 L 123.5918 60.066 L 119.9184 60.066 L 119.9184 62.8715 C 118.1964 61.0088 116.1416 60.066 113.7538 60.066 C 111.0217 60.066 108.7946 61.0548 107.0727 63.0324 C 105.3508 65.01 104.4898 67.5625 104.4898 70.7014 C 104.4898 73.7712 105.236 76.1972 106.7513 77.9909 C 108.2666 79.7845 110.31 80.6698 112.9043 80.6698 C 114.4196 80.6698 115.8087 80.2904 117.0485 79.5315 C 118.2883 78.7727 119.2411 77.7149 119.9184 76.3352 L 119.9184 79.6695 C 119.9184 84.2571 117.6798 86.5566 113.2258 86.5566 C 110.9758 86.5566 108.7143 85.8208 106.4184 84.3491 L 105.9592 88.0283 C 108.2551 89.0056 110.6429 89.5 113.1225 89.5 L 113.1225 89.5 ZM 113.7309 76.9906 C 110.5051 76.9906 108.898 74.8405 108.898 70.5174 C 108.898 68.1719 109.3916 66.3438 110.3788 65.01 C 111.3661 63.6763 112.7321 63.0094 114.477 63.0094 C 116.4286 63.0094 118.2423 63.8373 119.9184 65.4814 L 119.9184 73.7137 C 117.9783 75.8983 115.912 76.9906 113.7309 76.9906 L 113.7309 76.9906 Z" fill="#ffffff"/>
			<path d="M 134.6122 81.4057 L 134.6122 67.9304 C 136.2883 65.148 138.389 63.7453 140.8916 63.7453 C 141.4082 63.7453 142.0051 63.8603 142.6939 64.0787 L 142.6939 60.1695 C 142.2462 60.1005 141.8214 60.066 141.4311 60.066 C 138.4464 60.066 136.1735 61.5262 134.6122 64.4466 L 134.6122 60.066 L 130.9388 60.066 L 130.9388 81.4057 L 134.6122 81.4057 L 134.6122 81.4057 Z" fill="#ffffff"/>
			<path d="M 162.6913 81.4057 C 163.7015 81.4057 164.6314 81.1757 165.4694 80.7158 L 165.2054 78.3933 C 164.8839 78.4393 164.6543 78.4623 164.4936 78.4623 C 163.185 78.4623 162.5306 77.4275 162.5306 75.3464 L 162.5306 66.2748 C 162.5306 64.1707 161.9796 62.607 160.8775 61.5952 C 159.7755 60.5834 158.0765 60.066 155.7577 60.066 C 153.5077 60.066 151.1084 60.5604 148.5714 61.5377 L 148.5714 64.4811 C 150.9018 63.5038 153.06 63.0094 155.0459 63.0094 C 157.5829 63.0094 158.8571 64.1707 158.8571 66.4817 L 158.8571 68.8962 L 157.9388 68.8962 C 154.1964 68.8962 151.338 69.4941 149.3521 70.6899 C 147.3546 71.8856 146.3673 73.5988 146.3673 75.8178 C 146.3673 77.4275 146.9528 78.7612 148.1352 79.819 C 149.3176 80.8768 150.81 81.4057 152.6008 81.4057 C 154.7819 81.4057 157.0434 80.3939 159.3967 78.3473 C 159.8674 80.3939 160.9694 81.4057 162.6913 81.4057 L 162.6913 81.4057 ZM 153.588 78.4623 C 152.5893 78.4623 151.7513 78.1633 151.0625 77.5425 C 150.3737 76.9331 150.0408 76.1857 150.0408 75.2889 C 150.0408 74.0242 150.7296 73.0124 152.1071 72.2535 C 153.4847 71.4947 155.31 71.1038 157.56 71.1038 L 158.8571 71.1383 L 158.8571 76.4157 C 157.0204 77.7839 155.264 78.4623 153.588 78.4623 L 153.588 78.4623 Z" fill="#ffffff"/>
			<path d="M 173.551 81.4057 L 173.551 67.8154 C 175.8584 65.102 178.0281 63.7453 180.0485 63.7453 C 182.0804 63.7453 183.102 64.918 183.102 67.2406 L 183.102 81.4057 L 186.7755 81.4057 L 186.7755 67.8039 C 189.06 65.102 191.2411 63.7453 193.3304 63.7453 C 195.3278 63.7453 196.3265 64.9065 196.3265 67.2176 L 196.3265 81.4057 L 200 81.4057 L 200 66.2288 C 200 64.2857 199.4719 62.768 198.4158 61.6872 C 197.3597 60.6064 195.8903 60.066 194.0077 60.066 C 191.0344 60.066 188.6237 61.5262 186.7755 64.4466 C 185.7309 61.5262 183.7679 60.066 180.8865 60.066 C 177.9018 60.066 175.4566 61.5262 173.551 64.4466 L 173.551 60.066 L 169.8775 60.066 L 169.8775 81.4057 L 173.551 81.4057 L 173.551 81.4057 Z" fill="#ffffff"/>
		</g>
	</g>
</svg>