<?xml version="1.0" standalone="no"?>
<!-- Generator: Adobe Fireworks 10, Export SVG Extension by Aaron Beall (http://fireworks.abeall.com) . Version: 0.6.1  -->
<!DOCTYPE svg PUBLIC "-//W3C//DTD SVG 1.1//EN" "http://www.w3.org/Graphics/SVG/1.1/DTD/svg11.dtd">
<svg id="baby_bot_dark_tee.fw-Page%201" viewBox="0 0 4500 5700" style="background-color:#000000" version="1.1"
	xmlns="http://www.w3.org/2000/svg" xmlns:xlink="http://www.w3.org/1999/xlink" xml:space="preserve"
	x="0px" y="0px" width="4500px" height="5700px"
>
	<g id="Layer%201">
		<path d="M 272.1401 5406.2915 C 297.5813 5431.5625 327.4434 5451.4634 361.6443 5465.999 C 395.8428 5480.4531 433.3804 5487.8027 474.1704 5487.8027 C 504.7014 5487.8027 532.0596 5483.6738 556.4167 5475.6626 C 580.7739 5467.5688 601.3789 5456.3359 618.3938 5442.0513 C 635.4109 5427.7617 648.4248 5411.0796 657.5154 5392.002 C 666.5261 5373.0088 671.1135 5352.5259 671.1135 5330.6426 C 671.1135 5310.4902 667.7769 5292.7358 661.2698 5277.292 C 654.7627 5261.9307 646.0056 5248.4692 634.9932 5236.9902 C 623.9832 5225.5112 610.9717 5215.4355 595.9561 5206.7646 C 580.9404 5198.0913 564.9253 5190.3286 547.9927 5183.5581 L 469.9163 5149.9448 C 457.9888 5144.9897 446.0588 5139.9531 434.2158 5134.916 C 422.3706 5129.877 411.7759 5123.8477 402.4343 5116.8286 C 393.0903 5109.8096 385.417 5101.6338 379.4944 5092.3833 C 373.4897 5083.1333 370.5706 5071.8184 370.5706 5058.3594 C 370.5706 5033.1704 380.4119 5013.4312 400.2661 4999.144 C 420.1177 4984.8569 446.9763 4977.6714 480.926 4977.6714 C 508.6201 4977.6714 533.3948 4982.2979 555.166 4991.5479 C 576.9373 5000.7959 596.8735 5013.5977 615.0569 5029.7827 L 652.428 4984.4443 C 631.9919 4964.292 607.0505 4947.8584 577.6882 4935.2227 C 548.2439 4922.6694 515.9624 4916.3096 480.926 4916.3096 C 454.3186 4916.3096 429.877 4920.0278 407.5215 4927.2959 C 385.166 4934.5635 365.8987 4944.8042 349.7988 4957.9346 C 333.6172 4971.147 321.021 4986.6753 312.0125 5004.5938 C 302.9197 5022.5996 298.4167 5041.9233 298.4167 5062.5703 C 298.4167 5082.7202 302.0867 5100.5591 309.4265 5115.9209 C 316.7666 5131.3643 326.2771 5144.6592 337.8713 5155.8916 C 349.4658 5167.1221 362.3105 5176.6211 376.4907 5184.4658 C 390.6733 5192.311 404.769 5199.002 418.9492 5204.6157 L 498.7786 5239.0547 C 512.8743 5245.248 526.0549 5251.1133 538.2334 5256.7271 C 550.4121 5262.3438 561.0042 5268.6216 570.0151 5275.6406 C 579.0234 5282.6597 586.1123 5291.0845 591.2842 5300.8296 C 596.3738 5310.6567 598.9597 5322.5488 598.9597 5336.5049 C 598.9597 5363.4277 588.1985 5385.1494 566.6782 5401.665 C 545.1558 5418.1831 514.5427 5426.4409 475.0059 5426.4409 C 444.3904 5426.4409 415.197 5420.1655 387.5032 5407.5303 C 359.8093 5394.9766 335.4521 5378.2944 314.5984 5357.5649 L 272.1401 5406.2915 L 272.1401 5406.2915 Z" stroke="#ffffff" stroke-width="20" fill="#ed1e26"/>
		<path d="M 869.2229 5434.8657 C 887.9084 5451.7119 908.4265 5464.6782 930.782 5473.9287 C 953.1377 5483.1768 973.9092 5487.8027 993.1768 5487.8027 C 1018.0337 5487.8027 1041.8088 5482.8481 1064.4976 5473.103 C 1087.1018 5463.3574 1107.0381 5448.9038 1124.304 5429.8286 C 1141.572 5410.833 1155.3345 5387.7085 1165.5115 5360.54 C 1175.6885 5333.3662 1180.7759 5302.3989 1180.7759 5267.6289 C 1180.7759 5235.7515 1177.0237 5207.0107 1169.6838 5181.4937 C 1162.3413 5156.0562 1151.416 5134.1724 1136.9846 5116.0029 C 1122.5535 5097.833 1104.7034 5083.7944 1083.5164 5073.9673 C 1062.3269 5064.1401 1037.8877 5059.1851 1010.1938 5059.1851 C 984.6682 5059.1851 959.3936 5065.1299 934.2034 5076.8574 C 909.0107 5088.6675 886.7397 5103.5337 867.5544 5121.3706 L 865.053 5121.3706 L 859.0459 5069.2588 L 801.3232 5069.2588 L 801.3232 5650 L 870.9734 5650 L 870.9734 5512.166 L 869.2229 5434.8657 L 869.2229 5434.8657 ZM 870.9734 5178.519 C 892.4114 5157.2944 913.4316 5141.769 934.1189 5131.9414 C 954.8059 5122.1143 974.158 5117.1592 992.3438 5117.1592 C 1012.6953 5117.1592 1030.2122 5120.8755 1044.8945 5128.1436 C 1059.5745 5135.4087 1071.6709 5145.6514 1081.0125 5158.7822 C 1090.354 5171.9946 1097.2788 5187.769 1101.7842 5206.2695 C 1106.2871 5224.7676 1108.6218 5245.248 1108.6218 5267.6289 C 1108.6218 5318.666 1096.6946 5358.3906 1072.9216 5386.9648 C 1049.1489 5415.5391 1018.6179 5429.8286 981.3313 5429.8286 C 967.1511 5429.8286 950.134 5426.1924 930.3667 5418.9243 C 910.5127 5411.6592 890.7429 5399.2695 870.9734 5381.9282 L 870.9734 5178.519 L 870.9734 5178.519 Z" stroke="#ffffff" stroke-width="20" fill="#ed1e26"/>
		<path d="M 1305.9827 5125.5815 L 1497.8362 5125.5815 L 1497.8362 5477.7271 L 1567.4041 5477.7271 L 1567.4041 5069.2588 L 1305.9827 5069.2588 L 1305.9827 5125.5815 L 1305.9827 5125.5815 ZM 1564.8184 4970.9829 C 1575.5796 4961.4863 1581 4948.6021 1581 4932.3325 C 1581 4916.145 1575.5796 4903.0967 1564.8184 4893.2695 C 1554.0569 4883.5244 1540.7944 4878.5693 1524.9458 4878.5693 C 1508.5129 4878.5693 1495.0837 4883.5244 1484.658 4893.2695 C 1474.1455 4903.0967 1468.9761 4916.145 1468.9761 4932.3325 C 1468.9761 4948.6021 1474.1455 4961.4863 1484.658 4970.9829 C 1495.0837 4980.5615 1508.5129 4985.27 1524.9458 4985.27 C 1540.7944 4985.27 1554.0569 4980.5615 1564.8184 4970.9829 L 1564.8184 4970.9829 Z" stroke="#ffffff" stroke-width="20" fill="#ed1e26"/>
		<path d="M 1821.5676 5364.751 C 1832.9133 5391.3428 1848.7617 5413.8057 1869.1157 5431.9751 C 1889.4673 5450.1426 1913.4092 5464.019 1940.8521 5473.5156 C 1968.2947 5483.0122 1998.1567 5487.8027 2030.4382 5487.8027 C 2060.9692 5487.8027 2090.2471 5482.1865 2118.2742 5471.0361 C 2146.3013 5459.8057 2171.5759 5444.1133 2194.2671 5423.9639 L 2163.7361 5379.3687 C 2146.137 5393.9868 2126.7007 5406.2095 2105.5137 5415.9546 C 2084.3267 5425.7817 2060.9692 5430.6543 2035.5281 5430.6543 C 2011.7551 5430.6543 1990.0659 5426.936 1970.5474 5419.3398 C 1951.0288 5411.7412 1934.345 5401.0879 1920.498 5387.3779 C 1906.6511 5373.6704 1895.8921 5357.3188 1888.2166 5338.2388 C 1880.5435 5319.2456 1876.7888 5297.9395 1876.7888 5274.3198 C 1876.7888 5250.8647 1880.71 5229.3916 1888.6343 5210.0679 C 1896.5586 5190.7412 1907.4863 5174.1436 1921.3335 5160.1025 C 1935.1804 5146.0645 1952.0286 5135.3267 1971.8826 5127.7305 C 1991.6523 5120.1318 2013.4236 5116.3335 2037.1963 5116.3335 C 2058.7166 5116.3335 2078.6528 5120.5444 2097.0051 5128.9692 C 2115.355 5137.3936 2133.123 5148.8726 2150.1401 5163.4058 L 2184.9231 5118.8931 C 2167.9058 5102.7056 2147.1367 5088.6675 2122.5283 5076.8574 C 2097.8381 5065.1299 2068.5603 5059.1851 2034.6926 5059.1851 C 2003.4954 5059.1851 1973.9663 5063.9731 1945.9392 5073.4697 C 1917.9121 5083.0508 1893.4729 5097.0073 1872.5347 5115.5078 C 1851.5989 5134.0059 1835.0815 5156.6353 1822.9028 5183.2271 C 1810.7244 5209.8188 1804.635 5240.2114 1804.635 5274.3198 C 1804.635 5308.0132 1810.2246 5338.1567 1821.5676 5364.751 L 1821.5676 5364.751 Z" stroke="#ffffff" stroke-width="20" fill="#ed1e26"/>
		<path d="M 2319.8047 5364.3379 C 2331.3989 5390.6836 2347.2476 5412.98 2367.3506 5431.147 C 2387.4531 5449.3169 2410.9775 5463.3574 2437.8359 5473.103 C 2464.6968 5482.8481 2493.4746 5487.8027 2524.0034 5487.8027 C 2557.3687 5487.8027 2587.0669 5483.0122 2613.0898 5473.5156 C 2639.1177 5464.019 2662.3882 5452.7866 2682.7422 5439.9023 L 2658.1343 5394.564 C 2638.8667 5406.2915 2619.1792 5415.5391 2599.0786 5422.23 C 2578.9736 5429.0005 2556.7871 5432.3062 2532.5117 5432.3062 C 2487.2188 5432.3062 2450.2656 5419.4219 2421.7388 5393.6533 C 2393.127 5367.8872 2377.4453 5332.8735 2374.6084 5288.6069 L 2697.1733 5288.6069 C 2698.8418 5278.5308 2699.7593 5265.9775 2699.7593 5250.7827 C 2699.7593 5222.2905 2695.5054 5196.2759 2686.9966 5172.7383 C 2678.4878 5149.2007 2666.1431 5129.0513 2650.043 5112.2046 C 2633.8613 5095.3555 2614.2583 5082.3071 2591.0698 5073.0596 C 2567.8813 5063.8091 2541.52 5059.1851 2512.1602 5059.1851 C 2485.4658 5059.1851 2459.6069 5064.1401 2434.417 5073.9673 C 2409.2246 5083.7944 2386.9536 5097.915 2367.4351 5116.4155 C 2347.9165 5134.916 2332.1499 5157.4614 2320.3047 5184.0532 C 2308.377 5210.645 2302.4543 5240.7886 2302.4543 5274.3198 C 2302.4543 5308.0132 2308.2104 5337.9922 2319.8047 5364.3379 L 2319.8047 5364.3379 ZM 2373.7729 5243.2681 C 2376.0254 5222.5366 2381.5327 5204.2051 2390.29 5188.1821 C 2399.0498 5172.2432 2409.6421 5158.7822 2422.1538 5147.8804 C 2434.5835 5136.9785 2448.5972 5128.5562 2464.1943 5122.6938 C 2479.71 5116.8286 2495.9761 5113.8564 2512.9932 5113.8564 C 2551.4487 5113.8564 2581.3926 5124.9224 2602.915 5147.0542 C 2624.4355 5169.189 2635.1968 5201.3125 2635.1968 5243.2681 L 2373.7729 5243.2681 L 2373.7729 5243.2681 Z" stroke="#ffffff" stroke-width="20" fill="#ed1e26"/>
		<path d="M 2829.9692 5477.7271 L 2886.0234 5477.7271 L 2891.9463 5432.3062 L 2894.5317 5432.3062 C 2914.3018 5449.7295 2935.6553 5463.3574 2958.5952 5473.103 C 2981.4502 5482.8481 3002.8037 5487.8027 3022.6582 5487.8027 C 3047.0151 5487.8027 3070.4546 5482.8481 3093.1436 5473.103 C 3115.7476 5463.3574 3135.6841 5448.9038 3152.9521 5429.8286 C 3170.2183 5410.833 3183.9805 5387.5444 3194.1577 5360.1245 C 3204.3345 5332.707 3209.4243 5301.5708 3209.4243 5266.8032 C 3209.4243 5235.4209 3205.6694 5207.0107 3198.3296 5181.4937 C 3190.9873 5156.0562 3180.062 5134.1724 3165.6304 5116.0029 C 3151.1992 5097.833 3133.2646 5083.7944 3111.7446 5073.9673 C 3090.2246 5064.1401 3065.6162 5059.1851 3037.9224 5059.1851 C 3013.5649 5059.1851 2989.1235 5064.7993 2964.5176 5076.0317 C 2939.9097 5087.2622 2917.7207 5102.375 2897.8687 5121.3706 L 2899.6216 5042.4185 L 2899.6216 4879.3955 L 2829.9692 4879.3955 L 2829.9692 5477.7271 L 2829.9692 5477.7271 ZM 2899.6216 5178.519 C 2921.0596 5157.2944 2942.0801 5141.769 2962.7646 5131.9414 C 2983.4521 5122.1143 3002.8037 5117.1592 3020.9897 5117.1592 C 3041.3413 5117.1592 3058.8579 5120.8755 3073.5405 5128.1436 C 3088.2202 5135.4087 3100.3169 5145.6514 3109.6582 5158.7822 C 3119.0024 5171.9946 3125.9248 5187.769 3130.4302 5206.2695 C 3134.9331 5224.7676 3137.27 5245.248 3137.27 5267.6289 C 3137.27 5292.8999 3134.1001 5315.6118 3127.9263 5335.7612 C 3121.6704 5355.9136 3112.9131 5372.8447 3101.5674 5386.5522 C 3090.2246 5400.2622 3076.9619 5410.9155 3061.6953 5418.5142 C 3046.4307 5426.1104 3029.7471 5429.8286 3011.6455 5429.8286 C 2996.8838 5429.8286 2979.4487 5426.1924 2959.4277 5418.9243 C 2939.3252 5411.6592 2919.3887 5399.2695 2899.6216 5381.9282 L 2899.6216 5178.519 L 2899.6216 5178.519 Z" stroke="#ffffff" stroke-width="20" fill="#006633"/>
		<path d="M 3325.7021 5364.751 C 3336.7148 5391.3428 3351.5615 5413.8057 3370.2471 5431.9751 C 3388.9326 5450.1426 3410.5371 5464.019 3435.1431 5473.5156 C 3459.751 5483.0122 3485.6919 5487.8027 3512.8862 5487.8027 C 3539.9956 5487.8027 3565.855 5483.0122 3590.5449 5473.5156 C 3615.1509 5464.019 3636.7554 5450.1426 3655.4409 5431.9751 C 3674.1265 5413.8057 3688.9756 5391.3428 3699.9854 5364.751 C 3710.9956 5338.1567 3716.585 5308.0132 3716.585 5274.3198 C 3716.585 5240.2114 3710.9956 5209.8188 3699.9854 5183.2271 C 3688.9756 5156.6353 3674.1265 5134.0059 3655.4409 5115.5078 C 3636.7554 5097.0073 3615.1509 5083.0508 3590.5449 5073.4697 C 3565.855 5063.9731 3539.9956 5059.1851 3512.8862 5059.1851 C 3485.6919 5059.1851 3459.751 5063.9731 3435.1431 5073.4697 C 3410.5371 5083.0508 3388.9326 5097.0073 3370.2471 5115.5078 C 3351.5615 5134.0059 3336.7148 5156.6353 3325.7021 5183.2271 C 3314.6924 5209.8188 3309.1875 5240.2114 3309.1875 5274.3198 C 3309.1875 5308.0132 3314.6924 5338.1567 3325.7021 5364.751 L 3325.7021 5364.751 ZM 3390.6006 5210.0679 C 3396.772 5190.7412 3405.6982 5174.1436 3417.3774 5160.1025 C 3428.9717 5146.0645 3442.8184 5135.3267 3459 5127.7305 C 3475.0996 5120.1318 3493.0322 5116.3335 3512.8862 5116.3335 C 3532.6558 5116.3335 3550.5879 5120.1318 3566.7725 5127.7305 C 3582.8696 5135.3267 3596.7163 5146.0645 3608.313 5160.1025 C 3619.9072 5174.1436 3628.8311 5190.7412 3635.0894 5210.0679 C 3641.2607 5229.3916 3644.4312 5250.8647 3644.4312 5274.3198 C 3644.4312 5297.9395 3641.2607 5319.2456 3635.0894 5338.2388 C 3628.8311 5357.3188 3619.9072 5373.6704 3608.313 5387.3779 C 3596.7163 5401.0879 3582.8696 5411.7412 3566.7725 5419.3398 C 3550.5879 5426.936 3532.6558 5430.6543 3512.8862 5430.6543 C 3493.0322 5430.6543 3475.0996 5426.936 3459 5419.3398 C 3442.8184 5411.7412 3428.9717 5401.0879 3417.3774 5387.3779 C 3405.6982 5373.6704 3396.772 5357.3188 3390.6006 5338.2388 C 3384.4272 5319.2456 3381.3413 5297.9395 3381.3413 5274.3198 C 3381.3413 5250.8647 3384.4272 5229.3916 3390.6006 5210.0679 L 3390.6006 5210.0679 Z" stroke="#ffffff" stroke-width="20" fill="#006633"/>
		<path d="M 3940.2202 5318.915 C 3940.2202 5344.186 3942.8882 5367.146 3948.311 5387.873 C 3953.6494 5408.6021 3962.4092 5426.3589 3974.5874 5441.2231 C 3986.7661 5456.0898 4003.0298 5467.5688 4023.3838 5475.6626 C 4043.7378 5483.6738 4068.9277 5487.8027 4098.9565 5487.8027 C 4121.5635 5487.8027 4144.1699 5485.4077 4166.8589 5480.6992 C 4189.4629 5475.9087 4209.8145 5470.2104 4228 5463.4399 L 4213.5688 5412.98 C 4198.8047 5418.5962 4183.54 5423.1377 4167.6919 5426.4409 C 4151.8433 5429.8286 4133.9907 5431.4805 4114.2231 5431.4805 C 4094.3691 5431.4805 4077.6875 5429.167 4064.1738 5424.3765 C 4050.5757 5419.5859 4039.8169 5412.4849 4031.8926 5402.9063 C 4023.9683 5393.4072 4018.2944 5381.7642 4014.9575 5368.0542 C 4011.5386 5354.3442 4009.8726 5338.2388 4009.8726 5319.7407 L 4009.8726 5125.5815 L 4211.9004 5125.5815 L 4211.9004 5069.2588 L 4009.8726 5069.2588 L 4009.8726 4955.0444 L 3952.1475 4955.0444 L 3942.8037 5069.2588 L 3823.9395 5073.4697 L 3823.9395 5125.5815 L 3940.2202 5125.5815 L 3940.2202 5318.915 L 3940.2202 5318.915 Z" stroke="#ffffff" stroke-width="20" fill="#006633"/>
		<path d="M 1779.4448 50 L 2246.0574 90.9658 L 2421.7578 736.406 L 1955.1504 695.4402 L 1779.4448 50 Z" stroke="#ffffff" stroke-width="20" fill="#006633"/>
		<path d="M 2245.7095 3783.1836 C 1783.1462 3782.375 1281.9202 3611.4585 1229.7773 3446.8999 C 1178.2383 3313.0063 1335.845 3226.4097 1413.1294 3263.2417 C 1700.7888 3400.3369 1894.4387 3481.5127 2243.4375 3482.1235 C 2598.7505 3482.7466 2792.8779 3402.2471 3081.3418 3266.1587 C 3158.8413 3229.5991 3315.936 3316.7466 3263.6094 3450.459 C 3210.4961 3614.8315 2708.2705 3783.9951 2245.7095 3783.1836 Z" stroke="#ffffff" stroke-width="20" fill="#ed1e26"/>
		<path d="M 2735.542 2209.0269 C 2692.3784 1967.2041 2854.7969 1735.6865 3098.3179 1691.9102 C 3341.8384 1648.1338 3574.2329 1808.6792 3617.3965 2050.5024 C 3660.562 2292.3252 3498.1436 2523.8428 3254.623 2567.6191 C 3212.0537 2575.271 3169.8291 2576.7852 3128.9019 2572.6177 C 3193.3076 2525.4604 3265.2271 2407.2354 3244.0864 2286.4629 C 3217.9424 2137.1182 3118.6572 2029.8311 3022.3271 2046.8345 C 2925.9971 2063.8354 2869.103 2198.6831 2895.249 2348.0298 C 2903.5283 2395.3481 2925.9756 2477.1494 2946.5181 2513.4121 C 2862.3423 2448.4766 2755.6396 2321.6289 2735.542 2209.0269 Z" stroke="#ffffff" stroke-width="20" fill="#ed1e26"/>
		<path d="M 1774.3528 2129.4038 C 1776.8542 1883.8018 1578.2886 1683.8164 1330.8301 1682.7153 C 1083.3762 1681.6143 880.7471 1879.8154 878.241 2125.417 C 875.7371 2371.019 1074.3052 2571.0044 1321.7612 2572.1055 C 1365.0139 2572.2964 1406.9146 2566.5039 1446.5964 2555.3413 C 1375.2561 2520.0083 1284.7234 2415.9834 1285.5659 2293.3975 C 1286.6067 2141.8052 1366.7598 2019.021 1464.5962 2019.144 C 1562.4304 2019.2695 1640.8933 2142.2563 1639.8525 2293.8491 C 1639.5242 2341.8774 1630.9385 2426.313 1616.6785 2465.5669 C 1688.9531 2387.0952 1773.1843 2243.7632 1774.3528 2129.4038 Z" stroke="#ffffff" stroke-width="20" fill="#ed1e26"/>
		<rect x="273.5" y="670" width="3953" height="3919" stroke="#ed1e26" stroke-width="198" fill="none" rx="499" ry="499"/>
	</g>
</svg>