<?xml version="1.0" standalone="no"?>
<!-- Generator: Adobe Fireworks 10, Export SVG Extension by Aaron Beall (http://fireworks.abeall.com) . Version: 0.6.1  -->
<!DOCTYPE svg PUBLIC "-//W3C//DTD SVG 1.1//EN" "http://www.w3.org/Graphics/SVG/1.1/DTD/svg11.dtd">
<svg id="got_spice.fw-Page%201" viewBox="0 0 4500 5700" style="background-color:#ffffff00" version="1.1"
	xmlns="http://www.w3.org/2000/svg" xmlns:xlink="http://www.w3.org/1999/xlink" xml:space="preserve"
	x="0px" y="0px" width="4500px" height="5700px"
>
	<g id="Layer%201">
		<g>
			<g>
				<path d="M 1925.5045 4584.0986 C 1934.1268 4525.3042 1941.2794 4411.2993 1946.2603 4341.9346 L 1946.2603 3909.3923 C 1946.2603 3909.3923 1813.0984 3837.3008 1782.3676 3703.4202 C 1751.6411 3569.5347 1802.8547 3518.0415 1802.8547 3518.0415 C 1802.8547 3518.0415 1848.9487 3435.6533 2048.6917 3373.8589 C 2048.6917 3373.8589 1930.8928 3301.7722 1864.3162 3064.9006 C 1864.3162 3064.9006 1736.2781 2858.9285 1761.8804 2714.7463 C 1761.8804 2714.7463 1693.5958 2584.2988 1591.1644 2529.3721 C 1530.3098 2496.7429 1461.4141 2378.322 1577.5049 2261.6096 C 1584.3367 2254.7422 1543.3625 2158.6194 1625.311 2035.0396 C 1625.311 2035.0396 1731.1542 1885.7062 1905.2861 1808.4688 C 1905.2861 1808.4688 1874.5554 1581.8986 1966.7432 1417.1183 C 2058.9309 1252.3423 2130.6362 1211.146 2130.6362 1211.146 C 2130.6362 1211.146 2238.187 1133.9086 2274.0417 1128.7579 L 2376.469 1190.5479 L 2581.3318 1190.5479 C 2581.3318 1190.5479 2514.7549 1072.1141 2212.5803 1046.3699 C 2212.5803 1046.3699 2110.1489 963.9776 2560.8445 943.3837 C 2560.8445 943.3837 2186.9736 701.3616 2396.9556 346.0607 C 2396.9556 346.0607 2530.1179 634.421 3032.031 758.0051 C 3032.031 758.0051 3134.4626 783.754 3277.864 860.9915 C 3277.864 860.9915 3282.9878 464.4943 2827.1685 140.0884 C 2827.1685 140.0884 2934.7195 11.3536 3113.9756 78.2942 C 3293.2317 145.2391 3359.8083 613.8273 3359.8083 613.8273 C 3359.8083 613.8273 3370.0518 696.2152 3359.8083 902.1874 C 3359.8083 902.1874 3533.9443 860.9915 3646.6194 902.1874 C 3646.6194 902.1874 3508.3335 943.3837 3482.7266 984.5756 C 3482.7266 984.5756 3749.0466 963.9776 3871.9651 1025.7717 C 3994.8833 1087.5616 4070 1073.8311 4070 1073.8311 C 4070 1073.8311 3844.6501 1456.5975 3844.6501 1441.1503 C 3844.6501 1425.7025 3790.0205 1478.9125 3790.0205 1478.9125 L 3953.9094 1499.5061 C 3953.9094 1499.5061 3959.0332 1551.0035 3871.9651 1623.0902 L 3769.5339 1623.0902 C 3769.5339 1623.0902 3851.4822 1911.455 3851.4822 2055.6333 C 3851.4822 2055.6333 3882.2083 2366.3083 3912.9395 2412.655 C 3912.9395 2412.655 4056.7349 3001.7495 3912.9395 3346.3977 C 3851.2395 3494.2742 3796.8528 3586.6987 3776.3655 3662.2236 C 3776.3655 3662.2236 3764.4138 4111.3286 3564.6711 4585.0669 L 1925.5045 4584.0986 Z" stroke="#000000" stroke-width="35" fill="#221f20"/>
				<path d="M 2009.7072 4551.8564 C 2043.854 4292.3623 2048.6917 4027.2966 2048.6917 4027.2966 C 2540.3616 4171.479 2499.3872 4047.895 2499.3872 4047.895 C 2499.3872 4047.895 2113.5647 4058.1917 1905.2861 3780.1284 C 1905.2861 3780.1284 1758.4689 3553.5581 2069.1787 3491.7681 L 2089.6616 3594.7542 L 2089.6616 3615.3521 L 2007.7175 3615.3521 L 2028.2047 3656.5442 C 2028.2047 3656.5442 2308.1838 3999.8359 2950.0828 3903.7124 C 3591.9856 3807.594 3977.8123 3453.1472 3660.2744 2647.2769 L 3749.0466 2592.3542 L 3612.4729 2592.3542 C 3356.3967 3072.9561 2888.6255 3203.4033 2888.6255 3203.4033 C 2113.5647 3371.6177 1843.829 2915.043 1843.829 2915.043 C 1843.829 2915.043 1942.8445 2980.2671 1987.2303 2976.8333 C 2031.6206 2973.4038 1895.0426 2904.7463 1884.8033 2873.8472 C 1874.5554 2842.9519 1905.2861 2853.2534 1905.2861 2853.2534 C 2110.1489 2963.1023 2253.5544 2935.6411 2253.5544 2935.6411 C 2540.3616 2969.97 2663.28 2812.0569 2663.28 2812.0569 C 2738.3967 2918.4768 2991.0566 2956.2395 2991.0566 2956.2395 L 2847.6555 3079.8235 L 2929.5999 3079.8235 C 2929.5999 3079.8235 3380.2952 2891.0112 3441.7566 2729.6687 C 3503.2139 2568.3225 3544.1838 2482.5005 3544.1838 2482.5005 L 3830.9949 2400.1125 C 3830.9949 2400.1125 4268.0313 3532.9597 3277.864 3965.5027 C 3277.864 3965.5027 3370.0518 4037.5938 3687.5894 3780.1284 C 3687.5894 3780.1284 3584.6724 4222.5737 3447.9167 4551.8564 " stroke="#ed1e26" stroke-width="18" fill="#ca151f"/>
				<path d="M 3278.7351 4551.8564 C 3343.7297 4411.8887 3392.7629 4241.9058 3390.5388 4042.7444 C 3390.5388 4042.7444 3160.0693 4212.6709 2888.6255 4212.6709 C 2617.1816 4212.6709 2233.0674 4166.3286 2233.0674 4166.3286 L 2212.5803 4192.0771 C 2212.5803 4192.0771 2222.3557 4373.9048 2218.0164 4551.8564 " fill="#ed1e26"/>
				<path d="M 2380.4612 4551.8564 L 2396.9556 4336.2554 C 2396.9556 4336.2554 2571.0923 4186.9263 2683.7629 4398.0493 C 2683.7629 4398.0493 2695.155 4441.9551 2660.1375 4551.8564 " stroke="#ffffff00" stroke-width="18" fill="#f79274"/>
				<path d="M 2970.5701 3903.7124 C 2970.5701 3903.7124 3108.856 3919.1604 3216.4067 3924.3105 C 3323.9578 3929.4568 3042.2705 4022.1465 3042.2705 4022.1465 C 3042.2705 4022.1465 2540.3616 4094.2375 2274.0417 4006.6987 C 2007.7175 3919.1604 2028.2047 3800.7263 2028.2047 3800.7263 C 2028.2047 3800.7263 2043.5679 3744.0828 2089.6616 3759.5305 C 2135.7556 3774.9819 2192.093 3800.7263 2192.093 3800.7263 C 2192.093 3800.7263 2391.8362 3883.1145 2437.9299 3883.1145 C 2484.0239 3883.1145 2617.1816 3950.0549 2970.5701 3903.7124 Z" stroke="#ffffff00" stroke-width="18" fill="#ed1d25"/>
				<path d="M 2724.7373 3986.1006 C 2724.7373 3986.1006 2734.9805 4037.5938 2560.8445 4027.2966 C 2386.7124 4017 2274.0417 3924.3105 2274.0417 3924.3105 C 2274.0417 3924.3105 2202.3367 3857.3701 2335.4988 3862.5166 C 2335.4988 3862.5166 2432.8062 3944.9089 2683.7629 3965.5027 C 2765.4731 3972.2095 2724.7373 3986.1006 2724.7373 3986.1006 Z" stroke="#ffffff00" stroke-width="18" fill="#f49678"/>
				<path d="M 2294.5244 3471.1702 L 2253.5544 3450.572 L 2138.3176 3517.5125 C 2130.6362 3671.9917 2171.606 3656.5442 2171.606 3656.5442 L 2184.4114 3635.9507 L 2192.093 3635.9507 L 2192.093 3677.1423 C 2215.1423 3798.1514 2478.9001 3821.3245 2478.9001 3821.3245 L 2499.3872 3800.7263 L 2499.3872 3718.3384 L 2504.5068 3684.8682 L 2509.6306 3679.7173 L 2527.5562 3813.5986 C 2722.175 3921.7354 2950.0828 3841.9229 2950.0828 3841.9229 L 2968.0122 3795.5757 L 2983.3755 3741.5076 L 2991.0566 3738.9368 L 2991.0566 3821.3245 C 3208.7256 3818.7493 3298.3511 3718.3384 3298.3511 3718.3384 L 3303.4707 3651.3979 L 3318.8384 3641.0964 L 3339.321 3677.1423 C 3428.9512 3656.5442 3564.6711 3491.7681 3564.6711 3491.7681 L 3523.7012 3450.572 C 3523.7012 3450.572 2952.6445 3744.0828 2253.5544 3512.366 L 2294.5244 3471.1702 Z" stroke="#000000" stroke-width="18" fill="#ffffff"/>
				<path d="M 3585.1577 2956.2395 C 3585.1577 2956.2395 3569.7949 3308.9651 2765.7073 3450.572 C 2765.7073 3450.572 2230.5054 3499.4895 2007.7175 3306.3894 L 1946.2603 3182.8098 L 1987.2303 3121.0154 C 1987.2303 3121.0154 2076.8606 3224.0015 2130.6362 3224.0015 L 2130.6362 3285.7959 L 2151.1187 3265.1978 L 2151.1187 3224.0015 C 2151.1187 3224.0015 2207.4563 3285.7959 2437.9299 3306.3894 L 2478.9001 3347.5859 L 2478.9001 3368.1838 L 2499.3872 3326.9875 L 2519.8745 3306.3894 C 2519.8745 3306.3894 2796.4377 3334.7139 2991.0566 3265.1978 L 3011.5439 3306.3894 L 3032.031 3285.7959 L 3032.031 3244.5999 C 3032.031 3244.5999 3290.6694 3118.4402 3380.2952 3018.0291 L 3400.7822 3100.4172 L 3400.7822 3018.0291 L 3400.7822 2976.8333 C 3400.7822 2976.8333 3528.8206 2889.2944 3544.1838 2770.8608 L 3585.1577 2791.459 L 3585.1577 2956.2395 Z" stroke="#000000" stroke-width="18" fill="#fdfdfd"/>
				<path d="M 2540.3616 2956.2395 C 2540.3616 2956.2395 2663.28 2871.2759 2765.7073 2956.2395 C 2765.7073 2956.2395 2819.4866 3007.7327 2704.25 3079.8235 C 2704.25 3079.8235 2683.7629 3108.1431 2888.6255 3100.4172 L 2970.5701 3079.8235 L 2950.0828 3121.0154 C 2950.0828 3121.0154 2888.6255 3172.5083 2581.3318 3203.4033 C 2274.0417 3234.3027 2110.1489 3100.4172 2110.1489 3100.4172 C 2110.1489 3100.4172 2084.5422 3072.0979 2110.1489 3059.2256 C 2110.1489 3059.2256 2092.2236 3028.3262 2233.0674 3038.6272 L 2207.4563 2976.8333 C 2207.4563 2976.8333 2409.7617 2989.7097 2540.3616 2956.2395 Z" fill="#ed1e26"/>
				<path d="M 2581.3318 3079.8235 C 2581.3318 3079.8235 2458.4172 3100.4172 2417.4429 3079.8235 C 2376.469 3059.2256 2417.4429 3018.0291 2417.4429 3018.0291 C 2417.4429 3018.0291 2489.1433 2959.6733 2601.8184 3038.6272 C 2601.8184 3038.6272 2615.4783 3062.6594 2581.3318 3079.8235 Z" stroke="#ffffff00" stroke-width="18" fill="#f79274"/>
				<path d="M 2765.7073 2214.7339 C 2765.7073 2214.7339 2482.3162 1644.8765 1987.2303 1905.7755 C 1492.1489 2166.6746 1741.3978 2585.4868 1741.3978 2585.4868 C 1741.3978 2585.4868 1929.1892 2877.2808 2274.0417 2873.8472 C 2618.8896 2870.4175 2622.3057 2729.6687 2622.3057 2729.6687 L 2601.8184 2688.4729 C 2601.8184 2688.4729 2475.4883 2908.1802 2110.1489 2750.2629 C 2110.1489 2750.2629 1809.6866 2619.8157 2028.2047 2255.9304 C 2028.2047 2255.9304 2127.22 2146.0767 2294.5244 2111.7478 C 2461.8289 2077.4189 2663.28 2297.1265 2663.28 2297.1265 L 2765.7073 2214.7339 Z" stroke="#000000" stroke-width="18" fill="#ffffff"/>
				<path d="M 2642.7927 2379.5144 C 2642.7927 2379.5144 2581.3318 2461.9026 2581.3318 2585.4868 C 2581.3318 2709.0708 2335.4988 2729.6687 2335.4988 2729.6687 C 2335.4988 2729.6687 2127.22 2746.8335 2028.2047 2585.4868 C 1929.1892 2424.1399 2089.6616 2235.3318 2089.6616 2235.3318 C 2089.6616 2235.3318 2222.824 2111.7478 2396.9556 2173.5422 C 2571.0923 2235.3318 2635.9612 2310.8567 2642.7927 2379.5144 Z" stroke="#000000" stroke-width="18" fill="#ffff04"/>
				<path d="M 2540.3616 2564.8887 C 2540.3616 2564.8887 2485.7278 2691.9067 2253.5544 2688.4729 C 2253.5544 2688.4729 2110.1489 2654.144 2089.6616 2585.4868 C 2069.1787 2516.8293 2171.606 2544.2903 2171.606 2544.2903 C 2171.606 2544.2903 2188.677 2626.6826 2274.0417 2626.6826 C 2359.3972 2626.6826 2465.2449 2599.217 2499.3872 2564.8887 C 2533.5339 2530.5598 2540.3616 2564.8887 2540.3616 2564.8887 Z" stroke="#ffffff00" stroke-width="18" fill="#fcda00"/>
				<path d="M 2089.6616 2317.72 C 2089.6616 2317.72 1976.9911 2455.0393 2089.6616 2606.0847 L 2171.606 2544.2903 C 2171.606 2544.2903 2151.1187 2424.1399 2171.606 2379.5144 C 2192.093 2334.8848 2089.6616 2317.72 2089.6616 2317.72 Z" stroke="#ffffff00" stroke-width="18" fill="#fdc50d"/>
				<path d="M 2171.606 2400.1125 L 2074.2986 2348.6194 C 2074.2986 2348.6194 2110.1489 2201.0034 2294.5244 2214.7339 C 2478.9001 2228.4648 2554.0166 2324.5876 2567.676 2321.1538 C 2581.3318 2317.72 2523.2861 2382.9482 2523.2861 2382.9482 C 2523.2861 2382.9482 2410.6155 2231.8982 2274.0417 2317.72 C 2137.4636 2403.5464 2171.606 2400.1125 2171.606 2400.1125 Z" fill="#eaa319"/>
				<path d="M 2130.6362 2276.5283 L 2130.6362 2297.1265 L 2171.606 2317.72 L 2212.5803 2297.1265 L 2253.5544 2276.5283 L 2274.0417 2235.3318 L 2253.5544 2214.7339 L 2212.5803 2194.136 L 2171.606 2214.7339 L 2151.1187 2235.3318 L 2130.6362 2276.5283 Z" fill="#ffff92"/>
				<path d="M 2396.9556 2585.4868 L 2437.9299 2585.4868 L 2458.4172 2606.0847 L 2437.9299 2647.2769 L 2396.9556 2667.8748 L 2355.9817 2667.8748 L 2315.0117 2667.8748 L 2315.0117 2647.2769 L 2335.4988 2626.6826 L 2355.9817 2606.0847 L 2396.9556 2585.4868 Z" fill="#fdf583"/>
				<path d="M 2283.6047 2405.7876 C 2283.6047 2405.7876 2362.1375 2268.4729 2467.9802 2302.8013 C 2573.8274 2337.1301 2549.9243 2426.386 2549.9243 2426.386 C 2549.9243 2426.386 2556.752 2498.4771 2488.4675 2529.3721 C 2420.1824 2560.2666 2324.5789 2529.3721 2324.5789 2529.3721 C 2324.5789 2529.3721 2300.6758 2508.7737 2283.6047 2488.1799 C 2266.5334 2467.582 2283.6047 2405.7876 2283.6047 2405.7876 Z" stroke="#000000" stroke-width="18" fill="#221f20"/>
				<path d="M 2704.25 1949.8115 C 2704.25 1949.8115 2514.7549 1748.9856 2253.5544 1723.2412 C 2253.5544 1723.2412 2043.5679 1733.5378 1987.2303 1785.0309 C 1987.2303 1785.0309 1971.8673 1537.8627 2028.2047 1476.0725 C 2028.2047 1476.0725 2099.9053 1362.7853 2233.0674 1373.0867 C 2366.2295 1383.3835 2581.3318 1723.2412 2581.3318 1723.2412 C 2581.3318 1723.2412 2637.6689 1800.4786 2704.25 1805.6294 C 2770.8311 1810.78 2827.1685 1743.8392 2827.1685 1743.8392 C 2827.1685 1743.8392 2903.9932 1620.2551 2888.6255 1455.4746 L 2765.7073 1537.8627 C 2765.7073 1537.8627 2596.6946 1342.1917 2519.8745 1311.2922 C 2443.0496 1280.3975 2622.3057 1290.6986 2622.3057 1290.6986 C 2622.3057 1290.6986 2755.4678 1306.1461 2786.1941 1352.4884 C 2786.1941 1352.4884 2852.7751 1352.4884 2704.25 1249.5023 C 2704.25 1249.5023 3242.0134 1105.3199 3421.2695 1270.1006 C 3600.5212 1434.8766 3702.957 1630.5518 3708.0767 1682.0448 C 3708.0767 1682.0448 3786.605 1992.72 3817.3354 2306.8291 C 3817.3354 2306.8291 3721.7361 2375.4868 3591.99 2389.2173 L 3503.2139 2382.3545 C 3503.2139 2382.3545 3503.2139 2299.9619 3441.7566 2217.5737 C 3380.2952 2135.1858 3646.6194 2135.1858 3646.6194 2135.1858 C 3646.6194 2135.1858 3718.3201 2166.0808 3708.0767 2176.3774 C 3708.0767 2176.3774 3728.5637 2068.2454 3482.7266 2073.3911 C 3482.7266 2073.3911 3421.2695 2068.2454 3359.8083 2135.1858 C 3359.8083 2135.1858 3267.6206 2078.542 3195.9194 2093.9897 C 3195.9194 2093.9897 3462.2439 1867.4191 3462.2439 1785.0309 C 3462.2439 1702.6433 3651.739 2011.6016 3646.6194 2052.7976 C 3646.6194 2052.7976 3697.8328 2037.3503 3646.6194 1785.0309 C 3595.4016 1532.7163 3359.8083 1455.4746 3359.8083 1455.4746 L 3359.8083 1496.671 C 3359.8083 1496.671 3083.2446 1460.6252 3011.5439 1620.2551 C 3011.5439 1620.2551 3231.77 1522.4154 3318.8384 1579.0587 C 3318.8384 1579.0587 3195.9194 1779.8807 3032.031 1826.2274 C 3032.031 1826.2274 3001.3005 1867.4191 2929.5999 1764.4329 C 2929.5999 1764.4329 2760.5872 1975.5558 2868.1428 2093.9897 L 2868.1428 2135.1858 C 2868.1428 2135.1858 2755.4678 2073.3911 2786.1941 1949.8115 C 2786.1941 1949.8115 2781.0745 1877.7205 2868.1428 1764.4329 C 2868.1428 1764.4329 2724.7373 1841.6747 2704.25 1949.8115 Z" stroke="#ed1e26" stroke-width="18" fill="#ca151f"/>
				<path d="M 2699.1306 2436.1582 C 2699.1306 2436.1582 2786.1941 2214.7339 3011.5439 2173.5422 C 3236.8938 2132.3457 3359.8083 2297.1265 3359.8083 2297.1265 C 3359.8083 2297.1265 3503.2139 2446.4548 3370.0518 2647.2769 C 3281.5703 2780.72 3313.7188 2801.7603 3011.5439 2873.8472 C 3011.5439 2873.8472 2755.4678 2858.3992 2704.25 2709.0708 C 2680.9148 2641.0334 2669.5269 2587.7322 2668.3994 2544.2903 C 2667.0515 2492.3899 2699.1306 2436.1582 2699.1306 2436.1582 Z" stroke="#000000" stroke-width="18" fill="#ffffff"/>
				<path d="M 2827.1685 2420.7104 C 2827.1685 2420.7104 2924.4805 2291.9756 3042.2705 2286.825 C 3160.0693 2281.679 3257.3811 2358.9165 3257.3811 2358.9165 C 3257.3811 2358.9165 3364.9321 2472.1992 3318.8384 2606.0847 C 3272.7444 2739.9658 3165.1934 2776.0117 3154.9456 2770.8608 C 3144.7061 2765.7146 2980.8135 2848.1028 2868.1428 2729.6687 C 2755.4678 2611.231 2791.3184 2518.5459 2791.3184 2518.5459 C 2791.3184 2518.5459 2811.8054 2431.0076 2827.1685 2420.7104 Z" stroke="#000000" stroke-width="18" fill="#221f20"/>
				<path d="M 3277.864 2585.4868 C 3277.864 2585.4868 3144.7061 2734.8152 2970.5701 2709.0708 C 2970.5701 2709.0708 2842.5317 2657.5776 2827.1685 2564.8887 C 2811.8054 2472.1992 2888.6255 2420.7104 2888.6255 2420.7104 C 2888.6255 2420.7104 2903.9932 2348.6194 3052.5183 2317.72 C 3201.0437 2286.825 3298.3511 2461.9026 3298.3511 2461.9026 C 3298.3511 2461.9026 3313.7188 2554.5916 3277.864 2585.4868 Z" stroke="#000000" stroke-width="18" fill="#ffff04"/>
				<path d="M 3247.1333 2564.8887 C 3247.1333 2564.8887 3195.6897 2670.116 3025.2297 2667.8311 C 3025.2297 2667.8311 2913.9114 2655.2842 2898.8689 2609.5186 C 2883.8264 2563.7527 2950.0828 2568.3225 2950.0828 2568.3225 C 2950.0828 2568.3225 2977.6013 2626.6394 3040.2678 2626.6394 C 3102.9387 2626.6394 3177.6777 2580.9082 3202.7473 2558.0254 C 3227.8167 2535.1426 3247.1333 2564.8887 3247.1333 2564.8887 Z" stroke="#ffffff00" stroke-width="18" fill="#fcda00"/>
				<path d="M 2904.9033 2420.6975 C 2904.9033 2420.6975 2816.1489 2512.2683 2898.8689 2612.948 L 2953.4983 2575.1897 C 2953.4983 2575.1897 2950.0261 2491.6311 2965.0686 2461.8848 C 2980.1067 2432.1392 2904.9033 2420.6975 2904.9033 2420.6975 Z" stroke="#ffffff00" stroke-width="18" fill="#fdc50d"/>
				<path d="M 2960.3306 2475.6331 L 2893.6238 2441.2913 C 2893.6238 2441.2913 2919.9458 2342.8965 3055.3103 2352.0488 C 3190.6743 2361.2009 3226.863 2429.863 3236.8938 2427.5737 C 3246.9209 2425.2844 3199.3354 2475.6331 3199.3354 2475.6331 C 3199.3354 2475.6331 3118.644 2356.636 3018.3716 2413.8433 C 2918.1035 2471.0503 2960.3306 2475.6331 2960.3306 2475.6331 Z" fill="#eaa319"/>
				<path d="M 2934.988 2393.2363 L 2934.988 2406.967 L 2965.0686 2420.6975 L 2995.1492 2406.967 L 3025.2297 2393.2363 L 3040.2678 2365.7793 L 3025.2297 2352.0488 L 2995.1492 2338.3181 L 2965.0686 2352.0488 L 2950.0261 2365.7793 L 2934.988 2393.2363 Z" fill="#ffff92"/>
				<path d="M 3130.5132 2599.1826 L 3160.5938 2599.1826 L 3175.6362 2612.9133 L 3160.5938 2640.3699 L 3130.5132 2654.1008 L 3100.4331 2654.1008 L 3070.3525 2654.1008 L 3070.3525 2640.3699 L 3085.3909 2626.6394 L 3100.4331 2612.9133 L 3130.5132 2599.1826 Z" fill="#fdf583"/>
				<path d="M 2881.7891 2508.7737 C 2881.7891 2508.7737 2902.2764 2333.6965 3025.1951 2405.7876 C 3148.1135 2477.8789 3004.708 2549.97 3004.708 2549.97 C 3004.708 2549.97 2927.8875 2596.3125 2881.7891 2508.7737 Z" stroke="#000000" stroke-width="18" fill="#221f20"/>
				<path d="M 1741.3978 2317.72 C 1741.3978 2317.72 1761.8804 2544.2903 1884.8033 2585.4868 C 1884.8033 2585.4868 1946.2603 2671.3086 2028.2047 2750.2629 C 2110.1489 2829.2217 1898.4586 2715.9341 1884.8033 2688.4729 C 1871.1439 2661.0115 1901.8744 2626.6826 1864.3162 2606.0847 C 1826.7578 2585.4868 1802.8547 2606.0847 1802.8547 2606.0847 C 1802.8547 2606.0847 1703.8395 2489.3682 1741.3978 2317.72 Z" fill="#e6e6e6"/>
				<path d="M 2069.1787 1720.4014 C 2069.1787 1720.4014 1997.474 1583.0863 2130.6362 1493.8312 C 2263.7937 1404.5757 2458.4172 1679.2053 2458.4172 1679.2053 C 2458.4172 1679.2053 2468.6567 1723.8351 2417.4429 1720.4014 C 2366.2295 1716.9675 2256.9705 1689.5062 2069.1787 1720.4014 Z" fill="#ed1e26"/>
				<path d="M 2130.6362 1555.6207 C 2130.6362 1555.6207 2178.4377 1473.2332 2253.5544 1555.6207 C 2328.6711 1638.0132 2233.0674 1638.0132 2233.0674 1638.0132 C 2233.0674 1638.0132 2175.022 1648.3103 2130.6362 1555.6207 Z" fill="#f79274"/>
				<path d="M 2868.1428 1308.4569 C 2868.1428 1308.4569 3079.8289 1167.7084 3380.2952 1370.2468 C 3380.2952 1370.2468 3434.925 1466.3655 3175.4329 1473.2332 C 2915.9402 1480.1002 2868.1428 1308.4569 2868.1428 1308.4569 Z" stroke="#ffffff00" stroke-width="18" fill="#ed1e26"/>
				<path d="M 3032.031 1370.2468 C 3032.031 1370.2468 3011.5439 1305.0231 3093.4883 1308.4569 C 3175.4329 1311.8864 3195.9194 1349.6488 3195.9194 1349.6488 C 3195.9194 1349.6488 3192.5039 1387.4113 3154.9456 1390.845 C 3117.3872 1394.2786 3049.1023 1401.1418 3032.031 1370.2468 Z" stroke="#ffffff00" stroke-width="18" fill="#f79274"/>
				<path d="M 3004.7166 1720.4014 C 3004.7166 1720.4014 2950.0828 1634.5795 3216.4067 1617.4153 C 3216.4067 1617.4153 3059.3462 1761.5978 3052.5183 1761.5978 C 3045.6868 1761.5978 3004.7166 1785.6252 3004.7166 1720.4014 Z" stroke="#ffffff00" stroke-width="18" fill="#ed1e26"/>
				<path d="M 3032.031 1699.8033 C 3032.031 1699.8033 3035.4473 1624.2784 3113.9756 1679.2053 C 3113.9756 1679.2053 3079.8289 1768.4606 3032.031 1699.8033 Z" stroke="#ffffff00" stroke-width="18" fill="#f79274"/>
				<path d="M 3482.7266 2255.9304 C 3482.7266 2255.9304 3549.3079 2178.6887 3605.645 2214.7339 C 3661.9827 2250.7798 3564.6711 2297.1265 3564.6711 2297.1265 L 3482.7266 2255.9304 Z" stroke="#ffffff00" stroke-width="18" fill="#ed1e26"/>
				<path d="M 3523.7012 2235.3318 C 3523.7012 2235.3318 3527.1128 2159.8113 3605.645 2214.7339 C 3605.645 2214.7339 3571.5027 2303.9897 3523.7012 2235.3318 Z" stroke="#ffffff00" stroke-width="18" fill="#f79274"/>
				<path d="M 2540.3616 834.718 C 2540.3616 834.718 2376.469 632.1752 2417.4429 491.431 C 2417.4429 491.431 2376.469 632.1752 2970.5701 834.718 C 2970.5701 834.718 3230.0623 930.8367 3339.321 1040.6904 L 3359.8083 1081.8865 C 3359.8083 1081.8865 3520.2849 1002.9278 3974.3967 1164.2745 L 3810.5078 1411.443 C 3810.5078 1411.443 3827.5789 1277.5575 3544.1838 1184.8726 C 3544.1838 1184.8726 3363.2239 1133.3795 3318.8384 1184.8726 C 3318.8384 1184.8726 3018.3716 851.8824 2540.3616 834.718 Z" stroke="#568e37" stroke-width="18" fill="#416b2a"/>
				<path d="M 2601.8184 1040.6904 L 2601.8184 1143.6765 C 2601.8184 1143.6765 2540.3616 1061.2885 2396.9556 1061.2885 L 2601.8184 1040.6904 Z" stroke="#568e37" stroke-width="18" fill="#416b2a"/>
				<path d="M 2950.0828 216.797 C 2950.0828 216.797 3021.7878 168.7377 3073.0054 175.6051 C 3073.0054 175.6051 3301.7671 460.5316 3318.8384 772.9238 C 3318.8384 772.9238 3202.7473 402.1755 2950.0828 216.797 Z" stroke="#568e37" stroke-width="18" fill="#416b2a"/>
				<path d="M 3400.7822 978.9003 C 3400.7822 978.9003 3506.6299 958.3023 3544.1838 958.3023 L 3441.7566 999.4942 L 3400.7822 978.9003 Z" stroke="#568e37" stroke-width="18" fill="none"/>
				<path d="M 3749.0466 1576.2192 C 3755.8784 1562.4884 3892.4521 1589.9496 3912.9395 1576.2192 C 3912.9395 1576.2192 3895.8682 1593.3834 3769.5339 1617.4153 C 3769.5339 1617.4153 3742.219 1589.9496 3749.0466 1576.2192 Z" stroke="#568e37" stroke-width="18" fill="#416b2a"/>
				<path d="M 2806.6812 2173.5422 C 2806.6812 2173.5422 2274.0417 1411.443 1741.3978 2049.9575 C 1741.3978 2049.9575 1632.6719 2195.2109 1632.1343 2269.6609 C 1631.9264 2298.7131 1645.9889 2297.1265 1678.4235 2317.72 C 1695.8198 2328.7712 1615.9518 2325.7451 1618.4792 2348.6194 C 1618.4792 2348.6194 1505.8042 2451.6055 1618.4792 2482.5005 C 1618.4792 2482.5005 1966.7432 2317.72 2622.3057 2503.0986 C 2622.3057 2503.0986 2550.605 2410.4097 2806.6812 2173.5422 Z" stroke="#ed1e26" stroke-width="18" fill="#ca151f"/>
				<path d="M 3441.7566 2523.6965 C 3441.7566 2523.6965 3595.4016 2451.6055 3462.2439 2400.1125 C 3462.2439 2400.1125 3206.1633 1874.8805 2745.22 2255.9304 C 2745.22 2255.9304 2673.5195 2317.72 2642.7927 2441.3042 C 2642.7927 2441.3042 2499.3872 2482.5005 2642.7927 2523.6965 C 2642.7927 2523.6965 2847.6555 2358.9165 3441.7566 2523.6965 Z" stroke="#ed1e26" stroke-width="18" fill="#ca151f"/>
				<path d="M 1833.5856 2091.1499 C 1785.5928 2129.7534 1782.3676 2194.136 1782.3676 2194.136 C 2202.3367 2029.3596 2530.1179 2255.9304 2622.3057 2235.3318 C 2714.4934 2214.7339 2683.7629 2111.7478 2683.7629 2111.7478 C 2683.7629 2111.7478 2233.0674 1658.6074 1946.2603 2008.7617 C 1946.2603 2008.7617 1884.8033 2049.9575 1833.5856 2091.1499 Z" fill="#ed1e26"/>
				<path d="M 2140.8794 1946.9716 C 2140.8794 1946.9716 2167.7002 1871.7849 2388.4766 1958.8987 C 2628.7693 2053.7124 2458.4172 2080.8528 2458.4172 2080.8528 C 2458.4172 2080.8528 2198.344 2042.3705 2140.8794 1946.9716 Z" fill="#f79274"/>
				<path d="M 2799.2815 2312.6777 C 2767.8223 2341.3359 2765.7073 2389.1353 2765.7073 2389.1353 C 3041.0046 2266.8079 3255.8679 2435.0049 3316.302 2419.7136 C 3376.7317 2404.4265 3356.5872 2327.9692 3356.5872 2327.9692 C 3356.5872 2327.9692 3061.1494 1991.5668 2873.1409 2251.5166 C 2873.1409 2251.5166 2832.856 2282.095 2799.2815 2312.6777 Z" fill="#ed1e26"/>
				<path d="M 2960.4302 2228.5776 C 2960.4302 2228.5776 3020.2834 2151.8601 3155.1533 2213.2861 C 3323.0127 2289.7432 3235.7234 2350.9043 3235.7234 2350.9043 C 3235.7234 2350.9043 2989.5269 2297.3865 2960.4302 2228.5776 Z" fill="#f79274"/>
			</g>
			<g>
				<path d="M 1413.5471 4073.2402 C 1413.5471 4073.2402 1552.0889 4187.7241 1421.6968 4375.8042 C 1291.3047 4563.8877 1152.7631 4547.5298 1152.7631 4547.5298 C 1152.7631 4547.5298 1038.6663 4580.2412 965.3226 4465.7573 C 965.3226 4465.7573 973.4722 4449.4038 883.8291 4416.6919 C 794.1816 4383.9854 750.7192 4389.4346 614.8911 4261.3203 C 614.8911 4261.3203 574.1464 4209.5322 574.1464 4089.5942 C 574.1464 4089.5942 541.5474 4070.5181 517.098 3975.1099 C 517.098 3975.1099 511.6619 3901.5144 549.697 3876.9841 C 549.697 3876.9841 503.5166 3808.8384 517.098 3688.9045 C 517.098 3688.9045 549.697 3648.0164 614.8911 3631.6582 C 614.8911 3631.6582 460.0496 3585.3201 451.8999 3533.532 C 451.8999 3533.532 397.5739 3500.8208 460.0496 3402.6946 C 522.5298 3304.5642 859.3799 3402.6946 859.3799 3402.6946 C 859.3799 3402.6946 1019.653 3479.0173 1054.9657 3517.1743 C 1054.9657 3517.1743 1019.653 3391.7908 1087.5647 3345.4526 C 1155.4768 3299.1104 1193.512 3304.5642 1193.512 3304.5642 C 1193.512 3304.5642 1258.7057 3326.3677 1266.8556 3410.8713 C 1275.0052 3495.3706 1318.4722 3517.1743 1332.0493 3533.532 C 1345.6351 3549.886 1421.6968 3631.6582 1421.6968 3631.6582 C 1421.6968 3631.6582 1454.2958 3743.4197 1446.1461 3893.3376 C 1437.9963 4043.2559 1413.5471 4073.2402 1413.5471 4073.2402 Z" stroke="#000000" stroke-width="18" fill="#221f20"/>
				<path d="M 1283.1552 4220.436 C 1283.1552 4220.436 1367.3665 4176.8203 1397.2474 4105.9521 C 1397.2474 4105.9521 1457.0095 4100.498 1446.1461 4261.3203 C 1435.2826 4422.1465 1226.1067 4506.646 1226.1067 4506.646 C 1226.1067 4506.646 1109.3004 4552.9839 1038.6663 4506.646 C 1038.6663 4506.646 992.4898 4471.2075 997.9216 4457.5806 C 997.9216 4457.5806 1117.4503 4441.2227 1144.6132 4367.6274 C 1144.6132 4367.6274 1014.2211 4438.5 981.6221 4424.8691 C 949.0231 4411.2427 810.4811 4367.6274 810.4811 4367.6274 L 728.9836 4318.562 C 728.9836 4318.562 633.9086 4244.9663 623.0406 4220.436 C 612.173 4195.9009 585.0098 4144.1133 598.5958 4105.9521 C 598.5958 4105.9521 769.7322 4239.5166 826.7806 4244.9663 C 883.8291 4250.416 949.0231 4236.7896 949.0231 4236.7896 C 949.0231 4236.7896 997.9216 4206.8047 997.9216 4195.9009 C 997.9216 4184.9976 1082.1332 4250.416 1063.1156 4310.3853 C 1044.1023 4370.354 940.8732 4351.2734 940.8732 4351.2734 C 940.8732 4351.2734 805.0496 4332.1929 745.2831 4294.0313 C 745.2831 4294.0313 783.3182 4364.9004 997.9216 4392.1621 C 997.9216 4392.1621 1112.0142 4383.9854 1095.7146 4277.6777 C 1079.4152 4171.3706 1006.0715 4171.3706 1006.0715 4171.3706 C 1006.0715 4171.3706 1006.0715 4037.8062 883.8291 3991.4683 C 761.5826 3945.1301 761.5826 3926.0496 761.5826 3926.0496 C 761.5826 3926.0496 870.2433 3836.0957 875.6794 3803.3884 C 881.111 3770.677 889.2609 3759.7732 875.6794 3688.9045 C 875.6794 3688.9045 943.5912 3642.562 940.8732 3582.5972 C 940.8732 3582.5972 878.3932 3664.3699 851.23 3664.3699 C 851.23 3664.3699 807.7674 3628.9358 598.5958 3590.7739 C 389.424 3552.6128 476.3491 3427.2253 476.3491 3427.2253 C 476.3491 3427.2253 481.7852 3375.4329 639.3404 3394.5137 C 796.8997 3413.5942 883.8291 3451.7556 883.8291 3451.7556 L 1006.0715 3525.3552 L 1079.4152 3566.2395 C 1079.4152 3566.2395 1125.5999 3767.95 1169.0625 3778.8538 C 1169.0625 3778.8538 1196.2255 3803.3884 1275.0052 3803.3884 C 1275.0052 3803.3884 1171.7764 3784.3035 1152.7631 3697.0811 C 1152.7631 3697.0811 1109.3004 3604.4006 1095.7146 3549.886 C 1082.1332 3495.3706 1071.2653 3427.2253 1071.2653 3427.2253 C 1071.2653 3427.2253 1084.851 3375.4329 1169.0625 3329.095 C 1169.0625 3329.095 1239.6881 3304.5642 1258.7057 3492.644 C 1258.7057 3492.644 1356.4987 3618.0317 1389.0978 3631.6582 C 1421.6968 3645.2893 1429.8467 3893.3376 1429.8467 3893.3376 C 1429.8467 3893.3376 1432.5604 4021.4485 1364.6483 4105.9521 C 1364.6483 4105.9521 1326.6176 4182.2749 1283.1552 4220.436 Z" fill="#ffffff"/>
				<path d="M 1022.3667 3631.6582 C 1022.3667 3631.6582 1011.5031 3705.2583 965.3226 3754.323 C 919.1418 3803.3884 932.7236 3912.4185 932.7236 3934.2263 C 932.7236 3956.0334 957.1727 3999.645 957.1727 3999.645 C 957.1727 3999.645 930.0055 3841.5496 981.6221 3795.2073 C 981.6221 3795.2073 970.7544 4054.1597 1136.4635 4155.0171 C 1136.4635 4155.0171 989.772 4005.0945 1006.0715 3746.1421 C 1006.0715 3746.1421 1057.6838 3691.6272 1022.3667 3631.6582 Z" fill="#221f20"/>
				<path d="M 647.4901 3688.9045 C 647.4901 3688.9045 758.8688 3702.5313 769.7322 3860.626 C 769.7322 3860.626 728.9836 3964.2107 639.3404 3909.6912 C 549.697 3855.1765 557.8469 3819.7422 557.8469 3819.7422 L 541.5474 3697.0811 C 541.5474 3697.0811 614.8911 3639.8391 639.3404 3648.0164 C 639.3404 3648.0164 758.8688 3631.6582 843.0804 3688.9045 C 843.0804 3688.9045 881.111 3827.9189 810.4811 3844.2725 L 794.1816 3836.0957 C 794.1816 3836.0957 794.1816 3729.7886 745.2831 3713.4351 C 696.3886 3697.0811 647.4901 3688.9045 647.4901 3688.9045 Z" stroke="#ffffff00" stroke-width="18" fill="#fdfdfd"/>
				<path d="M 1054.9657 3582.5972 C 1054.9657 3582.5972 700.4636 3308.6528 484.499 3451.7556 C 484.499 3451.7556 661.7522 3351.583 1022.3667 3582.5972 L 1054.9657 3582.5972 Z" fill="#e6e6e6"/>
				<path d="M 631.1906 3713.4351 C 631.1906 3713.4351 576.1838 3742.054 582.2963 3787.0305 C 582.2963 3787.0305 547.6597 3729.7886 565.9968 3721.6118 C 565.9968 3721.6118 594.5209 3684.812 614.8911 3688.9045 C 635.2655 3692.9929 631.1906 3713.4351 631.1906 3713.4351 Z" fill="#e6e6e6"/>
				<path d="M 1266.8556 3754.323 C 1266.8556 3754.323 1142.5758 3568.2859 1120.1641 3443.5789 C 1120.1641 3443.5789 1144.6132 3629.616 1177.2122 3713.4351 C 1209.8115 3797.2537 1260.743 3752.2771 1266.8556 3754.323 Z" stroke="#ffffff00" stroke-width="18" fill="#e6e6e6"/>
				<path d="M 1348.3489 4204.0781 L 1405.3972 4146.8408 C 1405.3972 4146.8408 1440.0339 4220.436 1421.6968 4269.501 C 1421.6968 4269.501 1385.0228 4204.0781 1348.3489 4204.0781 Z" stroke="#ffffff00" stroke-width="18" fill="#e6e6e6"/>
				<path d="M 728.9836 3934.2263 C 728.9836 3934.2263 927.2917 4024.175 957.1727 4073.2402 C 987.0539 4122.3057 965.3226 4171.3706 965.3226 4171.3706 C 965.3226 4171.3706 965.3226 4190.4517 949.0231 4204.0781 C 932.7236 4217.709 875.6794 4220.436 875.6794 4220.436 L 826.7806 4212.2549 C 826.7806 4212.2549 682.8071 4149.563 680.0891 4122.3057 C 677.371 4095.0481 680.0891 4007.8215 728.9836 3966.9331 C 728.9836 3966.9331 636.6224 3972.3875 655.64 4097.771 C 655.64 4097.771 585.0098 4114.1289 549.697 3983.2915 C 549.697 3983.2915 546.9792 3904.2417 574.1464 3893.3376 C 601.3096 3882.4338 571.4283 3956.0334 728.9836 3934.2263 Z" stroke="#ffffff00" stroke-width="18" fill="#ffffff"/>
				<path d="M 753.4327 3975.1099 C 753.4327 3975.1099 957.1727 4077.3289 932.7236 4105.9521 C 932.7236 4105.9521 812.5187 4009.8638 745.2831 4007.8215 L 753.4327 3975.1099 Z" stroke="#ffffff00" stroke-width="18" fill="#e6e6e6"/>
			</g>
			<g>
				<path d="M 627.7009 3388.1401 L 834.0246 3268.4753 L 1050.3098 3393.9067 L 1048.8879 3633.2363 L 842.5602 3762.9944 L 630.5446 3639.0027 L 627.7009 3388.1401 Z" fill="#ffffff"/>
				<path d="M 838.2946 3282.8911 L 1037.5044 3398.2334 L 1037.5044 3633.2363 L 838.2946 3748.5786 L 641.9282 3633.2363 L 641.9282 3396.7898 L 838.2946 3282.8911 ZM 614.8911 3382.374 L 614.8911 3649.0957 L 835.4465 3778.8538 L 841.1383 3778.8538 L 1063.1156 3649.0957 L 1063.1156 3383.8135 L 843.9863 3255.499 L 834.0246 3255.499 L 614.8911 3382.374 Z" stroke="#000000" stroke-width="18" fill="#000000"/>
				<path d="M 838.2946 3324.7031 L 671.8094 3418.4153 L 671.8094 3493.3894 L 959.2405 3562.593 L 959.2405 3585.6582 L 838.2946 3656.3059 L 717.344 3588.5415 L 717.344 3556.8228 L 671.8094 3539.5242 L 671.8094 3610.1711 L 838.2946 3706.7671 L 1004.7753 3611.6108 L 1004.7753 3535.197 L 718.7659 3465.9934 L 718.7659 3444.3679 L 838.2946 3373.7205 L 962.0886 3442.9282 L 962.0886 3473.2036 L 1006.1971 3491.946 L 1006.1971 3419.8589 L 838.2946 3324.7031 Z" stroke="#221f20" stroke-width="18" fill="#ed1e26"/>
			</g>
			<g>
				<path d="M 565.1124 4941.707 C 566.222 4936.7129 567.6094 4931.4409 569.274 4925.8916 C 576.2099 4897.0342 586.7526 4869.5645 601.1793 4844.0366 C 610.0574 4829.6079 618.658 4825.4458 626.7038 4831.8276 C 634.7496 4838.4868 640.8532 4849.3086 645.2922 4864.5693 C 650.0088 4875.1138 660.8288 4880.3857 677.7526 4880.3857 C 694.399 4880.3857 710.213 4876.501 725.1948 4868.4541 C 739.899 4860.4077 746.0026 4850.6963 743.783 4839.042 C 733.5178 4809.3525 715.4844 4789.3745 689.96 4778.8301 C 664.4355 4768.2866 637.2465 4766.3442 608.6703 4772.4487 C 572.8807 4781.605 544.5818 4799.9185 523.7739 4827.1104 C 502.9661 4854.3032 487.152 4885.103 476.6093 4919.5093 C 473.0026 4929.4985 469.9507 4939.4878 467.7313 4949.4766 C 457.7433 4953.9165 451.3624 4959.7432 447.7557 4966.9575 C 443.5939 4980.8315 447.4782 4989.4331 459.1307 4992.7627 C 450.2526 5057.1367 446.0911 5122.0654 446.6459 5186.9946 C 446.6459 5201.1455 446.6459 5215.2969 446.0911 5229.7251 C 441.652 5311.3022 445.536 5391.4927 457.7433 5470.8496 C 463.5697 5505.5342 475.222 5539.9414 492.7007 5574.3472 C 510.1793 5608.7544 536.5361 5631.23 571.4933 5641.7739 C 604.2313 5649.2651 634.7496 5645.6587 663.0484 5630.6743 C 691.347 5615.6909 710.7678 5592.1064 721.8653 5559.3638 C 746.835 5467.2422 762.9265 5372.9019 769.585 5276.3408 L 772.0818 5254.9751 C 781.7922 5155.6396 786.5088 5055.7495 786.2313 4955.8589 C 786.2313 4951.9741 784.0117 4949.1992 780.1276 4947.2568 C 776.2434 4945.3145 771.8044 4943.9272 767.088 4943.0947 C 762.3715 4942.2622 759.0422 4941.707 756.8229 4941.707 L 565.1124 4941.707 L 565.1124 4941.707 ZM 640.0209 5502.7593 C 637.8015 5525.5122 633.085 5545.7676 625.8715 5563.5259 C 623.3746 5568.2437 621.9874 5571.8511 621.71 5574.0698 C 620.8776 5576.29 620.0453 5577.4004 619.4903 5577.4004 C 618.9355 5577.6772 617.5484 5576.8447 615.8838 5574.6255 C 614.2192 5573.2383 611.722 5571.2954 608.6703 5568.7979 C 603.9537 5565.4688 599.7922 5560.4741 596.463 5553.8145 C 592.8563 5547.4326 589.8043 5541.3286 587.0302 5535.7793 C 585.9203 5534.3921 585.088 5533.0044 584.533 5531.6162 C 572.6032 5506.644 564.0026 5480.561 558.7313 5452.814 C 540.1428 5341.8247 535.7037 5229.4478 545.6917 5115.1284 C 545.9689 5106.8042 546.2465 5097.9253 546.8015 5089.0459 C 547.9111 5058.2461 550.6855 5027.1694 555.1245 4995.8149 L 687.7403 4995.8149 C 687.1855 5124.0078 678.0302 5251.6455 659.9965 5378.7285 C 655.0026 5412.3032 649.4538 5445.6001 643.6276 5478.3418 C 641.963 5486.1113 640.5757 5494.1582 640.0209 5502.7593 L 640.0209 5502.7593 Z" fill="#211f1f"/>
				<path d="M 1077.2648 4814.0693 C 1071.9934 4805.1904 1062.8381 4800.4736 1050.0757 4800.4736 C 1001.2465 4774.9453 961.8502 4777.998 931.3319 4809.0747 C 900.8136 4840.1519 877.5089 4882.0503 861.6948 4934.7705 C 845.8807 4987.4907 835.8928 5032.9966 831.4538 5070.7329 C 820.9111 5161.189 820.0788 5251.9229 828.4021 5342.6572 C 828.4021 5345.4316 828.6794 5348.2065 828.9568 5350.981 C 831.4538 5393.7124 836.7252 5437.5532 844.4934 5482.7813 C 852.8167 5528.0098 868.3532 5568.2437 891.658 5603.4824 C 910.8015 5630.1201 935.2161 5645.1035 964.6246 5648.7109 C 994.0333 5651.7627 1022.0544 5644.2715 1048.4111 5625.958 C 1077.8198 5603.2051 1100.2924 5572.6826 1116.3839 5534.6689 C 1132.1979 5496.9326 1143.0178 5459.751 1149.1216 5423.1245 C 1162.9934 5326.0088 1163.5485 5228.8926 1151.0636 5131.7769 C 1143.8502 5021.0649 1119.1583 4915.0703 1077.2648 4814.0693 L 1077.2648 4814.0693 ZM 1038.9783 5466.9648 C 1036.4813 5480.2837 1033.7069 5494.1582 1030.6553 5508.5859 C 1027.3257 5523.0151 1023.7192 5535.2236 1019.5575 5545.2134 C 1013.4538 5559.9194 1006.5179 5573.793 998.1948 5587.1113 C 995.4203 5581.562 991.5361 5575.4575 986.5423 5568.2437 C 982.1033 5562.1387 978.774 5556.8667 977.1094 5552.9819 C 971.0057 5539.1084 966.2892 5524.6797 962.4052 5509.9736 C 958.7985 5496.6548 955.4692 5481.394 952.6948 5464.1904 C 949.6428 5446.9873 946.8684 5430.6162 944.649 5415.355 C 944.0942 5411.4707 943.5392 5407.8633 942.9844 5403.9785 C 933.8288 5341.2695 928.835 5278.2832 928.0027 5214.7417 C 926.3381 5147.3154 931.0544 5080.167 942.1521 5013.2954 C 947.9782 4981.3862 955.7465 4949.7539 965.7344 4918.1221 C 966.5667 4915.3472 967.6765 4911.7402 968.7861 4907.0234 C 972.1156 4894.5371 976.5544 4880.6631 981.8257 4865.1245 C 1025.6611 4983.3286 1049.2434 5105.6943 1052.0178 5232.7773 C 1057.2892 5304.9209 1054.2375 5377.0635 1042.585 5448.9297 C 1041.1979 5454.479 1040.0881 5460.3062 1038.9783 5466.9648 L 1038.9783 5466.9648 Z" fill="#211f1f"/>
				<path d="M 1431.8319 4798.8086 L 1353.3168 4798.8086 C 1348.6002 4788.2642 1337.7803 4782.7148 1321.1339 4782.7148 C 1304.4875 4782.7148 1288.6735 4787.1548 1273.6918 4795.4785 C 1252.0515 4797.1436 1230.6887 4800.1958 1209.6033 4804.3579 C 1204.0547 4805.7451 1196.8412 4807.6875 1187.9631 4810.1846 C 1179.085 4812.9595 1171.0392 4816.5669 1163.5485 4821.2842 C 1156.335 4826.2783 1152.1735 4832.3828 1151.0636 4840.1519 C 1151.0636 4847.9209 1153.5605 4853.4707 1158.5547 4857.0776 C 1163.5485 4860.6851 1169.6521 4862.3501 1176.3105 4862.3501 L 1194.899 4862.3501 C 1214.3198 4852.916 1233.7406 4848.1987 1253.7162 4848.1987 C 1265.3684 5110.1343 1266.201 5371.7915 1255.6583 5633.1719 C 1256.2131 5645.936 1264.8137 5653.1499 1281.1825 5654.5376 C 1297.274 5655.3701 1313.6429 5652.8726 1330.012 5646.4907 C 1346.3809 5639.5542 1355.5361 5631.23 1357.4783 5620.1313 C 1367.4662 5362.0801 1367.1887 5104.3071 1356.3685 4846.5337 L 1395.2101 4846.5337 L 1473.7252 4846.5337 C 1482.6033 4846.5337 1494.8107 4844.8691 1510.0698 4841.2617 C 1525.3289 4837.6548 1535.5944 4831.5503 1540.8656 4822.9487 C 1544.1948 4814.0693 1543.0851 4807.9653 1537.5361 4804.3579 C 1531.9875 4800.7505 1523.9418 4798.8086 1513.6766 4798.8086 L 1431.8319 4798.8086 L 1431.8319 4798.8086 Z" fill="#211f1f"/>
				<path d="M 2014.7314 5447.542 C 2020.2803 5452.814 2026.1064 5457.8086 2032.4877 5462.2485 C 2047.1919 5473.9019 2059.6768 5486.9434 2069.6643 5501.3721 C 2081.5945 5524.6797 2081.8716 5544.103 2070.2192 5560.1968 C 2058.5669 5576.29 2043.0303 5589.8862 2023.0548 5600.9849 C 2013.8992 5605.9795 2008.073 5611.8062 2005.2986 5618.1885 C 2002.5242 5624.8477 2005.0211 5631.5073 2013.0669 5638.7212 C 2018.6157 5642.8843 2026.1064 5644.5488 2035.5393 5643.9932 C 2044.6949 5643.1616 2053.8506 5641.2188 2063.2834 5638.1665 C 2072.4387 5635.1147 2079.6523 5632.062 2084.9236 5628.7324 C 2110.448 5615.4136 2134.0303 5597.3784 2156.2256 5575.1802 C 2178.1431 5552.9819 2186.1887 5526.3452 2180.3625 5494.7129 C 2176.4785 5480.2837 2169.5425 5467.7979 2159.832 5456.6987 C 2149.8445 5445.6001 2139.5791 5435.333 2128.4814 5425.8989 C 2125.707 5423.6797 2122.9329 5421.46 2120.7131 5419.2397 C 2088.8079 5391.77 2063.2834 5359.3057 2044.1401 5322.124 C 2007.5179 5243.5991 1996.9753 5161.7441 2012.2345 5076.2822 C 2020.0028 5032.9966 2032.4877 4991.0977 2049.4116 4950.0317 C 2056.9023 4931.1636 2065.5029 4912.8501 2074.9355 4894.5371 C 2075.4907 4892.8721 2076.8779 4889.5425 2079.0974 4884.5479 C 2083.5366 4874.0034 2089.3625 4862.0728 2096.021 4848.4761 C 2104.8992 4865.957 2109.6157 4886.7676 2110.1704 4911.1855 C 2110.448 4935.603 2109.8931 4956.9683 2108.5059 4975.2817 C 2107.9512 4981.3862 2107.9512 4986.3809 2107.9512 4990.8203 C 2106.5637 5014.6826 2105.4541 5038.8232 2104.3445 5062.686 L 2097.9631 5213.0767 C 2098.5181 5226.1182 2107.1189 5233.3325 2123.2102 5234.7197 C 2139.3018 5236.1069 2155.3931 5233.3325 2172.0393 5226.6733 C 2188.6858 5220.0137 2197.8413 5211.1348 2199.7834 5200.0356 C 2200.8931 5172.8428 2202.2803 5145.9282 2203.3901 5118.7358 L 2210.3262 4955.3037 C 2210.3262 4950.8638 2210.6035 4946.147 2211.1584 4941.1528 C 2212.5454 4919.2319 2212.2681 4897.0342 2210.6035 4874.5586 C 2208.9387 4852.3608 2202.0029 4831.5503 2190.3506 4812.6821 C 2161.2195 4775.5005 2123.7651 4764.6792 2078.2651 4780.7725 C 2052.7407 4790.2065 2032.4877 4805.4678 2017.7834 4826.5562 C 2003.0792 4847.6436 1990.3169 4870.1196 1979.2194 4894.5371 C 1977.2772 4898.9766 1975.0579 4903.416 1972.8381 4907.5781 C 1907.3627 5029.6665 1889.329 5157.0273 1919.2924 5290.2148 C 1937.0486 5351.2588 1968.9542 5403.7012 2014.7314 5447.542 L 2014.7314 5447.542 Z" fill="#ed1e26"/>
				<path d="M 2397.5974 4792.9814 L 2397.5974 4792.4268 C 2396.7651 4785.2124 2391.2163 4780.4951 2380.9509 4778.5527 C 2370.686 4776.8877 2359.0332 4777.4429 2345.7163 4780.2173 C 2332.3992 4783.27 2320.7468 4788.2642 2311.0366 4794.9238 C 2301.3262 4801.583 2296.0547 4809.9077 2295.4998 4819.6187 C 2308.8169 5087.6587 2310.2043 5355.9761 2299.1064 5624.5703 C 2299.9387 5637.0566 2308.2622 5643.9932 2324.3535 5645.6587 C 2340.4451 5646.7681 2356.814 5643.9932 2373.4602 5637.6123 C 2389.8291 5630.9526 2398.9849 5622.0732 2400.6494 5610.9746 C 2408.6953 5407.8633 2410.3599 5204.4751 2405.3655 5000.8096 C 2455.8599 4987.4907 2504.9663 4970.0098 2552.686 4947.812 C 2573.4937 4938.9326 2594.0244 4926.4463 2614.2776 4910.9077 C 2634.2529 4895.3691 2644.5183 4874.5586 2644.5183 4849.0313 C 2640.9114 4818.5093 2625.3748 4798.2534 2597.9082 4788.542 C 2570.4421 4779.1079 2538.259 4775.7783 2501.082 4778.8301 C 2463.905 4782.1597 2429.2256 4787.1548 2397.5974 4794.0913 L 2397.5974 4792.9814 L 2397.5974 4792.9814 ZM 2487.7651 4925.8916 C 2460.0215 4936.9902 2432.2776 4945.3145 2403.9788 4951.4189 C 2402.8687 4915.9023 2401.4817 4880.1079 2400.0945 4844.314 C 2421.457 4838.7646 2443.9299 4835.9902 2467.2349 4835.9902 C 2490.5393 4835.9902 2509.6829 4839.042 2524.6643 4844.8691 C 2539.3687 4850.9736 2544.363 4863.1821 2539.6465 4882.0503 C 2532.4329 4900.3638 2515.2317 4914.7925 2487.7651 4925.8916 L 2487.7651 4925.8916 Z" fill="#ed1e26"/>
				<path d="M 2795.4453 4798.5313 C 2792.1155 4787.9868 2782.1279 4782.7148 2765.2041 4782.7148 C 2748.2808 4782.7148 2731.9114 4786.877 2716.3748 4794.9238 C 2700.561 4803.248 2693.0703 4813.5146 2693.3477 4826.001 C 2699.1736 4867.6221 2702.2256 4909.5205 2702.2256 4951.6963 C 2702.5029 4959.4658 2707.7744 4964.1826 2718.0393 4965.8477 C 2728.0276 4967.5127 2739.6799 4966.9575 2752.9968 4963.9058 C 2766.3142 4961.1304 2777.9663 4956.1362 2787.9541 4949.1992 C 2797.9421 4942.54 2803.2134 4934.2153 2804.0457 4924.2266 C 2804.0457 4882.6055 2800.9937 4840.707 2795.4453 4798.5313 L 2795.4453 4798.5313 ZM 2777.6892 5009.1333 C 2767.4236 5007.4688 2755.4937 5008.0234 2742.1768 5010.7988 C 2728.8599 5013.8506 2717.207 5018.8452 2707.2195 5025.7822 C 2697.2317 5032.7188 2692.238 5041.043 2692.238 5050.7544 C 2696.3994 5241.6567 2706.1099 5432.2813 2721.0913 5622.6279 C 2722.2009 5630.397 2727.7498 5635.1147 2738.2925 5637.0566 C 2748.8352 5638.7212 2760.488 5638.1665 2773.8049 5635.1147 C 2786.8445 5632.062 2798.2195 5627.0679 2808.207 5620.1313 C 2817.9175 5613.1938 2822.634 5604.8696 2822.3567 5594.8809 C 2807.3748 5404.8115 2797.9421 5214.1865 2793.5029 5023.0073 C 2792.948 5015.5156 2787.6768 5010.7988 2777.6892 5009.1333 L 2777.6892 5009.1333 Z" fill="#ed1e26"/>
				<path d="M 3115.6099 5532.1719 C 3114.4998 5550.7627 3112.5579 5569.0752 3110.3384 5587.1113 C 3103.1248 5580.4521 3096.7437 5573.5156 3090.9175 5566.0234 C 3078.7102 5550.7627 3067.8904 5534.3921 3059.0122 5517.1885 C 3026.8291 5448.6519 3006.5759 5376.5088 2998.8079 5300.481 C 2986.6006 5217.5161 2983.5488 5134.2744 2989.9299 5050.4771 C 2989.9299 5047.4248 2990.2073 5044.0952 2990.7622 5040.4883 C 2991.3171 5020.5098 2993.8142 4994.7051 2997.9756 4962.5176 C 3001.8599 4930.6084 3009.3506 4901.7515 3020.4485 4875.6689 C 3031.5457 4849.5859 3047.6372 4835.7124 3068.9998 4833.4927 C 3079.5425 4833.4927 3092.3049 4831.8276 3106.7319 4828.2207 C 3121.1582 4824.6138 3131.4238 4817.9541 3136.9727 4808.52 C 3140.3018 4799.6406 3139.4695 4793.2588 3133.9207 4789.0972 C 3128.3718 4784.9346 3120.3259 4782.7148 3109.7832 4782.7148 C 3019.6157 4782.7148 2958.3018 4817.3994 2926.1187 4886.7676 C 2893.6582 4956.1362 2878.6768 5035.2163 2880.3413 5124.5625 C 2882.561 5213.9092 2889.4968 5291.8794 2902.259 5357.9185 C 2908.9175 5409.5283 2923.3445 5465.3003 2945.8171 5525.7896 C 2968.0122 5586.2788 3004.3569 5628.4551 3054.8506 5652.04 C 3075.3811 5659.2549 3097.0215 5660.9194 3119.7715 5656.7573 C 3142.5215 5652.3184 3162.2195 5643.4385 3179.4207 5629.5654 C 3193.8477 5617.0786 3203.0029 5602.6494 3207.1646 5586.2788 C 3211.3259 5569.9082 3213.8235 5552.7046 3214.6558 5534.9463 C 3214.9331 5520.5176 3216.5977 5506.3667 3219.3718 5492.4927 C 3221.0364 5483.6143 3217.1526 5477.5093 3207.9968 5474.457 C 3198.5642 5471.6826 3187.1892 5471.127 3173.8718 5473.0698 C 3160.5549 5475.0117 3148.3477 5478.8965 3137.5276 5484.4458 C 3126.7073 5490.2734 3120.3259 5497.21 3118.1069 5505.5342 C 3116.9968 5509.9736 3116.1646 5518.853 3115.6099 5532.1719 L 3115.6099 5532.1719 Z" fill="#ed1e26"/>
				<path d="M 3403.8687 4790.4844 C 3401.0945 4791.0396 3398.3203 4791.0396 3396.1008 4791.0396 C 3396.1008 4790.7617 3395.8235 4790.2065 3395.5457 4789.0972 L 3395.5457 4787.4321 C 3394.7134 4780.2173 3389.1646 4775.5005 3378.8997 4773.5581 C 3368.634 4771.8936 3356.9819 4772.4487 3343.6646 4775.2231 C 3330.3477 4778.2749 3318.6953 4783.27 3308.7073 4789.9292 C 3298.7195 4796.5889 3294.0029 4804.9126 3294.0029 4814.6245 C 3306.488 5076.8369 3307.5977 5339.0503 3297.6099 5600.9849 L 3295.9453 5606.8125 C 3295.6675 5610.6973 3295.9453 5614.0264 3297.0549 5616.2466 L 3297.0549 5618.4658 L 3297.0549 5620.9629 C 3297.6099 5632.062 3303.7134 5638.4438 3316.1985 5640.9414 C 3328.4058 5643.1616 3342 5642.3286 3356.9819 5638.7212 C 3371.9634 5634.8374 3383.6162 5628.7324 3391.9392 5620.9629 C 3424.1218 5618.7441 3456.3049 5617.3555 3488.7654 5617.3555 C 3499.863 5617.3555 3512.3477 5615.4136 3525.6646 5611.252 C 3538.9819 5607.0898 3549.2468 5599.875 3556.4602 5589.8862 C 3561.4541 5579.8975 3560.6218 5572.96 3553.4089 5568.5205 C 3546.1953 5564.0815 3538.1497 5561.8613 3529.2715 5561.8613 C 3485.9912 5561.8613 3442.988 5563.8042 3400.2622 5567.688 C 3407.1985 5370.9595 3408.0308 5174.5078 3402.4819 4978.0566 L 3413.3018 4978.0566 L 3440.7683 4978.0566 L 3456.3049 4978.0566 C 3460.7437 4979.4438 3465.738 4979.999 3471.0093 4979.999 C 3479.6099 4979.999 3487.9331 4979.4438 3496.2561 4978.0566 C 3520.6707 4978.0566 3542.0339 4971.1196 3560.6218 4956.6909 C 3567.8352 4950.0317 3571.1646 4943.0947 3570.3323 4936.1577 C 3569.2227 4929.2212 3563.1187 4925.0591 3551.7437 4923.394 C 3536.7622 4922.2842 3522.613 4922.562 3509.2957 4924.5044 C 3481.5518 4922.2842 3453.8081 4920.8965 3425.5093 4920.8965 L 3400.8174 4920.8965 C 3399.9849 4895.0918 3398.875 4869.5645 3397.7654 4844.0366 C 3435.4968 4840.1519 3472.9509 4838.21 3510.4058 4838.21 C 3521.7808 4838.21 3534.2654 4835.9902 3547.8599 4831.5503 C 3561.1768 4827.1104 3571.4424 4820.1738 3578.3779 4810.1846 C 3582.2622 4803.5254 3582.8174 4798.2534 3580.3203 4794.3687 C 3577.5457 4790.4844 3573.6614 4787.7095 3568.113 4786.0444 C 3562.5642 4784.3799 3557.0154 4783.27 3551.1892 4782.7148 C 3501.8049 4782.7148 3452.6985 4785.4897 3403.8687 4790.4844 L 3403.8687 4790.4844 Z" fill="#ed1e26"/>
				<path d="M 3730.6924 4905.0811 C 3767.3142 4870.9517 3802.2715 4853.748 3835.5642 4853.748 C 3868.0247 4853.748 3893.5488 4863.1821 3912.1372 4881.7729 C 3930.4485 4900.3638 3939.8811 4925.8916 3939.8811 4958.0786 C 3939.8811 4999.9766 3916.8538 5061.0215 3871.0767 5140.9336 C 3825.2988 5221.123 3802.5488 5282.7227 3802.5488 5325.7314 C 3802.5488 5354.5884 3812.2593 5396.2095 3831.9573 5450.5942 L 3859.7017 5450.5942 C 3845.8291 5400.9268 3839.1707 5363.7446 3839.1707 5338.7725 C 3839.1707 5312.1348 3849.1589 5283.8325 3869.4114 5254.4204 C 3889.3872 5225.0078 3917.4089 5188.104 3952.9207 5143.4312 C 3988.988 5097.9253 4013.4028 5061.2988 4026.1646 5033.2739 C 4038.927 5005.5264 4045.3081 4977.7788 4045.3081 4950.3091 C 4045.3081 4905.3584 4029.4944 4869.5645 3998.1436 4842.6494 C 3966.5154 4816.0117 3924.8997 4802.4155 3873.2957 4802.4155 C 3828.3508 4802.4155 3780.9089 4824.3359 3730.6924 4867.6221 L 3730.6924 4905.0811 L 3730.6924 4905.0811 ZM 3774.8049 5569.9082 C 3774.8049 5575.1802 3776.7468 5580.1748 3780.6311 5585.1689 L 3832.5122 5644.5488 C 3837.5061 5650.0981 3843.3323 5652.8726 3849.7134 5652.8726 C 3853.0427 5652.8726 3858.8689 5648.9878 3866.6372 5641.2188 L 3913.802 5589.3315 C 3919.3508 5583.2271 3922.125 5577.1221 3922.125 5571.2954 C 3922.125 5566.3008 3919.6282 5560.4741 3915.1892 5554.0918 L 3868.0247 5503.5923 C 3860.8113 5497.4873 3854.7073 5494.1582 3849.7134 5494.1582 C 3844.1646 5494.1582 3838.3384 5496.9326 3832.5122 5502.4824 L 3784.238 5551.8726 C 3777.8569 5558.2539 3774.8049 5564.3589 3774.8049 5569.9082 L 3774.8049 5569.9082 Z" fill="#ed1e26"/>
			</g>
		</g>
	</g>
</svg>