<?xml version="1.0" standalone="no"?>
<!-- Generator: Adobe Fireworks 10, Export SVG Extension by Aaron Beall (http://fireworks.abeall.com) . Version: 0.6.1  -->
<!DOCTYPE svg PUBLIC "-//W3C//DTD SVG 1.1//EN" "http://www.w3.org/Graphics/SVG/1.1/DTD/svg11.dtd">
<svg id="Spice_Force_Defenders_of_MemeVerse.fw-Page%201" viewBox="0 0 5528 5526" style="background-color:#ffffff00" version="1.1"
	xmlns="http://www.w3.org/2000/svg" xmlns:xlink="http://www.w3.org/1999/xlink" xml:space="preserve"
	x="0px" y="0px" width="5528px" height="5526px"
>
	<g id="Layer%201">
		<path id="Ellipse" d="M 14 2763 C 14 1244.7496 1245.1975 14 2764.0002 14 C 4282.8027 14 5514 1244.7496 5514 2763 C 5514 4281.2505 4282.8027 5512 2764.0002 5512 C 1245.1975 5512 14 4281.2505 14 2763 Z" stroke="#ca151f" stroke-width="28" fill="#111111"/>
		<path id="Ellipse2" d="M 204.594 2763 C 204.594 1349.975 1350.4611 204.5249 2764.0005 204.5249 C 4177.5391 204.5249 5323.4063 1349.975 5323.4063 2763 C 5323.4063 4176.0249 4177.5391 5321.4751 2764.0005 5321.4751 C 1350.4611 5321.4751 204.594 4176.0249 204.594 2763 Z" fill="#000000"/>
		<path d="M 2233.0596 1837.5941 L 2178.604 1892.0298 L 2069.6934 2000.9009 L 1988.01 2109.7722 L 1933.5547 2218.6436 C 1933.5547 2218.6436 1906.3268 2309.3696 1906.3268 2327.5149 C 1906.3268 2345.6604 1906.3268 2463.604 1906.3268 2463.604 L 1906.3268 2572.4753 L 1879.0991 2654.1289 L 1797.416 2735.7822 L 1988.01 3007.9604 L 1988.01 3062.396 L 1960.7822 3089.6138 L 1879.0991 3035.1782 L 1851.8713 3035.1782 L 1879.0991 3089.6138 L 1906.3268 3116.8318 L 1906.3268 3334.5742 L 1959.1191 3354.4026 L 1976.0593 3391.3499 L 1997.6199 3394.429 L 2025.3405 3357.4817 L 2069.6934 3361.792 L 2124.1484 3389.01 L 2142.3828 3360.5603 L 2170.1033 3357.4817 L 2197.8237 3391.3499 L 2233.0596 3389.01 L 2247.1045 3363.6394 L 2280.9854 3357.4817 C 2280.9854 3357.4817 2314.866 3404.9587 2314.866 3391.3499 C 2314.866 3377.7407 2341.9707 3361.792 2341.9707 3361.792 L 2367.2268 3345.1658 C 2367.2268 3345.1658 2422.5039 3368.3398 2413.4277 3372.8762 C 2404.3518 3377.4128 2455.0906 3334.636 2459.6287 3348.2449 C 2464.1667 3361.8538 2505.8296 3323.613 2505.8296 3323.613 L 2524.3098 3342.0867 L 2598.2314 3326.6921 L 2718.3538 3271.2712 L 2761.4746 3320.5344 L 2776.8748 3385.1921 L 2826.156 3403.6658 L 3104.3469 3470.6633 L 3812.2678 3116.8318 L 3676.1289 2273.0793 L 3349.3965 2136.9902 C 3349.3965 2136.9902 2351.0464 1783.1583 2341.9707 1783.1583 C 2332.8945 1783.1583 2233.0596 1837.5941 2233.0596 1837.5941 Z" stroke="#ffffff00" stroke-width="28" fill="#ed1e26"/>
		<path d="M 2096.9209 2599.6931 L 2160.1238 2681.8394 C 2160.1238 2681.8394 2269.3633 2744.8547 2260.2871 2735.7822 C 2251.2114 2726.7097 2287.5151 2763 2287.5151 2763 L 2178.604 2763 L 2178.604 2817.4355 L 2178.604 2844.6533 L 2233.0596 2871.8713 L 2287.5151 2871.8713 L 2341.9707 2871.8713 L 2369.1982 2817.4355 L 2423.6536 2790.2178 L 2423.6536 2654.1289 C 2423.6536 2654.1289 2405.502 2599.6931 2396.4258 2599.6931 C 2387.3499 2599.6931 2369.1982 2545.2573 2369.1982 2545.2573 L 2314.7427 2518.0396 L 2287.5151 2490.8215 L 2260.2871 2409.1682 L 2205.832 2409.1682 L 2096.9209 2381.9504 L 2015.2378 2381.9504 L 1988.01 2436.3862 L 1988.01 2490.8215 L 1988.01 2572.4753 L 2015.2378 2599.6931 L 2042.4655 2708.5645 L 2096.9209 2735.7822 L 2096.9209 2681.3464 L 2069.6934 2599.6931 L 2096.9209 2599.6931 Z" stroke="#ffffff00" stroke-width="28" fill="#000000"/>
		<path d="M 2505.3369 2164.208 L 2532.5645 2300.2971 L 2559.7922 2381.9504 L 2614.248 2409.1682 L 2641.4756 2490.8215 L 2695.9309 2599.6931 L 2750.3867 2654.1289 L 2886.5247 2708.5645 L 3022.6636 2735.7822 L 3104.3469 2790.2178 L 3158.802 2871.8713 L 3077.1191 2953.5249 L 2995.4358 2899.0891 L 2940.9805 2899.0891 L 2832.0696 2899.0891 L 2804.8418 2871.8713 L 2723.1587 2844.6533 L 2668.7031 2790.2178 C 2668.7031 2790.2178 2650.5518 2772.0725 2641.4756 2763 C 2632.3994 2753.9275 2614.248 2681.3464 2614.248 2681.3464 L 2559.7922 2626.9109 L 2532.5645 2572.4753 C 2532.5645 2572.4753 2541.6406 2531.6484 2532.5645 2518.0396 C 2523.4885 2504.4309 2478.1094 2381.9504 2478.1094 2381.9504 L 2450.8813 2327.5149 L 2450.8813 2218.6436 L 2478.1094 2136.9902 L 2505.3369 2164.208 Z" stroke="#ffffff00" stroke-width="28" fill="#000000"/>
		<path d="M 2205.832 3252.9209 L 2178.604 3225.7029 L 2151.3765 3225.7029 L 2151.3765 3171.2673 L 2178.604 3089.6138 L 2205.832 3062.396 L 2205.832 3007.9604 L 2260.2871 2953.5249 L 2341.9707 2926.3069 L 2423.6536 2899.0891 L 2505.3369 2926.3069 L 2641.4756 2980.7424 L 2723.1587 3007.9604 L 2886.5247 3007.9604 L 2940.9805 3007.9604 L 3158.802 2790.2178 L 3267.7131 2763 L 3431.0793 2735.7822 C 3431.0793 2735.7822 3608.0598 2826.5081 3594.446 2817.4355 C 3580.832 2808.3633 3635.2876 3153.1218 3621.6733 3144.0496 C 3608.0598 3134.9768 3158.802 3334.5742 3158.802 3334.5742 C 3158.802 3334.5742 2877.4492 3298.2839 2886.5247 3280.1384 C 2895.6011 3261.9934 2886.5247 3116.8318 2886.5247 3116.8318 L 2832.0696 3116.8318 L 2804.8418 3252.9209 L 2804.8418 3361.792 L 2859.2974 3334.5742 L 2913.7529 3361.792 L 3022.6636 3470.6633 L 3049.8914 3851.7129 C 3049.8914 3851.7129 2056.0796 3824.4949 2042.4655 3824.4949 C 2028.8517 3824.4949 2015.2378 3742.8418 2015.2378 3742.8418 L 2341.9707 3688.4058 L 2668.7031 3633.9702 L 2750.3867 3579.5349 L 2750.3867 3497.8811 L 2750.3867 3416.2278 L 2750.3867 3334.5742 L 2750.3867 3225.7029 L 2777.614 3144.0496 L 2750.3867 3089.6138 L 2695.9309 3089.6138 L 2668.7031 3116.8318 L 2641.4756 3144.0496 L 2559.7922 3144.0496 L 2559.7922 3089.6138 L 2559.7922 3062.396 L 2505.3369 3007.9604 L 2478.1094 3007.9604 L 2450.8813 3035.1782 L 2396.4258 3035.1782 L 2369.1982 3062.396 L 2341.9707 3089.6138 L 2314.7427 3144.0496 L 2205.832 3225.7029 L 2205.832 3252.9209 Z" stroke="#ffffff00" stroke-width="28" fill="#000000"/>
		<path d="M 2712.1936 3465.2444 L 2702.9534 3489.8757 L 2693.7134 3566.8494 C 2693.7134 3566.8494 2656.7524 3599.1782 2656.7524 3603.7966 C 2656.7524 3608.415 2619.7917 3603.7966 2619.7917 3603.7966 L 2598.2314 3649.9807 L 2518.1499 3640.7439 L 2499.6694 3640.7439 L 2471.949 3677.6912 L 2434.9883 3665.3755 L 2364.147 3671.5334 L 2333.3464 3677.6912 L 2314.866 3696.1648 L 2277.9053 3668.4543 L 2259.4248 3677.6912 L 2240.9446 3705.4016 L 2194.7437 3705.4016 L 2167.0232 3686.928 C 2167.0232 3686.928 2172.4133 3722.3359 2170.1033 3717.7175 C 2167.7932 3713.0991 2120.8223 3739.27 2120.8223 3739.27 L 2083.8616 3714.6384 L 2065.3811 3705.4016 L 2046.9008 3726.9543 L 1991.4597 3705.4016 L 2009.9401 3733.1121 L 2056.1411 3834.717 L 2924.7178 3733.1121 L 2961.6785 3391.3499 L 2712.1936 3465.2444 Z" stroke="#ffffff00" stroke-width="28" fill="#ed1e26"/>
		<path d="M 1824.6436 1647.0693 L 1851.8713 1565.4159 L 1960.7822 1429.3268 L 2051.7056 1320.4553 L 2160.6167 1220.821 L 2287.5151 1129.9308 L 2396.4258 1075.495 L 2532.5645 993.8416 L 2668.7031 939.4059 L 2804.8418 912.1882 L 2995.4358 884.9703 L 3104.3469 884.9703 L 3294.9409 884.9703 L 3485.5349 912.1882 L 3703.3567 966.6237 L 4030.0896 1129.9308 L 4574.6445 1647.0693 L 5091.9702 2327.5149 L 4765.2378 3715.6238 L 3539.9905 4777.1187 C 3539.9905 4777.1187 2655.0894 4831.5547 2641.4756 4831.5547 C 2627.8618 4831.5547 2042.4655 4940.4258 2042.4655 4940.4258 L 1661.2773 4504.9404 L 1742.9604 4450.5044 L 1770.1882 4341.6338 L 1770.1882 4314.4155 L 1906.3268 4287.1978 C 1906.3268 4287.1978 2078.769 4255.4438 2069.6934 4259.98 C 2060.6172 4264.5166 2287.5151 4232.7622 2287.5151 4232.7622 L 2587.02 4151.1089 L 3322.1687 3987.802 L 3131.5747 3987.802 L 3022.6636 4015.02 L 2859.2974 4042.2378 L 2532.5645 4123.8906 L 2287.5151 4178.3267 L 2124.1484 4205.5444 L 1960.7822 4232.7622 L 1851.8713 4259.98 L 1770.1882 4232.7622 L 1715.7327 4151.1089 L 1715.7327 3960.584 L 1742.9604 3878.9309 L 1797.416 3851.7129 L 1879.0991 3824.4949 L 1988.01 3797.2771 L 2205.832 3770.0593 L 2478.1094 3742.8418 L 2723.1587 3661.188 L 2777.614 3661.188 L 2832.0696 3470.6633 L 2913.7529 3280.1384 L 3049.8914 2953.5249 L 3049.8914 2899.0891 L 3104.3469 2871.8713 L 3158.802 2844.6533 L 3403.8518 2817.4355 C 3403.8518 2817.4355 3458.3069 2803.8269 3458.3069 2790.2178 C 3458.3069 2776.6089 3485.5349 2735.7822 3485.5349 2735.7822 L 3512.7625 2572.4753 L 3539.9905 2273.0793 C 3539.9905 2273.0793 3476.4592 2291.2246 3485.5349 2273.0793 C 3494.6106 2254.9338 3458.3069 2218.6436 3458.3069 2218.6436 L 3349.3965 2164.208 L 3077.1191 2082.5544 L 2423.6536 1892.0298 L 2124.1484 1783.1583 L 1879.0991 1701.505 L 1824.6436 1647.0693 Z" stroke="#ffffff00" stroke-width="28" fill="#ecebf3"/>
		<path d="M 3757.8123 1021.0593 L 3648.9011 1021.0593 L 3485.5349 1048.2773 L 3294.9409 1075.495 L 3131.5747 1129.9308 L 2968.2083 1211.5842 L 2832.0696 1293.2377 L 2750.3867 1347.6732 C 2750.3867 1347.6732 2691.3931 1361.2822 2695.9309 1374.891 C 2700.4688 1388.4999 2750.3867 1429.3268 2750.3867 1429.3268 L 2804.8418 1402.1089 L 2886.5247 1374.891 L 3022.6636 1293.2377 L 3131.5747 1238.8019 L 3240.4854 1184.3665 L 3403.8518 1157.1484 L 3648.9011 1129.9308 L 3757.8123 1157.1484 L 3730.5842 1184.3665 L 3512.7625 1184.3665 L 3403.8518 1211.5842 L 3267.7131 1238.8019 L 3131.5747 1293.2377 L 3022.6636 1374.891 L 2832.0696 1538.198 L 2750.3867 1701.505 L 2723.1587 1783.1583 L 2777.614 1837.5941 C 2777.614 1837.5941 2804.8418 1823.9852 2804.8418 1837.5941 C 2804.8418 1851.2029 2777.614 1892.0298 2777.614 1892.0298 L 2587.02 1810.3762 L 2314.7427 1728.7228 L 2151.3765 1674.2872 L 1988.01 1619.8514 L 1879.0991 1565.4159 L 1824.6436 1619.8514 L 1906.3268 1647.0693 L 2042.4655 1701.505 L 2205.832 1755.9407 L 2341.9707 1810.3762 L 2641.4756 1892.0298 L 2913.7529 1973.6832 L 3186.0303 2082.5544 L 3403.8518 2136.9902 L 3567.218 2245.8613 L 3594.446 2354.7327 L 3567.218 2572.4753 L 3539.9905 2708.5645 L 3539.9905 2763 L 3485.5349 2817.4355 L 3458.3069 2844.6533 L 3294.9409 2871.8713 L 3186.0303 2871.8713 L 3131.5747 2899.0891 L 3104.3469 2953.5249 L 3022.6636 3089.6138 L 2913.7529 3416.2278 L 2832.0696 3661.188 L 2804.8418 3688.4058 L 2723.1587 3742.8418 L 2478.1094 3797.2771 L 2233.0596 3824.4949 L 1960.7822 3878.9309 L 1715.7327 3906.1484 L 1715.7327 3933.3662 L 1824.6436 3933.3662 L 1906.3268 3906.1484 L 2096.9209 3878.9309 L 2205.832 3878.9309 L 2341.9707 3851.7129 L 2505.3369 3824.4949 L 2695.9309 3770.0593 L 2804.8418 3770.0593 L 2859.2974 3742.8418 L 2913.7529 3633.9702 L 2968.2083 3470.6633 L 3022.6636 3252.9209 L 3104.3469 3089.6138 L 3158.802 2980.7424 L 3240.4854 3007.9604 L 3213.2578 3089.6138 L 3186.0303 3225.7029 L 3158.802 3389.01 L 3077.1191 3525.0989 C 3077.1191 3525.0989 3013.5876 3620.3613 3022.6636 3633.9702 C 3031.7395 3647.5791 3049.8914 3688.4058 3049.8914 3688.4058 L 3104.3469 3633.9702 L 3104.3469 3552.3169 L 3186.0303 3470.6633 L 3240.4854 3334.5742 L 3240.4854 3198.4851 L 3294.9409 3062.396 L 3376.624 3062.396 L 3376.624 3225.7029 L 3403.8518 3361.792 L 3376.624 3552.3169 L 3240.4854 3797.2771 L 3186.0303 3878.9309 L 3131.5747 3960.584 L 3077.1191 4015.02 L 2750.3867 4069.4553 L 2423.6536 4151.1089 L 2151.3765 4205.5444 L 1851.8713 4232.7622 L 1742.9604 4232.7622 L 1770.1882 4314.4155 L 1879.0991 4314.4155 L 2069.6934 4259.98 L 2396.4258 4205.5444 L 2641.4756 4151.1089 L 2832.0696 4123.8906 L 2995.4358 4096.6729 L 3186.0303 4015.02 L 3349.3965 3987.802 L 3322.1687 4042.2378 L 3186.0303 4069.4553 L 3104.3469 4123.8906 L 3022.6636 4151.1089 L 2859.2974 4205.5444 L 2695.9309 4259.98 L 2587.02 4314.4155 L 2423.6536 4341.6338 L 2287.5151 4368.8516 L 2042.4655 4423.2866 L 1879.0991 4450.5044 L 1770.1882 4450.5044 L 1797.416 4504.9404 L 1906.3268 4504.9404 L 1988.01 4477.7227 L 2260.2871 4423.2866 L 2369.1982 4396.0693 L 2423.6536 4396.0693 L 2423.6536 4423.2866 L 2341.9707 4450.5044 L 2205.832 4477.7227 L 2069.6934 4559.3765 L 1988.01 4586.5942 L 1960.7822 4641.0298 L 2151.3765 4722.6831 L 2178.604 4641.0298 L 2396.4258 4504.9404 L 2587.02 4396.0693 L 2886.5247 4259.98 L 3240.4854 4123.8906 L 3458.3069 4069.4553 L 3621.6733 4015.02 L 3757.8123 3987.802 L 4002.8616 3987.802 L 3921.1785 4015.02 L 3757.8123 4042.2378 L 3648.9011 4069.4553 L 3485.5349 4123.8906 L 3322.1687 4178.3267 L 3131.5747 4259.98 L 2886.5247 4396.0693 L 2723.1587 4532.1582 L 2532.5645 4641.0298 L 2478.1094 4695.4653 L 2396.4258 4831.5547 L 2587.02 4831.5547 L 2614.248 4749.9014 L 2695.9309 4668.2476 L 2968.2083 4450.5044 L 3022.6636 4450.5044 L 3213.2578 4287.1978 L 3267.7131 4287.1978 L 3186.0303 4368.8516 L 2995.4358 4504.9404 L 2832.0696 4613.812 L 2750.3867 4695.4653 L 2750.3867 4858.7725 L 4193.4561 4722.6831 L 4765.2378 3742.8418 L 4901.3765 1946.4653 L 4438.5054 1374.891 L 3839.4954 993.8416 L 3757.8123 1021.0593 Z" stroke="#ffffff00" stroke-width="28" fill="#000000"/>
		<path d="M 762.7625 2749.3911 C 762.7625 1644.5259 1658.7328 748.8812 2764.0002 748.8812 C 3869.2671 748.8812 4765.2378 1644.5259 4765.2378 2749.3911 C 4765.2378 3854.2563 3869.2671 4749.9014 2764.0002 4749.9014 C 1658.7328 4749.9014 762.7625 3854.2563 762.7625 2749.3911 ZM 204.5941 2763 C 204.5941 4176.0249 1350.4611 5321.4751 2764.0002 5321.4751 C 4177.5391 5321.4751 5323.4063 4176.0249 5323.4063 2763 C 5323.4063 1349.975 4177.5391 204.5249 2764.0002 204.5249 C 1350.4611 204.5249 204.5941 1349.975 204.5941 2763 Z" stroke="#000000" stroke-width="28" fill="#333333"/>
		<path d="M 4693.9731 2215.5811 C 4723.6992 2323.5967 4744.4937 2436.0493 4755.6592 2551.1228 C 4762.0005 2616.4783 4765.2378 2682.6812 4765.2378 2749.3911 C 4765.2378 3854.2563 3869.2671 4749.9014 2764.0002 4749.9014 C 1658.7328 4749.9014 762.7625 3854.2563 762.7625 2749.3911 C 762.7625 2680.1633 766.2977 2611.7749 773.0499 2544.1028 C 784.3724 2431.4829 804.9077 2321.3926 834.027 2215.5811 L 831.494 2214.9951 L 831.8174 2213.6558 L 706.4282 2186.0376 L 307.0983 2093.5771 L 293.8871 2091.5771 C 243.1914 2301.4236 204.8308 2528.2561 204.5941 2760.3367 L 204.5941 2763 C 204.5941 4176.0249 1350.4611 5321.4751 2764.0002 5321.4751 C 4177.5391 5321.4751 5323.4063 4176.0249 5323.4063 2763 L 5323.4214 2761.6299 L 5323.375 2746.5276 L 5323.375 2745.1882 L 5323.375 2743.8489 L 5323.375 2742.5098 L 5323.375 2741.1702 L 5323.375 2739.6926 L 5323.375 2738.353 L 5323.375 2737.0601 L 5323.375 2735.7668 L 5323.375 2734.4736 L 5323.375 2733.1804 L 5323.375 2731.6565 L 5323.375 2730.3633 L 5323.375 2729.0701 L 5323.375 2727.7769 L 5323.375 2726.4836 L 5323.3291 2724.729 L 5323.3291 2723.3894 L 5323.3291 2722.0503 L 5323.3291 2720.7107 L 5323.2832 2719.3252 L 5323.2373 2717.9397 L 5323.2373 2716.6467 L 5323.1909 2715.3535 L 5323.1445 2714.0601 L 5323.0981 2712.7671 L 5323.0522 2711.52 L 5323.0059 2710.1345 L 5322.9595 2708.8413 L 5322.9136 2707.5483 L 5322.8672 2706.2554 L 5322.8208 2704.9619 L 5322.7744 2703.6687 L 5322.7285 2702.3757 L 5322.6826 2701.0825 L 5322.5903 2698.0806 L 5322.5439 2696.7874 L 5322.4976 2695.5403 L 5322.4517 2694.2473 L 5322.4053 2692.8157 C 5316.7974 2484.8621 5279.8218 2280.7815 5234.1133 2091.5771 L 5220.9019 2093.5771 L 4821.2642 2186.1301 L 4696.1831 2213.6558 L 4696.522 2214.9951 L 4693.9731 2215.5811 Z" fill="#ca151f"/>
		<path d="M 3267.7131 1347.6732 L 3186.0303 1429.3268 L 3049.8914 1538.198 L 2940.9805 1674.2872 L 2913.7529 1837.5941 L 2886.5247 1892.0298 L 2832.0696 1892.0298 L 2859.2974 1783.1583 L 2913.7529 1592.6337 L 3049.8914 1456.5444 L 3267.7131 1347.6732 Z" stroke="#ffffff00" stroke-width="28" fill="#ecebf3"/>
		<path d="M 4302.3667 2136.9902 C 4302.3667 2136.9902 3921.1785 2118.8447 3839.4954 2409.1682 C 3757.8123 2699.4917 3839.4954 2735.7822 3839.4954 2735.7822 L 3812.2678 2735.7822 C 3812.2678 2735.7822 3771.426 2667.7375 3757.8123 2654.1289 C 3744.1985 2640.5198 3730.5842 2422.7773 3893.9507 2218.6436 C 3893.9507 2218.6436 3962.0203 2087.0908 4302.3667 2109.7722 L 4302.3667 2136.9902 Z" stroke="#ffffff00" stroke-width="28" fill="#dedde5"/>
		<path d="M 3211.1633 915.8828 C 3211.1633 915.8828 2453.4688 860.4619 1945.2588 1571.6969 L 1871.3374 1543.9865 C 1871.3374 1543.9865 2416.5078 749.6201 3211.1633 915.8828 Z" fill="#ed1e26"/>
		<path d="M 1815.8964 1784.1437 C 1815.8964 1784.1437 1233.7651 2578.51 1788.1758 3733.1121 L 1677.2937 3714.6384 C 1677.2937 3714.6384 1176.0831 2344.3828 1753.127 1758.3663 C 1772.7787 1738.4091 1793.681 1802.3961 1815.8964 1784.1437 Z" stroke="#ffffff00" stroke-width="9" fill="#ffffff"/>
		<path d="M 1778.9357 1756.4332 C 1778.9357 1756.4332 1169.0839 2596.9836 1741.975 3733.1121 L 1640.333 3723.8752 C 1640.333 3723.8752 1067.4419 2744.7727 1732.7347 1728.7228 L 1778.9357 1756.4332 Z" stroke="#ffffff00" stroke-width="9" fill="#ed1e26"/>
		<path d="M 2130.0625 3936.322 C 2130.0625 3936.322 1732.7347 3991.7429 1797.416 4194.9531 L 1714.2544 3973.2693 C 1714.2544 3973.2693 2074.6213 3880.9011 2130.0625 3936.322 Z" stroke="#ffffff00" stroke-width="9" fill="#ed1e26"/>
		<path d="M 1202.2399 2209.0374 L 1181.0417 2209.0374 L 1163.6484 2137.2419 L 1122.8829 2137.2419 L 1122.8829 2115.8293 L 1163.6484 2097.3557 L 1182.1288 2033.5377 L 1202.2399 2033.5377 L 1220.7202 2089.3784 L 1261.4857 2097.3557 L 1261.4857 2118.7683 L 1220.7202 2129.2649 L 1202.2399 2209.0374 Z" stroke="#ffffff00" stroke-width="9" fill="#ffffff"/>
		<path d="M 1239.7441 3733.1121 L 1232.1345 3733.1121 L 1218.5459 3695.3252 L 1196.8044 3695.3252 L 1196.8044 3683.5691 L 1218.5459 3674.3323 L 1227.7861 3640.7439 L 1239.7441 3640.7439 L 1248.9843 3670.1338 L 1270.7258 3674.3323 L 1270.7258 3686.0884 L 1248.9843 3691.1267 L 1239.7441 3733.1121 Z" stroke="#ffffff00" stroke-width="9" fill="#cdcdcd"/>
		<path d="M 1196.8044 2541.5627 L 1215.2848 2486.1418 L 1224.5249 2486.1418 L 1243.0052 2532.3259 L 1279.9661 2541.5627 L 1279.9661 2550.7996 L 1243.0052 2560.0364 L 1224.5249 2606.2205 L 1196.8044 2541.5627 Z" stroke="#ffffff00" stroke-width="9" fill="#ffffff"/>
		<path d="M 2231.7043 1045.1982 L 2250.1848 989.7774 L 2287.1455 989.7774 L 2277.9053 1035.9614 L 2314.866 1035.9614 L 2314.866 1063.6719 L 2277.9053 1063.6719 L 2259.4248 1109.856 L 2231.7043 1045.1982 Z" stroke="#ffffff00" stroke-width="9" fill="#ffffff"/>
		<path d="M 1880.5776 2107.4324 C 1871.3374 2102.814 1862.0973 2107.4324 1862.0973 2107.4324 L 1843.6168 2070.4851 L 1806.6561 2061.2483 L 1806.6561 2042.7745 L 1843.6168 2033.5377 L 1852.8571 1978.1168 L 1871.3374 1978.1168 L 1889.8177 2042.7745 L 1926.7784 2052.0112 L 1880.5776 2070.4851 C 1880.5776 2070.4851 1889.8177 2112.0508 1880.5776 2107.4324 Z" stroke="#ffffff00" stroke-width="9" fill="#959595"/>
		<path d="M 928.8392 2846.3777 L 993.5205 2874.0881 L 965.8 2920.2722 L 919.5991 2920.2722 L 928.8392 2846.3777 Z" stroke="#ffffff00" stroke-width="9" fill="#cdcdcd"/>
		<path d="M 1566.4115 3086.5349 L 1631.0928 3114.2454 L 1603.3722 3160.4294 L 1557.1714 3160.4294 L 1566.4115 3086.5349 Z" stroke="#ffffff00" stroke-width="9" fill="#ffffff"/>
		<path d="M 1326.1669 3354.4026 L 1409.3285 3335.929 L 1427.8088 3382.113 L 1372.3678 3409.8235 L 1363.1276 3382.113 L 1326.1669 3391.3499 L 1326.1669 3354.4026 Z" stroke="#ffffff00" stroke-width="9" fill="#3e3e3e"/>
		<path d="M 1557.1714 1294.5924 L 1640.333 1276.1188 L 1658.8134 1322.3029 L 1603.3722 1350.0133 L 1594.1321 1322.3029 L 1557.1714 1331.5397 L 1557.1714 1294.5924 Z" stroke="#ffffff00" stroke-width="9" fill="#3e3e3e"/>
		<path d="M 1095.1625 3040.3508 C 1096.5708 3040.3508 1085.1342 3040.3508 1095.1625 3040.3508 C 1128.9962 3040.3508 1196.8044 3040.3508 1196.8044 3040.3508 L 1141.3634 3086.5349 L 1122.8829 3086.5349 C 1122.8829 3086.5349 1089.0023 3040.3508 1095.1625 3040.3508 Z" stroke="#ffffff00" stroke-width="9" fill="#3e3e3e"/>
		<path d="M 1760.4553 1350.0133 C 1761.8636 1350.0133 1768.9073 1350.0133 1778.9357 1350.0133 C 1812.7694 1350.0133 1862.0973 1359.2501 1862.0973 1359.2501 L 1825.1365 1396.1974 L 1806.6561 1396.1974 C 1806.6561 1396.1974 1754.2952 1350.0133 1760.4553 1350.0133 Z" fill="#cdcdcd"/>
		<path id="Ellipse3" d="M 919.5991 2652.4045 C 919.5991 2637.1003 936.1467 2624.6941 956.5598 2624.6941 C 976.9729 2624.6941 993.5205 2637.1003 993.5205 2652.4045 C 993.5205 2667.7087 976.9729 2680.115 956.5598 2680.115 C 936.1467 2680.115 919.5991 2667.7087 919.5991 2652.4045 Z" fill="#1a1a1a"/>
		<path id="Ellipse4" d="M 919.5991 3215.8503 C 919.5991 3210.7488 936.1467 3206.6135 956.5598 3206.6135 C 976.9729 3206.6135 993.5205 3210.7488 993.5205 3215.8503 C 993.5205 3220.9519 976.9729 3225.0872 956.5598 3225.0872 C 936.1467 3225.0872 919.5991 3220.9519 919.5991 3215.8503 Z" fill="#b1b1b1"/>
		<path id="Ellipse5" d="M 1122.8829 3354.4026 C 1122.8829 3344.1997 1139.4305 3335.929 1159.8438 3335.929 C 1180.2568 3335.929 1196.8044 3344.1997 1196.8044 3354.4026 C 1196.8044 3364.6055 1180.2568 3372.8762 1159.8438 3372.8762 C 1139.4305 3372.8762 1122.8829 3364.6055 1122.8829 3354.4026 Z" fill="#1a1a1a"/>
		<path id="Ellipse6" d="M 1557.1714 3751.5857 C 1557.1714 3741.3828 1569.582 3733.1121 1584.8918 3733.1121 C 1600.2017 3733.1121 1612.6124 3741.3828 1612.6124 3751.5857 C 1612.6124 3761.7886 1600.2017 3770.0593 1584.8918 3770.0593 C 1569.582 3770.0593 1557.1714 3761.7886 1557.1714 3751.5857 Z" fill="#b1b1b1"/>
		<path id="Ellipse7" d="M 1529.4508 4000.9797 C 1529.4508 3990.7771 1541.8616 3982.5061 1557.1714 3982.5061 C 1572.4812 3982.5061 1584.8918 3990.7771 1584.8918 4000.9797 C 1584.8918 4011.1826 1572.4812 4019.4534 1557.1714 4019.4534 C 1541.8616 4019.4534 1529.4508 4011.1826 1529.4508 4000.9797 Z" fill="#cdcdcd"/>
		<path id="Ellipse8" d="M 1243.0052 3839.3354 C 1243.0052 3831.6836 1261.6213 3825.4802 1284.5861 3825.4802 C 1307.5509 3825.4802 1326.1669 3831.6836 1326.1669 3839.3354 C 1326.1669 3846.9875 1307.5509 3853.1907 1284.5861 3853.1907 C 1261.6213 3853.1907 1243.0052 3846.9875 1243.0052 3839.3354 Z" fill="#ffffff"/>
		<path id="Ellipse9" d="M 1381.608 1913.4591 C 1381.608 1903.2562 1391.9502 1894.9855 1404.7084 1894.9855 C 1417.4667 1894.9855 1427.8088 1903.2562 1427.8088 1913.4591 C 1427.8088 1923.662 1417.4667 1931.9327 1404.7084 1931.9327 C 1391.9502 1931.9327 1381.608 1923.662 1381.608 1913.4591 Z" fill="#b1b1b1"/>
		<path id="Ellipse10" d="M 1196.8044 1668.6835 C 1196.8044 1655.9298 1217.4889 1645.5914 1243.0052 1645.5914 C 1268.5217 1645.5914 1289.2062 1655.9298 1289.2062 1668.6835 C 1289.2062 1681.4371 1268.5217 1691.7755 1243.0052 1691.7755 C 1217.4889 1691.7755 1196.8044 1681.4371 1196.8044 1668.6835 Z" fill="#cdcdcd"/>
		<path id="Ellipse11" d="M 919.5991 2329.116 C 919.5991 2313.8118 936.1467 2301.4055 956.5598 2301.4055 C 976.9729 2301.4055 993.5205 2313.8118 993.5205 2329.116 C 993.5205 2344.4199 976.9729 2356.8264 956.5598 2356.8264 C 936.1467 2356.8264 919.5991 2344.4199 919.5991 2329.116 Z" fill="#b1b1b1"/>
		<path id="Ellipse12" d="M 2351.8267 943.5933 C 2351.8267 933.3904 2368.3743 925.1196 2388.7874 925.1196 C 2409.2004 925.1196 2425.748 933.3904 2425.748 943.5933 C 2425.748 953.7961 2409.2004 962.067 2388.7874 962.067 C 2368.3743 962.067 2351.8267 953.7961 2351.8267 943.5933 Z" fill="#1a1a1a"/>
		<path d="M 1905.2181 3360.5603 L 1917.5383 3536.0601 L 1972.9794 3536.0601 L 1945.2588 3379.0339 L 1905.2181 3360.5603 Z" stroke="#ffffff00" stroke-width="28" fill="#ed1e26"/>
		<path d="M 2028.4204 3382.113 L 1991.4597 3437.5339 L 1991.4597 3511.4285 L 2009.9401 3548.3757 L 2083.8616 3548.3757 L 2102.3418 3502.1917 L 2083.8616 3428.2971 L 2065.3811 3382.113 L 2028.4204 3382.113 Z" stroke="#ffffff00" stroke-width="28" fill="#ed1e26"/>
		<path d="M 2148.5427 3391.3499 L 2120.8223 3456.0076 L 2120.8223 3502.1917 L 2139.3025 3529.9021 L 2222.4641 3529.9021 L 2213.2241 3437.5339 L 2167.0232 3391.3499 L 2148.5427 3391.3499 Z" stroke="#ffffff00" stroke-width="28" fill="#ed1e26"/>
		<path d="M 2268.665 3382.113 L 2240.9446 3437.5339 L 2259.4248 3511.4285 L 2305.6257 3511.4285 L 2324.1062 3437.5339 L 2287.1455 3382.113 L 2268.665 3382.113 Z" stroke="#ffffff00" stroke-width="28" fill="#ed1e26"/>
		<path d="M 2351.8267 3391.3499 L 2333.3464 3446.7708 L 2333.3464 3511.4285 L 2388.7874 3511.4285 L 2416.5078 3437.5339 L 2388.7874 3382.113 L 2351.8267 3391.3499 Z" stroke="#ffffff00" stroke-width="28" fill="#ed1e26"/>
		<path d="M 2481.1892 3363.6394 L 2434.9883 3391.3499 L 2425.748 3483.718 L 2425.748 3502.1917 L 2508.9097 3483.718 C 2508.9097 3483.718 2520.46 3428.2971 2518.1499 3419.0603 C 2515.8398 3409.8235 2499.6694 3354.4026 2499.6694 3354.4026 L 2481.1892 3363.6394 Z" stroke="#ffffff00" stroke-width="28" fill="#ed1e26"/>
		<path d="M 2536.6301 3363.6394 L 2564.3508 3354.4026 L 2582.8311 3363.6394 L 2610.5518 3456.0076 L 2555.1106 3474.4812 L 2536.6301 3446.7708 L 2536.6301 3363.6394 Z" stroke="#ffffff00" stroke-width="28" fill="#ed1e26"/>
		<path d="M 2629.032 3335.929 L 2675.2329 3308.2185 L 2712.1936 3317.4553 L 2749.1543 3400.5867 C 2749.1543 3400.5867 2726.054 3439.8433 2721.4338 3437.5339 C 2716.8137 3435.2249 2638.2722 3446.7708 2638.2722 3446.7708 L 2610.5518 3354.4026 L 2629.032 3335.929 Z" stroke="#ffffff00" stroke-width="28" fill="#ed1e26"/>
		<path d="M 2028.4204 3585.323 L 1991.4597 3566.8494 L 1936.0187 3566.8494 L 1972.9794 3668.4543 L 2028.4204 3705.4016 L 2056.1411 3696.1648 L 2056.1411 3668.4543 L 2028.4204 3585.323 Z" stroke="#ffffff00" stroke-width="28" fill="#ed1e26"/>
		<path d="M 2130.0625 3566.8494 C 2120.8223 3564.5403 2046.9008 3576.0862 2046.9008 3576.0862 L 2074.6213 3649.9807 L 2102.3418 3714.6384 L 2139.3025 3714.6384 L 2157.783 3659.2175 L 2167.0232 3631.5071 L 2157.783 3566.8494 C 2157.783 3566.8494 2139.3025 3569.1587 2130.0625 3566.8494 Z" stroke="#ffffff00" stroke-width="28" fill="#ed1e26"/>
		<path d="M 2176.2632 3576.0862 L 2231.7043 3576.0862 L 2250.1848 3640.7439 L 2231.7043 3696.1648 C 2231.7043 3696.1648 2203.9839 3691.5464 2203.9839 3696.1648 C 2203.9839 3700.7832 2176.2632 3668.4543 2176.2632 3668.4543 L 2176.2632 3576.0862 Z" stroke="#ffffff00" stroke-width="28" fill="#ed1e26"/>
		<path d="M 2314.866 3557.6125 L 2259.4248 3566.8494 C 2259.4248 3566.8494 2282.5254 3629.198 2277.9053 3631.5071 C 2273.2852 3633.8164 2314.866 3677.6912 2314.866 3677.6912 L 2342.5864 3659.2175 L 2314.866 3557.6125 Z" stroke="#ffffff00" stroke-width="28" fill="#ed1e26"/>
		<path d="M 2370.3071 3548.3757 L 2342.5864 3557.6125 L 2370.3071 3649.9807 C 2370.3071 3649.9807 2421.1279 3645.3623 2416.5078 3649.9807 C 2411.8879 3654.5991 2398.0276 3539.1389 2398.0276 3539.1389 L 2370.3071 3548.3757 Z" stroke="#ffffff00" stroke-width="28" fill="#ed1e26"/>
		<path d="M 2444.2285 3529.9021 L 2416.5078 3548.3757 L 2425.748 3613.0334 L 2462.7087 3659.2175 L 2481.1892 3649.9807 L 2508.9097 3594.5598 C 2508.9097 3594.5598 2492.7395 3513.7378 2490.4294 3520.6653 C 2488.1194 3527.593 2444.2285 3529.9021 2444.2285 3529.9021 Z" stroke="#ffffff00" stroke-width="28" fill="#ed1e26"/>
		<path d="M 2573.5911 3502.1917 L 2508.9097 3511.4285 L 2527.3901 3585.323 L 2536.6301 3631.5071 L 2582.8311 3631.5071 L 2601.3115 3585.323 L 2573.5911 3502.1917 Z" stroke="#ffffff00" stroke-width="28" fill="#ed1e26"/>
		<path d="M 2675.2329 3465.2444 L 2592.0713 3483.718 L 2619.7917 3566.8494 L 2647.5125 3594.5598 L 2675.2329 3548.3757 L 2675.2329 3465.2444 Z" stroke="#ffffff00" stroke-width="28" fill="#ed1e26"/>
		<path d="M 4927.4028 2061.2483 C 4927.4028 2061.2483 5048.2554 2003.3815 4965.6172 1882.3873 C 4965.6172 1882.3873 4891.0991 1810.6516 4914.0273 1737.9596 C 4914.0273 1737.9596 4864.3491 1777.175 4866.2598 1846.9978 C 4866.2598 1846.9978 4880.1123 1893.865 4862.4385 1924.4723 C 4862.4385 1924.4723 4851.9292 1936.9064 4836.644 1921.6029 C 4821.3579 1906.2992 4837.5991 1840.3024 4837.5991 1840.3024 C 4837.5991 1840.3024 4772.6348 1910.1251 4783.1436 1974.2089 C 4793.6528 2038.2928 4849.064 2061.2483 4849.064 2061.2483 C 4849.064 2061.2483 4790.7866 2026.3367 4816.5815 1956.9923 C 4816.5815 1956.9923 4822.3135 2002.9032 4870.0811 2008.642 C 4917.8491 2014.3809 4930.269 1964.6443 4930.269 1964.6443 C 4930.269 1964.6443 4936.479 1945.9929 4923.5815 1921.6029 C 4923.5815 1921.6029 5019.5947 1975.1654 4927.4028 2061.2483 Z" stroke="#ffffff" stroke-width="9" fill="#ff2030"/>
		<path d="M 607.8666 2061.2483 C 607.8666 2061.2483 487.0139 2003.3815 569.6522 1882.3873 C 569.6522 1882.3873 644.1702 1810.6516 621.2418 1737.9596 C 621.2418 1737.9596 670.9202 1777.175 669.0095 1846.9978 C 669.0095 1846.9978 655.157 1893.865 672.8309 1924.4723 C 672.8309 1924.4723 683.34 1936.9064 698.6255 1921.6029 C 713.9115 1906.2992 697.6701 1840.3024 697.6701 1840.3024 C 697.6701 1840.3024 762.6345 1910.1251 752.1259 1974.2089 C 741.6168 2038.2928 686.2056 2061.2483 686.2056 2061.2483 C 686.2056 2061.2483 744.4829 2026.3367 718.6878 1956.9923 C 718.6878 1956.9923 712.9561 2002.9032 665.1885 2008.642 C 617.4203 2014.3809 605.0004 1964.6443 605.0004 1964.6443 C 605.0004 1964.6443 598.7905 1945.9929 611.688 1921.6029 C 611.688 1921.6029 515.6746 1975.1654 607.8666 2061.2483 Z" stroke="#ffffff" stroke-width="9" fill="#ff2030"/>
		<path id="Line" d="M 286.6469 2370.6816 L 831.8174 2490.7603 " stroke="#ffffff00" stroke-width="9" fill="none"/>
		<g>
			<path d="M 2401.5454 4081.646 C 2401.5454 4081.646 2394.1716 4080.3257 2400.7756 4076.4387 C 2407.3794 4072.552 2475.5303 4038.8796 2471.5015 3940.1467 C 2471.5015 3940.1467 2477.1086 3905.1299 2490.0974 3929.5918 C 2490.0974 3929.5918 2502.1313 3916.7507 2514.5237 3930.2437 C 2514.5237 3930.2437 2528.5784 3955.9326 2501.3489 4012.3623 C 2474.1194 4068.7922 2438.8794 4079.1895 2438.8794 4079.1895 C 2438.8794 4079.1895 2419.6216 4088.3774 2401.5454 4081.646 Z" stroke="#ffffff00" stroke-width="9" fill="#ca151f"/>
			<path d="M 2478.5393 3892.0886 L 2482.8479 3890.1379 C 2482.8479 3890.1379 2488.3689 3907.3826 2506.5527 3917.9541 C 2506.5527 3917.9541 2517.3401 3930.635 2514.5237 3930.2437 C 2511.7073 3929.8518 2497.9402 3921.1694 2491.9563 3932.5964 C 2491.9563 3932.5964 2481.6672 3925.6731 2473.1533 3934.0999 C 2473.1533 3934.0999 2470.6279 3930.4141 2478.6252 3918.9729 C 2486.6228 3907.532 2478.5393 3892.0886 2478.5393 3892.0886 Z" stroke="#ffffff00" stroke-width="9" fill="#017d41"/>
			<path d="M 2481.4775 3894.2627 C 2481.4775 3894.2627 2492.2705 3925.8728 2491.2048 3924.6458 C 2490.1394 3923.4187 2481.6858 3922.9294 2481.2729 3924.4412 C 2481.2729 3924.4412 2487.5383 3911.0918 2481.4775 3894.2627 Z" stroke="#ffffff00" stroke-width="9" fill="#63ba47"/>
			<path d="M 2478.1021 3956.5605 C 2478.1021 3956.5605 2480.1318 3914.573 2490.7559 3951.2598 C 2501.3801 3987.946 2448.7622 4047.0229 2448.7622 4047.0229 C 2448.7622 4047.0229 2479.5317 4003.0505 2478.1021 3956.5605 Z" stroke="#ffffff00" stroke-width="9" fill="#ed1e26"/>
		</g>
		<g>
			<path d="M 2512.4275 4063.1724 C 2512.4275 4063.1724 2505.0537 4061.8521 2511.6577 4057.9651 C 2518.2615 4054.0784 2586.4124 4020.406 2582.3835 3921.6731 C 2582.3835 3921.6731 2587.9907 3886.6563 2600.9795 3911.1182 C 2600.9795 3911.1182 2613.0134 3898.2771 2625.406 3911.77 C 2625.406 3911.77 2639.4604 3937.459 2612.231 3993.8887 C 2585.0017 4050.3186 2549.7615 4060.7158 2549.7615 4060.7158 C 2549.7615 4060.7158 2530.5037 4069.9038 2512.4275 4063.1724 Z" stroke="#ffffff00" stroke-width="9" fill="#ca151f"/>
			<path d="M 2589.4214 3873.615 L 2593.73 3871.6643 C 2593.73 3871.6643 2599.251 3888.9089 2617.4351 3899.4805 C 2617.4351 3899.4805 2628.2222 3912.1614 2625.406 3911.77 C 2622.5894 3911.3782 2608.8223 3902.6958 2602.8384 3914.1228 C 2602.8384 3914.1228 2592.5493 3907.1995 2584.0354 3915.6262 C 2584.0354 3915.6262 2581.51 3911.9404 2589.5076 3900.4993 C 2597.5049 3889.0583 2589.4214 3873.615 2589.4214 3873.615 Z" stroke="#ffffff00" stroke-width="9" fill="#017d41"/>
			<path d="M 2592.3599 3875.7891 C 2592.3599 3875.7891 2603.1526 3907.3992 2602.0869 3906.1721 C 2601.0215 3904.9451 2592.5679 3904.4558 2592.155 3905.9675 C 2592.155 3905.9675 2598.4207 3892.6182 2592.3599 3875.7891 Z" stroke="#ffffff00" stroke-width="9" fill="#63ba47"/>
			<path d="M 2588.9841 3938.0869 C 2588.9841 3938.0869 2591.0139 3896.0994 2601.6379 3932.7861 C 2612.2622 3969.4724 2559.6443 4028.5493 2559.6443 4028.5493 C 2559.6443 4028.5493 2590.4138 3984.5769 2588.9841 3938.0869 Z" stroke="#ffffff00" stroke-width="9" fill="#ed1e26"/>
		</g>
		<g>
			<path d="M 2623.3096 4044.6987 C 2623.3096 4044.6987 2615.936 4043.3784 2622.5398 4039.4915 C 2629.1438 4035.6047 2697.2944 4001.9324 2693.2659 3903.1995 C 2693.2659 3903.1995 2698.8728 3868.1826 2711.8618 3892.6445 C 2711.8618 3892.6445 2723.8955 3879.8035 2736.2881 3893.2964 C 2736.2881 3893.2964 2750.3425 3918.9854 2723.113 3975.415 C 2695.8838 4031.845 2660.6438 4042.2422 2660.6438 4042.2422 C 2660.6438 4042.2422 2641.386 4051.4302 2623.3096 4044.6987 Z" stroke="#ffffff00" stroke-width="9" fill="#ca151f"/>
			<path d="M 2700.3037 3855.1414 L 2704.6121 3853.1907 C 2704.6121 3853.1907 2710.1331 3870.4353 2728.3171 3881.0068 C 2728.3171 3881.0068 2739.1042 3893.6877 2736.2881 3893.2964 C 2733.4717 3892.9045 2719.7043 3884.2222 2713.7207 3895.6492 C 2713.7207 3895.6492 2703.4314 3888.7258 2694.9177 3897.1523 C 2694.9177 3897.1523 2692.3921 3893.4668 2700.3896 3882.0256 C 2708.387 3870.5847 2700.3037 3855.1414 2700.3037 3855.1414 Z" stroke="#ffffff00" stroke-width="9" fill="#017d41"/>
			<path d="M 2703.2419 3857.3152 C 2703.2419 3857.3152 2714.0347 3888.9255 2712.969 3887.6985 C 2711.9038 3886.4714 2703.45 3885.9822 2703.0371 3887.4939 C 2703.0371 3887.4939 2709.3027 3874.1445 2703.2419 3857.3152 Z" stroke="#ffffff00" stroke-width="9" fill="#63ba47"/>
			<path d="M 2699.8662 3919.6133 C 2699.8662 3919.6133 2701.896 3877.6257 2712.5203 3914.3125 C 2723.1443 3950.9988 2670.5266 4010.0757 2670.5266 4010.0757 C 2670.5266 4010.0757 2701.2959 3966.1033 2699.8662 3919.6133 Z" stroke="#ffffff00" stroke-width="9" fill="#ed1e26"/>
		</g>
		<g>
			<path d="M 2110.4016 1628.1395 C 2115.9717 1629.8024 2120.4546 1630.0385 2123.8857 1628.8292 C 2127.2913 1627.6123 2129.6821 1625.2224 2131.0232 1621.6779 L 2134.3267 1612.947 C 2135.2141 1610.6014 2135.3652 1608.6453 2134.8108 1607.1454 C 2134.2563 1605.6455 2133.271 1604.3942 2131.865 1603.3652 C 2133.5339 1603.2544 2135.0942 1602.7632 2136.6067 1601.8801 C 2138.0837 1601.0159 2139.2146 1599.5841 2139.9836 1597.5513 L 2142.9814 1589.6283 C 2144.4604 1585.7189 2144.2642 1582.3826 2142.3977 1579.6787 C 2140.5063 1576.9679 2136.7979 1574.7584 2131.2278 1573.0956 L 2099.0674 1563.4949 C 2093.4719 1561.8246 2089.0142 1561.5959 2085.6885 1562.7495 C 2082.3374 1563.8959 2079.9377 1566.4569 2078.4587 1570.3663 L 2075.4609 1578.2894 C 2074.6919 1580.3221 2074.5942 1582.0625 2075.2092 1583.5513 C 2075.7888 1585.0588 2076.7236 1586.2949 2077.9785 1587.2787 C 2076.1584 1587.3445 2074.5222 1587.8132 2073.0605 1588.7112 C 2071.5986 1589.609 2070.4143 1591.2568 2069.5269 1593.6024 L 2066.2234 1602.3335 C 2064.8823 1605.8781 2065.1379 1609.0579 2067.0249 1611.8547 C 2068.9121 1614.6515 2072.6455 1616.8684 2078.241 1618.5387 L 2110.4016 1628.1395 L 2110.4016 1628.1395 ZM 2087.8369 1575.4576 C 2088.2117 1574.4673 2088.9666 1573.8804 2090.1624 1573.6862 C 2091.3323 1573.4845 2092.8174 1573.6377 2094.6321 1574.1793 L 2127.498 1583.9908 C 2129.2876 1584.5249 2130.5757 1585.1995 2131.3962 1585.9955 C 2132.1917 1586.7843 2132.4199 1587.6644 2132.0452 1588.6548 L 2130.0532 1593.9194 C 2129.7375 1594.7534 2129.0625 1595.2771 2128.0281 1595.4904 C 2126.9937 1595.7037 2125.4937 1595.517 2123.5276 1594.9301 L 2090.384 1585.0358 C 2088.3679 1584.4338 2087.0452 1583.778 2086.3657 1583.0529 C 2085.686 1582.328 2085.5295 1581.5562 2085.845 1580.7223 L 2087.8369 1575.4576 L 2087.8369 1575.4576 ZM 2079.6394 1597.3463 C 2080.0435 1596.2778 2080.8687 1595.6542 2082.1245 1595.4489 C 2083.3804 1595.2437 2084.991 1595.4344 2087.0076 1596.0363 L 2118.7144 1605.5018 C 2120.7056 1606.0961 2122.1443 1606.8157 2123.0056 1607.6531 C 2123.8669 1608.4904 2124.1006 1609.4302 2123.696 1610.4987 L 2122.1084 1614.6948 C 2120.9846 1617.6659 2118.3149 1618.4934 2114.1311 1617.2443 L 2082.6763 1607.8542 C 2078.4673 1606.5978 2076.9275 1604.5135 2078.0515 1601.5425 L 2079.6394 1597.3463 L 2079.6394 1597.3463 Z" fill="#000000"/>
			<path d="M 2183.7458 1650.0348 C 2186.9214 1650.9828 2189.7117 1651.4677 2192.1255 1651.4633 C 2194.5298 1651.4846 2196.6589 1651.0471 2198.5032 1650.1763 C 2200.3123 1649.324 2201.8616 1648.0464 2203.1514 1646.3428 C 2204.4158 1644.632 2205.5269 1642.5848 2206.4539 1640.1353 L 2209.3628 1632.4468 C 2210.26 1630.075 2210.7366 1627.9258 2210.8428 1626.0142 C 2210.9241 1624.0948 2210.5435 1622.3571 2209.7019 1620.8004 C 2208.8252 1619.2625 2207.4211 1617.8572 2205.4707 1616.6367 C 2203.4946 1615.4088 2200.9065 1614.3171 2197.7056 1613.3613 L 2160.3025 1602.1956 L 2161.7324 1598.4166 C 2162.2549 1597.0353 2163.0232 1596.1913 2164.0972 1595.8737 C 2165.1707 1595.5562 2166.5396 1595.6458 2168.2031 1596.1423 L 2208.2273 1608.0907 L 2212.3098 1597.3009 L 2172.2854 1585.3525 C 2167.2446 1583.8477 2163.0146 1583.8323 2159.5708 1585.2987 C 2156.1265 1586.765 2153.5098 1589.8997 2151.6956 1594.6951 L 2140.7598 1623.5983 C 2140.04 1625.5009 2139.676 1627.2777 2139.6687 1628.9288 C 2139.6609 1630.5798 2140.1106 1632.1356 2140.9917 1633.5878 C 2141.8474 1635.0325 2143.2305 1636.3446 2145.1306 1637.5499 C 2147.0308 1638.7552 2149.5186 1639.817 2152.5933 1640.7349 L 2183.7458 1650.0348 L 2183.7458 1650.0348 ZM 2156.5159 1612.2036 L 2193.9189 1623.3694 C 2196.2378 1624.0615 2197.7983 1624.9044 2198.6003 1625.8981 C 2199.4028 1626.8918 2199.5625 1628.1 2199.03 1629.5073 L 2196.2886 1636.7526 C 2195.7168 1638.2644 2194.7385 1639.2192 2193.3938 1639.6592 C 2192.0493 1640.0989 2190.2227 1639.9596 2187.9038 1639.2675 L 2156.6001 1629.9227 C 2154.2813 1629.2303 2152.8064 1628.3839 2152.2354 1627.3722 C 2151.6392 1626.3531 2151.6348 1625.1044 2152.2065 1623.5928 L 2156.5159 1612.2036 L 2156.5159 1612.2036 Z" fill="#000000"/>
			<path d="M 2223.8958 1662.0206 L 2285.864 1632.2826 C 2286.7559 1631.8527 2287.5557 1631.2213 2288.2188 1630.4329 C 2288.8816 1629.6448 2289.4031 1628.7852 2289.7483 1627.873 C 2290.0637 1627.0389 2290.2185 1626.1859 2290.2817 1625.2767 C 2290.3452 1624.3674 2290.2336 1623.5509 2289.9661 1622.7749 C 2289.6987 1621.999 2289.2813 1621.3231 2288.6882 1620.7401 C 2288.0955 1620.1571 2287.3425 1619.7002 2286.3845 1619.4142 L 2227.9866 1601.981 L 2223.9043 1612.7706 L 2271.5906 1627.0063 L 2208.2192 1657.3407 L 2223.8958 1662.0206 L 2223.8958 1662.0206 Z" fill="#000000"/>
			<path d="M 2308.8484 1661.3918 L 2312.0039 1653.0518 L 2287.0764 1645.6104 L 2283.9211 1653.9503 L 2308.8484 1661.3918 L 2308.8484 1661.3918 Z" fill="#000000"/>
			<path d="M 2352.4875 1700.4088 C 2355.0334 1701.1689 2357.4661 1701.634 2359.8113 1701.8119 C 2362.1309 1701.9825 2364.2866 1701.6976 2366.2427 1700.9763 C 2368.1887 1700.281 2369.9651 1699.0709 2371.5518 1697.3983 C 2373.1382 1695.7252 2374.5032 1693.3773 2375.6375 1690.38 L 2383.7627 1668.9048 L 2334.0854 1654.0746 C 2332.4221 1653.5781 2331.291 1653.0082 2330.728 1652.347 C 2330.1646 1651.6858 2330.0977 1650.8246 2330.502 1649.7561 L 2332.2571 1645.1169 L 2386.5469 1661.324 L 2390.6294 1650.5342 L 2326.0313 1631.2498 L 2319.9072 1647.4347 C 2318.9211 1650.0406 2318.4656 1652.2832 2318.54 1654.1619 C 2318.615 1656.0406 2319.1201 1657.6708 2320.0659 1659.0264 C 2321.0017 1660.408 2322.283 1661.5447 2323.9592 1662.4512 C 2325.6111 1663.3502 2327.533 1664.1271 2329.7004 1664.7742 L 2369.3723 1676.6171 L 2365.467 1686.9377 C 2364.905 1688.4235 2363.8813 1689.4232 2362.4221 1689.9447 C 2360.9619 1690.4662 2359.04 1690.3564 2356.6455 1689.6416 L 2309.2871 1675.5038 L 2305.2046 1686.2937 L 2352.4875 1700.4088 L 2352.4875 1700.4088 Z" fill="#000000"/>
			<path d="M 2420.4636 1720.7015 C 2426.0334 1722.3643 2430.5166 1722.6005 2433.9224 1721.3835 C 2437.3279 1720.1669 2439.7192 1717.777 2441.0601 1714.2324 L 2444.3635 1705.5015 C 2445.251 1703.1559 2445.4019 1701.1996 2444.8477 1699.6998 C 2444.293 1698.2 2443.3079 1696.9485 2441.9272 1695.9272 C 2443.5962 1695.8163 2445.1563 1695.325 2446.6685 1694.442 C 2448.1458 1693.5779 2449.2764 1692.146 2450.0459 1690.1133 L 2453.0435 1682.1903 C 2454.5227 1678.2808 2454.3262 1674.9446 2452.4597 1672.2408 C 2450.5684 1669.5298 2446.8596 1667.3206 2441.29 1665.6576 L 2398.0645 1652.7537 L 2393.9822 1663.5435 L 2437.5605 1676.5529 C 2439.3499 1677.087 2440.6375 1677.7615 2441.4583 1678.5576 C 2442.2537 1679.3462 2442.4822 1680.2266 2442.1072 1681.217 L 2440.1155 1686.4816 C 2439.7996 1687.3156 2439.1245 1687.8392 2438.0901 1688.0524 C 2437.0554 1688.2659 2435.5557 1688.079 2433.5642 1687.4846 L 2394.9014 1675.9424 L 2390.8188 1686.7324 L 2428.7761 1698.0635 C 2430.7671 1698.658 2432.2063 1699.3778 2433.0676 1700.2151 C 2433.929 1701.0524 2434.1626 1701.9923 2433.7583 1703.0608 L 2431.9045 1707.9604 C 2431.3325 1709.4722 2430.4282 1710.3046 2429.2073 1710.4911 C 2427.9617 1710.6703 2426.3103 1710.4382 2424.1929 1709.8063 L 2381.0432 1696.9249 L 2376.9612 1707.7148 L 2420.4636 1720.7015 L 2420.4636 1720.7015 Z" fill="#000000"/>
			<path d="M 2493.178 1742.4087 C 2496.3533 1743.3567 2499.1687 1743.849 2501.6328 1743.8596 C 2504.0874 1743.8961 2506.2168 1743.4586 2508.0613 1742.5879 C 2509.8955 1741.743 2511.4702 1740.4729 2512.7847 1738.7769 C 2514.0901 1737.1071 2515.2263 1735.0679 2516.1531 1732.618 L 2525.6589 1707.4937 C 2526.5759 1705.0701 2527.0571 1702.8347 2527.1619 1700.7781 C 2527.2573 1698.7468 2526.8662 1696.8898 2525.9883 1695.2064 C 2525.1003 1693.5491 2523.7009 1692.058 2521.7292 1690.7444 C 2519.7485 1689.4567 2517.1794 1688.313 2514.0042 1687.3649 L 2483.9856 1678.4034 C 2480.7595 1677.4406 2477.9094 1676.9666 2475.4797 1676.9377 C 2473.0154 1676.9269 2470.886 1677.3645 2469.0769 1678.2168 C 2467.2327 1679.0876 2465.6582 1680.3579 2464.3533 1682.0277 C 2463.0381 1683.7236 2461.9272 1685.7706 2461.0107 1688.1943 L 2451.5044 1713.3185 C 2450.5774 1715.7683 2450.0713 1717.9957 2449.9763 1720.0266 C 2449.8711 1722.084 2450.2625 1723.9409 2451.1499 1725.5983 C 2452.0027 1727.2742 2453.4021 1728.765 2455.3835 1730.0529 C 2457.3293 1731.359 2459.9331 1732.4844 2463.1594 1733.4473 L 2493.178 1742.4087 L 2493.178 1742.4087 ZM 2471.3928 1691.816 C 2471.9749 1690.2783 2472.9382 1689.2896 2474.2922 1688.8239 C 2475.647 1688.3579 2477.509 1688.4785 2479.8276 1689.1709 L 2509.9971 1698.1771 C 2512.3162 1698.8695 2513.8564 1699.7645 2514.6191 1700.8625 C 2515.3818 1701.9602 2515.4778 1703.265 2514.8958 1704.8029 L 2505.7449 1728.9886 C 2505.1533 1730.5524 2504.1897 1731.541 2502.8352 1732.007 C 2501.481 1732.4727 2499.6545 1732.3336 2497.3357 1731.6414 L 2467.1665 1722.6351 C 2464.8477 1721.9427 2463.2715 1721.0662 2462.5088 1719.9684 C 2461.7461 1718.8705 2461.6509 1717.5656 2462.2422 1716.0018 L 2471.3928 1691.816 L 2471.3928 1691.816 Z" fill="#000000"/>
			<path d="M 2568.7146 1764.9586 C 2573.73 1766.4558 2577.9504 1766.4972 2581.4194 1765.0386 C 2584.8638 1763.5721 2587.5056 1760.4448 2589.3296 1755.6234 L 2600.2656 1726.7201 C 2600.9556 1724.8958 2601.2939 1723.1116 2601.3115 1721.4343 C 2601.304 1719.7496 2600.8547 1718.1942 2599.9988 1716.7494 C 2599.1174 1715.2971 2597.7441 1713.9589 2595.844 1712.7534 C 2593.9436 1711.5482 2591.4817 1710.4941 2588.4065 1709.5762 L 2557.2542 1700.2761 C 2554.0283 1699.3131 2551.2285 1698.8544 2548.8142 1698.8589 C 2546.3901 1698.8895 2544.2861 1699.3344 2542.467 1700.2128 C 2540.6133 1701.1097 2539.0537 1702.4136 2537.7896 1704.1244 C 2536.49 1705.8541 2535.3845 1707.9603 2534.4478 1710.4363 L 2531.7261 1717.6294 C 2530.7993 1720.0795 2530.2876 1722.2473 2530.1968 1724.1925 C 2530.0808 1726.1302 2530.4607 1727.8683 2531.3179 1729.4585 C 2532.1748 1731.0486 2533.5789 1732.454 2535.5293 1733.6742 C 2537.48 1734.8947 2540.0681 1735.9865 2543.2944 1736.9495 L 2580.6973 1748.1155 L 2579.1594 1752.1812 C 2578.6758 1753.458 2577.9026 1754.2426 2576.8481 1754.5078 C 2575.7942 1754.7732 2574.4607 1754.6653 2572.7969 1754.1687 L 2532.7725 1742.2203 L 2528.6899 1753.0101 L 2568.7146 1764.9586 L 2568.7146 1764.9586 ZM 2544.6675 1713.7484 C 2545.259 1712.1846 2546.2322 1711.1698 2547.5864 1710.7041 C 2548.9409 1710.238 2550.7773 1710.3513 2553.0964 1711.0433 L 2584.4001 1720.3884 C 2586.7185 1721.0807 2588.1584 1721.9457 2588.7446 1722.9911 C 2589.3062 1724.0286 2589.3159 1725.3369 2588.7241 1726.9006 L 2584.4839 1738.1074 L 2547.0811 1726.9414 C 2544.7625 1726.2494 2543.2019 1725.4064 2542.4097 1724.3868 C 2541.6172 1723.3671 2541.5022 1722.1144 2542.0642 1720.629 L 2544.6675 1713.7484 L 2544.6675 1713.7484 Z" fill="#000000"/>
		</g>
		<g>
			<path d="M 2117.6626 4356.0981 C 2122.1682 4355.291 2125.4031 4353.8276 2127.3855 4351.6826 C 2129.3472 4349.5405 2130.1792 4346.9043 2129.8638 4343.7993 L 2129.0864 4336.1509 C 2128.8777 4334.0962 2128.2893 4332.5977 2127.3672 4331.6934 C 2126.4448 4330.7896 2125.3081 4330.2261 2123.9546 4329.9805 C 2125.0886 4329.2896 2126.011 4328.3569 2126.7605 4327.1528 C 2127.4919 4325.9756 2127.7783 4324.5063 2127.5977 4322.7256 L 2126.8921 4315.7852 C 2126.5439 4312.3604 2125.2217 4309.9707 2122.9502 4308.6572 C 2120.6582 4307.3481 2117.2671 4307.0723 2112.762 4307.8799 L 2086.7483 4312.5425 C 2082.2224 4313.354 2079.0081 4314.813 2077.0798 4316.8789 C 2075.1313 4318.9492 2074.3538 4321.7148 2074.7019 4325.1396 L 2075.4075 4332.0801 C 2075.5884 4333.8608 2076.1375 4335.1802 2077.0984 4336.0542 C 2078.0408 4336.9546 2079.1367 4337.5254 2080.3679 4337.793 C 2079.1121 4338.5059 2078.1284 4339.4497 2077.4197 4340.646 C 2076.7109 4341.8423 2076.4634 4343.4907 2076.6721 4345.5454 L 2077.4495 4353.1938 C 2077.7651 4356.2988 2079.0737 4358.5518 2081.3928 4359.9263 C 2083.7122 4361.3003 2087.1233 4361.5723 2091.6492 4360.7612 L 2117.6626 4356.0981 L 2117.6626 4356.0981 ZM 2083.1011 4325.4707 C 2083.0129 4324.603 2083.3352 4323.8945 2084.1067 4323.3145 C 2084.8577 4322.7383 2085.9558 4322.3086 2087.4236 4322.0454 L 2114.0081 4317.2808 C 2115.4551 4317.021 2116.6001 4317.0483 2117.4595 4317.3364 C 2118.2986 4317.6279 2118.7712 4318.1938 2118.8596 4319.061 L 2119.3284 4323.6733 C 2119.4023 4324.4038 2119.114 4325.0366 2118.4624 4325.5718 C 2117.811 4326.1069 2116.6904 4326.5171 2115.1001 4326.8022 L 2088.2915 4331.6069 C 2086.6606 4331.8994 2085.498 4331.8984 2084.7632 4331.6118 C 2084.0281 4331.3252 2083.644 4330.8125 2083.5698 4330.0825 L 2083.1011 4325.4707 L 2083.1011 4325.4707 ZM 2085.1091 4344.6143 C 2085.0139 4343.6787 2085.3726 4342.917 2086.1824 4342.3066 C 2086.9922 4341.6968 2088.1919 4341.249 2089.8232 4340.9565 L 2115.4697 4336.3599 C 2117.0801 4336.0708 2118.3472 4336.0767 2119.2498 4336.3799 C 2120.1523 4336.6831 2120.6499 4337.291 2120.7451 4338.2275 L 2121.1187 4341.9033 C 2121.3833 4344.5059 2119.8005 4346.0908 2116.4165 4346.6978 L 2090.9739 4351.2583 C 2087.5693 4351.8682 2085.7471 4350.8926 2085.4827 4348.29 L 2085.1091 4344.6143 L 2085.1091 4344.6143 Z" fill="#000000"/>
			<path d="M 2176.988 4345.4653 C 2179.5569 4345.0049 2181.6899 4344.3433 2183.3853 4343.4585 C 2185.0828 4342.5962 2186.4241 4341.4961 2187.4111 4340.1797 C 2188.3804 4338.8901 2189.0159 4337.3813 2189.3176 4335.6533 C 2189.5991 4333.9292 2189.6533 4332.0132 2189.4353 4329.8672 L 2188.7507 4323.1323 C 2188.5393 4321.0547 2188.1116 4319.2949 2187.5078 4317.8462 C 2186.8833 4316.4004 2185.999 4315.2568 2184.855 4314.4155 C 2183.6926 4313.6016 2182.207 4313.0771 2180.4028 4312.8892 C 2178.5779 4312.7046 2176.3711 4312.8447 2173.782 4313.3086 L 2143.5281 4318.7314 L 2143.1917 4315.4209 C 2143.0686 4314.2109 2143.3088 4313.3076 2143.9512 4312.6807 C 2144.593 4312.0547 2145.5872 4311.6206 2146.9326 4311.3794 L 2179.3066 4305.5767 L 2178.3462 4296.125 L 2145.9719 4301.9277 C 2141.8945 4302.6582 2138.9158 4304.1919 2137.0156 4306.5317 C 2135.1152 4308.8716 2134.3887 4312.1401 2134.8159 4316.3408 L 2137.3889 4341.6602 C 2137.5586 4343.3267 2137.9336 4344.7705 2138.5144 4345.9912 C 2139.0952 4347.2124 2139.9634 4348.1958 2141.0981 4348.9453 C 2142.2126 4349.6992 2143.6504 4350.1621 2145.4141 4350.3574 C 2147.1775 4350.5527 2149.3027 4350.4272 2151.79 4349.9814 L 2176.988 4345.4653 L 2176.988 4345.4653 ZM 2144.4192 4327.498 L 2174.6731 4322.0757 C 2176.5486 4321.7393 2177.9446 4321.791 2178.8613 4322.2314 C 2179.7781 4322.6714 2180.3193 4323.5044 2180.4446 4324.7373 L 2181.0896 4331.0845 C 2181.2241 4332.4087 2180.8755 4333.4702 2180.0864 4334.2861 C 2179.2974 4335.1016 2177.9641 4335.666 2176.0886 4336.0024 L 2150.7683 4340.5405 C 2148.8926 4340.877 2147.5554 4340.791 2146.7949 4340.2529 C 2146.0142 4339.7192 2145.5679 4338.7993 2145.4331 4337.4751 L 2144.4192 4327.498 L 2144.4192 4327.498 Z" fill="#000000"/>
			<path d="M 2209.4639 4339.6445 L 2242.4646 4295.0703 C 2242.939 4294.4272 2243.2771 4293.6694 2243.4631 4292.8457 C 2243.6492 4292.022 2243.7109 4291.1973 2243.6296 4290.3984 C 2243.5552 4289.6675 2243.3611 4288.9814 2243.083 4288.2876 C 2242.8049 4287.5938 2242.4365 4287.0317 2241.9729 4286.5571 C 2241.5095 4286.0825 2240.9763 4285.7363 2240.3523 4285.5229 C 2239.7288 4285.3086 2239.0374 4285.2471 2238.2625 4285.3857 L 2191.0266 4293.8521 L 2191.9873 4303.3042 L 2230.5588 4296.3901 L 2196.7837 4341.917 L 2209.4639 4339.6445 L 2209.4639 4339.6445 Z" fill="#000000"/>
			<path d="M 2268.9534 4308.1528 L 2268.2107 4300.8467 L 2248.0479 4304.4609 L 2248.7905 4311.7666 L 2268.9534 4308.1528 L 2268.9534 4308.1528 Z" fill="#000000"/>
			<path d="M 2313.4773 4321.0015 C 2315.5366 4320.6323 2317.4114 4320.0869 2319.123 4319.3618 C 2320.814 4318.6401 2322.2283 4317.6426 2323.3469 4316.396 C 2324.4683 4315.1724 2325.2869 4313.6309 2325.8086 4311.8174 C 2326.3298 4310.0034 2326.4558 4307.7725 2326.1892 4305.147 L 2324.2769 4286.3345 L 2284.095 4293.5366 C 2282.7493 4293.7778 2281.7522 4293.7705 2281.1216 4293.4883 C 2280.491 4293.2061 2280.1384 4292.5947 2280.0432 4291.6592 L 2279.6301 4287.5952 L 2323.5432 4279.7246 L 2322.5825 4270.2725 L 2270.3311 4279.6377 L 2271.7722 4293.8159 C 2272.0042 4296.0986 2272.48 4297.9199 2273.1992 4299.2783 C 2273.9187 4300.6372 2274.8525 4301.6558 2275.9983 4302.3105 C 2277.1465 4302.9878 2278.4507 4303.3589 2279.9507 4303.415 C 2281.4309 4303.4756 2283.0574 4303.3467 2284.8108 4303.0322 L 2316.8999 4297.2808 L 2317.8184 4306.3218 C 2317.9507 4307.623 2317.5862 4308.7344 2316.7456 4309.6523 C 2315.9043 4310.5703 2314.5146 4311.1914 2312.5779 4311.5386 L 2274.2712 4318.4048 L 2275.2319 4327.8564 L 2313.4773 4321.0015 L 2313.4773 4321.0015 Z" fill="#000000"/>
			<path d="M 2368.4607 4311.1465 C 2372.9658 4310.3389 2376.2009 4308.876 2378.1626 4306.7339 C 2380.1248 4304.5928 2380.957 4301.9561 2380.6414 4298.8511 L 2379.8643 4291.2026 C 2379.655 4289.1479 2379.0667 4287.6494 2378.1448 4286.7451 C 2377.2224 4285.8408 2376.0857 4285.2778 2374.7529 4285.0283 C 2375.8865 4284.3369 2376.8086 4283.4048 2377.5583 4282.2012 C 2378.2898 4281.0234 2378.5759 4279.5542 2378.3955 4277.7734 L 2377.6899 4270.833 C 2377.342 4267.4082 2376.0195 4265.0186 2373.7478 4263.7056 C 2371.4561 4262.396 2368.0652 4262.1201 2363.5598 4262.9277 L 2328.5964 4269.1943 L 2329.5571 4278.6465 L 2364.8059 4272.3286 C 2366.2532 4272.0693 2367.3975 4272.0967 2368.2576 4272.3843 C 2369.0962 4272.6753 2369.5693 4273.2417 2369.6572 4274.1094 L 2370.1265 4278.7212 C 2370.2004 4279.4517 2369.9116 4280.0845 2369.2603 4280.6196 C 2368.6091 4281.1553 2367.4883 4281.5649 2365.8777 4281.8535 L 2334.6045 4287.4585 L 2335.5652 4296.9111 L 2366.2673 4291.4077 C 2367.8779 4291.1191 2369.145 4291.1245 2370.0476 4291.4277 C 2370.95 4291.731 2371.4482 4292.3389 2371.5432 4293.2754 L 2371.9795 4297.5674 C 2372.114 4298.8916 2371.7739 4299.8359 2370.9822 4300.4194 C 2370.1699 4301.0063 2368.927 4301.4385 2367.2141 4301.7456 L 2332.312 4308.0015 L 2333.2729 4317.4536 L 2368.4607 4311.1465 L 2368.4607 4311.1465 Z" fill="#000000"/>
			<path d="M 2427.2764 4300.6045 C 2429.8452 4300.144 2431.9985 4299.479 2433.7344 4298.5869 C 2435.4727 4297.7173 2436.8142 4296.6167 2437.8013 4295.3003 C 2438.7913 4294.0073 2439.447 4292.4951 2439.7688 4290.7637 C 2440.0938 4289.0547 2440.1685 4287.1353 2439.9502 4284.9893 L 2437.7134 4262.9805 C 2437.4973 4260.8574 2437.0422 4259.0322 2436.3857 4257.4766 C 2435.7317 4255.9434 2434.7976 4254.7158 2433.5833 4253.7944 C 2432.3704 4252.896 2430.8574 4252.3066 2429.0051 4252.0581 C 2427.1558 4251.8311 2424.9443 4251.9253 2422.3757 4252.3862 L 2398.0947 4256.7378 C 2395.4851 4257.2056 2393.314 4257.897 2391.5959 4258.7627 C 2389.8601 4259.6553 2388.5183 4260.7559 2387.5496 4262.0454 C 2386.5625 4263.3613 2385.9065 4264.874 2385.5823 4266.5825 C 2385.2598 4268.314 2385.2056 4270.23 2385.4216 4272.353 L 2387.658 4294.3613 C 2387.8762 4296.5083 2388.311 4298.3364 2388.9653 4299.8691 C 2389.6216 4301.4258 2390.5559 4302.6528 2391.7681 4303.5518 C 2392.9624 4304.4766 2394.4751 4305.0654 2396.3252 4305.292 C 2398.1563 4305.5449 2400.3862 4305.4243 2402.9956 4304.9561 L 2427.2764 4300.6045 L 2427.2764 4300.6045 ZM 2394.0046 4271.2329 C 2393.8677 4269.8857 2394.1938 4268.8047 2394.9805 4267.9663 C 2395.7673 4267.1279 2397.1189 4266.5371 2398.9944 4266.2007 L 2423.3975 4261.8271 C 2425.2732 4261.4907 2426.6736 4261.5889 2427.5996 4262.1196 C 2428.5251 4262.6514 2429.0559 4263.5791 2429.1924 4264.9263 L 2431.3462 4286.1128 C 2431.4854 4287.4829 2431.1589 4288.564 2430.3721 4289.4028 C 2429.5854 4290.2407 2428.2524 4290.8052 2426.377 4291.1416 L 2401.9744 4295.5156 C 2400.0984 4295.8516 2398.6794 4295.7808 2397.7537 4295.249 C 2396.8276 4294.7178 2396.2979 4293.79 2396.1582 4292.4199 L 2394.0046 4271.2329 L 2394.0046 4271.2329 Z" fill="#000000"/>
			<path d="M 2488.3752 4289.6533 C 2492.4324 4288.9263 2495.4136 4287.415 2497.334 4285.0718 C 2499.2344 4282.7319 2499.9814 4279.46 2499.5518 4275.2363 L 2496.9785 4249.917 C 2496.8162 4248.3188 2496.4204 4246.8789 2495.8374 4245.6353 C 2495.2341 4244.395 2494.3665 4243.4111 2493.2517 4242.6577 C 2492.1167 4241.9082 2490.6763 4241.4224 2488.9128 4241.2271 C 2487.1492 4241.0317 2485.0444 4241.1533 2482.5574 4241.5991 L 2457.3591 4246.1152 C 2454.75 4246.5835 2452.6189 4247.2671 2450.9233 4248.1523 C 2449.231 4249.0605 2447.9099 4250.1572 2446.9429 4251.4697 C 2445.9583 4252.8086 2445.3247 4254.3398 2445.0435 4256.064 C 2444.7441 4257.8149 2444.7146 4259.7725 2444.9351 4261.9414 L 2445.5757 4268.2427 C 2445.7939 4270.3887 2446.2039 4272.1753 2446.8301 4273.6436 C 2447.437 4275.1157 2448.3206 4276.2593 2449.4878 4277.1196 C 2450.6548 4277.98 2452.1404 4278.5039 2453.9446 4278.6919 C 2455.7488 4278.8794 2457.9558 4278.7402 2460.5652 4278.272 L 2490.8191 4272.8496 L 2491.1814 4276.4111 C 2491.2947 4277.5303 2491.0298 4278.3911 2490.3828 4278.9722 C 2489.7363 4279.5527 2488.7605 4279.9604 2487.4148 4280.2012 L 2455.0405 4286.0039 L 2456.001 4295.4561 L 2488.3752 4289.6533 L 2488.3752 4289.6533 ZM 2453.2944 4260.6523 C 2453.155 4259.2827 2453.479 4258.1787 2454.2651 4257.3403 C 2455.0522 4256.502 2456.3831 4255.9146 2458.2588 4255.5781 L 2483.5793 4251.04 C 2485.4548 4250.7041 2486.7739 4250.8164 2487.5571 4251.3735 C 2488.3198 4251.9341 2488.7913 4252.8955 2488.9304 4254.2656 L 2489.928 4264.0825 L 2459.6741 4269.5049 C 2457.7988 4269.8413 2456.4028 4269.7896 2455.4836 4269.3267 C 2454.5649 4268.8633 2454.0391 4267.9814 2453.9067 4266.6802 L 2453.2944 4260.6523 L 2453.2944 4260.6523 Z" fill="#000000"/>
		</g>
		<g>
			<g>
				<path d="M 352.1823 2476.9324 C 350.161 2490.9319 350.161 2503.1995 352.3266 2513.5908 C 354.6367 2523.9824 358.968 2532.6418 365.1763 2539.8582 C 371.6732 2546.7856 380.0472 2552.5588 390.4424 2557.033 C 400.8376 2561.3625 413.1097 2564.6821 427.2587 2566.9912 L 572.7915 2589.3618 C 586.9406 2591.5266 599.6458 2592.104 610.9072 2591.0935 C 622.1687 2589.939 631.842 2587.0525 640.0715 2582.2898 C 648.3011 2577.2383 655.0869 2570.3108 660.4288 2561.074 C 665.6264 2551.8372 669.3802 2540.1467 671.5459 2526.1472 L 703.8865 2317.02 L 384.5229 2267.8049 L 352.1823 2476.9324 L 352.1823 2476.9324 ZM 634.152 2352.8125 L 608.8859 2516.7661 C 607.1534 2527.0132 603.8327 2534.2295 598.6351 2538.2705 C 593.4376 2542.3118 586.363 2543.6106 577.4116 2542.3118 L 437.0764 2520.6628 C 428.125 2519.2197 421.7723 2515.7559 418.0185 2510.4158 C 414.2647 2504.9314 413.1097 2497.1379 414.8422 2486.8909 L 440.1083 2322.9373 L 634.152 2352.8125 L 634.152 2352.8125 Z" fill="#000000"/>
				<path d="M 334.2368 2921.7559 L 397.4743 2921.6113 L 396.8968 2674.0935 L 490.7423 2673.9492 L 491.1755 2876.0046 L 554.413 2875.8604 L 553.9798 2673.8049 L 593.1062 2673.6606 L 593.6837 2920.6011 L 656.9212 2920.4568 L 656.1993 2626.6106 L 333.515 2627.3323 L 334.2368 2921.7559 L 334.2368 2921.7559 Z" fill="#000000"/>
				<path d="M 343.3118 3020.7427 L 500.3948 2999.8154 L 525.0834 3184.1189 L 587.7433 3175.6035 L 563.0547 2991.3003 L 600.0154 2986.3933 L 632.2117 3226.9834 L 694.8716 3218.6125 L 656.6116 2932.5598 L 337.2479 2975.28 L 343.3118 3020.7427 L 343.3118 3020.7427 Z" fill="#000000"/>
				<path d="M 465.8033 3581.9392 L 527.597 3564.4758 L 461.3276 3331.1021 L 550.2643 3305.845 L 604.406 3496.3545 L 666.1997 3478.8911 L 612.058 3288.3816 L 652.7726 3276.8357 L 718.8976 3509.6323 L 780.6913 3492.0247 L 702.0054 3214.9202 L 386.9731 3304.2576 L 465.8033 3581.9392 L 465.8033 3581.9392 Z" fill="#000000"/>
				<path d="M 507.0802 3693.9324 L 720.7593 3597.8118 L 600.2039 3882.7097 C 598.7601 3885.885 598.0381 3889.0601 598.1826 3892.2354 C 598.1826 3895.1218 598.7601 3897.864 599.9151 3900.3174 C 602.2251 3905.5132 606.9896 3909.1213 613.9197 3910.8533 C 620.8499 3912.5852 629.0794 3911.2861 638.3196 3907.2451 L 907.0066 3786.3005 L 887.66 3743.4358 L 673.4034 3839.8452 L 794.5363 3554.6584 C 795.8358 3551.4834 796.4132 3548.3081 796.4132 3545.2773 C 796.4132 3542.2466 795.8358 3539.5044 794.6807 3537.0508 C 792.3707 3531.855 787.6062 3528.2468 780.6761 3526.5151 C 773.7459 3524.7832 765.6608 3526.082 756.4206 3530.123 L 487.7336 3651.0676 L 507.0802 3693.9324 L 507.0802 3693.9324 Z" fill="#000000"/>
				<path d="M 755.6051 4156.5234 C 763.2571 4168.3579 771.4866 4177.4507 780.1493 4183.8008 C 788.812 4190.0068 797.9078 4193.6147 807.7255 4194.625 C 817.3988 4195.4912 827.6496 4194.0479 838.6223 4190.4399 C 849.595 4186.543 861.2896 4180.6255 873.8505 4172.6875 L 1001.4805 4090.5667 C 1013.8969 4082.4844 1024.1477 4074.2578 1032.2329 4066.0313 C 1040.3181 4057.5161 1045.8044 4048.7124 1048.9807 4039.6199 C 1052.0127 4030.2388 1052.5902 4020.4246 1050.5688 4010.0332 C 1048.5476 3999.353 1043.6388 3988.0957 1035.9868 3976.261 L 921.062 3797.7307 L 640.6804 3977.9929 L 755.6051 4156.5234 L 755.6051 4156.5234 ZM 891.1758 3872.0581 L 980.9788 4011.7651 C 986.6096 4020.4246 988.7752 4028.0737 987.4758 4034.8572 C 986.032 4041.3518 981.5563 4047.1248 973.7599 4052.176 L 850.4613 4131.4106 C 842.6649 4136.3179 835.446 4138.0498 828.949 4136.751 C 822.3076 4135.1631 816.2438 4129.9673 810.613 4121.3081 L 720.8101 3981.6011 L 891.1758 3872.0581 L 891.1758 3872.0581 Z" fill="#000000"/>
				<path d="M 1031.848 4497.5967 L 1079.6371 4455.8867 L 918.9446 4271.8721 L 989.6897 4210.1011 L 1120.7847 4360.1992 L 1168.5737 4318.4893 L 1037.4788 4168.3911 L 1066.4987 4142.9897 L 1226.7581 4326.4272 L 1274.547 4284.7173 L 1083.824 4066.4973 L 840.6918 4278.7998 L 1031.848 4497.5967 L 1031.848 4497.5967 Z" fill="#000000"/>
				<path d="M 1109.9056 4569.605 L 1181.517 4486.4736 L 1224.2528 4523.2769 L 1236.8137 4678.7148 L 1299.1849 4732.4038 L 1279.9827 4571.1929 L 1306.9813 4594.4292 C 1317.6653 4603.5215 1327.916 4609.8716 1338.0225 4613.48 C 1348.1289 4616.9438 1357.8022 4617.8096 1367.3312 4616.0776 C 1376.8601 4614.2017 1386.2448 4610.0161 1395.4849 4603.5215 C 1404.7251 4596.8823 1414.1096 4588.2231 1423.6385 4577.2544 L 1445.0065 4552.4302 C 1454.391 4541.4614 1461.6099 4530.9258 1466.8075 4520.8232 C 1471.8607 4510.5762 1474.6039 4500.6177 1475.037 4490.9478 C 1475.4702 4481.4224 1473.1602 4471.897 1468.1069 4462.3716 C 1463.0537 4452.9902 1455.2573 4443.7534 1444.5734 4434.5166 L 1284.314 4296.686 L 1075.1106 4539.7295 L 1109.9056 4569.605 L 1109.9056 4569.605 ZM 1277.9613 4374.333 L 1403.5701 4482.4326 C 1411.3665 4489.2158 1415.6978 4495.855 1416.4197 4502.3496 C 1417.1416 4508.8442 1414.6871 4515.3389 1409.2008 4521.8335 L 1387.9773 4546.3687 C 1382.2021 4553.0078 1376.1383 4556.3271 1369.7856 4556.6157 C 1363.2886 4556.7603 1356.0697 4553.4404 1348.2733 4546.8018 L 1222.6647 4438.7021 L 1277.9613 4374.333 L 1277.9613 4374.333 Z" fill="#000000"/>
				<path d="M 1514.7531 4873.1758 C 1526.592 4880.6807 1537.8535 4885.5879 1548.3931 4887.7524 C 1558.7883 4889.6289 1568.606 4889.1958 1577.8462 4886.165 C 1587.0863 4882.8457 1595.749 4877.3613 1604.1229 4869.4233 C 1612.4968 4861.3413 1620.5819 4851.2383 1628.5227 4838.8262 L 1649.6019 4805.7759 C 1657.3983 4793.3638 1663.0291 4781.8179 1666.7828 4770.9937 C 1670.5366 4760.0249 1671.8361 4749.9219 1670.9698 4740.1079 C 1669.9592 4730.438 1666.2053 4721.3457 1659.8528 4712.686 C 1653.5001 4704.1709 1644.2599 4696.0889 1632.4209 4688.4395 L 1516.9187 4614.8335 C 1510.8549 4611.0811 1507.2454 4607.4731 1506.3792 4604.0093 C 1505.5128 4600.6895 1506.5236 4596.6484 1509.5554 4592.0303 L 1520.5282 4574.8555 C 1522.6938 4571.3916 1525.437 4569.3711 1528.7577 4569.0825 C 1531.934 4568.7939 1536.5541 4570.3813 1542.4736 4574.1338 L 1715.5825 4684.3984 L 1750.6664 4629.4106 L 1579.0012 4520.0117 C 1541.0298 4495.9097 1510.566 4501.9712 1487.61 4538.0527 L 1464.9427 4573.5566 C 1439.0991 4614.1118 1445.3074 4646.585 1483.5675 4670.8315 L 1597.7703 4743.5718 C 1606.433 4749.2002 1611.6305 4755.1177 1613.2188 4761.6123 C 1614.6625 4767.8184 1612.9299 4775.0347 1608.0211 4782.8281 L 1589.9739 4811.1157 C 1585.0651 4818.7651 1579.2899 4823.2393 1572.9373 4824.6826 C 1566.4403 4825.9814 1558.7883 4823.8164 1550.1256 4818.332 L 1378.6049 4709.0781 L 1343.521 4764.0659 L 1514.7531 4873.1758 L 1514.7531 4873.1758 Z" fill="#000000"/>
				<path d="M 1957.4999 5081.9902 C 1970.6383 5087.0415 1982.4773 5089.6396 1993.1613 5089.6396 C 2003.8452 5089.6396 2013.2297 5087.186 2021.6036 5082.2788 C 2029.8333 5077.3716 2037.1964 5070.1558 2043.8379 5061.063 C 2050.4792 5051.6821 2056.2544 5040.2803 2061.4519 5026.8579 L 2114.8718 4887.7285 C 2120.0693 4874.3062 2123.2456 4861.894 2124.6895 4850.6367 C 2125.9888 4839.3794 2125.2668 4829.1323 2122.3794 4819.8955 C 2119.4917 4810.8032 2114.0054 4802.7207 2106.209 4795.5044 C 2098.2683 4788.4326 2087.7288 4782.3711 2074.5903 4777.1753 L 1949.5592 4729.2593 C 1935.9877 4724.0635 1924.0043 4721.6099 1913.4647 4721.6099 C 1902.9252 4721.6099 1893.5405 4724.0635 1885.1666 4728.9707 C 1876.7927 4733.8774 1869.4294 4740.9497 1862.9325 4750.1865 C 1856.4354 4759.5674 1850.6604 4770.9692 1845.4628 4784.3916 L 1792.043 4923.521 C 1786.8453 4937.0874 1783.6691 4949.3555 1782.2253 4960.6128 C 1780.7815 4971.8701 1781.5034 4982.1172 1784.391 4991.354 C 1787.2786 5000.4463 1792.7649 5008.5288 1800.5613 5015.7451 C 1808.3577 5022.6724 1818.8972 5028.8784 1832.4688 5034.0742 L 1957.4999 5081.9902 L 1957.4999 5081.9902 ZM 1888.6317 4803.731 C 1891.808 4795.3604 1896.5725 4789.7314 1902.6364 4787.1338 C 1908.7002 4784.5356 1916.4966 4785.1133 1926.3143 4788.8657 L 2051.9229 4837.0703 C 2061.4519 4840.8228 2067.6602 4845.5854 2070.5479 4851.647 C 2073.4353 4857.709 2073.1465 4864.9248 2069.9702 4873.2959 L 2018.4274 5007.5186 C 2015.1067 5015.8892 2010.3422 5021.3735 2004.2783 5024.1157 C 1998.2145 5026.5693 1990.2737 5025.9922 1980.7448 5022.3838 L 1855.1361 4974.1792 C 1845.3184 4970.4268 1839.1101 4965.6641 1836.3669 4959.6025 C 1833.4794 4953.6851 1833.7682 4946.4688 1837.0889 4937.9536 L 1888.6317 4803.731 L 1888.6317 4803.731 Z" fill="#000000"/>
				<path d="M 2146.5469 5141.0239 L 2180.3313 4990.0596 L 2364.7017 5031.3364 L 2378.562 4969.854 L 2194.1917 4928.5771 L 2202.8542 4890.042 L 2443.532 4943.8755 L 2457.2478 4882.3931 L 2171.0913 4818.3125 L 2101.0679 5130.7769 L 2146.5469 5141.0239 L 2146.5469 5141.0239 Z" fill="#000000"/>
				<path d="M 2716.5833 5219.0483 L 2724.6685 4959.6958 L 2848.5447 4963.5928 L 2850.4216 4900.3784 L 2555.7466 4891.2856 L 2553.8696 4954.5005 L 2677.7456 4958.2529 L 2669.6606 5217.6055 L 2716.5833 5219.0483 L 2716.5833 5219.0483 Z" fill="#000000"/>
				<path d="M 2931.5103 5216.2856 L 2914.7625 5059.2598 L 3110.25 5038.3325 L 3126.9978 5195.3584 L 3172.4768 5190.4512 L 3138.2593 4871.2036 L 3092.7803 4876.1108 L 3103.4641 4975.6953 L 2907.9766 4996.6226 L 2897.2927 4897.0381 L 2851.8137 4901.9448 L 2886.0313 5221.1924 L 2931.5103 5216.2856 L 2931.5103 5216.2856 Z" fill="#000000"/>
				<path d="M 3531.3779 5102.9883 L 3515.3521 5041.5059 L 3274.6743 5103.9985 L 3251.5737 5014.5171 L 3447.9275 4963.5703 L 3431.9016 4902.0874 L 3235.5479 4953.0347 L 3225.5857 4914.4995 L 3465.686 4852.1509 L 3449.6602 4790.6685 L 3164.0808 4864.8516 L 3245.2212 5177.3159 L 3531.3779 5102.9883 L 3531.3779 5102.9883 Z" fill="#000000"/>
				<path d="M 3754.9221 5017.5347 L 3654.4351 4825.438 L 3878.7983 4942.3413 C 3885.7283 4945.8052 3892.0811 4945.8052 3898.1448 4942.6299 C 3903.9199 4939.5991 3907.5295 4934.2593 3908.6846 4926.6099 L 3940.8806 4675.6284 L 4041.3677 4867.7251 L 4082.804 4846.0767 L 3946.3669 4585.1362 C 3941.6025 4576.188 3936.1162 4570.5596 3929.7637 4568.2505 C 3923.4109 4565.9409 3917.636 4566.0854 3912.4382 4568.6831 C 3909.262 4570.415 3906.3745 4572.8687 3903.9199 4576.3325 C 3901.4656 4579.7964 3899.8774 4583.9819 3899.2998 4588.7446 L 3865.3711 4879.8486 L 3606.6462 4741.7295 C 3602.0261 4739.4199 3597.5503 4738.2656 3593.5078 4738.4097 C 3589.4651 4738.5542 3585.8557 4739.4199 3582.5352 4741.1519 C 3577.3374 4743.894 3574.0168 4748.5127 3572.2842 4755.0073 C 3570.696 4761.646 3572.2842 4769.2954 3576.9043 4778.2437 L 3713.3413 5039.1836 L 3754.9221 5017.5347 L 3754.9221 5017.5347 Z" fill="#000000"/>
				<path d="M 4365.3218 4629.3818 L 4326.1953 4578.4351 L 4135.1836 4725.0693 L 4078.5874 4651.4634 L 4234.5156 4531.6733 L 4195.3892 4480.7266 L 4039.4612 4600.5166 L 4013.762 4567.0332 L 4204.3403 4420.6875 L 4165.2144 4369.7407 L 3938.3967 4543.7969 L 4138.0713 4803.7266 L 4365.3218 4629.3818 L 4365.3218 4629.3818 Z" fill="#000000"/>
				<path d="M 4451.7783 4552.2207 L 4287.7651 4401.2568 L 4539.8486 4442.2451 C 4547.645 4443.3994 4553.709 4441.668 4558.1851 4436.7607 C 4562.5161 4432.1421 4563.6714 4425.9365 4561.9385 4418.1426 L 4500.5781 4170.3364 L 4664.5913 4321.3003 L 4695.3438 4287.8169 L 4472.5688 4082.7307 C 4464.917 4075.8032 4457.6978 4072.1951 4450.9121 4071.9065 C 4443.9819 4071.6177 4438.6401 4073.6384 4434.8862 4077.6794 C 4432.4316 4080.2773 4430.6992 4083.5967 4429.6885 4087.4937 C 4428.5337 4091.5347 4428.6777 4096.0088 4429.9775 4100.916 L 4504.6206 4387.4014 L 4212.689 4336.8877 C 4207.3467 4336.0215 4202.8711 4336.166 4198.9731 4337.6094 C 4195.3633 4339.0522 4192.3315 4341.0732 4189.877 4343.6709 C 4186.123 4347.8564 4184.6797 4353.3408 4185.4014 4359.9795 C 4186.4121 4366.7627 4190.7432 4373.6904 4198.251 4380.6182 L 4421.0259 4585.7046 L 4451.7783 4552.2207 L 4451.7783 4552.2207 Z" fill="#000000"/>
				<path d="M 4898.5898 3976.1582 L 4843.582 3940.7983 L 4711.6206 4145.8848 L 4628.0259 4092.0513 L 4735.876 3924.634 L 4680.8682 3889.2744 L 4573.0181 4056.6917 L 4541.2549 4036.3418 L 4673.0718 3831.6885 L 4618.064 3796.3289 L 4461.125 4039.95 L 4741.5068 4220.2124 L 4898.5898 3976.1582 L 4898.5898 3976.1582 Z" fill="#000000"/>
				<path d="M 4762.9824 3493.511 L 4739.5933 3545.3237 L 4917.1777 3751.5647 L 4645.0259 3754.5955 L 4621.6367 3806.2639 L 4963.6675 3799.1919 C 4970.5977 3799.1919 4976.373 3797.7488 4980.8486 3794.8623 C 4985.3242 3791.9756 4988.5005 3788.6563 4990.3774 3784.6152 C 4992.1099 3780.7183 4992.543 3776.0999 4991.6768 3770.9043 C 4990.8105 3765.7085 4988.2119 3760.3684 4983.7363 3754.884 L 4762.9824 3493.511 L 4762.9824 3493.511 Z" fill="#000000"/>
				<path d="M 5153.4824 3303.791 L 5090.5337 3286.1833 L 5024.9863 3519.5571 L 4930.8521 3493.1458 L 4984.416 3302.6365 L 4921.4678 3284.8843 L 4867.9033 3475.3938 L 4828.9214 3464.5693 L 4894.3247 3231.7727 L 4831.376 3214.0208 L 4753.5562 3491.1252 L 5075.5186 3581.4729 L 5153.4824 3303.791 L 5153.4824 3303.791 Z" fill="#000000"/>
				<path d="M 5171.6357 3196.3738 L 5060.7539 3181.9412 L 5067.9727 3126.0874 L 5193.2925 3030.5439 L 5203.832 2948.856 L 5077.5015 3053.2031 L 5082.1216 3017.9878 C 5083.9985 3003.9883 5083.71 2991.865 5080.9668 2981.4734 C 5078.5122 2971.2263 5073.8921 2962.5669 5067.251 2955.6392 C 5060.6094 2948.7117 5052.0913 2943.083 5041.2627 2938.8975 C 5030.7231 2934.8564 5018.3066 2931.8254 5003.8687 2929.8049 L 4971.8169 2925.6196 C 4957.5234 2923.8877 4944.6738 2923.5991 4933.2681 2924.8979 C 4922.1509 2926.1968 4912.3335 2929.3721 4903.9595 2934.2791 C 4895.73 2939.3306 4889.0884 2946.5466 4883.8911 2955.7834 C 4878.9819 2965.1648 4875.5171 2976.855 4873.6401 2990.8545 L 4846.3525 3200.2705 L 5165.7163 3241.8362 L 5171.6357 3196.3738 L 5171.6357 3196.3738 ZM 4914.9321 3162.8904 L 4936.3003 2998.6482 C 4937.7437 2988.4011 4941.0645 2981.1848 4946.2622 2977.1438 C 4951.604 2973.1025 4958.9673 2971.6594 4968.2075 2972.814 L 5002.5693 2977.2881 C 5011.9541 2978.4426 5018.5952 2981.7622 5022.6382 2987.1021 C 5026.6807 2992.4421 5028.1245 3000.2358 5026.6807 3010.4829 L 5005.3125 3174.7251 L 4914.9321 3162.8904 L 4914.9321 3162.8904 Z" fill="#000000"/>
				<path d="M 5203.7231 2688.8477 C 5203.7231 2674.4153 5201.7021 2662.1477 5197.8037 2652.0449 C 5194.0498 2641.9421 5188.4194 2633.8599 5180.7671 2627.7981 C 5173.4038 2621.7366 5164.3081 2617.2625 5153.48 2614.5203 C 5142.7959 2611.7781 5130.2349 2610.4792 5115.9414 2610.4792 L 5077.8257 2610.7678 C 5063.6768 2610.9121 5051.1157 2612.3555 5040.2876 2615.2419 C 5029.6035 2618.1284 5020.5078 2622.7468 5013 2628.9529 C 5005.7813 2635.1587 5000.2949 2643.3853 4996.541 2653.488 C 4992.9316 2663.5908 4991.1992 2675.8584 4991.1992 2690.291 L 4992.21 2829.5649 C 4992.21 2836.9255 4991.1992 2841.9768 4988.8892 2844.5747 C 4986.7236 2847.1726 4982.9697 2848.4714 4977.4834 2848.4714 L 4957.5591 2848.6157 C 4953.3721 2848.7603 4950.3403 2847.4612 4948.1748 2844.8633 C 4946.2979 2842.2656 4945.2871 2837.5027 4945.2871 2830.2866 L 4943.6987 2621.4478 L 4880.4614 2621.8809 L 4882.0498 2829.1318 C 4882.3384 2874.8831 4903.4175 2897.542 4944.9985 2897.2534 L 4986.0015 2896.9648 C 5032.6357 2896.6763 5055.7358 2873.4397 5055.4473 2827.2556 L 5054.4365 2689.5693 C 5054.4365 2679.0337 5056.6025 2671.3845 5060.7891 2666.4773 C 5065.2651 2661.5703 5071.9063 2659.1167 5080.8579 2658.9724 L 5113.4873 2658.6838 C 5122.4385 2658.6838 5129.2241 2661.1372 5133.5557 2665.9001 C 5138.1758 2670.8071 5140.4858 2678.4563 5140.4858 2688.9922 L 5141.9297 2895.8103 L 5205.167 2895.3772 L 5203.7231 2688.8477 L 5203.7231 2688.8477 Z" fill="#000000"/>
				<path d="M 5151.3281 2256.1829 L 5088.6685 2266.1414 L 5126.6396 2506.7314 L 5032.2168 2521.5969 L 5001.1753 2325.3147 L 4938.5156 2335.2732 L 4969.5566 2531.5554 L 4932.5957 2537.3286 L 4894.6245 2297.3157 L 4831.9644 2307.2739 L 4877.1548 2592.7495 L 5196.5186 2542.2356 L 5151.3281 2256.1829 L 5151.3281 2256.1829 Z" fill="#000000"/>
			</g>
			<g>
				<path d="M 1084.2229 1514.6838 C 1096.2062 1496.4989 1104.7245 1480.0458 1109.9221 1465.036 C 1114.9753 1450.1705 1116.7079 1436.6039 1115.264 1424.4806 C 1113.6759 1412.3573 1109.2002 1401.2443 1101.8369 1391.1415 C 1094.3293 1381.183 1084.2229 1371.9462 1071.5176 1363.431 L 1037.1558 1340.6276 C 1024.3062 1332.1124 1011.8896 1326.3394 999.7619 1323.4529 C 987.6342 1320.5664 975.6508 1320.7107 963.9562 1324.0302 C 952.1172 1327.3497 940.4226 1334.2773 928.5836 1344.6687 C 916.7446 1355.2045 904.7613 1369.4927 892.778 1387.6776 L 776.4094 1562.8885 C 770.3456 1572.1254 765.1479 1577.6097 760.6722 1579.3416 C 756.4853 1581.2178 751.5765 1580.3519 746.3788 1576.8881 L 727.1766 1564.0431 C 723.134 1561.4453 721.4015 1557.9814 721.5459 1553.363 C 721.979 1548.8889 725.1553 1542.1057 730.9304 1533.1575 L 905.3388 1270.6299 L 850.9084 1234.4042 L 677.9438 1494.9114 C 639.8281 1552.3528 639.2505 1593.4855 676.2112 1618.0208 L 712.4501 1642.123 C 754.0309 1669.6892 794.0236 1654.535 832.428 1596.5164 L 947.4971 1423.3259 C 956.1598 1410.0481 964.8224 1401.8215 973.1964 1398.5021 C 981.5703 1395.3269 989.9442 1396.4814 998.4625 1401.9658 L 1029.9368 1422.8931 C 1038.3108 1428.666 1042.6421 1435.8823 1042.9308 1444.8304 C 1043.0752 1453.7786 1038.7439 1464.8917 1030.0812 1478.1696 L 857.261 1738.2438 L 911.6914 1774.3251 L 1084.2229 1514.6838 L 1084.2229 1514.6838 Z" fill="#ffffff"/>
				<path d="M 1230.0228 1333.8073 L 1153.0695 1252.6964 L 1336.4293 1078.7845 C 1352.0221 1064.0634 1364.0055 1049.9194 1372.3794 1036.6415 C 1380.6089 1023.3636 1385.3734 1010.8073 1386.8171 998.8283 C 1388.1166 986.8493 1386.384 975.3033 1381.6195 964.1902 C 1376.8551 953.2215 1369.3474 942.2528 1359.0966 931.4284 L 1329.2104 899.9655 C 1318.9596 889.2854 1308.42 881.2032 1297.5917 875.7188 C 1286.7633 870.3788 1275.3575 868.0696 1263.3741 868.7912 C 1251.2463 869.5129 1238.3967 873.6983 1224.8253 881.2032 C 1211.1094 888.8524 1196.3828 900.1098 1180.79 914.831 L 946.6093 1136.9476 L 1179.2019 1382.0118 L 1230.0228 1333.8073 L 1230.0228 1333.8073 ZM 1040.7435 1134.3497 L 1224.3921 960.1491 C 1235.798 949.3247 1245.76 943.1187 1254.4227 941.5312 C 1262.941 940.0879 1270.4486 942.6858 1276.9457 949.4691 L 1306.8318 980.9319 C 1313.3289 987.8596 1315.6389 995.5088 1313.6176 1003.8797 C 1311.5963 1012.3949 1304.8105 1022.0646 1293.4047 1032.889 L 1109.7562 1207.0897 L 1040.7435 1134.3497 L 1040.7435 1134.3497 Z" fill="#ffffff"/>
				<path d="M 1597.9628 1022.8039 L 1399.8765 740.9366 L 1342.2697 781.4921 L 1540.356 1063.3593 L 1597.9628 1022.8039 L 1597.9628 1022.8039 Z" fill="#ffffff"/>
				<path d="M 2030.6565 785.8685 L 2001.3478 727.8497 L 1711.1484 874.1956 C 1696.9994 881.4118 1685.4492 884.2983 1676.7865 883.1437 C 1667.9795 881.9891 1661.3381 876.9377 1657.0067 867.9896 L 1586.2616 727.8497 C 1581.9303 719.0458 1581.7859 710.8193 1585.9729 703.0258 C 1590.3042 695.2322 1599.4 687.8716 1613.5491 680.6553 L 1902.8821 534.7425 L 1873.5735 476.7237 L 1584.6735 622.348 C 1565.0381 632.3064 1549.4453 642.4091 1537.7507 652.8005 C 1526.2004 663.192 1517.9709 674.0164 1513.3508 685.2737 C 1508.7308 696.5311 1507.287 708.3658 1508.5864 720.7778 C 1510.1746 733.1898 1514.3616 746.3234 1521.1472 759.8899 L 1592.4698 901.1843 C 1599.4 914.8953 1607.4852 926.0083 1616.4366 934.5235 C 1625.5323 943.183 1635.9276 948.956 1647.7666 951.8425 C 1659.6056 954.8734 1673.1771 954.729 1688.4811 951.5539 C 1703.7852 948.3787 1721.2549 941.8841 1740.8903 931.9257 L 2030.6565 785.8685 L 2030.6565 785.8685 Z" fill="#ffffff"/>
				<path d="M 2490.5081 671.7896 L 2475.0596 608.4308 L 2114.1152 696.0363 L 2089.4265 594.4313 L 2383.9573 522.8459 L 2368.6531 459.4872 L 2074.1226 531.0725 L 2063.0054 485.4657 L 2422.9392 398.0046 L 2407.6353 334.6458 L 1979.2662 438.7043 L 2061.1284 775.9925 L 2490.5081 671.7896 L 2490.5081 671.7896 Z" fill="#ffffff"/>
				<path d="M 2770.426 661.9496 L 2781.832 495.5425 L 3063.946 515.0265 L 3068.5662 449.6471 L 2786.4519 430.1632 L 2789.7727 380.9483 L 3157.7917 406.3495 L 3162.2673 340.9702 L 2724.6584 310.8062 L 2700.8359 657.1868 L 2770.426 661.9496 L 2770.426 661.9496 Z" fill="#ffffff"/>
				<path d="M 3469.865 787.0505 C 3490.3667 793.4009 3508.5583 796.8647 3524.2954 797.442 C 3539.8884 798.0193 3553.3154 795.8544 3564.4326 791.0917 C 3575.4053 786.0403 3584.6455 778.6797 3592.1531 768.8655 C 3599.5164 758.9071 3605.4358 746.7838 3609.9116 732.3513 L 3655.8237 582.686 C 3660.155 568.2534 3662.032 554.9755 3661.4543 542.5635 C 3660.877 530.2959 3657.2676 519.0385 3650.9148 508.7914 C 3644.4177 498.5443 3634.6001 489.3075 3621.3174 480.9366 C 3608.0347 472.7101 3590.998 465.3495 3570.4963 458.9992 L 3375.0088 399.1042 C 3354.0742 392.7539 3335.8826 389.2901 3320.2898 388.7128 C 3304.697 388.1355 3291.4141 390.3004 3280.4414 395.2074 C 3269.3245 400.1145 3260.0842 407.4751 3252.5767 417.2892 C 3245.0688 427.2477 3239.1494 439.371 3234.8181 453.8035 L 3188.906 603.4688 C 3184.4302 617.9013 3182.5532 631.3236 3183.2751 643.5912 C 3183.8528 656.0032 3187.4622 667.2606 3193.9592 677.5077 C 3200.3118 687.6104 3210.1294 696.8472 3223.2678 705.2181 C 3236.4063 713.4446 3253.4429 720.8052 3274.3777 727.1556 L 3469.865 787.0505 L 3469.865 787.0505 ZM 3303.542 475.5966 C 3306.4294 466.2155 3312.0603 460.1538 3320.4341 457.556 C 3328.8081 454.9581 3340.5027 455.9684 3355.6624 460.5868 L 3552.0161 520.7704 C 3567.0313 525.3889 3577.4265 531.1619 3582.9128 537.9451 C 3588.3992 544.8727 3589.6987 552.955 3586.811 562.3361 L 3541.332 710.5582 C 3538.4446 719.9393 3532.8137 726.001 3524.4399 728.5988 C 3516.0659 731.1967 3504.2271 730.1864 3489.2117 725.568 L 3292.8579 665.3843 C 3277.6982 660.7659 3267.4475 655.1373 3261.9612 648.2097 C 3256.4749 641.4263 3255.1753 633.3441 3258.063 623.8187 L 3303.542 475.5966 L 3303.542 475.5966 Z" fill="#ffffff"/>
				<path d="M 3682.9563 875.0815 L 3742.1511 773.3322 L 3816.0725 816.1968 L 3902.4104 1002.5207 L 4010.5496 1065.4465 L 3912.5168 872.3393 L 3959.1509 899.3281 C 3977.6313 910.1525 3994.5234 917.6575 4009.5388 921.8429 C 4024.5542 925.7397 4038.1257 926.7499 4049.9646 924.7294 C 4061.8035 922.4202 4072.3433 917.3688 4081.7278 909.5753 C 4091.1123 901.6373 4099.6309 891.1016 4107.2822 878.1123 L 4124.1748 849.103 C 4131.6826 835.9694 4136.5913 823.5574 4138.7568 811.434 C 4140.9224 799.4551 4140.0562 787.7647 4136.1582 776.363 C 4132.1157 764.9613 4124.6079 753.7039 4113.6353 742.7352 C 4102.6626 731.7665 4087.7915 720.7978 4069.3113 709.829 L 3791.9614 548.6177 L 3622.6064 839.8661 L 3682.9563 875.0815 L 3682.9563 875.0815 ZM 3820.5483 638.5323 L 4037.9812 764.817 C 4051.5527 772.7549 4060.2153 780.6927 4063.9692 788.4863 C 4067.7231 796.4242 4067.29 804.6508 4062.3811 813.0216 L 4044.334 844.0516 C 4039.2808 852.4224 4032.3506 857.0408 4023.6877 857.6182 C 4015.0251 858.1954 4003.9082 854.443 3990.3367 846.6494 L 3772.9036 720.3648 L 3820.5483 638.5323 L 3820.5483 638.5323 Z" fill="#ffffff"/>
				<path d="M 4347.4561 1381.0763 L 4390.3359 1335.4695 L 4155.8667 1115.3735 C 4144.3164 1104.6934 4137.6748 1095.0237 4135.6538 1086.5084 C 4133.6323 1077.8489 4136.0869 1070.0553 4142.728 1063.1277 L 4247.2578 951.7086 C 4253.8989 944.781 4261.4067 941.8945 4270.0693 943.3378 C 4278.7319 944.781 4288.6943 950.8427 4300.2441 961.5228 L 4533.9922 1180.8972 L 4576.8721 1135.2904 L 4343.4131 916.2046 C 4327.5317 901.3391 4312.6606 890.2261 4299.0894 882.8655 C 4285.5176 875.6492 4272.668 871.6081 4260.8291 871.0308 C 4248.8457 870.4535 4237.4399 872.7627 4226.6118 878.2471 C 4215.7832 883.7314 4205.2437 891.8137 4195.1372 902.6381 L 4090.3191 1014.3458 C 4080.0681 1025.3145 4072.5605 1036.2832 4067.7961 1047.3962 C 4063.0317 1058.5093 4061.2991 1069.911 4062.7429 1081.89 C 4064.1868 1093.5803 4068.9512 1106.1367 4077.1807 1119.2703 C 4085.2659 1132.2595 4097.3936 1146.2592 4113.2749 1161.2689 L 4347.4561 1381.0763 L 4347.4561 1381.0763 Z" fill="#ffffff"/>
				<path d="M 4619.4873 1780.2045 L 4673.9175 1743.6902 L 4465.0029 1432.3806 L 4549.3198 1375.9493 L 4719.6855 1629.9619 L 4774.1157 1593.4475 L 4603.75 1339.4351 L 4647.208 1310.2814 L 4855.5449 1620.8694 L 4909.9756 1584.3551 L 4662.2231 1214.8823 L 4371.1577 1410.0101 L 4619.4873 1780.2045 L 4619.4873 1780.2045 Z" fill="#ffffff"/>
			</g>
		</g>
	</g>
</svg>