<?xml version="1.0" standalone="no"?>
<!-- Generator: Adobe Fireworks 10, Export SVG Extension by Aaron Beall (http://fireworks.abeall.com) . Version: 0.6.1  -->
<!DOCTYPE svg PUBLIC "-//W3C//DTD SVG 1.1//EN" "http://www.w3.org/Graphics/SVG/1.1/DTD/svg11.dtd">
<svg id="token.fw-Page%201" viewBox="0 0 4500 5700" style="background-color:#ffffff00" version="1.1"
	xmlns="http://www.w3.org/2000/svg" xmlns:xlink="http://www.w3.org/1999/xlink" xml:space="preserve"
	x="0px" y="0px" width="4500px" height="5700px"
>
	<g id="Layer%201">
		<path d="M 2264 488 L 4328 1696 L 4296 4104 L 2272 5240 L 184 4040 L 192 1656 L 2264 488 Z" fill="#ffffff"/>
		<path d="M 2243.0156 581.7153 L 4198.5713 1698.4089 L 4198.5713 3973.6733 L 2243.0156 5090.3672 L 315.397 3973.6733 L 315.397 1684.4512 L 2243.0156 581.7153 ZM 50 1544.8638 L 50 4127.2188 L 2215.0791 5383.5 L 2270.9517 5383.5 L 4450 4127.2188 L 4450 1558.8213 L 2298.8882 316.5 L 2201.1099 316.5 L 50 1544.8638 Z" stroke="#000000" stroke-width="54" fill="#000000"/>
		<path d="M 2243.0156 986.5159 L 608.7302 1893.8315 L 608.7302 2619.6821 L 3430.3179 3289.6978 L 3430.3179 3513.0381 L 2243.0156 4197.0112 L 1055.7153 3540.9531 L 1055.7153 3233.8628 L 608.7302 3066.3599 L 608.7302 3750.3335 L 2243.0156 4685.5669 L 3877.3008 3764.2935 L 3877.3008 3024.4829 L 1069.6824 2354.4668 L 1069.6824 2145.0869 L 2243.0156 1461.1111 L 3458.2539 2131.127 L 3458.2539 2424.2598 L 3891.27 2605.7222 L 3891.27 1907.7891 L 2243.0156 986.5159 Z" stroke="#221f20" stroke-width="54" fill="#ed1e26"/>
	</g>
</svg>