<?xml version="1.0" standalone="no"?>
<!-- Generator: Adobe Fireworks 10, Export SVG Extension by Aaron Beall (http://fireworks.abeall.com) . Version: 0.6.1  -->
<!DOCTYPE svg PUBLIC "-//W3C//DTD SVG 1.1//EN" "http://www.w3.org/Graphics/SVG/1.1/DTD/svg11.dtd">
<svg id="token_w_pepper.fw-Page%201" viewBox="0 0 4500 5700" style="background-color:#ffffff00" version="1.1"
	xmlns="http://www.w3.org/2000/svg" xmlns:xlink="http://www.w3.org/1999/xlink" xml:space="preserve"
	x="0px" y="0px" width="4500px" height="5700px"
>
	<g id="Layer%201">
		<path d="M 2296 432 L 4288 1648 L 4312 4008 L 2280 5216 L 136 4088 L 200 1616 L 2296 432 Z" fill="#ffffff"/>
		<g>
			<path d="M 2243.0205 581.7148 L 4197.2427 1698.4092 L 4197.2427 3973.6733 L 2243.0205 5090.3677 L 316.7158 3973.6733 L 316.7158 1684.4502 L 2243.0205 581.7148 ZM 51.5 1544.8638 L 51.5 4127.2188 L 2215.103 5383.5 L 2270.938 5383.5 L 4448.5 4127.2188 L 4448.5 1558.8223 L 2298.8555 316.5 L 2201.1445 316.5 L 51.5 1544.8638 Z" stroke="#000000" stroke-width="56" fill="#000000"/>
			<path d="M 2243.0205 986.5166 L 609.8491 1893.8306 L 609.8491 2619.6816 L 3429.5127 3289.6982 L 3429.5127 3513.0371 L 2243.0205 4197.0122 L 1056.5286 3540.9541 L 1056.5286 3233.8633 L 609.8491 3066.3594 L 609.8491 3750.335 L 2243.0205 4685.5659 L 3876.1919 3764.293 L 3876.1919 3024.4834 L 1070.4873 2354.4668 L 1070.4873 2145.0869 L 2243.0205 1461.1116 L 3457.4302 2131.1279 L 3457.4302 2424.2603 L 3890.1504 2605.7231 L 3890.1504 1907.7891 L 2243.0205 986.5166 Z" stroke="#221f20" stroke-width="56" fill="#ed1e26"/>
			<g>
				<path d="M 2284.8965 665.4668 C 2284.8965 665.4668 2358.1802 578.2251 2480.3193 623.5908 C 2602.458 668.9565 2647.8237 986.5166 2647.8237 986.5166 C 2647.8237 986.5166 2654.8027 1042.3511 2647.8237 1181.938 C 2647.8237 1181.938 2766.4727 1154.0205 2843.2461 1181.938 C 2843.2461 1181.938 2749.0244 1209.8555 2731.5762 1237.7727 C 2731.5762 1237.7727 2913.0396 1223.814 2996.792 1265.6899 C 3080.5444 1307.5662 3131.7266 1298.2603 3131.7266 1298.2603 C 3131.7266 1298.2603 2978.1807 1557.6592 2978.1807 1547.1899 C 2978.1807 1536.7209 2940.957 1572.781 2940.957 1572.781 L 3052.627 1586.7397 C 3052.627 1586.7397 3056.1167 1621.6362 2996.792 1670.4917 L 2926.998 1670.4917 C 2926.998 1670.4917 2982.833 1865.9131 2982.833 1963.624 C 2982.833 1963.624 3024.7095 1977.5825 3024.7095 1768.2021 C 3024.7095 1768.2021 3101.4824 1813.5684 3080.5444 1963.624 C 3080.5444 1963.624 3031.6885 2057.8447 3052.627 2089.252 C 3073.5649 2120.6592 3136.3794 2033.4175 3136.3794 2033.4175 C 3136.3794 2033.4175 3159.644 1898.4834 3108.4619 1735.6323 C 3108.4619 1735.6323 3024.7095 1349.4421 3289.9253 1140.062 C 3289.9253 1140.062 3153.8276 1370.3801 3248.0488 1433.1943 C 3342.2705 1496.0083 3317.8428 1251.7314 3317.8428 1251.7314 C 3317.8428 1251.7314 3286.4355 1003.9648 3443.4717 916.7231 C 3443.4717 916.7231 3359.7188 1119.124 3457.4302 1321.5249 C 3457.4302 1321.5249 3558.6309 1649.5537 3415.5537 1851.9546 C 3272.4766 2054.3555 3206.1729 2075.2935 3150.3379 2242.7974 C 3094.5029 2410.3018 3192.2139 2382.3843 3192.2139 2382.3843 C 3192.2139 2382.3843 3251.5391 2361.4463 3275.9668 2242.7974 C 3275.9668 2242.7974 3248.0488 2148.5762 3359.7188 2061.335 C 3359.7188 2061.335 3296.9048 2169.5146 3317.8428 2326.5498 C 3338.7808 2483.585 3150.3379 2689.4751 3150.3379 2689.4751 C 3150.3379 2689.4751 3077.0547 2745.3096 3024.7095 2773.2275 C 3024.7095 2773.2275 2996.792 2944.2207 2940.957 2996.5659 C 2940.957 2996.5659 2923.5088 3317.6157 2787.4111 3638.665 C 2651.3135 3959.7148 2354.6904 4224.9297 2354.6904 4224.9297 C 2354.6904 4224.9297 2103.4336 4444.7788 1782.3823 4587.8555 C 1531.5266 4699.6489 1357.3699 4611.1743 1293.2058 4567.1416 C 1275.2515 4554.8203 1267.6543 4505.8481 1268.644 4493.8667 C 1273.5896 4434 1289.6147 4338.5068 1335.7031 4294.7231 C 1335.7031 4294.7231 1381.0688 4193.5225 1559.043 4001.5908 C 1559.043 4001.5908 1660.2437 3851.5352 1684.6714 3513.0371 L 1684.6714 3219.9048 C 1684.6714 3219.9048 1593.9397 3171.0498 1573.0015 3080.3184 C 1552.0635 2989.5869 1586.9604 2954.6899 1586.9604 2954.6899 C 1586.9604 2954.6899 1618.3674 2898.8555 1754.4651 2856.9795 C 1754.4651 2856.9795 1674.2024 2808.124 1628.8364 2647.5991 C 1628.8364 2647.5991 1541.5942 2508.0127 1559.043 2410.3018 C 1559.043 2410.3018 1335.7031 2260.2461 1475.2905 1977.5825 C 1475.2905 1977.5825 1538.1047 1848.4648 1656.7539 1796.1196 C 1656.7539 1796.1196 1635.8159 1642.5742 1698.6301 1530.9048 C 1761.4443 1419.2354 1810.2998 1391.3181 1810.2998 1391.3181 C 1810.2998 1391.3181 1883.5833 1338.9731 1908.0112 1335.4834 L 1977.8047 1377.3594 L 2117.3921 1377.3594 C 2117.3921 1377.3594 2072.0264 1297.0972 1866.1348 1279.6487 C 1866.1348 1279.6487 1796.3413 1223.814 2103.4336 1209.8555 C 2103.4336 1209.8555 1848.6865 1045.8408 1991.7634 805.0537 C 1991.7634 805.0537 2082.4951 1000.4751 2424.4844 1084.2273 C 2424.4844 1084.2273 2494.2773 1101.6755 2591.9888 1154.0205 C 2591.9888 1154.0205 2595.4785 885.3162 2284.8965 665.4668 Z" stroke="#000000" stroke-width="28" fill="#221f20"/>
				<path d="M 1345.0088 4401.7393 C 1368.7832 4351.2192 1568.3486 4103.9546 1568.3486 4103.9546 C 1661.4067 4020.2026 1768.4238 3829.4341 1768.4238 3829.4341 L 1647.448 3927.1445 C 1745.1592 3782.9043 1754.4651 3275.7393 1754.4651 3275.7393 C 2089.4746 3373.4502 2061.5571 3289.6982 2061.5571 3289.6982 C 2061.5571 3289.6982 1798.6677 3296.6777 1656.7539 3108.2354 C 1656.7539 3108.2354 1556.7163 2954.6899 1768.4238 2912.814 L 1782.3823 2982.6074 L 1782.3823 2996.5659 L 1726.5476 2996.5659 L 1740.5063 3024.4834 C 1740.5063 3024.4834 1931.2756 3257.1279 2368.6494 3191.9873 C 2806.0225 3126.8467 2806.0225 2898.8555 2871.1631 2829.062 L 2954.916 2815.1035 C 2954.916 2815.1035 2838.5933 3136.1528 2591.9888 3233.8633 C 2591.9888 3233.8633 2647.8237 3280.3926 2871.1631 3108.2354 C 2871.1631 3108.2354 2736.2285 3685.1943 2591.9888 3834.0869 C 2591.9888 3834.0869 2424.4844 4103.9546 1991.7634 4392.4336 C 1991.7634 4392.4336 1605.572 4652.9956 1358.9675 4541.3262 C 1358.9675 4541.3262 1307.7856 4480.8384 1345.0088 4401.7393 Z" stroke="#ed1e26" stroke-width="14" fill="#ca151f"/>
				<path d="M 2668.7617 3286.2085 C 2668.7617 3286.2085 2511.7261 3401.3677 2326.7729 3401.3677 C 2141.8198 3401.3677 1880.0938 3369.9609 1880.0938 3369.9609 L 1866.1348 3387.4092 C 1866.1348 3387.4092 1887.073 3774.7622 1838.2173 3848.0454 C 1789.3618 3921.3281 1723.0579 4036.4873 1461.3315 4322.6406 C 1422.9453 4381.9648 1419.4231 4438.1465 1486.4082 4468.2393 C 1667.2231 4549.4688 2355.8184 3976.2114 2417.5049 3896.9004 C 2490.7881 3802.6797 2672.2515 3596.7891 2668.7617 3286.2085 Z" fill="#ed1e26"/>
				<path d="M 1991.7634 3485.1196 C 1991.7634 3485.1196 2110.4126 3383.9194 2187.1855 3526.9961 C 2187.1855 3526.9961 2208.124 3607.2578 2075.5156 3834.0869 C 1942.9077 4060.915 1642.7952 4409.8823 1573.0015 4364.5166 C 1503.208 4319.1504 1633.4893 4192.3594 1633.4893 4192.3594 L 1880.0938 3875.9629 C 1880.0938 3875.9629 1991.7634 3729.3965 1977.8047 3666.5825 L 1991.7634 3485.1196 Z" stroke="#ffffff00" stroke-width="14" fill="#f79274"/>
				<path d="M 2382.6079 3191.9873 C 2382.6079 3191.9873 2476.8291 3202.4565 2550.1123 3205.9463 C 2623.396 3209.4355 2431.4634 3272.25 2431.4634 3272.25 C 2431.4634 3272.25 2089.4746 3321.1055 1908.0112 3261.7813 C 1726.5476 3202.4565 1740.5063 3122.1943 1740.5063 3122.1943 C 1740.5063 3122.1943 1750.9753 3083.8076 1782.3823 3094.2769 C 1813.7896 3104.7461 1852.1763 3122.1943 1852.1763 3122.1943 C 1852.1763 3122.1943 1988.2739 3178.0288 2019.6809 3178.0288 C 2051.0879 3178.0288 2141.8198 3223.3945 2382.6079 3191.9873 Z" stroke="#ffffff00" stroke-width="14" fill="#ed1d25"/>
				<path d="M 2215.103 3247.8223 C 2215.103 3247.8223 2222.0825 3282.7188 2103.4336 3275.7393 C 1984.7842 3268.7603 1908.0112 3205.9463 1908.0112 3205.9463 C 1908.0112 3205.9463 1859.1555 3160.5806 1949.8872 3164.0703 C 1949.8872 3164.0703 2016.1912 3219.9048 2187.1855 3233.8633 C 2242.8604 3238.4082 2215.103 3247.8223 2215.103 3247.8223 Z" stroke="#ffffff00" stroke-width="14" fill="#f49678"/>
				<path d="M 1921.9697 2898.8555 L 1894.0522 2884.8965 L 1815.5344 2930.2622 C 1810.2998 3034.9521 1838.2173 3024.4834 1838.2173 3024.4834 L 1846.9417 3010.5244 L 1852.1763 3010.5244 L 1852.1763 3038.4424 C 1867.8799 3120.4492 2047.5984 3136.1528 2047.5984 3136.1528 L 2061.5571 3122.1943 L 2061.5571 3066.3594 L 2065.0469 3043.6768 L 2068.5366 3040.187 L 2080.7505 3130.918 C 2213.3584 3204.2012 2368.6494 3150.1113 2368.6494 3150.1113 L 2380.8633 3118.7041 L 2391.332 3082.063 L 2396.5664 3080.3184 L 2396.5664 3136.1528 C 2544.8779 3134.4082 2605.9473 3066.3594 2605.9473 3066.3594 L 2609.4375 3020.9937 L 2619.9063 3014.0146 L 2633.8652 3038.4424 C 2694.9346 3024.4834 2787.4111 2912.814 2787.4111 2912.814 L 2759.4937 2884.8965 C 2759.4937 2884.8965 2370.394 3083.8076 1894.0522 2926.7725 L 1921.9697 2898.8555 Z" stroke="#000000" stroke-width="14" fill="#ffffff"/>
				<path d="M 2801.3701 2549.8887 C 2801.3701 2549.8887 2790.9004 2788.9307 2243.0205 2884.8965 C 2243.0205 2884.8965 1878.3486 2918.0488 1726.5476 2787.1855 L 1684.6714 2703.4336 L 1712.5889 2661.5576 C 1712.5889 2661.5576 1773.6582 2731.3511 1810.2998 2731.3511 L 1810.2998 2773.2275 L 1824.2588 2759.2686 L 1824.2588 2731.3511 C 1824.2588 2731.3511 1862.645 2773.2275 2019.6809 2787.1855 L 2047.5984 2815.1035 L 2047.5984 2829.062 L 2061.5571 2801.1445 L 2075.5156 2787.1855 C 2075.5156 2787.1855 2263.959 2806.3789 2396.5664 2759.2686 L 2410.5254 2787.1855 L 2424.4844 2773.2275 L 2424.4844 2745.3096 C 2424.4844 2745.3096 2600.7129 2659.813 2661.7822 2591.7646 L 2675.7412 2647.5991 L 2675.7412 2591.7646 L 2675.7412 2563.8467 C 2675.7412 2563.8467 2762.9834 2504.5225 2773.4521 2424.2603 L 2801.3701 2438.2188 L 2801.3701 2549.8887 Z" stroke="#000000" stroke-width="14" fill="#fdfdfd"/>
				<path d="M 1656.7539 2480.0947 C 1656.7539 2480.0947 1635.8159 2473.1157 1642.7952 2494.0537 C 1649.7744 2514.9917 1742.833 2561.5205 1712.5889 2563.8467 C 1682.3447 2566.1738 1614.8777 2521.9707 1614.8777 2521.9707 C 1614.8777 2521.9707 1798.6677 2831.3887 2326.7729 2717.3926 C 2326.7729 2717.3926 2605.9473 2652.252 2780.4316 2326.5498 L 2782.7583 2235.8184 L 2752.5142 2224.186 L 2740.8818 2238.1445 C 2740.8818 2238.1445 2745.5352 2287 2703.6587 2396.3428 C 2661.7822 2505.6855 2354.6904 2633.6406 2354.6904 2633.6406 L 2298.8555 2633.6406 L 2396.5664 2549.8887 C 2396.5664 2549.8887 2224.4092 2524.2979 2173.2266 2452.1777 C 2173.2266 2452.1777 2089.4746 2559.1943 1894.0522 2535.9297 C 1894.0522 2535.9297 1796.3413 2554.541 1656.7539 2480.0947 Z" stroke="#ed1e26" stroke-width="14" fill="#ca151f"/>
				<path d="M 2089.4746 2549.8887 C 2089.4746 2549.8887 2173.2266 2492.3086 2243.0205 2549.8887 C 2243.0205 2549.8887 2279.6621 2584.7852 2201.1445 2633.6406 C 2201.1445 2633.6406 2187.1855 2652.8335 2326.7729 2647.5991 L 2382.6079 2633.6406 L 2368.6494 2661.5576 C 2368.6494 2661.5576 2326.7729 2696.4546 2117.3921 2717.3926 C 1908.0112 2738.3306 1796.3413 2647.5991 1796.3413 2647.5991 C 1796.3413 2647.5991 1778.8928 2628.4063 1796.3413 2619.6816 C 1796.3413 2619.6816 1784.1274 2598.7437 1880.0938 2605.7231 L 1862.645 2563.8467 C 1862.645 2563.8467 2000.4878 2572.5713 2089.4746 2549.8887 Z" fill="#ed1e26"/>
				<path d="M 2117.3921 2633.6406 C 2117.3921 2633.6406 2033.6396 2647.5991 2005.7222 2633.6406 C 1977.8047 2619.6816 2005.7222 2591.7646 2005.7222 2591.7646 C 2005.7222 2591.7646 2054.5776 2552.2148 2131.3506 2605.7231 C 2131.3506 2605.7231 2140.6567 2622.0083 2117.3921 2633.6406 Z" stroke="#ffffff00" stroke-width="14" fill="#f79274"/>
				<path d="M 2243.0205 2047.376 C 2243.0205 2047.376 2049.9248 1661.186 1712.5889 1837.9961 C 1375.2529 2014.8057 1545.084 2298.6323 1545.084 2298.6323 C 1545.084 2298.6323 1673.0391 2496.3799 1908.0112 2494.0537 C 2142.9829 2491.7271 2145.3096 2396.3428 2145.3096 2396.3428 L 2131.3506 2368.4258 C 2131.3506 2368.4258 2045.272 2517.3184 1796.3413 2410.3018 C 1796.3413 2410.3018 1591.6133 2321.8965 1740.5063 2075.2935 C 1740.5063 2075.2935 1807.9734 2000.8467 1921.9697 1977.5825 C 2035.9663 1954.3184 2173.2266 2103.2109 2173.2266 2103.2109 L 2243.0205 2047.376 Z" stroke="#000000" stroke-width="14" fill="#ffffff"/>
				<path d="M 2159.2686 2159.0454 C 2159.2686 2159.0454 2117.3921 2214.8799 2117.3921 2298.6323 C 2117.3921 2382.3843 1949.8872 2396.3428 1949.8872 2396.3428 C 1949.8872 2396.3428 1807.9734 2407.9751 1740.5063 2298.6323 C 1673.0391 2189.2891 1782.3823 2061.335 1782.3823 2061.335 C 1782.3823 2061.335 1873.1143 1977.5825 1991.7634 2019.4585 C 2110.4126 2061.335 2154.6152 2112.5166 2159.2686 2159.0454 Z" stroke="#000000" stroke-width="14" fill="#ffff04"/>
				<path d="M 2089.4746 2284.6733 C 2089.4746 2284.6733 2052.2512 2370.752 1894.0522 2368.4258 C 1894.0522 2368.4258 1796.3413 2345.1611 1782.3823 2298.6323 C 1768.4238 2252.1035 1838.2173 2270.7148 1838.2173 2270.7148 C 1838.2173 2270.7148 1849.8496 2326.5498 1908.0112 2326.5498 C 1966.1724 2326.5498 2038.2925 2307.938 2061.5571 2284.6733 C 2084.8218 2261.4092 2089.4746 2284.6733 2089.4746 2284.6733 Z" stroke="#ffffff00" stroke-width="14" fill="#fcda00"/>
				<path d="M 1782.3823 2117.1694 C 1782.3823 2117.1694 1705.6094 2210.2275 1782.3823 2312.5908 L 1838.2173 2270.7148 C 1838.2173 2270.7148 1824.2588 2189.2891 1838.2173 2159.0454 C 1852.1763 2128.8018 1782.3823 2117.1694 1782.3823 2117.1694 Z" stroke="#ffffff00" stroke-width="14" fill="#fdc50d"/>
				<path d="M 1838.2173 2173.0039 L 1771.9136 2138.1074 C 1771.9136 2138.1074 1796.3413 2038.0703 1921.9697 2047.376 C 2047.5984 2056.6816 2098.7803 2121.8223 2108.0859 2119.4961 C 2117.3921 2117.1694 2077.8423 2161.3721 2077.8423 2161.3721 C 2077.8423 2161.3721 2001.0693 2059.0083 1908.0112 2117.1694 C 1814.9526 2175.3306 1838.2173 2173.0039 1838.2173 2173.0039 Z" fill="#eaa319"/>
				<path d="M 1810.2998 2089.252 L 1810.2998 2103.2109 L 1838.2173 2117.1694 L 1866.1348 2103.2109 L 1894.0522 2089.252 L 1908.0112 2061.335 L 1894.0522 2047.376 L 1866.1348 2033.4175 L 1838.2173 2047.376 L 1824.2588 2061.335 L 1810.2998 2089.252 Z" fill="#ffff92"/>
				<path d="M 1991.7634 2298.6323 L 2019.6809 2298.6323 L 2033.6396 2312.5908 L 2019.6809 2340.5083 L 1991.7634 2354.4668 L 1963.8459 2354.4668 L 1935.9285 2354.4668 L 1935.9285 2340.5083 L 1949.8872 2326.5498 L 1963.8459 2312.5908 L 1991.7634 2298.6323 Z" fill="#fdf583"/>
				<path d="M 1866.1348 2200.9214 C 1866.1348 2200.9214 1919.6433 2107.8633 1991.7634 2131.1279 C 2063.8838 2154.3926 2047.5984 2214.8799 2047.5984 2214.8799 C 2047.5984 2214.8799 2052.2512 2263.7354 2005.7222 2284.6733 C 1959.1931 2305.6113 1894.0522 2284.6733 1894.0522 2284.6733 C 1894.0522 2284.6733 1877.7671 2270.7148 1866.1348 2256.7559 C 1854.5027 2242.7974 1866.1348 2200.9214 1866.1348 2200.9214 Z" stroke="#000000" stroke-width="14" fill="#221f20"/>
				<path d="M 2201.1445 1879.8721 C 2201.1445 1879.8721 2072.0264 1743.7749 1894.0522 1726.3264 C 1894.0522 1726.3264 1750.9753 1733.3057 1712.5889 1768.2021 C 1712.5889 1768.2021 1702.1196 1600.6982 1740.5063 1558.8223 C 1740.5063 1558.8223 1789.3618 1482.0496 1880.0938 1489.0288 C 1970.8252 1496.0083 2117.3921 1726.3264 2117.3921 1726.3264 C 2117.3921 1726.3264 2155.7783 1778.6714 2201.1445 1782.1611 C 2246.5103 1785.6509 2284.8965 1740.2852 2284.8965 1740.2852 C 2284.8965 1740.2852 2337.2422 1656.533 2326.7729 1544.8638 L 2243.0205 1600.6982 C 2243.0205 1600.6982 2127.8613 1468.0908 2075.5156 1447.1528 C 2023.1704 1426.2148 2145.3096 1433.1943 2145.3096 1433.1943 C 2145.3096 1433.1943 2236.041 1443.6631 2256.9795 1475.0703 C 2256.9795 1475.0703 2302.3452 1475.0703 2201.1445 1405.2769 C 2201.1445 1405.2769 2553.6025 1321.5249 2675.7412 1433.1943 C 2797.8799 1544.8638 2853.7148 1663.5122 2857.2046 1698.4092 C 2857.2046 1698.4092 2920.019 1792.6299 2940.957 2005.5 C 2940.957 2005.5 2794.3906 2110.1899 2787.4111 2173.0039 L 2745.5352 2173.0039 C 2745.5352 2173.0039 2745.5352 2117.1694 2703.6587 2061.335 C 2661.7822 2005.5 2843.2461 2005.5 2843.2461 2005.5 C 2843.2461 2005.5 2892.1016 2026.438 2885.1221 2033.4175 C 2885.1221 2033.4175 2899.0811 1960.1343 2731.5762 1963.624 C 2731.5762 1963.624 2689.7002 1960.1343 2647.8237 2005.5 C 2647.8237 2005.5 2585.0098 1967.1138 2536.1538 1977.5825 C 2536.1538 1977.5825 2717.6172 1824.0371 2717.6172 1768.2021 C 2717.6172 1712.3677 2846.7354 1921.748 2843.2461 1949.665 C 2843.2461 1949.665 2878.1426 1939.1963 2843.2461 1768.2021 C 2808.3491 1597.2085 2647.8237 1544.8638 2647.8237 1544.8638 L 2647.8237 1572.781 C 2647.8237 1572.781 2459.3809 1548.3533 2410.5254 1656.533 C 2410.5254 1656.533 2560.582 1590.2292 2619.9063 1628.6157 C 2619.9063 1628.6157 2536.1538 1764.7129 2424.4844 1796.1196 C 2424.4844 1796.1196 2403.5459 1824.0371 2354.6904 1754.2437 C 2354.6904 1754.2437 2239.5313 1897.3203 2312.8145 1977.5825 L 2312.8145 2005.5 C 2312.8145 2005.5 2236.041 1963.624 2256.9795 1879.8721 C 2256.9795 1879.8721 2253.4893 1831.0166 2312.8145 1754.2437 C 2312.8145 1754.2437 2215.103 1806.5889 2201.1445 1879.8721 Z" stroke="#ed1e26" stroke-width="14" fill="#ca151f"/>
				<path d="M 2197.6548 2197.4316 C 2197.6548 2197.4316 2256.9795 2047.376 2410.5254 2019.4585 C 2564.0713 1991.541 2647.8237 2103.2109 2647.8237 2103.2109 C 2647.8237 2103.2109 2745.5352 2204.4111 2654.8027 2340.5083 C 2594.5156 2430.9395 2616.4165 2445.1982 2410.5254 2494.0537 C 2410.5254 2494.0537 2236.041 2483.585 2201.1445 2382.3843 C 2185.2441 2336.2749 2177.4849 2300.1533 2176.7168 2270.7148 C 2175.7988 2235.5415 2197.6548 2197.4316 2197.6548 2197.4316 Z" stroke="#000000" stroke-width="14" fill="#ffffff"/>
				<path d="M 2284.8965 2186.9629 C 2284.8965 2186.9629 2351.2007 2099.7212 2431.4634 2096.2314 C 2511.7261 2092.7417 2578.0303 2145.0869 2578.0303 2145.0869 C 2578.0303 2145.0869 2651.3135 2221.8594 2619.9063 2312.5908 C 2588.499 2403.3223 2515.2158 2427.75 2508.2363 2424.2603 C 2501.2568 2420.7705 2389.5869 2476.6055 2312.8145 2396.3428 C 2236.041 2316.0806 2260.4688 2253.2666 2260.4688 2253.2666 C 2260.4688 2253.2666 2274.4277 2193.9424 2284.8965 2186.9629 Z" stroke="#000000" stroke-width="14" fill="#221f20"/>
				<path d="M 2591.9888 2298.6323 C 2591.9888 2298.6323 2501.2568 2399.8325 2382.6079 2382.3843 C 2382.6079 2382.3843 2295.3657 2347.4873 2284.8965 2284.6733 C 2274.4277 2221.8594 2326.7729 2186.9629 2326.7729 2186.9629 C 2326.7729 2186.9629 2337.2422 2138.1074 2438.4429 2117.1694 C 2539.6436 2096.2314 2605.9473 2214.8799 2605.9473 2214.8799 C 2605.9473 2214.8799 2616.4165 2277.6943 2591.9888 2298.6323 Z" stroke="#000000" stroke-width="14" fill="#ffff04"/>
				<path d="M 2571.0508 2284.6733 C 2571.0508 2284.6733 2535.9966 2355.9868 2419.8506 2354.436 C 2419.8506 2354.436 2344.0005 2345.9326 2333.752 2314.9175 C 2323.5039 2283.9028 2368.6494 2287 2368.6494 2287 C 2368.6494 2287 2387.3984 2326.5225 2430.0986 2326.5225 C 2472.7998 2326.5225 2523.7266 2295.5283 2540.8066 2280.0205 C 2557.8867 2264.5132 2571.0508 2284.6733 2571.0508 2284.6733 Z" stroke="#ffffff00" stroke-width="14" fill="#fcda00"/>
				<path d="M 2337.8652 2186.9551 C 2337.8652 2186.9551 2277.3877 2249.0107 2333.752 2317.2437 L 2370.9756 2291.6528 C 2370.9756 2291.6528 2368.6094 2235.0283 2378.8579 2214.8687 C 2389.1064 2194.7085 2337.8652 2186.9551 2337.8652 2186.9551 Z" stroke="#ffffff00" stroke-width="14" fill="#fdc50d"/>
				<path d="M 2375.6284 2224.186 L 2330.1792 2200.9121 C 2330.1792 2200.9121 2348.1133 2134.2295 2440.3467 2140.4326 C 2532.5806 2146.6353 2557.2393 2193.1665 2564.0713 2191.6157 C 2570.9033 2190.0649 2538.4805 2224.186 2538.4805 2224.186 C 2538.4805 2224.186 2483.4995 2143.541 2415.1782 2182.3101 C 2346.8569 2221.0786 2375.6284 2224.186 2375.6284 2224.186 Z" fill="#eaa319"/>
				<path d="M 2358.3613 2168.3462 L 2358.3613 2177.6504 L 2378.8579 2186.9551 L 2399.3545 2177.6504 L 2419.8506 2168.3462 L 2430.0986 2149.7368 L 2419.8506 2140.4326 L 2399.3545 2131.1279 L 2378.8579 2140.4326 L 2368.6094 2149.7368 L 2358.3613 2168.3462 Z" fill="#ffff92"/>
				<path d="M 2491.5879 2307.9131 L 2512.084 2307.9131 L 2522.332 2317.2183 L 2512.084 2335.8271 L 2491.5879 2345.1318 L 2471.0918 2345.1318 L 2450.5952 2345.1318 L 2450.5952 2335.8271 L 2460.8433 2326.5225 L 2471.0918 2317.2183 L 2491.5879 2307.9131 Z" fill="#fdf583"/>
				<path d="M 2382.6079 2270.7148 C 2382.6079 2270.7148 2396.5664 2152.0659 2480.3193 2200.9214 C 2564.0713 2249.7769 2466.3604 2298.6323 2466.3604 2298.6323 C 2466.3604 2298.6323 2414.0146 2330.0391 2382.6079 2270.7148 Z" stroke="#000000" stroke-width="14" fill="#221f20"/>
				<path d="M 2619.9063 2787.1855 C 2619.9063 2787.1855 2778.1055 2740.6572 2857.2046 2535.9297 C 2857.2046 2535.9297 2860.585 2493.9839 2850.2256 2433.8569 C 2845.1885 2404.6221 2844.4922 2369.7217 2832.7769 2350.9771 C 2832.7769 2350.9771 2819.9814 2154.3926 2899.0811 2117.1694 C 2978.1807 2079.9463 3010.751 2005.5 3010.751 2005.5 C 3010.751 2005.5 2959.5684 2131.1279 3024.7095 2173.0039 C 3089.8506 2214.8799 3136.3794 2103.2109 3136.3794 2103.2109 C 3136.3794 2103.2109 3206.1729 2052.0293 3178.2554 1810.0786 C 3178.2554 1810.0786 3178.2554 1763.5498 3150.3379 1656.533 C 3122.4209 1549.5166 3141.0322 1498.3345 3178.2554 1391.3181 C 3178.2554 1391.3181 3173.6025 1521.5991 3275.9668 1516.9463 C 3378.3311 1512.2935 3373.6777 1377.3594 3373.6777 1377.3594 L 3373.6777 1265.6899 C 3373.6777 1265.6899 3443.4717 1470.4172 3429.5127 1558.8223 C 3429.5127 1558.8223 3476.0415 1675.1445 3275.9668 1935.7065 C 3075.8916 2196.2686 3066.5859 2256.7559 3066.5859 2256.7559 C 3066.5859 2256.7559 3045.6475 2396.3428 3108.4619 2426.5869 C 3108.4619 2426.5869 3164.2969 2484.748 3248.0488 2410.3018 C 3248.0488 2410.3018 3196.8667 2615.0293 3010.751 2689.4751 C 3010.751 2689.4751 2829.2871 2805.7974 2619.9063 2787.1855 Z" stroke="#ffdd00" stroke-width="14" fill="#fdc30d"/>
				<path d="M 2843.2461 2689.4751 C 2843.2461 2689.4751 2906.0605 2668.5371 2899.0811 2591.7646 C 2892.1016 2514.9917 2871.1631 2480.0947 2871.1631 2480.0947 C 2871.1631 2480.0947 2863.1411 2354.1992 2871.1631 2284.6733 C 2881.6328 2193.9424 2933.9775 2159.0454 2950.2627 2149.7393 C 2950.2627 2149.7393 2947.9365 2214.8799 2964.2217 2233.4917 C 2980.5068 2252.103 3034.0156 2238.1445 3034.0156 2238.1445 C 3034.0156 2238.1445 2987.4863 2361.4463 3052.627 2424.2603 C 3052.627 2424.2603 3061.9326 2477.7686 3150.3379 2494.0537 C 3150.3379 2494.0537 3148.0117 2573.1528 2982.833 2675.5166 C 2982.833 2675.5166 2875.8164 2717.3926 2843.2461 2689.4751 Z" fill="#ffde00"/>
				<path d="M 3262.0078 1893.8306 C 3262.0078 1893.8306 3352.7393 1765.876 3373.6777 1684.4502 C 3394.6157 1603.0249 3407.9932 1557.6592 3389.3813 1478.5601 C 3389.3813 1478.5601 3373.6777 1523.9255 3262.0078 1558.8223 C 3262.0078 1558.8223 3187.5615 1547.7717 3171.2764 1494.2634 C 3171.2764 1494.2634 3177.3467 1649.3096 3192.2139 1684.4502 C 3217.8057 1744.938 3215.1226 1765.4971 3213.1523 1789.1406 C 3211.4072 1810.0786 3206.1729 1851.9546 3206.1729 1949.665 C 3206.1729 1949.665 3236.417 1938.0327 3262.0078 1893.8306 Z" stroke="#ffffff00" stroke-width="14" fill="#ffde00"/>
				<path d="M 3206.1729 1586.7397 C 3206.1729 1586.7397 3273.6401 1649.5537 3359.7188 1586.7397 C 3359.7188 1586.7397 3315.5166 1761.2231 3275.9668 1796.1196 C 3275.9668 1796.1196 3196.8672 1668.1653 3206.1729 1586.7397 Z" stroke="#fdd866" stroke-width="14" fill="#fff686"/>
				<path d="M 2926.998 2284.6733 C 2926.998 2284.6733 2938.6309 2321.8965 2996.792 2326.5498 C 2996.792 2326.5498 2982.833 2494.0537 3094.5029 2535.9297 C 3094.5029 2535.9297 3043.3213 2622.0083 2940.957 2661.5576 L 2926.998 2284.6733 Z" stroke="#fdd866" stroke-width="14" fill="#fff686"/>
				<path d="M 1545.084 2117.1694 C 1545.084 2117.1694 1559.043 2270.7148 1642.7952 2298.6323 C 1642.7952 2298.6323 1684.6714 2356.7935 1740.5063 2410.3018 C 1796.3413 2463.8096 1652.1011 2387.0371 1642.7952 2368.4258 C 1633.4893 2349.814 1654.4272 2326.5498 1628.8364 2312.5908 C 1603.2456 2298.6323 1586.9604 2312.5908 1586.9604 2312.5908 C 1586.9604 2312.5908 1519.4932 2233.4917 1545.084 2117.1694 Z" fill="#e6e6e6"/>
				<path d="M 1768.4238 1712.3677 C 1768.4238 1712.3677 1719.5684 1619.3101 1810.2998 1558.8223 C 1901.0317 1498.3345 2033.6396 1684.4502 2033.6396 1684.4502 C 2033.6396 1684.4502 2040.6191 1714.6941 2005.7222 1712.3677 C 1970.8252 1710.0413 1896.3789 1691.4297 1768.4238 1712.3677 Z" fill="#ed1e26"/>
				<path d="M 1810.2998 1600.6982 C 1810.2998 1600.6982 1842.8701 1544.8638 1894.0522 1600.6982 C 1945.2344 1656.533 1880.0938 1656.533 1880.0938 1656.533 C 1880.0938 1656.533 1840.5439 1663.5122 1810.2998 1600.6982 Z" fill="#f79274"/>
				<path d="M 2312.8145 1433.1943 C 2312.8145 1433.1943 2457.0547 1337.8098 2661.7822 1475.0703 C 2661.7822 1475.0703 2699.0059 1540.2107 2522.1953 1544.8638 C 2345.3848 1549.5166 2312.8145 1433.1943 2312.8145 1433.1943 Z" stroke="#ffffff00" stroke-width="14" fill="#ed1e26"/>
				<path d="M 2424.4844 1475.0703 C 2424.4844 1475.0703 2410.5254 1430.8677 2466.3604 1433.1943 C 2522.1953 1435.5205 2536.1538 1461.1116 2536.1538 1461.1116 C 2536.1538 1461.1116 2533.8271 1486.7026 2508.2363 1489.0288 C 2482.6455 1491.3555 2436.1162 1496.0083 2424.4844 1475.0703 Z" stroke="#ffffff00" stroke-width="14" fill="#f79274"/>
				<path d="M 2405.8726 1712.3677 C 2405.8726 1712.3677 2368.6494 1654.2065 2550.1123 1642.5742 C 2550.1123 1642.5742 2443.0957 1740.2852 2438.4429 1740.2852 C 2433.79 1740.2852 2405.8726 1756.5703 2405.8726 1712.3677 Z" stroke="#ffffff00" stroke-width="14" fill="#ed1e26"/>
				<path d="M 2424.4844 1698.4092 C 2424.4844 1698.4092 2426.8105 1647.2273 2480.3193 1684.4502 C 2480.3193 1684.4502 2457.0547 1744.938 2424.4844 1698.4092 Z" stroke="#ffffff00" stroke-width="14" fill="#f79274"/>
				<path d="M 2731.5762 2075.2935 C 2731.5762 2075.2935 2776.9419 2022.9482 2815.3281 2047.376 C 2853.7148 2071.8037 2787.4111 2103.2109 2787.4111 2103.2109 L 2731.5762 2075.2935 Z" stroke="#ffffff00" stroke-width="14" fill="#ed1e26"/>
				<path d="M 2759.4937 2061.335 C 2759.4937 2061.335 2761.8203 2010.1528 2815.3281 2047.376 C 2815.3281 2047.376 2792.064 2107.8638 2759.4937 2061.335 Z" stroke="#ffffff00" stroke-width="14" fill="#f79274"/>
				<path d="M 2089.4746 1112.1445 C 2089.4746 1112.1445 1977.8047 974.8843 2005.7222 879.5 C 2005.7222 879.5 1977.8047 974.8843 2382.6079 1112.1445 C 2382.6079 1112.1445 2559.4185 1177.2852 2633.8652 1251.7314 L 2647.8237 1279.6487 C 2647.8237 1279.6487 2757.167 1226.1404 3066.5859 1335.4834 L 2954.916 1502.9875 C 2954.916 1502.9875 2966.5479 1412.2563 2773.4521 1349.4421 C 2773.4521 1349.4421 2650.1504 1314.5454 2619.9063 1349.4421 C 2619.9063 1349.4421 2415.1782 1123.7769 2089.4746 1112.1445 Z" stroke="#568e37" stroke-width="14" fill="#416b2a"/>
				<path d="M 2131.3506 1251.7314 L 2131.3506 1321.5249 C 2131.3506 1321.5249 2089.4746 1265.6899 1991.7634 1265.6899 L 2131.3506 1251.7314 Z" stroke="#568e37" stroke-width="14" fill="#416b2a"/>
				<path d="M 2368.6494 679.4255 C 2368.6494 679.4255 2417.5049 646.8552 2452.4014 651.5083 C 2452.4014 651.5083 2608.2744 844.6033 2619.9063 1056.3098 C 2619.9063 1056.3098 2540.8066 805.0537 2368.6494 679.4255 Z" stroke="#568e37" stroke-width="14" fill="#416b2a"/>
				<path d="M 2675.7412 1209.8555 C 2675.7412 1209.8555 2747.8613 1195.8967 2773.4521 1195.8967 L 2703.6587 1223.814 L 2675.7412 1209.8555 Z" stroke="#568e37" stroke-width="14" fill="none"/>
				<path d="M 2913.0396 1614.657 C 2917.6924 1605.3511 3010.751 1623.9629 3024.7095 1614.657 C 3024.7095 1614.657 3013.0771 1626.2893 2926.998 1642.5742 C 2926.998 1642.5742 2908.3867 1623.9629 2913.0396 1614.657 Z" stroke="#568e37" stroke-width="14" fill="#416b2a"/>
			</g>
			<path d="M 1070.4873 2242.7974 L 1070.4873 2145.0869 L 2243.0205 1461.1116 L 3457.4302 2131.1279 L 3457.4302 2424.2603 L 3890.1504 2605.7231 L 3890.1504 1907.7891 L 2243.0205 986.5166 L 609.8491 1893.8306 L 609.8491 2242.7974 " stroke="#221f20" stroke-width="56" fill="#ed1e26"/>
			<path d="M 3429.5127 3415.3262 L 3429.5127 3513.0371 L 2243.0205 4197.0122 L 1056.5286 3540.9541 L 1056.5286 3233.8633 L 609.8491 3066.3594 L 609.8491 3750.335 L 2243.0205 4685.5659 L 3876.1919 3764.293 L 3876.1919 3415.3262 " stroke="#221f20" stroke-width="56" fill="#ed1e26"/>
			<g>
				<path d="M 2988.7363 1962.834 C 3000.2764 1957.7612 3024.7095 1928.1357 3024.7095 1768.2021 C 3024.7095 1768.2021 3101.4824 1813.5684 3080.5444 1963.624 C 3080.5444 1963.624 3031.6885 2057.8447 3052.627 2089.252 C 3073.5649 2120.6592 3136.3794 2033.4175 3136.3794 2033.4175 C 3136.3794 2033.4175 3159.644 1898.4834 3108.4619 1735.6323 C 3108.4619 1735.6323 3024.7095 1349.4421 3289.9253 1140.062 C 3289.9253 1140.062 3153.8276 1370.3801 3248.0488 1433.1943 C 3342.2705 1496.0083 3317.8428 1251.7314 3317.8428 1251.7314 C 3317.8428 1251.7314 3286.4355 1003.9648 3443.4717 916.7231 C 3443.4717 916.7231 3359.7188 1119.124 3457.4302 1321.5249 C 3457.4302 1321.5249 3558.6309 1649.5537 3415.5537 1851.9546 C 3272.4766 2054.3555 3206.1729 2075.2935 3150.3379 2242.7974 C 3094.5029 2410.3018 3192.2139 2382.3843 3192.2139 2382.3843 C 3192.2139 2382.3843 3251.5391 2361.4463 3275.9668 2242.7974 C 3275.9668 2242.7974 3248.0488 2148.5762 3359.7188 2061.335 C 3359.7188 2061.335 3296.9048 2169.5146 3317.8428 2326.5498 C 3338.7808 2483.585 3150.3379 2689.4751 3150.3379 2689.4751 C 3150.3379 2689.4751 3083.3721 2740.4966 3031.7441 2769.3809 " stroke="#000000" stroke-width="28" fill="#221f20"/>
				<path d="M 2619.9063 2787.1855 C 2619.9063 2787.1855 2778.1055 2740.6572 2857.2046 2535.9297 C 2857.2046 2535.9297 2860.585 2493.9839 2850.2256 2433.8569 C 2845.1885 2404.6221 2844.4922 2369.7217 2832.7769 2350.9771 C 2832.7769 2350.9771 2819.9814 2154.3926 2899.0811 2117.1694 C 2978.1807 2079.9463 3010.751 2005.5 3010.751 2005.5 C 3010.751 2005.5 2959.5684 2131.1279 3024.7095 2173.0039 C 3089.8506 2214.8799 3136.3794 2103.2109 3136.3794 2103.2109 C 3136.3794 2103.2109 3206.1729 2052.0293 3178.2554 1810.0786 C 3178.2554 1810.0786 3178.2554 1763.5498 3150.3379 1656.533 C 3122.4209 1549.5166 3141.0322 1498.3345 3178.2554 1391.3181 C 3178.2554 1391.3181 3173.6025 1521.5991 3275.9668 1516.9463 C 3378.3311 1512.2935 3373.6777 1377.3594 3373.6777 1377.3594 L 3373.6777 1265.6899 C 3373.6777 1265.6899 3443.4717 1470.4172 3429.5127 1558.8223 C 3429.5127 1558.8223 3476.0415 1675.1445 3275.9668 1935.7065 C 3075.8916 2196.2686 3066.5859 2256.7559 3066.5859 2256.7559 C 3066.5859 2256.7559 3045.6475 2396.3428 3108.4619 2426.5869 C 3108.4619 2426.5869 3164.2969 2484.748 3248.0488 2410.3018 C 3248.0488 2410.3018 3196.8667 2615.0293 3010.751 2689.4751 C 3010.751 2689.4751 2829.2871 2805.7974 2619.9063 2787.1855 Z" stroke="#ffdd00" stroke-width="14" fill="#fdc30d"/>
				<path d="M 2843.2461 2689.4751 C 2843.2461 2689.4751 2906.0605 2668.5371 2899.0811 2591.7646 C 2892.1016 2514.9917 2871.1631 2480.0947 2871.1631 2480.0947 C 2871.1631 2480.0947 2863.1411 2354.1992 2871.1631 2284.6733 C 2881.6328 2193.9424 2933.9775 2159.0454 2950.2627 2149.7393 C 2950.2627 2149.7393 2947.9365 2214.8799 2964.2217 2233.4917 C 2980.5068 2252.103 3034.0156 2238.1445 3034.0156 2238.1445 C 3034.0156 2238.1445 2987.4863 2361.4463 3052.627 2424.2603 C 3052.627 2424.2603 3061.9326 2477.7686 3150.3379 2494.0537 C 3150.3379 2494.0537 3148.0117 2573.1528 2982.833 2675.5166 C 2982.833 2675.5166 2875.8164 2717.3926 2843.2461 2689.4751 Z" fill="#ffde00"/>
				<path d="M 3262.0078 1893.8306 C 3262.0078 1893.8306 3352.7393 1765.876 3373.6777 1684.4502 C 3394.6157 1603.0249 3407.9932 1557.6592 3389.3813 1478.5601 C 3389.3813 1478.5601 3373.6777 1523.9255 3262.0078 1558.8223 C 3262.0078 1558.8223 3187.5615 1547.7717 3171.2764 1494.2634 C 3171.2764 1494.2634 3177.3467 1649.3096 3192.2139 1684.4502 C 3217.8057 1744.938 3215.1226 1765.4971 3213.1523 1789.1406 C 3211.4072 1810.0786 3206.1729 1851.9546 3206.1729 1949.665 C 3206.1729 1949.665 3236.417 1938.0327 3262.0078 1893.8306 Z" stroke="#ffffff00" stroke-width="14" fill="#ffde00"/>
				<path d="M 3206.1729 1586.7397 C 3206.1729 1586.7397 3273.6401 1649.5537 3359.7188 1586.7397 C 3359.7188 1586.7397 3315.5166 1761.2231 3275.9668 1796.1196 C 3275.9668 1796.1196 3196.8672 1668.1653 3206.1729 1586.7397 Z" stroke="#fdd866" stroke-width="14" fill="#fff686"/>
				<path d="M 2926.998 2284.6733 C 2926.998 2284.6733 2938.6309 2321.8965 2996.792 2326.5498 C 2996.792 2326.5498 2982.833 2494.0537 3094.5029 2535.9297 C 3094.5029 2535.9297 3043.3213 2622.0083 2940.957 2661.5576 L 2926.998 2284.6733 Z" stroke="#fdd866" stroke-width="14" fill="#fff686"/>
			</g>
		</g>
	</g>
</svg>