<?xml version="1.0" standalone="no"?>
<!DOCTYPE svg PUBLIC "-//W3C//DTD SVG 20010904//EN"
 "http://www.w3.org/TR/2001/REC-SVG-20010904/DTD/svg10.dtd">
<svg version="1.0" xmlns="http://www.w3.org/2000/svg"
 width="774.000000pt" height="774.000000pt" viewBox="0 0 774.000000 774.000000"
 preserveAspectRatio="xMidYMid meet">
<metadata>
Created by potrace 1.11, written by Peter Selinger 2001-2013
</metadata>
<g transform="translate(0.000000,774.000000) scale(0.100000,-0.100000)"
fill="#000000" stroke="none">
<path d="M2233 6652 l-1553 -887 1 -1875 0 -1875 1560 -905 1560 -905 59 0 58
0 1571 905 1570 905 0 1865 0 1865 -734 424 c-404 233 -735 427 -735 431 0 4
7 24 15 44 8 20 13 36 9 36 -3 0 -24 -11 -48 -25 l-42 -25 -359 209 c-198 114
-552 319 -787 454 l-426 247 -84 -1 -83 0 -1552 -887z m1667 398 c23 -18 24
-20 8 -36 -16 -16 -13 -20 45 -64 187 -142 341 -372 375 -558 9 -51 9 -52 -12
-46 -36 11 -147 68 -299 153 -80 45 -150 81 -157 81 -6 0 -24 -7 -41 -15 -28
-15 -31 -14 -90 25 -79 55 -162 138 -198 201 l-29 51 -25 -43 c-65 -112 -74
-254 -23 -364 15 -33 22 -61 17 -64 -5 -3 -455 -253 -1000 -556 l-991 -550 0
-547 c0 -512 1 -547 18 -552 9 -3 341 -82 737 -176 396 -94 726 -173 733 -175
9 -3 -1 -20 -31 -49 -54 -52 -72 -105 -63 -186 9 -79 48 -152 112 -208 l54
-47 0 -217 c0 -228 -13 -367 -51 -530 -12 -49 -25 -88 -31 -88 -5 0 -141 73
-301 161 -161 89 -329 182 -375 207 l-82 46 0 222 0 223 -57 21 c-402 151
-643 240 -652 240 -8 0 -11 -149 -11 -527 l1 -528 547 -313 c301 -172 553
-316 561 -321 11 -7 8 -18 -15 -57 -15 -27 -35 -58 -45 -69 -30 -33 -58 -107
-71 -186 -6 -41 -13 -75 -14 -77 -1 -2 -260 146 -576 329 -315 183 -608 353
-651 377 l-77 44 0 1618 0 1617 998 571 c548 314 1157 663 1352 776 195 112
362 205 370 205 8 0 26 -8 40 -19z m948 -540 l421 -241 -34 -45 c-19 -24 -42
-58 -52 -74 -31 -53 -91 -49 -258 15 -55 21 -94 28 -178 32 -59 3 -105 9 -102
12 4 3 34 16 68 27 l62 22 -40 18 c-32 14 -64 18 -157 18 l-118 -1 0 131 c0
93 -6 157 -20 220 -21 93 -23 106 -16 106 2 0 193 -108 424 -240z m530 -442
c-2 -104 -6 -130 -20 -144 -27 -27 -64 -5 -79 45 -10 33 -9 52 4 106 9 36 26
86 37 112 20 46 20 46 41 27 19 -18 21 -27 17 -146z m132 6 c57 -186 78 -376
54 -491 -20 -99 -100 -249 -214 -403 -128 -173 -242 -341 -275 -406 -22 -43
-26 -64 -26 -127 0 -92 18 -140 63 -167 50 -30 106 -26 158 11 l43 31 -6 -31
c-19 -93 -132 -264 -214 -324 -118 -85 -316 -173 -456 -203 -77 -16 -237 -19
-237 -5 0 6 27 24 60 42 82 43 185 154 235 251 l39 76 -12 109 c-6 59 -17 122
-24 140 -16 43 3 203 32 272 19 42 34 59 89 95 37 25 81 65 99 90 18 25 37 46
41 46 5 0 2 -28 -6 -62 -8 -35 -12 -78 -9 -97 11 -68 73 -101 124 -65 42 29
110 160 123 238 15 90 6 268 -21 396 -39 182 -42 205 -36 261 11 114 76 269
76 182 0 -41 40 -116 70 -130 58 -29 134 -2 167 59 13 25 18 63 21 156 2 67 8
122 13 122 4 0 17 -30 29 -66z m627 -301 l483 -276 0 -1607 0 -1607 -1372
-784 c-755 -431 -1380 -784 -1389 -783 -8 0 -232 126 -498 280 -500 290 -501
290 -405 293 57 2 205 51 322 106 63 30 119 55 125 55 5 0 108 -56 228 -125
120 -69 223 -125 229 -125 6 0 363 199 793 441 430 243 963 543 1184 668 l403
226 0 557 0 558 -27 7 c-16 4 -293 70 -617 148 -324 77 -591 145 -593 151 -2
7 16 23 40 37 122 72 230 194 307 347 60 120 70 165 70 324 0 126 15 244 33
262 3 3 28 -6 56 -22 l51 -27 0 -212 0 -211 318 -134 c174 -73 332 -139 350
-147 l32 -13 0 542 0 543 -295 165 -295 165 -5 160 c-3 107 -10 188 -23 243
-17 73 -17 82 -4 77 9 -3 233 -130 499 -282z m-1035 192 c-9 -32 -21 -55 -29
-55 -7 0 -13 5 -13 11 0 10 49 99 55 99 1 0 -5 -25 -13 -55z m-921 -415 c16
-9 17 -14 6 -30 -14 -24 -40 -26 -57 -5 -10 12 -10 18 0 30 15 18 25 19 51 5z
m-748 -185 c85 -18 175 -65 244 -129 59 -53 135 -147 154 -190 12 -25 10 -29
-22 -56 -19 -16 -37 -29 -41 -30 -5 0 -36 23 -70 51 -35 28 -96 67 -136 86
-67 33 -78 35 -143 31 -86 -7 -196 -57 -261 -121 -62 -60 -101 -158 -101 -257
-1 -88 14 -129 70 -191 121 -134 434 -164 537 -50 22 24 46 28 46 7 0 -22 -47
-66 -93 -86 -62 -28 -179 -43 -277 -37 -92 6 -185 34 -265 81 -75 44 -191 161
-219 220 -78 168 -54 346 63 478 79 89 238 178 354 197 75 12 85 12 160 -4z
m-696 -252 c-63 -123 -78 -282 -38 -395 23 -68 75 -149 125 -197 31 -30 47
-61 32 -61 -3 0 -145 34 -317 75 -171 41 -313 75 -315 75 -2 0 -4 56 -4 124
l0 124 267 155 c147 86 269 154 271 152 2 -2 -8 -25 -21 -52z m2383 -31 c0
-31 -7 -45 -39 -76 -57 -56 -65 -23 -19 86 18 41 23 46 39 37 13 -7 19 -21 19
-47z m-1647 -27 c108 -28 211 -94 242 -156 14 -25 13 -32 -10 -80 -13 -29 -27
-78 -30 -108 -10 -85 -21 -106 -73 -134 -92 -49 -193 -58 -294 -27 -155 48
-222 177 -168 324 40 107 107 167 210 187 54 10 62 10 123 -6z m834 -30 c115
-52 183 -147 183 -257 0 -72 -23 -129 -90 -228 -47 -69 -79 -88 -210 -126 -84
-24 -96 -25 -153 -14 -139 27 -206 77 -237 178 -31 100 -27 161 17 244 105
200 309 285 490 203z m354 5 c16 -9 17 -14 6 -30 -14 -24 -40 -26 -57 -5 -10
12 -10 18 0 30 15 18 25 19 51 5z m714 -83 c-36 -50 -56 -110 -60 -179 -6
-120 -81 -234 -132 -202 -25 15 -28 82 -8 152 21 70 84 194 125 244 31 37 32
38 61 22 29 -15 30 -16 14 -37z m-727 -584 c-4 -118 -18 -151 -99 -237 -106
-113 -274 -195 -539 -263 l-135 -34 -210 4 c-186 4 -221 7 -309 30 -54 15
-126 41 -160 60 -52 28 -66 42 -93 93 -30 56 -31 62 -17 82 l15 22 47 -38 c26
-22 55 -42 65 -45 12 -5 17 -17 17 -43 0 -36 0 -37 20 -19 11 10 20 24 20 30
0 9 18 6 58 -10 31 -13 92 -29 135 -36 63 -10 82 -17 98 -37 l20 -26 23 29
c22 27 25 28 87 22 81 -7 269 8 332 27 45 13 48 13 62 -7 12 -17 17 -18 30 -7
8 7 15 22 15 34 0 16 16 29 68 56 37 19 109 63 160 97 51 35 95 63 97 63 1 0
6 -11 9 -25 11 -44 26 -27 26 30 0 53 2 58 48 104 27 27 58 69 70 95 34 72 44
59 40 -51z m-990 -123 c58 -26 54 -51 -8 -63 -57 -10 -130 -3 -141 14 -10 17
7 48 34 59 35 14 69 11 115 -10z m-285 -437 c4 -3 0 -15 -10 -25 -9 -10 -14
-20 -12 -22 2 -3 43 -16 90 -29 341 -99 795 -74 1113 62 37 17 46 17 56 6 15
-18 -5 -48 -72 -106 -76 -65 -95 -74 -125 -58 -29 16 -43 2 -43 -44 0 -20 -9
-33 -32 -47 -51 -31 -128 -57 -191 -65 l-57 -7 0 42 c0 55 -20 49 -39 -13 -13
-42 -19 -48 -55 -59 -23 -6 -86 -12 -141 -12 -79 1 -112 5 -157 23 -61 23 -63
27 -73 109 -11 83 -35 63 -35 -29 0 -33 -5 -51 -14 -55 -19 -7 -139 22 -185
46 -50 25 -81 65 -81 102 0 25 -4 29 -22 26 -21 -3 -23 1 -23 51 0 54 1 55 45
82 50 31 54 32 63 22z m108 -407 c55 -31 174 -64 259 -72 86 -9 97 -15 69 -39
-29 -27 -142 -32 -232 -11 -77 18 -173 63 -202 96 -19 21 -19 22 0 36 27 20
56 17 106 -10z m1679 -101 c173 -41 325 -77 338 -80 21 -5 22 -9 22 -138 l0
-133 -547 -316 c-302 -174 -549 -315 -551 -313 -2 2 28 50 65 107 157 238 264
506 334 842 12 58 23 106 24 106 0 0 143 -34 315 -75z m-1476 -299 c49 -21 96
-83 96 -128 0 -56 -44 -183 -105 -303 -58 -114 -200 -334 -221 -342 -11 -4
-146 66 -167 87 -5 4 19 45 54 91 34 46 79 120 100 164 35 76 38 88 49 234 6
85 14 159 17 164 9 15 86 47 116 47 15 0 42 -6 61 -14z m-761 -1268 c42 -23
42 -23 14 -26 -27 -3 -67 20 -67 40 0 12 6 10 53 -14z"/>
<path d="M3425 4905 c-52 -19 -112 -82 -121 -130 -7 -41 14 -80 57 -102 34
-18 134 -16 169 2 63 32 81 138 35 194 -23 27 -37 34 -85 46 -8 2 -33 -2 -55
-10z"/>
<path d="M4069 4947 c-124 -47 -212 -177 -195 -290 9 -57 58 -132 114 -171 55
-39 132 -45 234 -21 61 16 79 25 118 64 85 85 102 187 48 293 -30 58 -39 66
-99 96 -78 39 -163 50 -220 29z m209 -71 c59 -40 92 -93 92 -146 0 -37 -5 -48
-41 -82 -91 -87 -231 -123 -303 -79 -58 37 -96 87 -96 129 0 43 20 78 81 145
50 55 84 67 171 63 43 -2 66 -9 96 -30z"/>
<path d="M4113 4818 c-24 -11 -63 -82 -63 -112 0 -29 46 -66 82 -66 40 0 90
29 114 65 24 37 9 74 -41 102 -44 25 -59 27 -92 11z"/>
</g>
</svg>
