<?xml version="1.0" standalone="no"?>
<!-- Generator: Adobe Fireworks 10, Export SVG Extension by Aaron Beall (http://fireworks.abeall.com) . Version: 0.6.1  -->
<!DOCTYPE svg PUBLIC "-//W3C//DTD SVG 1.1//EN" "http://www.w3.org/Graphics/SVG/1.1/DTD/svg11.dtd">
<svg id="got_spice.fw-Page%201" viewBox="0 0 238 345" style="background-color:#ffffff00" version="1.1"
	xmlns="http://www.w3.org/2000/svg" xmlns:xlink="http://www.w3.org/1999/xlink" xml:space="preserve"
	x="0px" y="0px" width="238px" height="345px"
>
	<g id="Layer%201">
		<g>
			<path d="M 101.2247 267 C 101.7105 263.6893 102.1133 260.0851 102.3937 256.1789 L 102.3937 231.8217 C 102.3937 231.8217 94.8943 227.7621 93.1637 220.223 C 91.433 212.6839 94.3174 209.7842 94.3174 209.7842 C 94.3174 209.7842 96.9134 205.1448 108.1625 201.6652 C 108.1625 201.6652 101.5284 197.6056 97.7787 184.2672 C 97.7787 184.2672 90.5677 172.6685 92.0099 164.5494 C 92.0099 164.5494 88.1641 157.2036 82.3953 154.1106 C 78.9681 152.2731 75.088 145.6048 81.6261 139.0324 C 82.0107 138.6458 79.7032 133.233 84.3182 126.2738 C 84.3182 126.2738 90.2793 117.8648 100.0862 113.5153 C 100.0862 113.5153 98.3556 100.7568 103.5475 91.4778 C 108.7394 82.1989 112.7776 79.8792 112.7776 79.8792 C 112.7776 79.8792 118.8348 75.5297 120.8539 75.2397 L 126.6227 78.7193 L 138.1602 78.7193 C 138.1602 78.7193 134.4105 72.0501 117.3926 70.6003 C 117.3926 70.6003 111.6238 65.9608 137.0065 64.8009 C 137.0065 64.8009 115.9504 51.1725 127.7764 31.1648 C 127.7764 31.1648 135.2758 47.4029 163.5429 54.3621 C 163.5429 54.3621 169.3117 55.812 177.388 60.1614 C 177.388 60.1614 177.6765 37.834 152.0054 19.5661 C 152.0054 19.5661 158.0626 12.3169 168.158 16.0865 C 178.2533 19.8561 182.0031 46.243 182.0031 46.243 C 182.0031 46.243 182.5799 50.8825 182.0031 62.4812 C 182.0031 62.4812 191.8099 60.1614 198.1556 62.4812 C 198.1556 62.4812 190.3678 64.8009 188.9256 67.1207 C 188.9256 67.1207 203.9244 65.9608 210.847 69.4404 C 217.7695 72.92 222 72.1467 222 72.1467 C 222 72.1467 209.3087 93.7009 209.3087 92.831 C 209.3087 91.9611 206.2319 94.9574 206.2319 94.9574 L 215.462 96.1173 C 215.462 96.1173 215.7504 99.017 210.847 103.0765 L 205.0782 103.0765 C 205.0782 103.0765 209.6932 119.3146 209.6932 127.4337 C 209.6932 127.4337 211.4238 144.9283 213.1545 147.538 C 213.1545 147.538 221.2531 180.711 213.1545 200.1187 C 209.6797 208.4457 206.6166 213.6505 205.4628 217.9033 C 205.4628 217.9033 204.7897 240.9408 193.5406 267.6177 L 101.2247 267 Z" stroke="#000000" stroke-width="2" fill="#221f20"/>
			<path d="M 105.967 268 C 107.8901 253.3875 108.1625 238.4612 108.1625 238.4612 C 135.8527 246.5802 133.5452 239.621 133.5452 239.621 C 133.5452 239.621 111.8161 240.201 100.0862 224.5428 C 100.0862 224.5428 91.8176 211.7842 109.3163 208.3046 L 110.47 214.104 L 110.47 215.2638 L 105.855 215.2638 L 107.0088 217.5836 C 107.0088 217.5836 122.7768 236.9147 158.9279 231.502 C 195.0789 226.0892 216.808 206.1299 198.9248 160.7501 L 203.9244 157.6571 L 196.2327 157.6571 C 181.8107 184.7207 155.4666 192.0665 155.4666 192.0665 C 111.8161 201.5388 96.6249 175.8284 96.6249 175.8284 C 96.6249 175.8284 102.2014 179.5013 104.7012 179.308 C 107.201 179.1146 99.5093 175.2484 98.9325 173.5086 C 98.3556 171.7688 100.0862 172.3488 100.0862 172.3488 C 111.6238 178.5347 119.7001 176.9883 119.7001 176.9883 C 135.8527 178.9214 142.7753 170.029 142.7753 170.029 C 147.0057 176.0217 161.2354 178.1481 161.2354 178.1481 L 153.1591 185.1073 L 157.7741 185.1073 C 157.7741 185.1073 183.1568 174.4752 186.618 165.3896 C 190.0793 156.304 192.3868 151.4712 192.3868 151.4712 L 208.5394 146.8317 C 208.5394 146.8317 233.153 210.6244 177.388 234.9816 C 177.388 234.9816 182.5799 239.0411 200.4631 224.5428 C 200.4631 224.5428 194.667 249.4574 186.965 268 " stroke="#ed1e26" stroke-width="1" fill="#ca151f"/>
			<path d="M 177.437 268 C 181.0973 260.1182 183.859 250.5461 183.7336 239.3311 C 183.7336 239.3311 170.7539 248.9 155.4666 248.9 C 140.1793 248.9 118.5464 246.2903 118.5464 246.2903 L 117.3926 247.7401 C 117.3926 247.7401 117.9431 257.9793 117.6986 268 " fill="#ed1e26"/>
			<path d="M 126.8474 268 L 127.7764 255.8592 C 127.7764 255.8592 137.5834 247.4501 143.929 259.3388 C 143.929 259.3388 144.5706 261.8113 142.5983 268 " stroke="#ffffff00" stroke-width="1" fill="#f79274"/>
			<path d="M 160.0817 231.502 C 160.0817 231.502 167.8695 232.3719 173.9268 232.6618 C 179.9839 232.9518 164.1198 238.1712 164.1198 238.1712 C 164.1198 238.1712 135.8527 242.2307 120.8539 237.3013 C 105.855 232.3719 107.0088 225.7026 107.0088 225.7026 C 107.0088 225.7026 107.8741 222.513 110.47 223.3829 C 113.066 224.2528 116.2388 225.7026 116.2388 225.7026 C 116.2388 225.7026 127.488 230.3421 130.0839 230.3421 C 132.6799 230.3421 140.1793 234.1117 160.0817 231.502 Z" stroke="#ffffff00" stroke-width="1" fill="#ed1d25"/>
			<path d="M 146.2366 236.1414 C 146.2366 236.1414 146.8134 239.0411 137.0065 238.4612 C 127.1995 237.8812 120.8539 232.6618 120.8539 232.6618 C 120.8539 232.6618 116.8157 228.8923 124.3151 229.1822 C 124.3151 229.1822 129.7955 233.8217 143.929 234.9816 C 148.5308 235.3592 146.2366 236.1414 146.2366 236.1414 Z" stroke="#ffffff00" stroke-width="1" fill="#f49678"/>
			<path d="M 122.0076 207.1448 L 119.7001 205.9849 L 113.2102 209.7545 C 112.7776 218.4535 115.0851 217.5836 115.0851 217.5836 L 115.8062 216.4237 L 116.2388 216.4237 L 116.2388 218.7434 C 117.5368 225.5577 132.3914 226.8625 132.3914 226.8625 L 133.5452 225.7026 L 133.5452 221.0632 L 133.8336 219.1784 L 134.1221 218.8884 L 135.1316 226.4276 C 146.0923 232.5168 158.9279 228.0224 158.9279 228.0224 L 159.9374 225.4127 L 160.8027 222.368 L 161.2354 222.223 L 161.2354 226.8625 C 173.4941 226.7175 178.5417 221.0632 178.5417 221.0632 L 178.8302 217.2936 L 179.6956 216.7137 L 180.8492 218.7434 C 185.897 217.5836 193.5406 208.3046 193.5406 208.3046 L 191.2331 205.9849 C 191.2331 205.9849 159.0721 222.513 119.7001 209.4645 L 122.0076 207.1448 Z" stroke="#000000" stroke-width="1" fill="#ffffff"/>
			<path d="M 194.6943 178.1481 C 194.6943 178.1481 193.829 198.0108 148.5441 205.9849 C 148.5441 205.9849 118.4021 208.7396 105.855 197.8658 L 102.3937 190.9066 L 104.7012 187.427 C 104.7012 187.427 109.749 193.2264 112.7776 193.2264 L 112.7776 196.706 L 113.9313 195.5461 L 113.9313 193.2264 C 113.9313 193.2264 117.1041 196.706 130.0839 197.8658 L 132.3914 200.1856 L 132.3914 201.3454 L 133.5452 199.0257 L 134.699 197.8658 C 134.699 197.8658 150.2747 199.4606 161.2354 195.5461 L 162.3892 197.8658 L 163.5429 196.706 L 163.5429 194.3862 C 163.5429 194.3862 178.1091 187.2821 183.1568 181.6277 L 184.3105 186.2672 L 184.3105 181.6277 L 184.3105 179.308 C 184.3105 179.308 191.5215 174.3785 192.3868 167.7093 L 194.6943 168.8692 L 194.6943 178.1481 Z" stroke="#000000" stroke-width="1" fill="#fdfdfd"/>
			<path d="M 135.8527 178.1481 C 135.8527 178.1481 142.7753 173.3636 148.5441 178.1481 C 148.5441 178.1481 151.5726 181.0478 145.0828 185.1073 C 145.0828 185.1073 143.929 186.7021 155.4666 186.2672 L 160.0817 185.1073 L 158.9279 187.427 C 158.9279 187.427 155.4666 190.3267 138.1602 192.0665 C 120.8539 193.8063 111.6238 186.2672 111.6238 186.2672 C 111.6238 186.2672 110.1816 184.6724 111.6238 183.9474 C 111.6238 183.9474 110.6143 182.2076 118.5464 182.7876 L 117.1041 179.308 C 117.1041 179.308 128.4975 180.0329 135.8527 178.1481 Z" fill="#ed1e26"/>
			<path d="M 138.1602 185.1073 C 138.1602 185.1073 131.2377 186.2672 128.9302 185.1073 C 126.6227 183.9474 128.9302 181.6277 128.9302 181.6277 C 128.9302 181.6277 132.9683 178.3414 139.314 182.7876 C 139.314 182.7876 140.0832 184.1408 138.1602 185.1073 Z" stroke="#ffffff00" stroke-width="1" fill="#f79274"/>
			<path d="M 148.5441 136.3929 C 148.5441 136.3929 132.5837 104.3033 104.7012 118.9949 C 76.8188 133.6866 90.8561 157.2705 90.8561 157.2705 C 90.8561 157.2705 101.4323 173.702 120.8539 173.5086 C 140.2755 173.3153 140.4678 165.3896 140.4678 165.3896 L 139.314 163.0698 C 139.314 163.0698 132.1991 175.4418 111.6238 166.5494 C 111.6238 166.5494 94.702 159.2036 107.0088 138.7126 C 107.0088 138.7126 112.5852 132.5267 122.0076 130.5936 C 131.43 128.6605 142.7753 141.0324 142.7753 141.0324 L 148.5441 136.3929 Z" stroke="#000000" stroke-width="1" fill="#ffffff"/>
			<path d="M 141.6215 145.6718 C 141.6215 145.6718 138.1602 150.3113 138.1602 157.2705 C 138.1602 164.2297 124.3151 165.3896 124.3151 165.3896 C 124.3151 165.3896 112.5852 166.3561 107.0088 157.2705 C 101.4323 148.1849 110.47 137.5528 110.47 137.5528 C 110.47 137.5528 117.9695 130.5936 127.7764 134.0732 C 137.5834 137.5528 141.2369 141.8056 141.6215 145.6718 Z" stroke="#000000" stroke-width="1" fill="#ffff04"/>
			<path d="M 135.8527 156.1106 C 135.8527 156.1106 132.776 163.2632 119.7001 163.0698 C 119.7001 163.0698 111.6238 161.1367 110.47 157.2705 C 109.3163 153.4043 115.0851 154.9508 115.0851 154.9508 C 115.0851 154.9508 116.0465 159.5902 120.8539 159.5902 C 125.6612 159.5902 131.6223 158.0438 133.5452 156.1106 C 135.4681 154.1775 135.8527 156.1106 135.8527 156.1106 Z" stroke="#ffffff00" stroke-width="1" fill="#fcda00"/>
			<path d="M 110.47 142.1922 C 110.47 142.1922 104.1244 149.9247 110.47 158.4304 L 115.0851 154.9508 C 115.0851 154.9508 113.9313 148.1849 115.0851 145.6718 C 116.2388 143.1588 110.47 142.1922 110.47 142.1922 Z" stroke="#ffffff00" stroke-width="1" fill="#fdc50d"/>
			<path d="M 115.0851 146.8317 L 109.6047 143.9321 C 109.6047 143.9321 111.6238 135.6197 122.0076 136.3929 C 132.3914 137.1661 136.6219 142.5789 137.3911 142.3856 C 138.1602 142.1922 134.8912 145.8652 134.8912 145.8652 C 134.8912 145.8652 128.5456 137.3594 120.8539 142.1922 C 113.1621 147.0251 115.0851 146.8317 115.0851 146.8317 Z" fill="#eaa319"/>
			<path d="M 112.7776 139.8725 L 112.7776 141.0324 L 115.0851 142.1922 L 117.3926 141.0324 L 119.7001 139.8725 L 120.8539 137.5528 L 119.7001 136.3929 L 117.3926 135.233 L 115.0851 136.3929 L 113.9313 137.5528 L 112.7776 139.8725 Z" fill="#ffff92"/>
			<path d="M 127.7764 157.2705 L 130.0839 157.2705 L 131.2377 158.4304 L 130.0839 160.7501 L 127.7764 161.91 L 125.4689 161.91 L 123.1614 161.91 L 123.1614 160.7501 L 124.3151 159.5902 L 125.4689 158.4304 L 127.7764 157.2705 Z" fill="#fdf583"/>
			<path d="M 121.3926 147.1514 C 121.3926 147.1514 125.8153 139.419 131.7764 141.3521 C 137.7375 143.2852 136.3914 148.3113 136.3914 148.3113 C 136.3914 148.3113 136.776 152.3708 132.9302 154.1106 C 129.0844 155.8504 123.7001 154.1106 123.7001 154.1106 C 123.7001 154.1106 122.354 152.9508 121.3926 151.7909 C 120.4312 150.631 121.3926 147.1514 121.3926 147.1514 Z" stroke="#000000" stroke-width="1" fill="#221f20"/>
			<path d="M 145.0828 121.4745 C 145.0828 121.4745 134.4105 110.1658 119.7001 108.716 C 119.7001 108.716 107.8741 109.2959 104.7012 112.1956 C 104.7012 112.1956 103.8359 98.2772 107.0088 94.7976 C 107.0088 94.7976 111.0469 88.4183 118.5464 88.9982 C 126.0458 89.5782 138.1602 108.716 138.1602 108.716 C 138.1602 108.716 141.3331 113.0655 145.0828 113.3554 C 148.8325 113.6454 152.0054 109.8759 152.0054 109.8759 C 152.0054 109.8759 156.3319 102.9166 155.4666 93.6377 L 148.5441 98.2772 C 148.5441 98.2772 139.0255 87.2584 134.699 85.5186 C 130.3723 83.7788 140.4678 84.3588 140.4678 84.3588 C 140.4678 84.3588 147.9672 85.2287 149.6978 87.8384 C 149.6978 87.8384 153.4475 87.8384 145.0828 82.039 C 145.0828 82.039 175.3689 73.92 185.4643 83.1989 C 195.5597 92.4778 201.3285 103.4966 201.6169 106.3962 C 201.6169 106.3962 206.0397 123.8909 207.7703 141.5788 C 207.7703 141.5788 202.3861 145.4451 195.079 146.2183 L 190.0793 145.8317 C 190.0793 145.8317 190.0793 141.1922 186.618 136.5528 C 183.1568 131.9133 198.1556 131.9133 198.1556 131.9133 C 198.1556 131.9133 202.1938 133.6531 201.6169 134.233 C 201.6169 134.233 202.7707 128.1437 188.9256 128.4337 C 188.9256 128.4337 185.4643 128.1437 182.0031 131.9133 C 182.0031 131.9133 176.8112 128.7237 172.7729 129.5936 C 172.7729 129.5936 187.7719 116.835 187.7719 112.1956 C 187.7719 107.5561 198.4441 124.9541 198.1556 127.2738 C 198.1556 127.2738 201.04 126.4039 198.1556 112.1956 C 195.2712 97.9872 182.0031 93.6377 182.0031 93.6377 L 182.0031 95.9574 C 182.0031 95.9574 166.4273 93.9277 162.3892 102.9166 C 162.3892 102.9166 174.7921 97.4073 179.6956 100.5969 C 179.6956 100.5969 172.7729 111.9056 163.5429 114.5153 C 163.5429 114.5153 161.8123 116.835 157.7741 111.0357 C 157.7741 111.0357 148.2556 122.9243 154.3129 129.5936 L 154.3129 131.9133 C 154.3129 131.9133 147.9672 128.4337 149.6978 121.4745 C 149.6978 121.4745 149.4094 117.415 154.3129 111.0357 C 154.3129 111.0357 146.2366 115.3852 145.0828 121.4745 Z" stroke="#ed1e26" stroke-width="1" fill="#ca151f"/>
			<path d="M 144.7943 148.8615 C 144.7943 148.8615 149.6978 136.3929 162.3892 134.0732 C 175.0804 131.7534 182.0031 141.0324 182.0031 141.0324 C 182.0031 141.0324 190.0793 149.4414 182.5799 160.7501 C 177.5968 168.2643 179.4071 169.4491 162.3892 173.5086 C 162.3892 173.5086 147.9672 172.6387 145.0828 164.2297 C 143.7686 160.3983 143.1272 157.3969 143.0637 154.9508 C 142.9879 152.0281 144.7943 148.8615 144.7943 148.8615 Z" stroke="#000000" stroke-width="1" fill="#ffffff"/>
			<path d="M 152.0054 147.9916 C 152.0054 147.9916 157.4857 140.7424 164.1198 140.4524 C 170.7539 140.1625 176.2343 144.512 176.2343 144.512 C 176.2343 144.512 182.2915 150.8912 179.6956 158.4304 C 177.0995 165.9695 171.0424 167.9993 170.4655 167.7093 C 169.8885 167.4193 160.6585 172.0588 154.3129 165.3896 C 147.9672 158.7203 149.9863 153.5009 149.9863 153.5009 C 149.9863 153.5009 151.14 148.5715 152.0054 147.9916 Z" stroke="#000000" stroke-width="1" fill="#221f20"/>
			<path d="M 177.388 157.2705 C 177.388 157.2705 169.8885 165.6795 160.0817 164.2297 C 160.0817 164.2297 152.8707 161.33 152.0054 156.1106 C 151.14 150.8912 155.4666 147.9916 155.4666 147.9916 C 155.4666 147.9916 156.3319 143.9321 164.6967 142.1922 C 173.0614 140.4524 178.5417 150.3113 178.5417 150.3113 C 178.5417 150.3113 179.4071 155.5307 177.388 157.2705 Z" stroke="#000000" stroke-width="1" fill="#ffff04"/>
			<path d="M 175.6573 156.1106 C 175.6573 156.1106 172.7599 162.0363 163.1599 161.9074 C 163.1599 161.9074 156.8906 161.2008 156.0435 158.6237 C 155.1964 156.0466 158.9279 156.304 158.9279 156.304 C 158.9279 156.304 160.4775 159.588 164.007 159.588 C 167.5364 159.588 171.7457 157.0126 173.1575 155.724 C 174.5693 154.4355 175.6573 156.1106 175.6573 156.1106 Z" stroke="#ffffff00" stroke-width="1" fill="#fcda00"/>
			<path d="M 156.3834 147.9909 C 156.3834 147.9909 151.3846 153.1473 156.0435 158.817 L 159.1202 156.6906 C 159.1202 156.6906 158.9246 151.9855 159.7717 150.3103 C 160.6187 148.6352 156.3834 147.9909 156.3834 147.9909 Z" stroke="#ffffff00" stroke-width="1" fill="#fdc50d"/>
			<path d="M 159.5048 151.0846 L 155.7482 149.1507 C 155.7482 149.1507 157.2305 143.6098 164.8541 144.1252 C 172.4777 144.6407 174.5157 148.507 175.0804 148.3782 C 175.6452 148.2493 172.9653 151.0846 172.9653 151.0846 C 172.9653 151.0846 168.4208 144.3835 162.7737 147.605 C 157.1266 150.8264 159.5048 151.0846 159.5048 151.0846 Z" fill="#eaa319"/>
			<path d="M 158.0775 146.4447 L 158.0775 147.2178 L 159.7717 147.9909 L 161.4658 147.2178 L 163.1599 146.4447 L 164.007 144.8984 L 163.1599 144.1252 L 161.4658 143.3521 L 159.7717 144.1252 L 158.9246 144.8984 L 158.0775 146.4447 Z" fill="#ffff92"/>
			<path d="M 169.0894 158.0417 L 170.7834 158.0417 L 171.6306 158.8148 L 170.7834 160.3611 L 169.0894 161.1343 L 167.3953 161.1343 L 165.7011 161.1343 L 165.7011 160.3611 L 166.5482 159.588 L 167.3953 158.8148 L 169.0894 158.0417 Z" fill="#fdf583"/>
			<path d="M 155.0817 152.9508 C 155.0817 152.9508 156.2354 143.0919 163.158 147.1514 C 170.0804 151.211 162.0042 155.2705 162.0042 155.2705 C 162.0042 155.2705 157.6776 157.8802 155.0817 152.9508 Z" stroke="#000000" stroke-width="1" fill="#221f20"/>
			<path d="M 90.8561 142.1922 C 90.8561 142.1922 92.0099 154.9508 98.9325 157.2705 C 98.9325 157.2705 102.3937 162.1033 107.0088 166.5494 C 111.6238 170.9956 99.7017 164.6163 98.9325 163.0698 C 98.1633 161.5234 99.8939 159.5902 97.7787 158.4304 C 95.6635 157.2705 94.3174 158.4304 94.3174 158.4304 C 94.3174 158.4304 88.741 151.8578 90.8561 142.1922 Z" fill="#e6e6e6"/>
			<path d="M 109.3163 108.5561 C 109.3163 108.5561 105.2781 100.8237 112.7776 95.7976 C 120.277 90.7715 131.2377 106.2364 131.2377 106.2364 C 131.2377 106.2364 131.8146 108.7494 128.9302 108.5561 C 126.0458 108.3628 119.8925 106.8163 109.3163 108.5561 Z" fill="#ed1e26"/>
			<path d="M 112.7776 99.2772 C 112.7776 99.2772 115.4697 94.6377 119.7001 99.2772 C 123.9305 103.9166 118.5464 103.9166 118.5464 103.9166 C 118.5464 103.9166 115.2774 104.4966 112.7776 99.2772 Z" fill="#f79274"/>
			<path d="M 154.3129 85.3588 C 154.3129 85.3588 166.235 77.433 183.1568 88.8384 C 183.1568 88.8384 186.2335 94.2511 171.6192 94.6377 C 157.0049 95.0243 154.3129 85.3588 154.3129 85.3588 Z" stroke="#ffffff00" stroke-width="1" fill="#ed1e26"/>
			<path d="M 163.5429 88.8384 C 163.5429 88.8384 162.3892 85.1655 167.0042 85.3588 C 171.6192 85.5521 172.7729 87.6785 172.7729 87.6785 C 172.7729 87.6785 172.5807 89.8049 170.4655 89.9982 C 168.3502 90.1915 164.5043 90.5782 163.5429 88.8384 Z" stroke="#ffffff00" stroke-width="1" fill="#f79274"/>
			<path d="M 162.0046 108.5561 C 162.0046 108.5561 158.9279 103.7233 173.9268 102.7568 C 173.9268 102.7568 165.0812 110.8759 164.6967 110.8759 C 164.3121 110.8759 162.0046 112.229 162.0046 108.5561 Z" stroke="#ffffff00" stroke-width="1" fill="#ed1e26"/>
			<path d="M 163.5429 107.3962 C 163.5429 107.3962 163.7352 103.1434 168.158 106.2364 C 168.158 106.2364 166.235 111.2625 163.5429 107.3962 Z" stroke="#ffffff00" stroke-width="1" fill="#f79274"/>
			<path d="M 188.9256 138.7126 C 188.9256 138.7126 192.6753 134.3631 195.8481 136.3929 C 199.0209 138.4227 193.5406 141.0324 193.5406 141.0324 L 188.9256 138.7126 Z" stroke="#ffffff00" stroke-width="1" fill="#ed1e26"/>
			<path d="M 191.2331 137.5528 C 191.2331 137.5528 191.4254 133.2999 195.8481 136.3929 C 195.8481 136.3929 193.9252 141.419 191.2331 137.5528 Z" stroke="#ffffff00" stroke-width="1" fill="#f79274"/>
			<path d="M 135.8527 58.6818 C 135.8527 58.6818 126.6227 47.2765 128.9302 39.3507 C 128.9302 39.3507 126.6227 47.2765 160.0817 58.6818 C 160.0817 58.6818 174.6959 64.0945 180.8492 70.2805 L 182.0031 72.6003 C 182.0031 72.6003 191.0408 68.1541 216.6158 77.2397 L 207.3857 91.1581 C 207.3857 91.1581 208.3472 83.619 192.3868 78.3996 C 192.3868 78.3996 182.1953 75.4999 179.6956 78.3996 C 179.6956 78.3996 162.7737 59.6484 135.8527 58.6818 Z" stroke="#568e37" stroke-width="1" fill="#416b2a"/>
			<path d="M 139.314 70.2805 L 139.314 76.0798 C 139.314 76.0798 135.8527 71.4404 127.7764 71.4404 L 139.314 70.2805 Z" stroke="#568e37" stroke-width="1" fill="#416b2a"/>
			<path d="M 158.9279 23.8858 C 158.9279 23.8858 162.9661 21.1795 165.8505 21.5661 C 165.8505 21.5661 178.7341 37.6109 179.6956 55.2022 C 179.6956 55.2022 173.1575 34.3246 158.9279 23.8858 Z" stroke="#568e37" stroke-width="1" fill="#416b2a"/>
			<path d="M 184.3105 66.8009 C 184.3105 66.8009 190.2717 65.6411 192.3868 65.6411 L 186.618 67.9608 L 184.3105 66.8009 Z" stroke="#568e37" stroke-width="1" fill="none"/>
			<path d="M 203.9244 100.437 C 204.309 99.6638 212.0007 101.2103 213.1545 100.437 C 213.1545 100.437 212.1931 101.4036 205.0782 102.7568 C 205.0782 102.7568 203.5399 101.2103 203.9244 100.437 Z" stroke="#568e37" stroke-width="1" fill="#416b2a"/>
			<path d="M 150.8516 134.0732 C 150.8516 134.0732 120.8539 91.1581 90.8561 127.114 C 90.8561 127.114 84.7328 135.2935 84.7028 139.4859 C 84.691 141.1219 86.7219 141.0324 88.5486 142.1922 C 89.5284 142.8143 83.7913 142.644 83.9336 143.9321 C 83.9336 143.9321 77.588 149.7314 83.9336 151.4712 C 83.9336 151.4712 103.5475 142.1922 140.4678 152.631 C 140.4678 152.631 136.4296 147.4117 150.8516 134.0732 Z" stroke="#ed1e26" stroke-width="1" fill="#ca151f"/>
			<path d="M 186.618 153.7909 C 186.618 153.7909 195.2712 149.7314 187.7719 146.8317 C 187.7719 146.8317 173.3499 117.2551 147.3903 138.7126 C 147.3903 138.7126 143.3522 142.1922 141.6215 149.1514 C 141.6215 149.1514 133.5452 151.4712 141.6215 153.7909 C 141.6215 153.7909 153.1591 144.512 186.618 153.7909 Z" stroke="#ed1e26" stroke-width="1" fill="#ca151f"/>
			<path d="M 96.0481 129.4337 C 93.3453 131.6074 93.1637 135.233 93.1637 135.233 C 116.8157 125.9541 135.2758 138.7126 140.4678 137.5528 C 145.6597 136.3929 143.929 130.5936 143.929 130.5936 C 143.929 130.5936 118.5464 105.0765 102.3937 124.7942 C 102.3937 124.7942 98.9325 127.114 96.0481 129.4337 Z" fill="#ed1e26"/>
			<path d="M 113.3544 121.3146 C 113.3544 121.3146 114.8651 117.0808 127.2987 121.9862 C 140.8318 127.3255 131.2377 128.8538 131.2377 128.8538 C 131.2377 128.8538 116.5907 126.6868 113.3544 121.3146 Z" fill="#f79274"/>
			<path d="M 150.4348 141.9083 C 148.6631 143.5219 148.5441 146.2135 148.5441 146.2135 C 164.0483 139.3251 176.1492 148.7967 179.5526 147.9356 C 182.956 147.0746 181.8215 142.7693 181.8215 142.7693 C 181.8215 142.7693 165.1828 123.826 154.5945 138.464 C 154.5945 138.464 152.3256 140.1861 150.4348 141.9083 Z" fill="#ed1e26"/>
			<path d="M 159.5105 137.1724 C 159.5105 137.1724 162.8813 132.8523 170.4769 136.3114 C 179.9308 140.6167 175.0148 144.0609 175.0148 144.0609 C 175.0148 144.0609 161.1492 141.0472 159.5105 137.1724 Z" fill="#f79274"/>
		</g>
		<g>
			<path d="M 72.3921 241.0484 C 72.3921 241.0484 80.1946 247.4951 72.8511 258.0863 C 65.5076 268.6774 57.705 267.7564 57.705 267.7564 C 57.705 267.7564 51.2794 269.5984 47.1487 263.1516 C 47.1487 263.1516 47.6077 262.2306 42.559 260.3887 C 37.5103 258.5468 35.0624 258.8537 27.4129 251.6395 C 27.4129 251.6395 25.118 248.7231 25.118 241.9694 C 25.118 241.9694 23.2822 240.8949 21.9053 235.5226 C 21.9053 235.5226 21.5992 231.3782 23.7411 229.9968 C 23.7411 229.9968 21.1403 226.1594 21.9053 219.4056 C 21.9053 219.4056 23.7411 217.1032 27.4129 216.1823 C 27.4129 216.1823 18.6924 213.5728 18.2335 210.6564 C 18.2335 210.6564 15.1737 208.8145 18.6924 203.2887 C 22.2112 197.7629 41.1821 203.2887 41.1821 203.2887 C 41.1821 203.2887 50.2085 207.5866 52.1974 209.7355 C 52.1974 209.7355 50.2085 202.6747 54.0333 200.0653 C 57.858 197.4559 59.9999 197.7629 59.9999 197.7629 C 59.9999 197.7629 63.6716 198.9908 64.1306 203.7492 C 64.5896 208.5075 67.0375 209.7355 67.8024 210.6564 C 68.5674 211.5774 72.8511 216.1823 72.8511 216.1823 C 72.8511 216.1823 74.687 222.4755 74.228 230.9177 C 73.769 239.3599 72.3921 241.0484 72.3921 241.0484 Z" stroke="#000000" stroke-width="1" fill="#221f20"/>
			<path d="M 65.0486 249.3371 C 65.0486 249.3371 69.7913 246.8812 71.4742 242.8903 C 71.4742 242.8903 74.84 242.5833 74.228 251.6395 C 73.6161 260.6957 61.8358 265.454 61.8358 265.454 C 61.8358 265.454 55.2572 268.0634 51.2794 265.454 C 51.2794 265.454 48.6786 263.4586 48.9846 262.6911 C 48.9846 262.6911 55.7162 261.7701 57.2461 257.6258 C 57.2461 257.6258 49.9025 261.6166 48.0667 260.8492 C 46.2307 260.0817 38.4282 257.6258 38.4282 257.6258 L 33.8385 254.8629 C 33.8385 254.8629 28.4839 250.7185 27.8719 249.3371 C 27.2599 247.9556 25.73 245.0392 26.495 242.8903 C 26.495 242.8903 36.1334 250.4116 39.3462 250.7185 C 42.559 251.0255 46.2307 250.2581 46.2307 250.2581 C 46.2307 250.2581 48.9846 248.5696 48.9846 247.9556 C 48.9846 247.3416 53.7273 251.0255 52.6564 254.4024 C 51.5854 257.7793 45.7718 256.7048 45.7718 256.7048 C 45.7718 256.7048 38.1223 255.6303 34.7565 253.4814 C 34.7565 253.4814 36.8983 257.4723 48.9846 259.0072 C 48.9846 259.0072 55.4102 258.5468 54.4922 252.5605 C 53.5743 246.5742 49.4435 246.5742 49.4435 246.5742 C 49.4435 246.5742 49.4435 239.0529 42.559 236.4435 C 35.6744 233.8341 35.6744 232.7597 35.6744 232.7597 C 35.6744 232.7597 41.794 227.6944 42.1 225.8524 C 42.406 224.0105 42.8649 223.3965 42.1 219.4056 C 42.1 219.4056 45.9248 216.7962 45.7718 213.4193 C 45.7718 213.4193 42.253 218.0242 40.7231 218.0242 C 40.7231 218.0242 38.2753 216.0287 26.495 213.8798 C 14.7147 211.7309 19.6104 204.6702 19.6104 204.6702 C 19.6104 204.6702 19.9164 201.7538 28.7898 202.8282 C 37.6633 203.9027 42.559 206.0516 42.559 206.0516 L 49.4435 210.196 L 53.5743 212.4984 C 53.5743 212.4984 56.1752 223.857 58.623 224.471 C 58.623 224.471 60.1528 225.8524 64.5896 225.8524 C 64.5896 225.8524 58.7759 224.778 57.705 219.8661 C 57.705 219.8661 55.2572 214.6473 54.4922 211.5774 C 53.7273 208.5075 53.1153 204.6702 53.1153 204.6702 C 53.1153 204.6702 53.8802 201.7538 58.623 199.1443 C 58.623 199.1443 62.6007 197.7629 63.6716 208.354 C 63.6716 208.354 69.1793 215.4148 71.0152 216.1823 C 72.8511 216.9497 73.3101 230.9177 73.3101 230.9177 C 73.3101 230.9177 73.463 238.132 69.6383 242.8903 C 69.6383 242.8903 67.4964 247.1882 65.0486 249.3371 Z" fill="#ffffff"/>
			<path d="M 50.3615 216.1823 C 50.3615 216.1823 49.7495 220.3266 47.1487 223.0895 C 44.5479 225.8524 45.3128 231.9922 45.3128 233.2202 C 45.3128 234.4481 46.6897 236.904 46.6897 236.904 C 46.6897 236.904 45.1598 228.0013 48.0667 225.3919 C 48.0667 225.3919 47.4547 239.9739 56.7871 245.6532 C 56.7871 245.6532 48.5256 237.211 49.4435 222.629 C 49.4435 222.629 52.3503 219.5591 50.3615 216.1823 Z" fill="#221f20"/>
			<path d="M 29.2488 219.4056 C 29.2488 219.4056 35.5214 220.1731 36.1334 229.0758 C 36.1334 229.0758 33.8385 234.9086 28.7898 231.8387 C 23.7411 228.7688 24.2001 226.7734 24.2001 226.7734 L 23.2822 219.8661 C 23.2822 219.8661 27.4129 216.6427 28.7898 217.1032 C 28.7898 217.1032 35.5214 216.1823 40.2641 219.4056 C 40.2641 219.4056 42.406 227.2339 38.4282 228.1548 L 37.5103 227.6944 C 37.5103 227.6944 37.5103 221.7081 34.7565 220.7871 C 32.0026 219.8661 29.2488 219.4056 29.2488 219.4056 Z" stroke="#ffffff00" stroke-width="1" fill="#fdfdfd"/>
			<path d="M 52.1974 213.4193 C 52.1974 213.4193 32.2321 197.9931 20.0693 206.0516 C 20.0693 206.0516 30.052 200.4107 50.3615 213.4193 L 52.1974 213.4193 Z" fill="#e6e6e6"/>
			<path d="M 28.3309 220.7871 C 28.3309 220.7871 25.2328 222.3988 25.577 224.9314 C 25.577 224.9314 23.6264 221.7081 24.6591 221.2476 C 24.6591 221.2476 26.2655 219.1754 27.4129 219.4056 C 28.5603 219.6359 28.3309 220.7871 28.3309 220.7871 Z" fill="#e6e6e6"/>
			<path d="M 64.1306 223.0895 C 64.1306 223.0895 57.1313 212.6135 55.8691 205.5911 C 55.8691 205.5911 57.2461 216.0671 59.0819 220.7871 C 60.9178 225.507 63.7864 222.9744 64.1306 223.0895 Z" stroke="#ffffff00" stroke-width="1" fill="#e6e6e6"/>
			<path d="M 68.7203 248.4161 L 71.9332 245.1927 C 71.9332 245.1927 73.8838 249.3371 72.8511 252.1 C 72.8511 252.1 70.7857 248.4161 68.7203 248.4161 Z" stroke="#ffffff00" stroke-width="1" fill="#e6e6e6"/>
			<path d="M 33.8385 233.2202 C 33.8385 233.2202 45.0068 238.2855 46.6897 241.0484 C 48.3726 243.8113 47.1487 246.5742 47.1487 246.5742 C 47.1487 246.5742 47.1487 247.6487 46.2307 248.4161 C 45.3128 249.1836 42.1 249.3371 42.1 249.3371 L 39.3462 248.8766 C 39.3462 248.8766 31.2377 245.3463 31.0847 243.8113 C 30.9317 242.2763 31.0847 237.3645 33.8385 235.0621 C 33.8385 235.0621 28.6368 235.3691 29.7078 242.4298 C 29.7078 242.4298 25.73 243.3508 23.7411 235.9831 C 23.7411 235.9831 23.5881 231.5317 25.118 230.9177 C 26.6479 230.3037 24.9651 234.4481 33.8385 233.2202 Z" stroke="#ffffff00" stroke-width="1" fill="#ffffff"/>
			<path d="M 35.2155 235.5226 C 35.2155 235.5226 46.6897 241.2786 45.3128 242.8903 C 45.3128 242.8903 38.543 237.4796 34.7565 237.3645 L 35.2155 235.5226 Z" stroke="#ffffff00" stroke-width="1" fill="#e6e6e6"/>
		</g>
		<g>
			<path d="M 28.1342 202.4692 L 39.7542 195.7307 L 51.9351 202.794 L 51.855 216.2711 L 40.235 223.5779 L 28.2944 216.5958 L 28.1342 202.4692 Z" fill="#ffffff"/>
			<path d="M 39.9946 196.5426 L 51.2139 203.0375 L 51.2139 216.2711 L 39.9946 222.766 L 28.9355 216.2711 L 28.9355 202.9564 L 39.9946 196.5426 ZM 27.4129 202.1445 L 27.4129 217.1641 L 39.8343 224.471 L 40.1548 224.471 L 52.6564 217.1641 L 52.6564 202.2257 L 40.3151 195 L 39.7542 195 L 27.4129 202.1445 Z" stroke="#000000" stroke-width="1" fill="#000000"/>
			<path d="M 39.9946 198.897 L 30.6184 204.1741 L 30.6184 208.3959 L 46.8063 212.2929 L 46.8063 213.5919 L 39.9946 217.5701 L 33.1829 213.7543 L 33.1829 211.9681 L 30.6184 210.9939 L 30.6184 214.972 L 39.9946 220.4116 L 49.3707 215.0533 L 49.3707 210.7503 L 33.2629 206.8533 L 33.2629 205.6355 L 39.9946 201.6573 L 46.9666 205.5543 L 46.9666 207.2593 L 49.4508 208.3147 L 49.4508 204.2553 L 39.9946 198.897 Z" stroke="#221f20" stroke-width="1" fill="#ed1d25"/>
		</g>
		<g>
			<path d="M 24.6094 289.9531 C 24.6719 289.6719 24.75 289.375 24.8438 289.0625 C 25.2344 287.4375 25.8281 285.8906 26.6406 284.4531 C 27.1406 283.6406 27.625 283.4063 28.0781 283.7656 C 28.5313 284.1406 28.875 284.75 29.125 285.6094 C 29.3906 286.2031 30 286.5 30.9531 286.5 C 31.8906 286.5 32.7813 286.2813 33.625 285.8281 C 34.4531 285.375 34.7969 284.8281 34.6719 284.1719 C 34.0938 282.5 33.0781 281.375 31.6406 280.7813 C 30.2031 280.1875 28.6719 280.0781 27.0625 280.4219 C 25.0469 280.9375 23.4531 281.9688 22.2813 283.5 C 21.1094 285.0313 20.2188 286.7656 19.625 288.7031 C 19.4219 289.2656 19.25 289.8281 19.125 290.3906 C 18.5625 290.6406 18.2031 290.9688 18 291.375 C 17.7656 292.1563 17.9844 292.6406 18.6406 292.8281 C 18.1406 296.4531 17.9063 300.1094 17.9375 303.7656 C 17.9375 304.5625 17.9375 305.3594 17.9063 306.1719 C 17.6563 310.7656 17.875 315.2813 18.5625 319.75 C 18.8906 321.7031 19.5469 323.6406 20.5313 325.5781 C 21.5156 327.5156 23 328.7813 24.9688 329.375 C 26.8125 329.7969 28.5313 329.5938 30.125 328.75 C 31.7188 327.9063 32.8125 326.5781 33.4375 324.7344 C 34.8438 319.5469 35.75 314.2344 36.125 308.7969 L 36.2656 307.5938 C 36.8125 302 37.0781 296.375 37.0625 290.75 C 37.0625 290.5313 36.9375 290.375 36.7188 290.2656 C 36.5 290.1563 36.25 290.0781 35.9844 290.0313 C 35.7188 289.9844 35.5313 289.9531 35.4063 289.9531 L 24.6094 289.9531 L 24.6094 289.9531 ZM 28.8281 321.5469 C 28.7031 322.8281 28.4375 323.9688 28.0313 324.9688 C 27.8906 325.2344 27.8125 325.4375 27.7969 325.5625 C 27.75 325.6875 27.7031 325.75 27.6719 325.75 C 27.6406 325.7656 27.5625 325.7188 27.4688 325.5938 C 27.375 325.5156 27.2344 325.4063 27.0625 325.2656 C 26.7969 325.0781 26.5625 324.7969 26.375 324.4219 C 26.1719 324.0625 26 323.7188 25.8438 323.4063 C 25.7813 323.3281 25.7344 323.25 25.7031 323.1719 C 25.0313 321.7656 24.5469 320.2969 24.25 318.7344 C 23.2031 312.4844 22.9531 306.1563 23.5156 299.7188 C 23.5313 299.25 23.5469 298.75 23.5781 298.25 C 23.6406 296.5156 23.7969 294.7656 24.0469 293 L 31.5156 293 C 31.4844 300.2188 30.9688 307.4063 29.9531 314.5625 C 29.6719 316.4531 29.3594 318.3281 29.0313 320.1719 C 28.9375 320.6094 28.8594 321.0625 28.8281 321.5469 L 28.8281 321.5469 Z" fill="#211f1f"/>
			<path d="M 53.4531 282.7656 C 53.1563 282.2656 52.6406 282 51.9219 282 C 49.1719 280.5625 46.9531 280.7344 45.2344 282.4844 C 43.5156 284.2344 42.2031 286.5938 41.3125 289.5625 C 40.4219 292.5313 39.8594 295.0938 39.6094 297.2188 C 39.0156 302.3125 38.9688 307.4219 39.4375 312.5313 C 39.4375 312.6875 39.4531 312.8438 39.4688 313 C 39.6094 315.4063 39.9063 317.875 40.3438 320.4219 C 40.8125 322.9688 41.6875 325.2344 43 327.2188 C 44.0781 328.7188 45.4531 329.5625 47.1094 329.7656 C 48.7656 329.9375 50.3438 329.5156 51.8281 328.4844 C 53.4844 327.2031 54.75 325.4844 55.6563 323.3438 C 56.5469 321.2188 57.1563 319.125 57.5 317.0625 C 58.2813 311.5938 58.3125 306.125 57.6094 300.6563 C 57.2031 294.4219 55.8125 288.4531 53.4531 282.7656 L 53.4531 282.7656 ZM 51.2969 319.5313 C 51.1563 320.2813 51 321.0625 50.8281 321.875 C 50.6406 322.6875 50.4375 323.375 50.2031 323.9375 C 49.8594 324.7656 49.4688 325.5469 49 326.2969 C 48.8438 325.9844 48.625 325.6406 48.3438 325.2344 C 48.0938 324.8906 47.9063 324.5938 47.8125 324.375 C 47.4688 323.5938 47.2031 322.7813 46.9844 321.9531 C 46.7813 321.2031 46.5938 320.3438 46.4375 319.375 C 46.2656 318.4063 46.1094 317.4844 45.9844 316.625 C 45.9531 316.4063 45.9219 316.2031 45.8906 315.9844 C 45.375 312.4531 45.0938 308.9063 45.0469 305.3281 C 44.9531 301.5313 45.2188 297.75 45.8438 293.9844 C 46.1719 292.1875 46.6094 290.4063 47.1719 288.625 C 47.2188 288.4688 47.2813 288.2656 47.3438 288 C 47.5313 287.2969 47.7813 286.5156 48.0781 285.6406 C 50.5469 292.2969 51.875 299.1875 52.0313 306.3438 C 52.3281 310.4063 52.1563 314.4688 51.5 318.5156 C 51.4219 318.8281 51.3594 319.1563 51.2969 319.5313 L 51.2969 319.5313 Z" fill="#211f1f"/>
			<path d="M 73.4219 281.9063 L 69 281.9063 C 68.7344 281.3125 68.125 281 67.1875 281 C 66.25 281 65.3594 281.25 64.5156 281.7188 C 63.2969 281.8125 62.0938 281.9844 60.9063 282.2188 C 60.5938 282.2969 60.1875 282.4063 59.6875 282.5469 C 59.1875 282.7031 58.7344 282.9063 58.3125 283.1719 C 57.9063 283.4531 57.6719 283.7969 57.6094 284.2344 C 57.6094 284.6719 57.75 284.9844 58.0313 285.1875 C 58.3125 285.3906 58.6563 285.4844 59.0313 285.4844 L 60.0781 285.4844 C 61.1719 284.9531 62.2656 284.6875 63.3906 284.6875 C 64.0469 299.4375 64.0938 314.1719 63.5 328.8906 C 63.5313 329.6094 64.0156 330.0156 64.9375 330.0938 C 65.8438 330.1406 66.7656 330 67.6875 329.6406 C 68.6094 329.25 69.125 328.7813 69.2344 328.1563 C 69.7969 313.625 69.7813 299.1094 69.1719 284.5938 L 71.3594 284.5938 L 75.7813 284.5938 C 76.2813 284.5938 76.9688 284.5 77.8281 284.2969 C 78.6875 284.0938 79.2656 283.75 79.5625 283.2656 C 79.75 282.7656 79.6875 282.4219 79.375 282.2188 C 79.0625 282.0156 78.6094 281.9063 78.0313 281.9063 L 73.4219 281.9063 L 73.4219 281.9063 Z" fill="#211f1f"/>
			<path d="M 106.25 318.4375 C 106.5625 318.7344 106.8906 319.0156 107.25 319.2656 C 108.0781 319.9219 108.7813 320.6563 109.3438 321.4688 C 110.0156 322.7813 110.0313 323.875 109.375 324.7813 C 108.7188 325.6875 107.8438 326.4531 106.7188 327.0781 C 106.2031 327.3594 105.875 327.6875 105.7188 328.0469 C 105.5625 328.4219 105.7031 328.7969 106.1563 329.2031 C 106.4688 329.4375 106.8906 329.5313 107.4219 329.5 C 107.9375 329.4531 108.4531 329.3438 108.9844 329.1719 C 109.5 329 109.9063 328.8281 110.2031 328.6406 C 111.6406 327.8906 112.9688 326.875 114.2188 325.625 C 115.4531 324.375 115.9063 322.875 115.5781 321.0938 C 115.3594 320.2813 114.9688 319.5781 114.4219 318.9531 C 113.8594 318.3281 113.2813 317.75 112.6563 317.2188 C 112.5 317.0938 112.3438 316.9688 112.2188 316.8438 C 110.4219 315.2969 108.9844 313.4688 107.9063 311.375 C 105.8438 306.9531 105.25 302.3438 106.1094 297.5313 C 106.5469 295.0938 107.25 292.7344 108.2031 290.4219 C 108.625 289.3594 109.1094 288.3281 109.6406 287.2969 C 109.6719 287.2031 109.75 287.0156 109.875 286.7344 C 110.125 286.1406 110.4531 285.4688 110.8281 284.7031 C 111.3281 285.6875 111.5938 286.8594 111.625 288.2344 C 111.6406 289.6094 111.6094 290.8125 111.5313 291.8438 C 111.5 292.1875 111.5 292.4688 111.5 292.7188 C 111.4219 294.0625 111.3594 295.4219 111.2969 296.7656 L 110.9375 305.2344 C 110.9688 305.9688 111.4531 306.375 112.3594 306.4531 C 113.2656 306.5313 114.1719 306.375 115.1094 306 C 116.0469 305.625 116.5625 305.125 116.6719 304.5 C 116.7344 302.9688 116.8125 301.4531 116.875 299.9219 L 117.2656 290.7188 C 117.2656 290.4688 117.2813 290.2031 117.3125 289.9219 C 117.3906 288.6875 117.375 287.4375 117.2813 286.1719 C 117.1875 284.9219 116.7969 283.75 116.1406 282.6875 C 114.5 280.5938 112.3906 279.9844 109.8281 280.8906 C 108.3906 281.4219 107.25 282.2813 106.4219 283.4688 C 105.5938 284.6563 104.875 285.9219 104.25 287.2969 C 104.1406 287.5469 104.0156 287.7969 103.8906 288.0313 C 100.2031 294.9063 99.1875 302.0781 100.875 309.5781 C 101.875 313.0156 103.6719 315.9688 106.25 318.4375 L 106.25 318.4375 Z" fill="#eb1e26"/>
			<path d="M 127.8125 281.5781 L 127.8125 281.5469 C 127.7656 281.1406 127.4531 280.875 126.875 280.7656 C 126.2969 280.6719 125.6406 280.7031 124.8906 280.8594 C 124.1406 281.0313 123.4844 281.3125 122.9375 281.6875 C 122.3906 282.0625 122.0938 282.5313 122.0625 283.0781 C 122.8125 298.1719 122.8906 313.2813 122.2656 328.4063 C 122.3125 329.1094 122.7813 329.5 123.6875 329.5938 C 124.5938 329.6563 125.5156 329.5 126.4531 329.1406 C 127.375 328.7656 127.8906 328.2656 127.9844 327.6406 C 128.4375 316.2031 128.5313 304.75 128.25 293.2813 C 131.0938 292.5313 133.8594 291.5469 136.5469 290.2969 C 137.7188 289.7969 138.875 289.0938 140.0156 288.2188 C 141.1406 287.3438 141.7188 286.1719 141.7188 284.7344 C 141.5156 283.0156 140.6406 281.875 139.0938 281.3281 C 137.5469 280.7969 135.7344 280.6094 133.6406 280.7813 C 131.5469 280.9688 129.5938 281.25 127.8125 281.6406 L 127.8125 281.5781 L 127.8125 281.5781 ZM 132.8906 289.0625 C 131.3281 289.6875 129.7656 290.1563 128.1719 290.5 C 128.1094 288.5 128.0313 286.4844 127.9531 284.4688 C 129.1563 284.1563 130.4219 284 131.7344 284 C 133.0469 284 134.125 284.1719 134.9688 284.5 C 135.7969 284.8438 136.0781 285.5313 135.8125 286.5938 C 135.4063 287.625 134.4375 288.4375 132.8906 289.0625 L 132.8906 289.0625 Z" fill="#eb1e26"/>
			<path d="M 150.2188 281.8906 C 150.0313 281.2969 149.4688 281 148.5156 281 C 147.5625 281 146.6406 281.2344 145.7656 281.6875 C 144.875 282.1563 144.4531 282.7344 144.4688 283.4375 C 144.7969 285.7813 144.9688 288.1406 144.9688 290.5156 C 144.9844 290.9531 145.2813 291.2188 145.8594 291.3125 C 146.4219 291.4063 147.0781 291.375 147.8281 291.2031 C 148.5781 291.0469 149.2344 290.7656 149.7969 290.375 C 150.3594 290 150.6563 289.5313 150.7031 288.9688 C 150.7031 286.625 150.5313 284.2656 150.2188 281.8906 L 150.2188 281.8906 ZM 149.2188 293.75 C 148.6406 293.6563 147.9688 293.6875 147.2188 293.8438 C 146.4688 294.0156 145.8125 294.2969 145.25 294.6875 C 144.6875 295.0781 144.4063 295.5469 144.4063 296.0938 C 144.6406 306.8438 145.1875 317.5781 146.0313 328.2969 C 146.0938 328.7344 146.4063 329 147 329.1094 C 147.5938 329.2031 148.25 329.1719 149 329 C 149.7344 328.8281 150.375 328.5469 150.9375 328.1563 C 151.4844 327.7656 151.75 327.2969 151.7344 326.7344 C 150.8906 316.0313 150.3594 305.2969 150.1094 294.5313 C 150.0781 294.1094 149.7813 293.8438 149.2188 293.75 L 149.2188 293.75 Z" fill="#eb1e26"/>
			<path d="M 168.25 323.2031 C 168.1875 324.25 168.0781 325.2813 167.9531 326.2969 C 167.5469 325.9219 167.1875 325.5313 166.8594 325.1094 C 166.1719 324.25 165.5625 323.3281 165.0625 322.3594 C 163.25 318.5 162.1094 314.4375 161.6719 310.1563 C 160.9844 305.4844 160.8125 300.7969 161.1719 296.0781 C 161.1719 295.9063 161.1875 295.7188 161.2188 295.5156 C 161.25 294.3906 161.3906 292.9375 161.625 291.125 C 161.8438 289.3281 162.2656 287.7031 162.8906 286.2344 C 163.5156 284.7656 164.4219 283.9844 165.625 283.8594 C 166.2188 283.8594 166.9375 283.7656 167.75 283.5625 C 168.5625 283.3594 169.1406 282.9844 169.4531 282.4531 C 169.6406 281.9531 169.5938 281.5938 169.2813 281.3594 C 168.9688 281.125 168.5156 281 167.9219 281 C 162.8438 281 159.3906 282.9531 157.5781 286.8594 C 155.75 290.7656 154.9063 295.2188 155 300.25 C 155.125 305.2813 155.5156 309.6719 156.2344 313.3906 C 156.6094 316.2969 157.4219 319.4375 158.6875 322.8438 C 159.9375 326.25 161.9844 328.625 164.8281 329.9531 C 165.9844 330.3594 167.2031 330.4531 168.4844 330.2188 C 169.7656 329.9688 170.875 329.4688 171.8438 328.6875 C 172.6563 327.9844 173.1719 327.1719 173.4063 326.25 C 173.6406 325.3281 173.7813 324.3594 173.8281 323.3594 C 173.8438 322.5469 173.9375 321.75 174.0938 320.9688 C 174.1875 320.4688 173.9688 320.125 173.4531 319.9531 C 172.9219 319.7969 172.2813 319.7656 171.5313 319.875 C 170.7813 319.9844 170.0938 320.2031 169.4844 320.5156 C 168.875 320.8438 168.5156 321.2344 168.3906 321.7031 C 168.3281 321.9531 168.2813 322.4531 168.25 323.2031 L 168.25 323.2031 Z" fill="#eb1e26"/>
			<path d="M 184.4844 281.4375 C 184.3281 281.4688 184.1719 281.4688 184.0469 281.4688 C 184.0469 281.4531 184.0313 281.4219 184.0156 281.3594 L 184.0156 281.2656 C 183.9688 280.8594 183.6563 280.5938 183.0781 280.4844 C 182.5 280.3906 181.8438 280.4219 181.0938 280.5781 C 180.3438 280.75 179.6875 281.0313 179.125 281.4063 C 178.5625 281.7813 178.2969 282.25 178.2969 282.7969 C 179 297.5625 179.0625 312.3281 178.5 327.0781 L 178.4063 327.4063 C 178.3906 327.625 178.4063 327.8125 178.4688 327.9375 L 178.4688 328.0625 L 178.4688 328.2031 C 178.5 328.8281 178.8438 329.1875 179.5469 329.3281 C 180.2344 329.4531 181 329.4063 181.8438 329.2031 C 182.6875 328.9844 183.3438 328.6406 183.8125 328.2031 C 185.625 328.0781 187.4375 328 189.2656 328 C 189.8906 328 190.5938 327.8906 191.3438 327.6563 C 192.0938 327.4219 192.6719 327.0156 193.0781 326.4531 C 193.3594 325.8906 193.3125 325.5 192.9063 325.25 C 192.5 325 192.0469 324.875 191.5469 324.875 C 189.1094 324.875 186.6875 324.9844 184.2813 325.2031 C 184.6719 314.125 184.7188 303.0625 184.4063 292 L 185.0156 292 L 186.5625 292 L 187.4375 292 C 187.6875 292.0781 187.9688 292.1094 188.2656 292.1094 C 188.75 292.1094 189.2188 292.0781 189.6875 292 C 191.0625 292 192.2656 291.6094 193.3125 290.7969 C 193.7188 290.4219 193.9063 290.0313 193.8594 289.6406 C 193.7969 289.25 193.4531 289.0156 192.8125 288.9219 C 191.9688 288.8594 191.1719 288.875 190.4219 288.9844 C 188.8594 288.8594 187.2969 288.7813 185.7031 288.7813 L 184.3125 288.7813 C 184.2656 287.3281 184.2031 285.8906 184.1406 284.4531 C 186.2656 284.2344 188.375 284.125 190.4844 284.125 C 191.125 284.125 191.8281 284 192.5938 283.75 C 193.3438 283.5 193.9219 283.1094 194.3125 282.5469 C 194.5313 282.1719 194.5625 281.875 194.4219 281.6563 C 194.2656 281.4375 194.0469 281.2813 193.7344 281.1875 C 193.4219 281.0938 193.1094 281.0313 192.7813 281 C 190 281 187.2344 281.1563 184.4844 281.4375 L 184.4844 281.4375 Z" fill="#eb1e26"/>
			<path d="M 202.8906 287.8906 C 204.9531 285.9688 206.9219 285 208.7969 285 C 210.625 285 212.0625 285.5313 213.1094 286.5781 C 214.1406 287.625 214.6719 289.0625 214.6719 290.875 C 214.6719 293.2344 213.375 296.6719 210.7969 301.1719 C 208.2188 305.6875 206.9375 309.1563 206.9375 311.5781 C 206.9375 313.2031 207.4844 315.5469 208.5938 318.6094 L 210.1563 318.6094 C 209.375 315.8125 209 313.7188 209 312.3125 C 209 310.8125 209.5625 309.2188 210.7031 307.5625 C 211.8281 305.9063 213.4063 303.8281 215.4063 301.3125 C 217.4375 298.75 218.8125 296.6875 219.5313 295.1094 C 220.25 293.5469 220.6094 291.9844 220.6094 290.4375 C 220.6094 287.9063 219.7188 285.8906 217.9531 284.375 C 216.1719 282.875 213.8281 282.1094 210.9219 282.1094 C 208.3906 282.1094 205.7188 283.3438 202.8906 285.7813 L 202.8906 287.8906 L 202.8906 287.8906 ZM 205.375 325.3281 C 205.375 325.625 205.4844 325.9063 205.7031 326.1875 L 208.625 329.5313 C 208.9063 329.8438 209.2344 330 209.5938 330 C 209.7813 330 210.1094 329.7813 210.5469 329.3438 L 213.2031 326.4219 C 213.5156 326.0781 213.6719 325.7344 213.6719 325.4063 C 213.6719 325.125 213.5313 324.7969 213.2813 324.4375 L 210.625 321.5938 C 210.2188 321.25 209.875 321.0625 209.5938 321.0625 C 209.2813 321.0625 208.9531 321.2188 208.625 321.5313 L 205.9063 324.3125 C 205.5469 324.6719 205.375 325.0156 205.375 325.3281 L 205.375 325.3281 Z" fill="#eb1e26"/>
		</g>
	</g>
</svg>