<?xml version="1.0" standalone="no"?>
<!-- Generator: Adobe Fireworks 10, Export SVG Extension by Aaron Beall (http://fireworks.abeall.com) . Version: 0.6.1  -->
<!DOCTYPE svg PUBLIC "-//W3C//DTD SVG 1.1//EN" "http://www.w3.org/Graphics/SVG/1.1/DTD/svg11.dtd">
<svg id="token.fw-Page%201" viewBox="0 0 515 588" style="background-color:#ffffff00" version="1.1"
	xmlns="http://www.w3.org/2000/svg" xmlns:xlink="http://www.w3.org/1999/xlink" xml:space="preserve"
	x="0px" y="0px" width="515px" height="588px"
>
	<g id="Layer%201">
		<g>
			<path d="M 256.7254 42.416 L 473.6143 166.2727 L 473.6143 418.6309 L 256.7254 542.4876 L 42.9349 418.6309 L 42.9349 164.7245 L 256.7254 42.416 ZM 13.5 149.2424 L 13.5 435.6612 L 253.627 575 L 259.8238 575 L 501.5 435.6612 L 501.5 150.7906 L 262.9222 13 L 252.0778 13 L 13.5 149.2424 Z" stroke="#000000" stroke-width="6" fill="#000000"/>
			<path d="M 256.7254 87.314 L 75.4683 187.9477 L 75.4683 268.4546 L 388.4079 342.7686 L 388.4079 367.5399 L 256.7254 443.4022 L 125.0428 370.6364 L 125.0428 336.5757 L 75.4683 317.9973 L 75.4683 393.8595 L 256.7254 497.5895 L 437.9825 395.4077 L 437.9825 313.3526 L 126.5921 239.0386 L 126.5921 215.8154 L 256.7254 139.9532 L 391.5063 214.2672 L 391.5063 246.7796 L 439.5317 266.9063 L 439.5317 189.4959 L 256.7254 87.314 Z" stroke="#221f20" stroke-width="6" fill="#ed1e26"/>
		</g>
	</g>
</svg>