<?xml version="1.0" standalone="no"?>
<!-- Generator: Adobe Fireworks 10, Export SVG Extension by Aaron Beall (http://fireworks.abeall.com) . Version: 0.6.1  -->
<!DOCTYPE svg PUBLIC "-//W3C//DTD SVG 1.1//EN" "http://www.w3.org/Graphics/SVG/1.1/DTD/svg11.dtd">
<svg id="media_3_220_140.fw-Page%201" viewBox="0 0 220 140" style="background-color:#eeeeee" version="1.1"
	xmlns="http://www.w3.org/2000/svg" xmlns:xlink="http://www.w3.org/1999/xlink" xml:space="preserve"
	x="0px" y="0px" width="220px" height="140px"
>
	<g id="Layer%201">
		<g>
			<path d="M 110.9524 -38.6639 L 204.9206 16.4601 L 202.381 121.0055 L 109.0476 178.0303 L 17.619 124.1736 L 16.3492 12.6584 L 110.9524 -38.6639 Z" fill="#000000"/>
			<g>
				<path d="M 109.6825 -32.9614 L 198.5714 17.7273 L 198.5714 121.0055 L 109.6825 171.6942 L 22.0635 121.0055 L 22.0635 17.0937 L 109.6825 -32.9614 ZM 10 10.7576 L 10 127.9752 L 108.4127 185 L 110.9524 185 L 210 127.9752 L 210 11.3912 L 112.2222 -45 L 107.7778 -45 L 10 10.7576 Z" stroke="#ffffff" stroke-width="3" fill="#ffffff"/>
				<path d="M 109.6825 -14.5868 L 35.3968 26.5978 L 35.3968 59.5455 L 163.6508 89.9587 L 163.6508 100.0964 L 109.6825 131.1432 L 55.7143 101.3636 L 55.7143 87.4242 L 35.3968 79.8209 L 35.3968 110.8678 L 109.6825 153.3195 L 183.9683 111.5014 L 183.9683 77.9201 L 56.3492 47.5069 L 56.3492 38.0028 L 109.6825 6.9559 L 164.9206 37.3691 L 164.9206 50.6749 L 184.6032 58.9118 L 184.6032 27.2314 L 109.6825 -14.5868 Z" stroke="#221f20" stroke-width="3" fill="#ed1e26"/>
				<g>
					<path d="M 111.5873 -29.1598 C 111.5873 -29.1598 114.9206 -33.1198 120.4762 -31.0606 C 126.0318 -29.0014 128.0952 -14.5868 128.0952 -14.5868 C 128.0952 -14.5868 128.4127 -12.0523 128.0952 -5.7163 C 128.0952 -5.7163 133.4921 -6.9835 136.9841 -5.7163 C 136.9841 -5.7163 132.6984 -4.449 131.9048 -3.1818 C 131.9048 -3.1818 140.1587 -3.8154 143.9683 -1.9146 C 147.7778 -0.0138 150.1058 -0.4362 150.1058 -0.4362 C 150.1058 -0.4362 143.1217 11.3384 143.1217 10.8632 C 143.1217 10.388 141.4286 12.0248 141.4286 12.0248 L 146.5079 12.6584 C 146.5079 12.6584 146.6667 14.2424 143.9683 16.4601 L 140.7937 16.4601 C 140.7937 16.4601 143.3333 25.3306 143.3333 29.7658 C 143.3333 29.7658 145.2381 30.3994 145.2381 20.8953 C 145.2381 20.8953 148.7302 22.9545 147.7778 29.7658 C 147.7778 29.7658 145.5556 34.0427 146.5079 35.4683 C 147.4603 36.8939 150.3175 32.9339 150.3175 32.9339 C 150.3175 32.9339 151.3757 26.809 149.0476 19.4169 C 149.0476 19.4169 145.2381 1.8871 157.3016 -7.6171 C 157.3016 -7.6171 151.1111 2.8375 155.3968 5.6887 C 159.6826 8.5399 158.5714 -2.5482 158.5714 -2.5482 C 158.5714 -2.5482 157.1429 -13.7948 164.2857 -17.7548 C 164.2857 -17.7548 160.4762 -8.5675 164.9206 0.6198 C 164.9206 0.6198 169.5238 15.5096 163.0159 24.697 C 156.5079 33.8843 153.4921 34.8347 150.9524 42.438 C 148.4127 50.0413 152.8571 48.7741 152.8571 48.7741 C 152.8571 48.7741 155.5556 47.8237 156.6667 42.438 C 156.6667 42.438 155.3968 38.1612 160.4762 34.2011 C 160.4762 34.2011 157.619 39.1116 158.5714 46.2397 C 159.5238 53.3678 150.9524 62.7135 150.9524 62.7135 C 150.9524 62.7135 147.619 65.2479 145.2381 66.5152 C 145.2381 66.5152 143.9683 74.2769 141.4286 76.6529 C 141.4286 76.6529 140.6349 91.2259 134.4445 105.7989 C 128.254 120.3719 114.7619 132.4105 114.7619 132.4105 C 114.7619 132.4105 103.3333 142.3898 88.7302 148.8843 C 77.3198 153.9588 69.3982 149.9428 66.4797 147.9441 C 65.663 147.3848 65.3175 145.1618 65.3625 144.618 C 65.5874 141.9005 66.3163 137.5659 68.4127 135.5785 C 68.4127 135.5785 70.4762 130.9848 78.5714 122.2727 C 78.5714 122.2727 83.1746 115.4614 84.2857 100.0964 L 84.2857 86.7906 C 84.2857 86.7906 80.1587 84.573 79.2064 80.4545 C 78.254 76.3361 79.8413 74.7521 79.8413 74.7521 C 79.8413 74.7521 81.2698 72.2176 87.4603 70.3168 C 87.4603 70.3168 83.8095 68.0992 81.746 60.8127 C 81.746 60.8127 77.7778 54.4766 78.5714 50.0413 C 78.5714 50.0413 68.4127 43.23 74.7619 30.3994 C 74.7619 30.3994 77.619 24.5386 83.0159 22.1625 C 83.0159 22.1625 82.0635 15.1928 84.9206 10.124 C 87.7778 5.0551 90 3.7879 90 3.7879 C 90 3.7879 93.3333 1.4118 94.4444 1.2534 L 97.619 3.1543 L 103.9683 3.1543 C 103.9683 3.1543 101.9048 -0.489 92.5397 -1.281 C 92.5397 -1.281 89.3651 -3.8154 103.3333 -4.449 C 103.3333 -4.449 91.746 -11.8939 98.254 -22.8237 C 98.254 -22.8237 102.381 -13.9532 117.9365 -10.1515 C 117.9365 -10.1515 121.1111 -9.3595 125.5556 -6.9835 C 125.5556 -6.9835 125.7143 -19.1804 111.5873 -29.1598 Z" stroke="#000000" stroke-width="1" fill="#221f20"/>
					<path d="M 68.836 140.4362 C 69.9174 138.143 78.9947 126.9192 78.9947 126.9192 C 83.2275 123.1175 88.0952 114.4582 88.0952 114.4582 L 82.5926 118.8935 C 87.037 112.3462 87.4603 89.3251 87.4603 89.3251 C 102.6984 93.7603 101.4286 89.9587 101.4286 89.9587 C 101.4286 89.9587 89.4709 90.2755 83.0159 81.7218 C 83.0159 81.7218 78.4656 74.7521 88.0952 72.8512 L 88.7302 76.0193 L 88.7302 76.6529 L 86.1905 76.6529 L 86.8254 77.9201 C 86.8254 77.9201 95.5027 88.4803 115.3968 85.5234 C 135.291 82.5666 135.291 72.2176 138.254 69.0496 L 142.0635 68.416 C 142.0635 68.416 136.7725 82.989 125.5556 87.4242 C 125.5556 87.4242 128.0952 89.5363 138.254 81.7218 C 138.254 81.7218 132.1164 107.9109 125.5556 114.6694 C 125.5556 114.6694 117.9365 126.9192 98.254 140.0138 C 98.254 140.0138 80.6878 151.8411 69.4709 146.7723 C 69.4709 146.7723 67.1429 144.0266 68.836 140.4362 Z" stroke="#ed1e26" stroke-width="1" fill="#ca151f"/>
					<path d="M 129.0476 89.8003 C 129.0476 89.8003 121.9048 95.0275 113.4921 95.0275 C 105.0794 95.0275 93.1746 93.6019 93.1746 93.6019 L 92.5397 94.3939 C 92.5397 94.3939 93.4921 111.9766 91.2698 115.303 C 89.0476 118.6295 86.0317 123.8568 74.127 136.8457 C 72.381 139.5386 72.2207 142.0888 75.2676 143.4547 C 83.4921 147.1419 114.8132 121.1207 117.619 117.5207 C 120.9524 113.2438 129.2064 103.8981 129.0476 89.8003 Z" fill="#ed1e26"/>
					<path d="M 98.254 98.8292 C 98.254 98.8292 103.6508 94.2355 107.1429 100.73 C 107.1429 100.73 108.0952 104.3733 102.0635 114.6694 C 96.0318 124.9656 82.381 140.8058 79.2064 138.7466 C 76.0317 136.6873 81.9577 130.932 81.9577 130.932 L 93.1746 116.5703 C 93.1746 116.5703 98.254 109.9174 97.619 107.0661 L 98.254 98.8292 Z" stroke="#ffffff00" stroke-width="1" fill="#f79274"/>
					<path d="M 116.0318 85.5234 C 116.0318 85.5234 120.3175 85.9986 123.6508 86.157 C 126.9841 86.3154 118.254 89.1667 118.254 89.1667 C 118.254 89.1667 102.6984 91.3843 94.4444 88.6915 C 86.1905 85.9986 86.8254 82.3554 86.8254 82.3554 C 86.8254 82.3554 87.3016 80.6129 88.7302 81.0882 C 90.1587 81.5634 91.9048 82.3554 91.9048 82.3554 C 91.9048 82.3554 98.0952 84.8898 99.5238 84.8898 C 100.9524 84.8898 105.0794 86.949 116.0318 85.5234 Z" stroke="#ffffff00" stroke-width="1" fill="#ed1d25"/>
					<path d="M 108.4127 88.0579 C 108.4127 88.0579 108.7302 89.6419 103.3333 89.3251 C 97.9365 89.0083 94.4444 86.157 94.4444 86.157 C 94.4444 86.157 92.2222 84.0978 96.3492 84.2562 C 96.3492 84.2562 99.3651 86.7906 107.1429 87.4242 C 109.6753 87.6305 108.4127 88.0579 108.4127 88.0579 Z" stroke="#ffffff00" stroke-width="1" fill="#f49678"/>
					<path d="M 95.0794 72.2176 L 93.8095 71.584 L 90.2381 73.6432 C 90 78.3953 91.2698 77.9201 91.2698 77.9201 L 91.6667 77.2865 L 91.9048 77.2865 L 91.9048 78.5537 C 92.619 82.2762 100.7937 82.989 100.7937 82.989 L 101.4286 82.3554 L 101.4286 79.8209 L 101.5873 78.7913 L 101.746 78.6329 L 102.3016 82.7514 C 108.3333 86.0778 115.3968 83.6226 115.3968 83.6226 L 115.9524 82.197 L 116.4286 80.5337 L 116.6667 80.4545 L 116.6667 82.989 C 123.4127 82.9098 126.1905 79.8209 126.1905 79.8209 L 126.3492 77.7617 L 126.8254 77.4449 L 127.4603 78.5537 C 130.2381 77.9201 134.4445 72.8512 134.4445 72.8512 L 133.1746 71.584 C 133.1746 71.584 115.4762 80.6129 93.8095 73.4848 L 95.0794 72.2176 Z" stroke="#000000" stroke-width="1" fill="#ffffff"/>
					<path d="M 135.0794 56.3774 C 135.0794 56.3774 134.6032 67.228 109.6825 71.584 C 109.6825 71.584 93.0952 73.0888 86.1905 67.1488 L 84.2857 63.3471 L 85.5556 61.4463 C 85.5556 61.4463 88.3333 64.6143 90 64.6143 L 90 66.5152 L 90.6349 65.8815 L 90.6349 64.6143 C 90.6349 64.6143 92.381 66.5152 99.5238 67.1488 L 100.7937 68.416 L 100.7937 69.0496 L 101.4286 67.7824 L 102.0635 67.1488 C 102.0635 67.1488 110.6349 68.02 116.6667 65.8815 L 117.3016 67.1488 L 117.9365 66.5152 L 117.9365 65.2479 C 117.9365 65.2479 125.9524 61.3671 128.7302 58.2782 L 129.3651 60.8127 L 129.3651 58.2782 L 129.3651 57.011 C 129.3651 57.011 133.3333 54.3182 133.8095 50.6749 L 135.0794 51.3085 L 135.0794 56.3774 Z" stroke="#000000" stroke-width="1" fill="#fdfdfd"/>
					<path d="M 83.0159 53.2094 C 83.0159 53.2094 82.0635 52.8926 82.381 53.843 C 82.6984 54.7934 86.9312 56.9054 85.5556 57.011 C 84.1799 57.1166 81.1111 55.1102 81.1111 55.1102 C 81.1111 55.1102 89.4709 69.1552 113.4921 63.9807 C 113.4921 63.9807 126.1905 61.0239 134.127 46.2397 L 134.2328 42.1212 L 132.8571 41.5932 L 132.3281 42.2268 C 132.3281 42.2268 132.5397 44.4445 130.6349 49.4077 C 128.7302 54.371 114.7619 60.1791 114.7619 60.1791 L 112.2222 60.1791 L 116.6667 56.3774 C 116.6667 56.3774 108.836 55.2158 106.5079 51.9422 C 106.5079 51.9422 102.6984 56.7998 93.8095 55.7438 C 93.8095 55.7438 89.3651 56.5886 83.0159 53.2094 Z" stroke="#ed1e26" stroke-width="1" fill="#ca151f"/>
					<path d="M 102.6984 56.3774 C 102.6984 56.3774 106.5079 53.7638 109.6825 56.3774 C 109.6825 56.3774 111.3492 57.9614 107.7778 60.1791 C 107.7778 60.1791 107.1429 61.0503 113.4921 60.8127 L 116.0318 60.1791 L 115.3968 61.4463 C 115.3968 61.4463 113.4921 63.0303 103.9683 63.9807 C 94.4444 64.9311 89.3651 60.8127 89.3651 60.8127 C 89.3651 60.8127 88.5714 59.9415 89.3651 59.5455 C 89.3651 59.5455 88.8095 58.595 93.1746 58.9118 L 92.381 57.011 C 92.381 57.011 98.6508 57.407 102.6984 56.3774 Z" fill="#ed1e26"/>
					<path d="M 103.9683 60.1791 C 103.9683 60.1791 100.1587 60.8127 98.8889 60.1791 C 97.619 59.5455 98.8889 58.2782 98.8889 58.2782 C 98.8889 58.2782 101.1111 56.483 104.6032 58.9118 C 104.6032 58.9118 105.0265 59.6511 103.9683 60.1791 Z" stroke="#ffffff00" stroke-width="1" fill="#f79274"/>
					<path d="M 109.6825 33.5675 C 109.6825 33.5675 100.8995 16.0377 85.5556 24.0634 C 70.2116 32.0891 77.9365 44.9725 77.9365 44.9725 C 77.9365 44.9725 83.7566 53.9486 94.4444 53.843 C 105.1323 53.7374 105.2381 49.4077 105.2381 49.4077 L 104.6032 48.1405 C 104.6032 48.1405 100.6878 54.899 89.3651 50.0413 C 89.3651 50.0413 80.0529 46.0285 86.8254 34.8347 C 86.8254 34.8347 89.8942 31.4555 95.0794 30.3994 C 100.2646 29.3434 106.5079 36.1019 106.5079 36.1019 L 109.6825 33.5675 Z" stroke="#000000" stroke-width="1" fill="#ffffff"/>
					<path d="M 105.873 38.6364 C 105.873 38.6364 103.9683 41.1708 103.9683 44.9725 C 103.9683 48.7741 96.3492 49.4077 96.3492 49.4077 C 96.3492 49.4077 89.8942 49.9357 86.8254 44.9725 C 83.7566 40.0092 88.7302 34.2011 88.7302 34.2011 C 88.7302 34.2011 92.8571 30.3994 98.254 32.3003 C 103.6508 34.2011 105.6614 36.5243 105.873 38.6364 Z" stroke="#000000" stroke-width="1" fill="#ffff04"/>
					<path d="M 102.6984 44.3388 C 102.6984 44.3388 101.0053 48.2461 93.8095 48.1405 C 93.8095 48.1405 89.3651 47.0845 88.7302 44.9725 C 88.0952 42.8604 91.2698 43.7052 91.2698 43.7052 C 91.2698 43.7052 91.7989 46.2397 94.4444 46.2397 C 97.09 46.2397 100.3704 45.3949 101.4286 44.3388 C 102.4868 43.2828 102.6984 44.3388 102.6984 44.3388 Z" stroke="#ffffff00" stroke-width="1" fill="#fcda00"/>
					<path d="M 88.7302 36.7355 C 88.7302 36.7355 85.2381 40.9596 88.7302 45.6061 L 91.2698 43.7052 C 91.2698 43.7052 90.6349 40.0092 91.2698 38.6364 C 91.9048 37.2635 88.7302 36.7355 88.7302 36.7355 Z" stroke="#ffffff00" stroke-width="1" fill="#fdc50d"/>
					<path d="M 91.2698 39.27 L 88.254 37.686 C 88.254 37.686 89.3651 33.1451 95.0794 33.5675 C 100.7937 33.9899 103.1217 36.9467 103.545 36.8412 C 103.9683 36.7355 102.1693 38.742 102.1693 38.742 C 102.1693 38.742 98.6773 34.0955 94.4444 36.7355 C 90.2116 39.3756 91.2698 39.27 91.2698 39.27 Z" fill="#eaa319"/>
					<path d="M 90 35.4683 L 90 36.1019 L 91.2698 36.7355 L 92.5397 36.1019 L 93.8095 35.4683 L 94.4444 34.2011 L 93.8095 33.5675 L 92.5397 32.9339 L 91.2698 33.5675 L 90.6349 34.2011 L 90 35.4683 Z" fill="#ffff92"/>
					<path d="M 98.254 44.9725 L 99.5238 44.9725 L 100.1587 45.6061 L 99.5238 46.8733 L 98.254 47.5069 L 96.9841 47.5069 L 95.7143 47.5069 L 95.7143 46.8733 L 96.3492 46.2397 L 96.9841 45.6061 L 98.254 44.9725 Z" fill="#fdf583"/>
					<path d="M 92.5397 40.5372 C 92.5397 40.5372 94.9735 36.3131 98.254 37.3691 C 101.5344 38.4252 100.7937 41.1708 100.7937 41.1708 C 100.7937 41.1708 101.0053 43.3884 98.8889 44.3388 C 96.7725 45.2893 93.8095 44.3388 93.8095 44.3388 C 93.8095 44.3388 93.0688 43.7052 92.5397 43.0716 C 92.0106 42.438 92.5397 40.5372 92.5397 40.5372 Z" stroke="#000000" stroke-width="1" fill="#221f20"/>
					<path d="M 107.7778 25.9642 C 107.7778 25.9642 101.9048 19.7865 93.8095 18.9945 C 93.8095 18.9945 87.3016 19.3113 85.5556 20.8953 C 85.5556 20.8953 85.0794 13.292 86.8254 11.3912 C 86.8254 11.3912 89.0476 7.9063 93.1746 8.2231 C 97.3016 8.5399 103.9683 18.9945 103.9683 18.9945 C 103.9683 18.9945 105.7143 21.3705 107.7778 21.5289 C 109.8413 21.6873 111.5873 19.6281 111.5873 19.6281 C 111.5873 19.6281 113.9683 15.8264 113.4921 10.7576 L 109.6825 13.292 C 109.6825 13.292 104.4444 7.2727 102.0635 6.3223 C 99.6825 5.3719 105.2381 5.6887 105.2381 5.6887 C 105.2381 5.6887 109.3651 6.1639 110.3175 7.5895 C 110.3175 7.5895 112.381 7.5895 107.7778 4.4215 C 107.7778 4.4215 123.8095 0.6198 129.3651 5.6887 C 134.9206 10.7576 137.4603 16.1432 137.619 17.7273 C 137.619 17.7273 140.4762 22.0041 141.4286 31.6667 C 141.4286 31.6667 134.7619 36.4187 134.4445 39.27 L 132.5397 39.27 C 132.5397 39.27 132.5397 36.7355 130.6349 34.2011 C 128.7302 31.6667 136.9841 31.6667 136.9841 31.6667 C 136.9841 31.6667 139.2064 32.6171 138.8889 32.9339 C 138.8889 32.9339 139.5238 29.6074 131.9048 29.7658 C 131.9048 29.7658 130 29.6074 128.0952 31.6667 C 128.0952 31.6667 125.2381 29.9242 123.0159 30.3994 C 123.0159 30.3994 131.2698 23.4298 131.2698 20.8953 C 131.2698 18.3609 137.1429 27.865 136.9841 29.1322 C 136.9841 29.1322 138.5714 28.657 136.9841 20.8953 C 135.3968 13.1336 128.0952 10.7576 128.0952 10.7576 L 128.0952 12.0248 C 128.0952 12.0248 119.5238 10.916 117.3016 15.8264 C 117.3016 15.8264 124.127 12.8168 126.8254 14.5592 C 126.8254 14.5592 123.0159 20.7369 117.9365 22.1625 C 117.9365 22.1625 116.9841 23.4298 114.7619 20.2617 C 114.7619 20.2617 109.5238 26.7562 112.8571 30.3994 L 112.8571 31.6667 C 112.8571 31.6667 109.3651 29.7658 110.3175 25.9642 C 110.3175 25.9642 110.1587 23.7466 112.8571 20.2617 C 112.8571 20.2617 108.4127 22.6377 107.7778 25.9642 Z" stroke="#ed1e26" stroke-width="1" fill="#ca151f"/>
					<path d="M 107.619 40.3788 C 107.619 40.3788 110.3175 33.5675 117.3016 32.3003 C 124.2857 31.0331 128.0952 36.1019 128.0952 36.1019 C 128.0952 36.1019 132.5397 40.6956 128.4127 46.8733 C 125.6705 50.9781 126.6667 51.6253 117.3016 53.843 C 117.3016 53.843 109.3651 53.3678 107.7778 48.7741 C 107.0546 46.6811 106.7016 45.0415 106.6667 43.7052 C 106.6249 42.1087 107.619 40.3788 107.619 40.3788 Z" stroke="#000000" stroke-width="1" fill="#ffffff"/>
					<path d="M 111.5873 39.9036 C 111.5873 39.9036 114.6032 35.9435 118.254 35.7851 C 121.9048 35.6267 124.9206 38.0028 124.9206 38.0028 C 124.9206 38.0028 128.254 41.4876 126.8254 45.6061 C 125.3968 49.7245 122.0635 50.8333 121.746 50.6749 C 121.4286 50.5165 116.3492 53.051 112.8571 49.4077 C 109.3651 45.7645 110.4762 42.9132 110.4762 42.9132 C 110.4762 42.9132 111.1111 40.2204 111.5873 39.9036 Z" stroke="#000000" stroke-width="1" fill="#221f20"/>
					<path d="M 125.5556 44.9725 C 125.5556 44.9725 121.4286 49.5661 116.0318 48.7741 C 116.0318 48.7741 112.0635 47.1901 111.5873 44.3388 C 111.1111 41.4876 113.4921 39.9036 113.4921 39.9036 C 113.4921 39.9036 113.9683 37.686 118.5714 36.7355 C 123.1746 35.7851 126.1905 41.1708 126.1905 41.1708 C 126.1905 41.1708 126.6667 44.022 125.5556 44.9725 Z" stroke="#000000" stroke-width="1" fill="#ffff04"/>
					<path d="M 124.6032 44.3388 C 124.6032 44.3388 123.0087 47.5759 117.7258 47.5055 C 117.7258 47.5055 114.2757 47.1195 113.8095 45.7117 C 113.3434 44.3038 115.3968 44.4445 115.3968 44.4445 C 115.3968 44.4445 116.2496 46.2384 118.1919 46.2384 C 120.1342 46.2384 122.4506 44.8316 123.2275 44.1277 C 124.0044 43.4237 124.6032 44.3388 124.6032 44.3388 Z" stroke="#ffffff00" stroke-width="1" fill="#fcda00"/>
					<path d="M 113.9966 39.9032 C 113.9966 39.9032 111.2457 42.7201 113.8095 45.8173 L 115.5027 44.6556 C 115.5027 44.6556 115.3951 42.0854 115.8612 41.1703 C 116.3273 40.2552 113.9966 39.9032 113.9966 39.9032 Z" stroke="#ffffff00" stroke-width="1" fill="#fdc50d"/>
					<path d="M 115.7143 41.5932 L 113.647 40.5368 C 113.647 40.5368 114.4627 37.5099 118.658 37.7915 C 122.8533 38.0731 123.975 40.1852 124.2857 40.1148 C 124.5965 40.0444 123.1217 41.5932 123.1217 41.5932 C 123.1217 41.5932 120.6209 37.9326 117.5132 39.6924 C 114.4056 41.4522 115.7143 41.5932 115.7143 41.5932 Z" fill="#eaa319"/>
					<path d="M 114.9289 39.0585 L 114.9289 39.4809 L 115.8612 39.9032 L 116.7935 39.4809 L 117.7258 39.0585 L 118.1919 38.2138 L 117.7258 37.7915 L 116.7935 37.3691 L 115.8612 37.7915 L 115.3951 38.2138 L 114.9289 39.0585 Z" fill="#ffff92"/>
					<path d="M 120.9888 45.3937 L 121.921 45.3937 L 122.3872 45.8161 L 121.921 46.6608 L 120.9888 47.0832 L 120.0565 47.0832 L 119.1242 47.0832 L 119.1242 46.6608 L 119.5903 46.2384 L 120.0565 45.8161 L 120.9888 45.3937 Z" fill="#fdf583"/>
					<path d="M 116.0318 43.7052 C 116.0318 43.7052 116.6667 38.3196 120.4762 40.5372 C 124.2857 42.7548 119.8413 44.9725 119.8413 44.9725 C 119.8413 44.9725 117.4603 46.3981 116.0318 43.7052 Z" stroke="#000000" stroke-width="1" fill="#221f20"/>
					<path d="M 126.8254 67.1488 C 126.8254 67.1488 134.0211 65.0367 137.619 55.7438 C 137.619 55.7438 137.7728 53.8398 137.3016 51.1105 C 137.0725 49.7835 137.0408 48.1993 136.5079 47.3485 C 136.5079 47.3485 135.9259 38.4252 139.5238 36.7355 C 143.1217 35.0459 144.6032 31.6667 144.6032 31.6667 C 144.6032 31.6667 142.2751 37.3691 145.2381 39.27 C 148.2011 41.1708 150.3175 36.1019 150.3175 36.1019 C 150.3175 36.1019 153.4921 33.7787 152.2222 22.7961 C 152.2222 22.7961 152.2222 20.6841 150.9524 15.8264 C 149.6825 10.9688 150.5291 8.6455 152.2222 3.7879 C 152.2222 3.7879 152.0106 9.7016 156.6667 9.4904 C 161.3228 9.2791 161.1111 3.1543 161.1111 3.1543 L 161.1111 -1.9146 C 161.1111 -1.9146 164.2857 7.3783 163.6508 11.3912 C 163.6508 11.3912 165.7672 16.6713 156.6667 28.4986 C 147.5662 40.326 147.1429 43.0716 147.1429 43.0716 C 147.1429 43.0716 146.1905 49.4077 149.0476 50.7805 C 149.0476 50.7805 151.5873 53.4206 155.3968 50.0413 C 155.3968 50.0413 153.0688 59.3343 144.6032 62.7135 C 144.6032 62.7135 136.3492 67.9936 126.8254 67.1488 Z" stroke="#ffdd00" stroke-width="1" fill="#fdc30d"/>
					<path d="M 136.9841 62.7135 C 136.9841 62.7135 139.8413 61.7631 139.5238 58.2782 C 139.2064 54.7934 138.254 53.2094 138.254 53.2094 C 138.254 53.2094 137.8891 47.4947 138.254 44.3388 C 138.7302 40.2204 141.1111 38.6364 141.8519 38.2139 C 141.8519 38.2139 141.746 41.1708 142.4868 42.0156 C 143.2275 42.8604 145.6614 42.2268 145.6614 42.2268 C 145.6614 42.2268 143.545 47.8237 146.5079 50.6749 C 146.5079 50.6749 146.9312 53.1038 150.9524 53.843 C 150.9524 53.843 150.8466 57.4334 143.3333 62.0799 C 143.3333 62.0799 138.4656 63.9807 136.9841 62.7135 Z" fill="#ffde00"/>
					<path d="M 156.0318 26.5978 C 156.0318 26.5978 160.1587 20.7897 161.1111 17.0937 C 162.0635 13.3976 162.672 11.3384 161.8254 7.7479 C 161.8254 7.7479 161.1111 9.8072 156.0318 11.3912 C 156.0318 11.3912 152.6455 10.8896 151.9048 8.4607 C 151.9048 8.4607 152.1809 15.4986 152.8571 17.0937 C 154.0212 19.8393 153.8991 20.7725 153.8095 21.8457 C 153.7302 22.7961 153.4921 24.697 153.4921 29.1322 C 153.4921 29.1322 154.8677 28.6042 156.0318 26.5978 Z" stroke="#ffffff00" stroke-width="1" fill="#ffde00"/>
					<path d="M 153.4921 12.6584 C 153.4921 12.6584 156.5609 15.5096 160.4762 12.6584 C 160.4762 12.6584 158.4656 20.5785 156.6667 22.1625 C 156.6667 22.1625 153.0688 16.3545 153.4921 12.6584 Z" stroke="#fdd866" stroke-width="1" fill="#fff686"/>
					<path d="M 140.7937 44.3388 C 140.7937 44.3388 141.3228 46.0285 143.9683 46.2397 C 143.9683 46.2397 143.3333 53.843 148.4127 55.7438 C 148.4127 55.7438 146.0847 59.6511 141.4286 61.4463 L 140.7937 44.3388 Z" stroke="#fdd866" stroke-width="1" fill="#fff686"/>
					<path d="M 77.9365 36.7355 C 77.9365 36.7355 78.5714 43.7052 82.381 44.9725 C 82.381 44.9725 84.2857 47.6125 86.8254 50.0413 C 89.3651 52.4701 82.8042 48.9853 82.381 48.1405 C 81.9577 47.2957 82.91 46.2397 81.746 45.6061 C 80.582 44.9725 79.8413 45.6061 79.8413 45.6061 C 79.8413 45.6061 76.7725 42.0156 77.9365 36.7355 Z" fill="#e6e6e6"/>
					<path d="M 88.0952 18.3609 C 88.0952 18.3609 85.873 14.1368 90 11.3912 C 94.127 8.6455 100.1587 17.0937 100.1587 17.0937 C 100.1587 17.0937 100.4762 18.4665 98.8889 18.3609 C 97.3016 18.2553 93.9154 17.4105 88.0952 18.3609 Z" fill="#ed1e26"/>
					<path d="M 90 13.292 C 90 13.292 91.4815 10.7576 93.8095 13.292 C 96.1376 15.8264 93.1746 15.8264 93.1746 15.8264 C 93.1746 15.8264 91.3757 16.1432 90 13.292 Z" fill="#f79274"/>
					<path d="M 112.8571 5.6887 C 112.8571 5.6887 119.418 1.359 128.7302 7.5895 C 128.7302 7.5895 130.4233 10.5464 122.381 10.7576 C 114.3386 10.9688 112.8571 5.6887 112.8571 5.6887 Z" stroke="#ffffff00" stroke-width="1" fill="#ed1e26"/>
					<path d="M 117.9365 7.5895 C 117.9365 7.5895 117.3016 5.5831 119.8413 5.6887 C 122.381 5.7943 123.0159 6.9559 123.0159 6.9559 C 123.0159 6.9559 122.91 8.1175 121.746 8.2231 C 120.582 8.3287 118.4656 8.5399 117.9365 7.5895 Z" stroke="#ffffff00" stroke-width="1" fill="#f79274"/>
					<path d="M 117.09 18.3609 C 117.09 18.3609 115.3968 15.7209 123.6508 15.1928 C 123.6508 15.1928 118.7831 19.6281 118.5714 19.6281 C 118.3598 19.6281 117.09 20.3673 117.09 18.3609 Z" stroke="#ffffff00" stroke-width="1" fill="#ed1e26"/>
					<path d="M 117.9365 17.7273 C 117.9365 17.7273 118.0423 15.404 120.4762 17.0937 C 120.4762 17.0937 119.418 19.8393 117.9365 17.7273 Z" stroke="#ffffff00" stroke-width="1" fill="#f79274"/>
					<path d="M 131.9048 34.8347 C 131.9048 34.8347 133.9683 32.4587 135.7143 33.5675 C 137.4603 34.6763 134.4445 36.1019 134.4445 36.1019 L 131.9048 34.8347 Z" stroke="#ffffff00" stroke-width="1" fill="#ed1e26"/>
					<path d="M 133.1746 34.2011 C 133.1746 34.2011 133.2804 31.8779 135.7143 33.5675 C 135.7143 33.5675 134.6561 36.3131 133.1746 34.2011 Z" stroke="#ffffff00" stroke-width="1" fill="#f79274"/>
					<path d="M 102.6984 -8.8843 C 102.6984 -8.8843 97.619 -15.1148 98.8889 -19.4445 C 98.8889 -19.4445 97.619 -15.1148 116.0318 -8.8843 C 116.0318 -8.8843 124.0741 -5.9275 127.4603 -2.5482 L 128.0952 -1.281 C 128.0952 -1.281 133.0688 -3.7098 147.1429 1.2534 L 142.0635 8.8568 C 142.0635 8.8568 142.5926 4.7383 133.8095 1.8871 C 133.8095 1.8871 128.2011 0.303 126.8254 1.8871 C 126.8254 1.8871 117.5132 -8.3563 102.6984 -8.8843 Z" stroke="#568e37" stroke-width="1" fill="#416b2a"/>
					<path d="M 104.6032 -2.5482 L 104.6032 0.6198 C 104.6032 0.6198 102.6984 -1.9146 98.254 -1.9146 L 104.6032 -2.5482 Z" stroke="#568e37" stroke-width="1" fill="#416b2a"/>
					<path d="M 115.3968 -28.5262 C 115.3968 -28.5262 117.619 -30.0046 119.2064 -29.7934 C 119.2064 -29.7934 126.2963 -21.0285 126.8254 -11.4187 C 126.8254 -11.4187 123.2275 -22.8237 115.3968 -28.5262 Z" stroke="#568e37" stroke-width="1" fill="#416b2a"/>
					<path d="M 129.3651 -4.449 C 129.3651 -4.449 132.6455 -5.0826 133.8095 -5.0826 L 130.6349 -3.8154 L 129.3651 -4.449 Z" stroke="#568e37" stroke-width="1" fill="none"/>
					<path d="M 140.1587 13.9256 C 140.3704 13.5032 144.6032 14.348 145.2381 13.9256 C 145.2381 13.9256 144.709 14.4536 140.7937 15.1928 C 140.7937 15.1928 139.9471 14.348 140.1587 13.9256 Z" stroke="#568e37" stroke-width="1" fill="#416b2a"/>
				</g>
				<path d="M 56.3492 42.438 L 56.3492 38.0028 L 109.6825 6.9559 L 164.9206 37.3691 L 164.9206 50.6749 L 184.6032 58.9118 L 184.6032 27.2314 L 109.6825 -14.5868 L 35.3968 26.5978 L 35.3968 42.438 " stroke="#221f20" stroke-width="3" fill="#ed1e26"/>
				<path d="M 163.6508 95.6612 L 163.6508 100.0964 L 109.6825 131.1432 L 55.7143 101.3636 L 55.7143 87.4242 L 35.3968 79.8209 L 35.3968 110.8678 L 109.6825 153.3195 L 183.9683 111.5014 L 183.9683 95.6612 " stroke="#221f20" stroke-width="3" fill="#ed1e26"/>
				<g>
					<path d="M 143.6019 29.73 C 144.1268 29.4997 145.2381 28.155 145.2381 20.8953 C 145.2381 20.8953 148.7302 22.9545 147.7778 29.7658 C 147.7778 29.7658 145.5556 34.0427 146.5079 35.4683 C 147.4603 36.8939 150.3175 32.9339 150.3175 32.9339 C 150.3175 32.9339 151.3757 26.809 149.0476 19.4169 C 149.0476 19.4169 145.2381 1.8871 157.3016 -7.6171 C 157.3016 -7.6171 151.1111 2.8375 155.3968 5.6887 C 159.6826 8.5399 158.5714 -2.5482 158.5714 -2.5482 C 158.5714 -2.5482 157.1429 -13.7948 164.2857 -17.7548 C 164.2857 -17.7548 160.4762 -8.5675 164.9206 0.6198 C 164.9206 0.6198 169.5238 15.5096 163.0159 24.697 C 156.5079 33.8843 153.4921 34.8347 150.9524 42.438 C 148.4127 50.0413 152.8571 48.7741 152.8571 48.7741 C 152.8571 48.7741 155.5556 47.8237 156.6667 42.438 C 156.6667 42.438 155.3968 38.1612 160.4762 34.2011 C 160.4762 34.2011 157.619 39.1116 158.5714 46.2397 C 159.5238 53.3678 150.9524 62.7135 150.9524 62.7135 C 150.9524 62.7135 147.9064 65.0295 145.5581 66.3405 " stroke="#000000" stroke-width="1" fill="#221f20"/>
					<path d="M 126.8254 67.1488 C 126.8254 67.1488 134.0211 65.0367 137.619 55.7438 C 137.619 55.7438 137.7728 53.8398 137.3016 51.1105 C 137.0725 49.7835 137.0408 48.1993 136.5079 47.3485 C 136.5079 47.3485 135.9259 38.4252 139.5238 36.7355 C 143.1217 35.0459 144.6032 31.6667 144.6032 31.6667 C 144.6032 31.6667 142.2751 37.3691 145.2381 39.27 C 148.2011 41.1708 150.3175 36.1019 150.3175 36.1019 C 150.3175 36.1019 153.4921 33.7787 152.2222 22.7961 C 152.2222 22.7961 152.2222 20.6841 150.9524 15.8264 C 149.6825 10.9688 150.5291 8.6455 152.2222 3.7879 C 152.2222 3.7879 152.0106 9.7016 156.6667 9.4904 C 161.3228 9.2791 161.1111 3.1543 161.1111 3.1543 L 161.1111 -1.9146 C 161.1111 -1.9146 164.2857 7.3783 163.6508 11.3912 C 163.6508 11.3912 165.7672 16.6713 156.6667 28.4986 C 147.5662 40.326 147.1429 43.0716 147.1429 43.0716 C 147.1429 43.0716 146.1905 49.4077 149.0476 50.7805 C 149.0476 50.7805 151.5873 53.4206 155.3968 50.0413 C 155.3968 50.0413 153.0688 59.3343 144.6032 62.7135 C 144.6032 62.7135 136.3492 67.9936 126.8254 67.1488 Z" stroke="#ffdd00" stroke-width="1" fill="#fdc30d"/>
					<path d="M 136.9841 62.7135 C 136.9841 62.7135 139.8413 61.7631 139.5238 58.2782 C 139.2064 54.7934 138.254 53.2094 138.254 53.2094 C 138.254 53.2094 137.8891 47.4947 138.254 44.3388 C 138.7302 40.2204 141.1111 38.6364 141.8519 38.2139 C 141.8519 38.2139 141.746 41.1708 142.4868 42.0156 C 143.2275 42.8604 145.6614 42.2268 145.6614 42.2268 C 145.6614 42.2268 143.545 47.8237 146.5079 50.6749 C 146.5079 50.6749 146.9312 53.1038 150.9524 53.843 C 150.9524 53.843 150.8466 57.4334 143.3333 62.0799 C 143.3333 62.0799 138.4656 63.9807 136.9841 62.7135 Z" fill="#ffde00"/>
					<path d="M 156.0318 26.5978 C 156.0318 26.5978 160.1587 20.7897 161.1111 17.0937 C 162.0635 13.3976 162.672 11.3384 161.8254 7.7479 C 161.8254 7.7479 161.1111 9.8072 156.0318 11.3912 C 156.0318 11.3912 152.6455 10.8896 151.9048 8.4607 C 151.9048 8.4607 152.1809 15.4986 152.8571 17.0937 C 154.0212 19.8393 153.8991 20.7725 153.8095 21.8457 C 153.7302 22.7961 153.4921 24.697 153.4921 29.1322 C 153.4921 29.1322 154.8677 28.6042 156.0318 26.5978 Z" stroke="#ffffff00" stroke-width="1" fill="#ffde00"/>
					<path d="M 153.4921 12.6584 C 153.4921 12.6584 156.5609 15.5096 160.4762 12.6584 C 160.4762 12.6584 158.4656 20.5785 156.6667 22.1625 C 156.6667 22.1625 153.0688 16.3545 153.4921 12.6584 Z" stroke="#fdd866" stroke-width="1" fill="#fff686"/>
					<path d="M 140.7937 44.3388 C 140.7937 44.3388 141.3228 46.0285 143.9683 46.2397 C 143.9683 46.2397 143.3333 53.843 148.4127 55.7438 C 148.4127 55.7438 146.0847 59.6511 141.4286 61.4463 L 140.7937 44.3388 Z" stroke="#fdd866" stroke-width="1" fill="#fff686"/>
				</g>
			</g>
		</g>
	</g>
</svg>