<?xml version="1.0" standalone="no"?>
<!-- Generator: Adobe Fireworks 10, Export SVG Extension by Aaron Beall (http://fireworks.abeall.com) . Version: 0.6.1  -->
<!DOCTYPE svg PUBLIC "-//W3C//DTD SVG 1.1//EN" "http://www.w3.org/Graphics/SVG/1.1/DTD/svg11.dtd">
<svg id="media_13_220_340.fw-Page%201" viewBox="0 0 220 341" style="background-color:#ffffff00" version="1.1"
	xmlns="http://www.w3.org/2000/svg" xmlns:xlink="http://www.w3.org/1999/xlink" xml:space="preserve"
	x="0px" y="0px" width="220px" height="341px"
>
	<g id="Layer%201">
		<rect x="0" y="0" width="220" height="341" fill="#000000"/>
		<path d="M 109.3803 25.3739 L 196.1408 74.8839 L 196.1408 175.7604 L 109.3803 225.2704 L 23.8592 175.7604 L 23.8592 74.265 L 109.3803 25.3739 ZM 12.0845 68.0762 L 12.0845 182.5681 L 108.1408 238.2668 L 110.6197 238.2668 L 207.2958 182.5681 L 207.2958 68.6951 L 111.8592 13.6152 L 107.5211 13.6152 L 12.0845 68.0762 Z" stroke="#ffffff" stroke-width="2" fill="#ffffff"/>
		<path d="M 109.3803 43.3212 L 36.8732 83.5481 L 36.8732 115.7296 L 162.0563 145.4356 L 162.0563 155.3376 L 109.3803 185.6624 L 56.7042 156.5753 L 56.7042 142.9601 L 36.8732 135.5336 L 36.8732 165.8584 L 109.3803 207.3231 L 181.8873 166.4773 L 181.8873 133.677 L 57.3239 103.971 L 57.3239 94.6878 L 109.3803 64.363 L 163.2958 94.069 L 163.2958 107.0653 L 182.507 115.1107 L 182.507 84.167 L 109.3803 43.3212 Z" stroke="#221f20" stroke-width="2" fill="#ed1e26"/>
		<g>
			<path d="M 48.338 297.0599 L 23.5493 297.0599 L 23.5493 259.9274 L 42.1408 259.9274 L 42.1408 290.5907 L 48.338 290.5907 L 48.338 253.7387 L 17.3521 253.7387 L 17.3521 303.2487 L 42.1408 303.2487 L 42.1408 315.0363 C 42.1408 316.8929 41.066 318.4884 38.9357 319.8229 C 36.7958 321.1477 34.7623 321.8149 32.8451 321.8149 C 31.228 321.8149 29.4269 321.312 27.4516 320.3064 C 24.8468 318.9816 23.5493 317.2217 23.5493 315.0169 L 23.5493 309.2537 L 17.3521 309.2537 L 17.3521 315.5681 C 17.3521 319.204 19.2403 322.2887 23.0264 324.8029 C 26.2509 326.9303 29.5044 328.0036 32.7967 328.0036 C 36.4569 328.0036 39.8653 326.8916 43.0317 324.6675 C 46.566 322.25 48.338 319.291 48.338 315.7712 L 48.338 297.0599 L 48.338 297.0599 Z" stroke="#ffffff" stroke-width="1" fill="#ed1e26"/>
			<path d="M 91.0986 253.7387 L 60.1127 253.7387 L 60.1127 328.0036 L 66.3099 328.0036 L 66.3099 302.6298 L 78.3363 302.6298 C 80.8732 302.6298 83.6426 301.2567 86.625 298.5007 C 89.6074 295.7448 91.0986 293.1049 91.0986 290.5907 L 91.0986 253.7387 L 91.0986 253.7387 ZM 82.1901 294.1589 C 80.3794 295.6868 78.7623 296.441 77.3292 296.441 L 66.3099 296.441 L 66.3099 259.9274 L 84.9014 259.9274 L 84.9014 289.8655 C 84.9014 291.2096 83.9912 292.6407 82.1901 294.1589 L 82.1901 294.1589 Z" stroke="#ffffff" stroke-width="1" fill="#ed1e26"/>
			<path d="M 118.9859 321.8149 L 112.7887 321.8149 L 112.7887 259.9274 L 118.9859 259.9274 L 118.9859 253.7387 L 100.3944 253.7387 L 100.3944 259.9274 L 106.5916 259.9274 L 106.5916 321.8149 L 100.3944 321.8149 L 100.3944 328.0036 L 118.9859 328.0036 L 118.9859 321.8149 L 118.9859 321.8149 Z" stroke="#ffffff" stroke-width="1" fill="#ed1e26"/>
			<path d="M 160.507 309.2537 L 154.3099 309.2537 L 154.3099 314.9202 C 154.3099 316.7479 153.235 318.3531 151.1048 319.7359 C 148.9648 321.1187 146.9313 321.8149 145.0141 321.8149 C 142.9613 321.8149 140.9859 321.225 139.0687 320.055 C 136.8319 318.7012 135.7183 317.0573 135.7183 315.133 L 135.7183 259.9274 L 154.3099 259.9274 L 154.3099 296.8085 L 160.507 296.8085 L 160.507 253.7387 L 129.5211 253.7387 L 129.5211 315.2683 C 129.5211 318.9236 131.2254 321.989 134.6435 324.4741 C 137.7421 326.8239 141.1796 328.0036 144.9657 328.0036 C 148.6259 328.0036 152.0343 326.8723 155.2007 324.6095 C 158.735 322.1534 160.507 319.146 160.507 315.5681 L 160.507 309.2537 L 160.507 309.2537 Z" stroke="#ffffff" stroke-width="1" fill="#ed1e26"/>
			<path d="M 202.0282 309.2537 L 195.831 309.2537 L 195.831 314.9202 C 195.831 316.8156 194.7562 318.4304 192.6259 319.7842 C 190.4859 321.138 188.4525 321.8149 186.5352 321.8149 C 184.9181 321.8149 183.1171 321.3024 181.1417 320.287 C 178.537 318.9526 177.2394 317.1733 177.2394 314.9396 L 177.2394 302.6298 L 202.0282 302.6298 L 202.0282 296.441 L 177.2394 296.441 L 177.2394 259.9274 L 195.831 259.9274 L 195.831 290.5907 L 202.0282 290.5907 L 202.0282 253.7387 L 171.0423 253.7387 L 171.0423 315.2683 C 171.0423 318.9236 172.7465 321.989 176.1646 324.4741 C 179.2632 326.8239 182.7007 328.0036 186.4868 328.0036 C 190.147 328.0036 193.5555 326.8723 196.7218 324.6095 C 200.2562 322.1534 202.0282 319.146 202.0282 315.5681 L 202.0282 309.2537 L 202.0282 309.2537 Z" stroke="#ffffff" stroke-width="1" fill="#ed1e26"/>
		</g>
	</g>
</svg>