<?xml version="1.0" standalone="no"?>
<!-- Generator: Adobe Fireworks 10, Export SVG Extension by Aaron Beall (http://fireworks.abeall.com) . Version: 0.6.1  -->
<!DOCTYPE svg PUBLIC "-//W3C//DTD SVG 1.1//EN" "http://www.w3.org/Graphics/SVG/1.1/DTD/svg11.dtd">
<svg id="media_9_220_340.fw-Page%201" viewBox="0 0 220 341" style="background-color:#ffffff00" version="1.1"
	xmlns="http://www.w3.org/2000/svg" xmlns:xlink="http://www.w3.org/1999/xlink" xml:space="preserve"
	x="0px" y="0px" width="220px" height="341px"
>
	<g id="Layer%201">
		<rect x="0" y="0" width="220" height="341" fill="#000000"/>
		<g>
			<path d="M 109.3803 25.3739 L 196.1408 74.8839 L 196.1408 175.7604 L 109.3803 225.2704 L 23.8592 175.7604 L 23.8592 74.265 L 109.3803 25.3739 ZM 12.0845 68.0762 L 12.0845 182.5681 L 108.1408 238.2668 L 110.6197 238.2668 L 207.2958 182.5681 L 207.2958 68.6951 L 111.8592 13.6152 L 107.5211 13.6152 L 12.0845 68.0762 Z" stroke="#ffffff" stroke-width="2" fill="#ffffff"/>
			<path d="M 109.3803 43.3212 L 36.8732 83.5481 L 36.8732 115.7296 L 162.0563 145.4356 L 162.0563 155.3376 L 109.3803 185.6624 L 56.7042 156.5753 L 56.7042 142.9601 L 36.8732 135.5336 L 36.8732 165.8584 L 109.3803 207.3231 L 181.8873 166.4773 L 181.8873 133.677 L 57.3239 103.971 L 57.3239 94.6878 L 109.3803 64.363 L 163.2958 94.069 L 163.2958 107.0653 L 182.507 115.1107 L 182.507 84.167 L 109.3803 43.3212 Z" stroke="#221f20" stroke-width="2" fill="#ed1e26"/>
			<g>
				<path d="M 111.2394 29.0871 C 111.2394 29.0871 114.493 25.2191 119.9155 27.2305 C 125.338 29.2418 127.3521 43.3212 127.3521 43.3212 C 127.3521 43.3212 127.662 45.7967 127.3521 51.9855 C 127.3521 51.9855 132.6197 50.7477 136.0282 51.9855 C 136.0282 51.9855 131.8451 53.2232 131.0704 54.461 C 131.0704 54.461 139.1268 53.8421 142.8451 55.6987 C 146.5634 57.5554 148.8357 57.1428 148.8357 57.1428 C 148.8357 57.1428 142.0188 68.6435 142.0188 68.1794 C 142.0188 67.7152 140.3662 69.314 140.3662 69.314 L 145.3239 69.9329 C 145.3239 69.9329 145.4789 71.48 142.8451 73.6461 L 139.7465 73.6461 C 139.7465 73.6461 142.2254 82.3103 142.2254 86.6425 C 142.2254 86.6425 144.0845 87.2613 144.0845 77.9782 C 144.0845 77.9782 147.493 79.9896 146.5634 86.6425 C 146.5634 86.6425 144.3944 90.8199 145.3239 92.2123 C 146.2535 93.6048 149.0423 89.7368 149.0423 89.7368 C 149.0423 89.7368 150.0751 83.7544 147.8028 76.5342 C 147.8028 76.5342 144.0845 59.412 155.8592 50.1289 C 155.8592 50.1289 149.8169 60.3403 154 63.1252 C 158.1831 65.9102 157.0986 55.0799 157.0986 55.0799 C 157.0986 55.0799 155.7042 44.0948 162.6761 40.2269 C 162.6761 40.2269 158.9577 49.2005 163.2958 58.1742 C 163.2958 58.1742 167.7887 72.7178 161.4366 81.6915 C 155.0845 90.6652 152.1408 91.5935 149.662 99.02 C 147.1831 106.4465 151.5211 105.2087 151.5211 105.2087 C 151.5211 105.2087 154.1549 104.2804 155.2394 99.02 C 155.2394 99.02 154 94.8426 158.9577 90.9746 C 158.9577 90.9746 156.169 95.7709 157.0986 102.7332 C 158.0282 109.6956 149.662 118.824 149.662 118.824 C 149.662 118.824 146.4084 121.2995 144.0845 122.5372 C 144.0845 122.5372 142.8451 130.1184 140.3662 132.4392 C 140.3662 132.4392 139.5916 146.6733 133.5493 160.9074 C 127.507 175.1416 114.338 186.9002 114.338 186.9002 C 114.338 186.9002 103.1831 196.6475 88.9296 202.9909 C 77.7925 207.9474 70.0605 204.0248 67.2119 202.0726 C 66.4147 201.5263 66.0775 199.355 66.1214 198.8238 C 66.341 196.1696 67.0524 191.9358 69.0986 189.9946 C 69.0986 189.9946 71.1127 185.5077 79.0141 176.9982 C 79.0141 176.9982 83.507 170.3453 84.5916 155.3376 L 84.5916 142.3412 C 84.5916 142.3412 80.5634 140.1751 79.6338 136.1525 C 78.7042 132.1298 80.2535 130.5826 80.2535 130.5826 C 80.2535 130.5826 81.6479 128.1071 87.6901 126.2505 C 87.6901 126.2505 84.1268 124.0844 82.1127 116.9673 C 82.1127 116.9673 78.2394 110.7786 79.0141 106.4465 C 79.0141 106.4465 69.0986 99.7936 75.2958 87.2613 C 75.2958 87.2613 78.0845 81.5368 83.3521 79.216 C 83.3521 79.216 82.4225 72.4083 85.2113 67.4574 C 88 62.5064 90.169 61.2686 90.169 61.2686 C 90.169 61.2686 93.4225 58.9478 94.507 58.7931 L 97.6056 60.6497 L 103.8028 60.6497 C 103.8028 60.6497 101.7887 57.0912 92.6479 56.3176 C 92.6479 56.3176 89.5493 53.8421 103.1831 53.2232 C 103.1831 53.2232 91.8732 45.9515 98.2253 35.2759 C 98.2253 35.2759 102.2535 43.9401 117.4366 47.6534 C 117.4366 47.6534 120.5352 48.427 124.8732 50.7477 C 124.8732 50.7477 125.0282 38.8344 111.2394 29.0871 Z" stroke="#000000" stroke-width="1" fill="#221f20"/>
				<path d="M 69.5117 194.7393 C 70.5672 192.4994 79.4272 181.5366 79.4272 181.5366 C 83.5587 177.8234 88.3099 169.3654 88.3099 169.3654 L 82.939 173.6975 C 87.277 167.3025 87.6901 144.8167 87.6901 144.8167 C 102.5634 149.1488 101.3239 145.4356 101.3239 145.4356 C 101.3239 145.4356 89.6526 145.745 83.3521 137.3902 C 83.3521 137.3902 78.9108 130.5826 88.3099 128.726 L 88.9296 131.8203 L 88.9296 132.4392 L 86.4507 132.4392 L 87.0704 133.677 C 87.0704 133.677 95.5399 143.9915 114.9577 141.1035 C 134.3756 138.2154 134.3756 128.1071 137.2676 125.0127 L 140.9859 124.3938 C 140.9859 124.3938 135.8216 138.628 124.8732 142.9601 C 124.8732 142.9601 127.3521 145.023 137.2676 137.3902 C 137.2676 137.3902 131.277 162.9704 124.8732 169.5717 C 124.8732 169.5717 117.4366 181.5366 98.2253 194.3267 C 98.2253 194.3267 81.0798 205.879 70.1314 200.928 C 70.1314 200.928 67.8592 198.2462 69.5117 194.7393 Z" stroke="#ed1e26" stroke-width="1" fill="#ca151f"/>
				<path d="M 128.2817 145.2809 C 128.2817 145.2809 121.3099 150.3866 113.0986 150.3866 C 104.8873 150.3866 93.2676 148.9941 93.2676 148.9941 L 92.6479 149.7677 C 92.6479 149.7677 93.5775 166.9415 91.4085 170.1906 C 89.2394 173.4397 86.2958 178.5454 74.6761 191.2323 C 72.9718 193.8625 72.8155 196.3534 75.7893 197.6876 C 83.8169 201.289 114.3881 175.873 117.1268 172.3566 C 120.3803 168.1792 128.4366 159.0508 128.2817 145.2809 Z" fill="#ed1e26"/>
				<path d="M 98.2253 154.0998 C 98.2253 154.0998 103.493 149.613 106.9014 155.9565 C 106.9014 155.9565 107.831 159.515 101.9437 169.5717 C 96.0563 179.6284 82.7324 195.1003 79.6338 193.0889 C 76.5352 191.0776 82.3192 185.4561 82.3192 185.4561 L 93.2676 171.4283 C 93.2676 171.4283 98.2253 164.9301 97.6056 162.1452 L 98.2253 154.0998 Z" stroke="#ffffff00" stroke-width="1" fill="#f79274"/>
				<path d="M 115.5775 141.1035 C 115.5775 141.1035 119.7606 141.5676 123.0141 141.7223 C 126.2676 141.877 117.7465 144.662 117.7465 144.662 C 117.7465 144.662 102.5634 146.828 94.507 144.1978 C 86.4507 141.5676 87.0704 138.0091 87.0704 138.0091 C 87.0704 138.0091 87.5352 136.3072 88.9296 136.7713 C 90.3239 137.2355 92.0282 138.0091 92.0282 138.0091 C 92.0282 138.0091 98.0704 140.4846 99.4648 140.4846 C 100.8592 140.4846 104.8873 142.4959 115.5775 141.1035 Z" stroke="#ffffff00" stroke-width="1" fill="#ed1d25"/>
				<path d="M 108.1408 143.5789 C 108.1408 143.5789 108.4507 145.1261 103.1831 144.8167 C 97.9155 144.5073 94.507 141.7223 94.507 141.7223 C 94.507 141.7223 92.338 139.711 96.3662 139.8657 C 96.3662 139.8657 99.3099 142.3412 106.9014 142.9601 C 109.3732 143.1616 108.1408 143.5789 108.1408 143.5789 Z" stroke="#ffffff00" stroke-width="1" fill="#f49678"/>
				<path d="M 95.1268 128.1071 L 93.8873 127.4882 L 90.4014 129.4995 C 90.169 134.1411 91.4085 133.677 91.4085 133.677 L 91.7958 133.0581 L 92.0282 133.0581 L 92.0282 134.2958 C 92.7253 137.9317 100.7042 138.628 100.7042 138.628 L 101.3239 138.0091 L 101.3239 135.5336 L 101.4789 134.5279 L 101.6338 134.3732 L 102.1761 138.3959 C 108.0634 141.645 114.9577 139.2468 114.9577 139.2468 L 115.5 137.8544 L 115.9648 136.2298 L 116.1972 136.1525 L 116.1972 138.628 C 122.7817 138.5506 125.493 135.5336 125.493 135.5336 L 125.6479 133.5222 L 126.1127 133.2128 L 126.7324 134.2958 C 129.4437 133.677 133.5493 128.726 133.5493 128.726 L 132.3099 127.4882 C 132.3099 127.4882 115.0352 136.3072 93.8873 129.3448 L 95.1268 128.1071 Z" stroke="#000000" stroke-width="1" fill="#ffffff"/>
				<path d="M 134.169 112.6352 C 134.169 112.6352 133.7042 123.2334 109.3803 127.4882 C 109.3803 127.4882 93.1901 128.958 86.4507 123.1561 L 84.5916 119.4428 L 85.831 117.5862 C 85.831 117.5862 88.5423 120.6806 90.169 120.6806 L 90.169 122.5372 L 90.7887 121.9183 L 90.7887 120.6806 C 90.7887 120.6806 92.493 122.5372 99.4648 123.1561 L 100.7042 124.3938 L 100.7042 125.0127 L 101.3239 123.775 L 101.9437 123.1561 C 101.9437 123.1561 110.3099 124.007 116.1972 121.9183 L 116.8169 123.1561 L 117.4366 122.5372 L 117.4366 121.2995 C 117.4366 121.2995 125.2606 117.5089 127.9718 114.4918 L 128.5916 116.9673 L 128.5916 114.4918 L 128.5916 113.2541 C 128.5916 113.2541 132.4648 110.6239 132.9296 107.0653 L 134.169 107.6842 L 134.169 112.6352 Z" stroke="#000000" stroke-width="1" fill="#fdfdfd"/>
				<path d="M 83.3521 109.5408 C 83.3521 109.5408 82.4225 109.2314 82.7324 110.1597 C 83.0423 111.088 87.1737 113.1509 85.831 113.2541 C 84.4883 113.3572 81.493 111.3975 81.493 111.3975 C 81.493 111.3975 89.6526 125.1159 113.0986 120.0617 C 113.0986 120.0617 125.493 117.1736 133.2394 102.7332 L 133.3427 98.7105 L 132 98.1948 L 131.4836 98.8137 C 131.4836 98.8137 131.6901 100.9797 129.831 105.8276 C 127.9718 110.6754 114.338 116.3485 114.338 116.3485 L 111.8592 116.3485 L 116.1972 112.6352 C 116.1972 112.6352 108.554 111.5006 106.2817 108.3031 C 106.2817 108.3031 102.5634 113.0478 93.8873 112.0163 C 93.8873 112.0163 89.5493 112.8415 83.3521 109.5408 Z" stroke="#ed1e26" stroke-width="1" fill="#ca151f"/>
				<path d="M 102.5634 112.6352 C 102.5634 112.6352 106.2817 110.0824 109.3803 112.6352 C 109.3803 112.6352 111.007 114.1824 107.5211 116.3485 C 107.5211 116.3485 106.9014 117.1994 113.0986 116.9673 L 115.5775 116.3485 L 114.9577 117.5862 C 114.9577 117.5862 113.0986 119.1334 103.8028 120.0617 C 94.507 120.99 89.5493 116.9673 89.5493 116.9673 C 89.5493 116.9673 88.7747 116.1164 89.5493 115.7296 C 89.5493 115.7296 89.007 114.8013 93.2676 115.1107 L 92.493 113.2541 C 92.493 113.2541 98.6127 113.6409 102.5634 112.6352 Z" fill="#ed1e26"/>
				<path d="M 103.8028 116.3485 C 103.8028 116.3485 100.0845 116.9673 98.8451 116.3485 C 97.6056 115.7296 98.8451 114.4918 98.8451 114.4918 C 98.8451 114.4918 101.0141 112.7384 104.4225 115.1107 C 104.4225 115.1107 104.8357 115.8327 103.8028 116.3485 Z" stroke="#ffffff00" stroke-width="1" fill="#f79274"/>
				<path d="M 109.3803 90.3557 C 109.3803 90.3557 100.8075 73.2335 85.831 81.0726 C 70.8545 88.9117 78.3944 101.4955 78.3944 101.4955 C 78.3944 101.4955 84.0751 110.2629 94.507 110.1597 C 104.939 110.0566 105.0423 105.8276 105.0423 105.8276 L 104.4225 104.5898 C 104.4225 104.5898 100.6009 111.1912 89.5493 106.4465 C 89.5493 106.4465 80.4601 102.5269 87.0704 91.5935 C 87.0704 91.5935 90.0657 88.2928 95.1268 87.2613 C 100.1878 86.2299 106.2817 92.8312 106.2817 92.8312 L 109.3803 90.3557 Z" stroke="#000000" stroke-width="1" fill="#ffffff"/>
				<path d="M 105.662 95.3067 C 105.662 95.3067 103.8028 97.7822 103.8028 101.4955 C 103.8028 105.2087 96.3662 105.8276 96.3662 105.8276 C 96.3662 105.8276 90.0657 106.3433 87.0704 101.4955 C 84.0751 96.6476 88.9296 90.9746 88.9296 90.9746 C 88.9296 90.9746 92.9577 87.2613 98.2253 89.118 C 103.493 90.9746 105.4554 93.2438 105.662 95.3067 Z" stroke="#000000" stroke-width="1" fill="#ffff04"/>
				<path d="M 102.5634 100.8766 C 102.5634 100.8766 100.9108 104.693 93.8873 104.5898 C 93.8873 104.5898 89.5493 103.5584 88.9296 101.4955 C 88.3099 99.4326 91.4085 100.2577 91.4085 100.2577 C 91.4085 100.2577 91.9249 102.7332 94.507 102.7332 C 97.0892 102.7332 100.2911 101.9081 101.3239 100.8766 C 102.3568 99.8451 102.5634 100.8766 102.5634 100.8766 Z" stroke="#ffffff00" stroke-width="1" fill="#fcda00"/>
				<path d="M 88.9296 93.4501 C 88.9296 93.4501 85.5211 97.5759 88.9296 102.1143 L 91.4085 100.2577 C 91.4085 100.2577 90.7887 96.6476 91.4085 95.3067 C 92.0282 93.9658 88.9296 93.4501 88.9296 93.4501 Z" stroke="#ffffff00" stroke-width="1" fill="#fdc50d"/>
				<path d="M 91.4085 95.9256 L 88.4648 94.3784 C 88.4648 94.3784 89.5493 89.9431 95.1268 90.3557 C 100.7042 90.7683 102.9765 93.6564 103.3897 93.5532 C 103.8028 93.4501 102.047 95.4099 102.047 95.4099 C 102.047 95.4099 98.6385 90.8714 94.507 93.4501 C 90.3756 96.0287 91.4085 95.9256 91.4085 95.9256 Z" fill="#eaa319"/>
				<path d="M 90.169 92.2123 L 90.169 92.8312 L 91.4085 93.4501 L 92.6479 92.8312 L 93.8873 92.2123 L 94.507 90.9746 L 93.8873 90.3557 L 92.6479 89.7368 L 91.4085 90.3557 L 90.7887 90.9746 L 90.169 92.2123 Z" fill="#ffff92"/>
				<path d="M 98.2253 101.4955 L 99.4648 101.4955 L 100.0845 102.1143 L 99.4648 103.3521 L 98.2253 103.971 L 96.9859 103.971 L 95.7465 103.971 L 95.7465 103.3521 L 96.3662 102.7332 L 96.9859 102.1143 L 98.2253 101.4955 Z" fill="#fdf583"/>
				<path d="M 92.6479 97.1633 C 92.6479 97.1633 95.0235 93.0375 98.2253 94.069 C 101.4272 95.1004 100.7042 97.7822 100.7042 97.7822 C 100.7042 97.7822 100.9108 99.9483 98.8451 100.8766 C 96.7794 101.8049 93.8873 100.8766 93.8873 100.8766 C 93.8873 100.8766 93.1643 100.2577 92.6479 99.6388 C 92.1315 99.02 92.6479 97.1633 92.6479 97.1633 Z" stroke="#000000" stroke-width="1" fill="#221f20"/>
				<path d="M 107.5211 82.9292 C 107.5211 82.9292 101.7887 76.8952 93.8873 76.1216 C 93.8873 76.1216 87.5352 76.431 85.831 77.9782 C 85.831 77.9782 85.3662 70.5517 87.0704 68.6951 C 87.0704 68.6951 89.2394 65.2913 93.2676 65.6007 C 97.2958 65.9102 103.8028 76.1216 103.8028 76.1216 C 103.8028 76.1216 105.507 78.4424 107.5211 78.5971 C 109.5352 78.7518 111.2394 76.7405 111.2394 76.7405 C 111.2394 76.7405 113.5634 73.0272 113.0986 68.0762 L 109.3803 70.5517 C 109.3803 70.5517 104.2676 64.6724 101.9437 63.7441 C 99.6197 62.8158 105.0423 63.1252 105.0423 63.1252 C 105.0423 63.1252 109.0704 63.5894 110 64.9818 C 110 64.9818 112.0141 64.9818 107.5211 61.8875 C 107.5211 61.8875 123.169 58.1742 128.5916 63.1252 C 134.0141 68.0762 136.493 73.3367 136.6479 74.8839 C 136.6479 74.8839 139.4366 79.0613 140.3662 88.4991 C 140.3662 88.4991 133.8592 93.1407 133.5493 95.9256 L 131.6901 95.9256 C 131.6901 95.9256 131.6901 93.4501 129.831 90.9746 C 127.9718 88.4991 136.0282 88.4991 136.0282 88.4991 C 136.0282 88.4991 138.1972 89.4274 137.8873 89.7368 C 137.8873 89.7368 138.507 86.4878 131.0704 86.6425 C 131.0704 86.6425 129.2113 86.4878 127.3521 88.4991 C 127.3521 88.4991 124.5634 86.7972 122.3944 87.2613 C 122.3944 87.2613 130.4507 80.4537 130.4507 77.9782 C 130.4507 75.5027 136.1831 84.7858 136.0282 86.0236 C 136.0282 86.0236 137.5775 85.5594 136.0282 77.9782 C 134.4789 70.397 127.3521 68.0762 127.3521 68.0762 L 127.3521 69.314 C 127.3521 69.314 118.9859 68.2309 116.8169 73.0272 C 116.8169 73.0272 123.4789 70.0876 126.1127 71.7895 C 126.1127 71.7895 122.3944 77.8235 117.4366 79.216 C 117.4366 79.216 116.507 80.4537 114.338 77.3594 C 114.338 77.3594 109.2253 83.7028 112.4789 87.2613 L 112.4789 88.4991 C 112.4789 88.4991 109.0704 86.6425 110 82.9292 C 110 82.9292 109.8451 80.7632 112.4789 77.3594 C 112.4789 77.3594 108.1408 79.6801 107.5211 82.9292 Z" stroke="#ed1e26" stroke-width="1" fill="#ca151f"/>
				<path d="M 107.3662 97.0086 C 107.3662 97.0086 110 90.3557 116.8169 89.118 C 123.6338 87.8802 127.3521 92.8312 127.3521 92.8312 C 127.3521 92.8312 131.6901 97.3181 127.662 103.3521 C 124.9854 107.3615 125.9577 107.9937 116.8169 110.1597 C 116.8169 110.1597 109.0704 109.6956 107.5211 105.2087 C 106.8152 103.1644 106.4707 101.5629 106.4366 100.2577 C 106.3959 98.6983 107.3662 97.0086 107.3662 97.0086 Z" stroke="#000000" stroke-width="1" fill="#ffffff"/>
				<path d="M 111.2394 96.5445 C 111.2394 96.5445 114.1831 92.6765 117.7465 92.5218 C 121.3099 92.3671 124.2535 94.6878 124.2535 94.6878 C 124.2535 94.6878 127.507 98.0917 126.1127 102.1143 C 124.7183 106.137 121.4648 107.2201 121.1549 107.0653 C 120.8451 106.9106 115.8873 109.3861 112.4789 105.8276 C 109.0704 102.2691 110.1549 99.4841 110.1549 99.4841 C 110.1549 99.4841 110.7747 96.8539 111.2394 96.5445 Z" stroke="#000000" stroke-width="1" fill="#221f20"/>
				<path d="M 124.8732 101.4955 C 124.8732 101.4955 120.8451 105.9823 115.5775 105.2087 C 115.5775 105.2087 111.7042 103.6615 111.2394 100.8766 C 110.7747 98.0917 113.0986 96.5445 113.0986 96.5445 C 113.0986 96.5445 113.5634 94.3784 118.0563 93.4501 C 122.5493 92.5218 125.493 97.7822 125.493 97.7822 C 125.493 97.7822 125.9577 100.5672 124.8732 101.4955 Z" stroke="#000000" stroke-width="1" fill="#ffff04"/>
				<path d="M 123.9437 100.8766 C 123.9437 100.8766 122.3874 104.0384 117.2309 103.9696 C 117.2309 103.9696 113.8634 103.5926 113.4085 102.2175 C 112.9535 100.8424 114.9577 100.9797 114.9577 100.9797 C 114.9577 100.9797 115.7901 102.732 117.6859 102.732 C 119.5817 102.732 121.8426 101.3578 122.6009 100.6703 C 123.3592 99.9828 123.9437 100.8766 123.9437 100.8766 Z" stroke="#ffffff00" stroke-width="1" fill="#fcda00"/>
				<path d="M 113.5911 96.5441 C 113.5911 96.5441 110.9061 99.2954 113.4085 102.3206 L 115.061 101.186 C 115.061 101.186 114.956 98.6755 115.411 97.7817 C 115.866 96.8879 113.5911 96.5441 113.5911 96.5441 Z" stroke="#ffffff00" stroke-width="1" fill="#fdc50d"/>
				<path d="M 115.2676 98.1948 L 113.2498 97.1629 C 113.2498 97.1629 114.046 94.2065 118.1409 94.4815 C 122.2357 94.7565 123.3305 96.8195 123.6338 96.7508 C 123.9371 96.682 122.4977 98.1948 122.4977 98.1948 C 122.4977 98.1948 120.0567 94.6193 117.0235 96.3382 C 113.9903 98.057 115.2676 98.1948 115.2676 98.1948 Z" fill="#eaa319"/>
				<path d="M 114.501 95.7191 L 114.501 96.1316 L 115.411 96.5441 L 116.3209 96.1316 L 117.2309 95.7191 L 117.6859 94.894 L 117.2309 94.4815 L 116.3209 94.069 L 115.411 94.4815 L 114.956 94.894 L 114.501 95.7191 Z" fill="#ffff92"/>
				<path d="M 120.4158 101.907 L 121.3257 101.907 L 121.7807 102.3195 L 121.3257 103.1445 L 120.4158 103.5571 L 119.5058 103.5571 L 118.5959 103.5571 L 118.5959 103.1445 L 119.0508 102.732 L 119.5058 102.3195 L 120.4158 101.907 Z" fill="#fdf583"/>
				<path d="M 115.5775 100.2577 C 115.5775 100.2577 116.1972 94.9973 119.9155 97.1633 C 123.6338 99.3294 119.2958 101.4955 119.2958 101.4955 C 119.2958 101.4955 116.9718 102.8879 115.5775 100.2577 Z" stroke="#000000" stroke-width="1" fill="#221f20"/>
				<path d="M 126.1127 123.1561 C 126.1127 123.1561 133.1361 121.0932 136.6479 112.0163 C 136.6479 112.0163 136.798 110.1566 136.338 107.4908 C 136.1144 106.1946 136.0835 104.6473 135.5634 103.8162 C 135.5634 103.8162 134.9953 95.1004 138.507 93.4501 C 142.0188 91.7998 143.4648 88.4991 143.4648 88.4991 C 143.4648 88.4991 141.1925 94.069 144.0845 95.9256 C 146.9765 97.7822 149.0423 92.8312 149.0423 92.8312 C 149.0423 92.8312 152.1408 90.562 150.9014 79.8348 C 150.9014 79.8348 150.9014 77.7719 149.662 73.0272 C 148.4225 68.2825 149.2489 66.0133 150.9014 61.2686 C 150.9014 61.2686 150.6948 67.0448 155.2394 66.8385 C 159.7841 66.6322 159.5775 60.6497 159.5775 60.6497 L 159.5775 55.6987 C 159.5775 55.6987 162.6761 64.7756 162.0563 68.6951 C 162.0563 68.6951 164.1221 73.8524 155.2394 85.4047 C 146.3568 96.9571 145.9437 99.6388 145.9437 99.6388 C 145.9437 99.6388 145.0141 105.8276 147.8028 107.1685 C 147.8028 107.1685 150.2817 109.7471 154 106.4465 C 154 106.4465 151.7277 115.5233 143.4648 118.824 C 143.4648 118.824 135.4084 123.9812 126.1127 123.1561 Z" stroke="#ffdd00" stroke-width="1" fill="#fdc30d"/>
				<path d="M 136.0282 118.824 C 136.0282 118.824 138.8169 117.8956 138.507 114.4918 C 138.1972 111.088 137.2676 109.5408 137.2676 109.5408 C 137.2676 109.5408 136.9115 103.9591 137.2676 100.8766 C 137.7324 96.8539 140.0563 95.3067 140.7794 94.8941 C 140.7794 94.8941 140.6761 97.7822 141.3991 98.6074 C 142.1221 99.4325 144.4977 98.8137 144.4977 98.8137 C 144.4977 98.8137 142.4319 104.2804 145.3239 107.0653 C 145.3239 107.0653 145.7371 109.4377 149.662 110.1597 C 149.662 110.1597 149.5587 113.6667 142.2254 118.2051 C 142.2254 118.2051 137.4742 120.0617 136.0282 118.824 Z" fill="#ffde00"/>
				<path d="M 154.6197 83.5481 C 154.6197 83.5481 158.6479 77.8751 159.5775 74.265 C 160.507 70.6549 161.101 68.6435 160.2746 65.1366 C 160.2746 65.1366 159.5775 67.1479 154.6197 68.6951 C 154.6197 68.6951 151.3146 68.2052 150.5916 65.8328 C 150.5916 65.8328 150.8611 72.707 151.5211 74.265 C 152.6573 76.9468 152.5382 77.8583 152.4507 78.9065 C 152.3732 79.8348 152.1408 81.6915 152.1408 86.0236 C 152.1408 86.0236 153.4836 85.5079 154.6197 83.5481 Z" stroke="#ffffff00" stroke-width="1" fill="#ffde00"/>
				<path d="M 152.1408 69.9329 C 152.1408 69.9329 155.1362 72.7178 158.9577 69.9329 C 158.9577 69.9329 156.9953 77.6688 155.2394 79.216 C 155.2394 79.216 151.7277 73.543 152.1408 69.9329 Z" stroke="#fdd866" stroke-width="1" fill="#fff686"/>
				<path d="M 139.7465 100.8766 C 139.7465 100.8766 140.2629 102.5269 142.8451 102.7332 C 142.8451 102.7332 142.2254 110.1597 147.1831 112.0163 C 147.1831 112.0163 144.9108 115.8327 140.3662 117.5862 L 139.7465 100.8766 Z" stroke="#fdd866" stroke-width="1" fill="#fff686"/>
				<path d="M 78.3944 93.4501 C 78.3944 93.4501 79.0141 100.2577 82.7324 101.4955 C 82.7324 101.4955 84.5916 104.0741 87.0704 106.4465 C 89.5493 108.8188 83.1456 105.415 82.7324 104.5898 C 82.3192 103.7647 83.2488 102.7332 82.1127 102.1143 C 80.9765 101.4955 80.2535 102.1143 80.2535 102.1143 C 80.2535 102.1143 77.2582 98.6074 78.3944 93.4501 Z" fill="#e6e6e6"/>
				<path d="M 88.3099 75.5027 C 88.3099 75.5027 86.1408 71.3769 90.169 68.6951 C 94.1972 66.0133 100.0845 74.265 100.0845 74.265 C 100.0845 74.265 100.3944 75.6059 98.8451 75.5027 C 97.2958 75.3996 93.9906 74.5744 88.3099 75.5027 Z" fill="#ed1e26"/>
				<path d="M 90.169 70.5517 C 90.169 70.5517 91.615 68.0762 93.8873 70.5517 C 96.1596 73.0272 93.2676 73.0272 93.2676 73.0272 C 93.2676 73.0272 91.5117 73.3367 90.169 70.5517 Z" fill="#f79274"/>
				<path d="M 112.4789 63.1252 C 112.4789 63.1252 118.8826 58.8962 127.9718 64.9818 C 127.9718 64.9818 129.6244 67.8699 121.7747 68.0762 C 113.9249 68.2825 112.4789 63.1252 112.4789 63.1252 Z" stroke="#ffffff00" stroke-width="1" fill="#ed1e26"/>
				<path d="M 117.4366 64.9818 C 117.4366 64.9818 116.8169 63.0221 119.2958 63.1252 C 121.7747 63.2284 122.3944 64.363 122.3944 64.363 C 122.3944 64.363 122.2911 65.4976 121.1549 65.6007 C 120.0188 65.7039 117.953 65.9102 117.4366 64.9818 Z" stroke="#ffffff00" stroke-width="1" fill="#f79274"/>
				<path d="M 116.6103 75.5027 C 116.6103 75.5027 114.9577 72.9241 123.0141 72.4083 C 123.0141 72.4083 118.2629 76.7405 118.0563 76.7405 C 117.8498 76.7405 116.6103 77.4625 116.6103 75.5027 Z" stroke="#ffffff00" stroke-width="1" fill="#ed1e26"/>
				<path d="M 117.4366 74.8839 C 117.4366 74.8839 117.5399 72.6146 119.9155 74.265 C 119.9155 74.265 118.8826 76.9468 117.4366 74.8839 Z" stroke="#ffffff00" stroke-width="1" fill="#f79274"/>
				<path d="M 131.0704 91.5935 C 131.0704 91.5935 133.0845 89.2727 134.7887 90.3557 C 136.493 91.4388 133.5493 92.8312 133.5493 92.8312 L 131.0704 91.5935 Z" stroke="#ffffff00" stroke-width="1" fill="#ed1e26"/>
				<path d="M 132.3099 90.9746 C 132.3099 90.9746 132.4132 88.7054 134.7887 90.3557 C 134.7887 90.3557 133.7559 93.0375 132.3099 90.9746 Z" stroke="#ffffff00" stroke-width="1" fill="#f79274"/>
				<path d="M 102.5634 48.8911 C 102.5634 48.8911 97.6056 42.8055 98.8451 38.5765 C 98.8451 38.5765 97.6056 42.8055 115.5775 48.8911 C 115.5775 48.8911 123.4272 51.7792 126.7324 55.0799 L 127.3521 56.3176 C 127.3521 56.3176 132.2066 53.9453 145.9437 58.7931 L 140.9859 66.2196 C 140.9859 66.2196 141.5023 62.1969 132.9296 59.412 C 132.9296 59.412 127.4554 57.8648 126.1127 59.412 C 126.1127 59.412 117.0235 49.4068 102.5634 48.8911 Z" stroke="#568e37" stroke-width="1" fill="#416b2a"/>
				<path d="M 104.4225 55.0799 L 104.4225 58.1742 C 104.4225 58.1742 102.5634 55.6987 98.2253 55.6987 L 104.4225 55.0799 Z" stroke="#568e37" stroke-width="1" fill="#416b2a"/>
				<path d="M 114.9577 29.706 C 114.9577 29.706 117.1268 28.2619 118.6761 28.4682 C 118.6761 28.4682 125.5963 37.0293 126.1127 46.4156 C 126.1127 46.4156 122.6009 35.2759 114.9577 29.706 Z" stroke="#568e37" stroke-width="1" fill="#416b2a"/>
				<path d="M 128.5916 53.2232 C 128.5916 53.2232 131.7934 52.6044 132.9296 52.6044 L 129.831 53.8421 L 128.5916 53.2232 Z" stroke="#568e37" stroke-width="1" fill="none"/>
				<path d="M 139.1268 71.1706 C 139.3333 70.758 143.4648 71.5832 144.0845 71.1706 C 144.0845 71.1706 143.5681 71.6863 139.7465 72.4083 C 139.7465 72.4083 138.9202 71.5832 139.1268 71.1706 Z" stroke="#568e37" stroke-width="1" fill="#416b2a"/>
			</g>
			<path d="M 57.3239 99.02 L 57.3239 94.6878 L 109.3803 64.363 L 163.2958 94.069 L 163.2958 107.0653 L 182.507 115.1107 L 182.507 84.167 L 109.3803 43.3212 L 36.8732 83.5481 L 36.8732 99.02 " stroke="#221f20" stroke-width="2" fill="#ed1e26"/>
			<path d="M 162.0563 151.0054 L 162.0563 155.3376 L 109.3803 185.6624 L 56.7042 156.5753 L 56.7042 142.9601 L 36.8732 135.5336 L 36.8732 165.8584 L 109.3803 207.3231 L 181.8873 166.4773 L 181.8873 151.0054 " stroke="#221f20" stroke-width="2" fill="#ed1e26"/>
			<g>
				<path d="M 142.4874 86.6075 C 142.9998 86.3825 144.0845 85.0691 144.0845 77.9782 C 144.0845 77.9782 147.493 79.9896 146.5634 86.6425 C 146.5634 86.6425 144.3944 90.8199 145.3239 92.2123 C 146.2535 93.6048 149.0423 89.7368 149.0423 89.7368 C 149.0423 89.7368 150.0751 83.7544 147.8028 76.5342 C 147.8028 76.5342 144.0845 59.412 155.8592 50.1289 C 155.8592 50.1289 149.8169 60.3403 154 63.1252 C 158.1831 65.9102 157.0986 55.0799 157.0986 55.0799 C 157.0986 55.0799 155.7042 44.0948 162.6761 40.2269 C 162.6761 40.2269 158.9577 49.2005 163.2958 58.1742 C 163.2958 58.1742 167.7887 72.7178 161.4366 81.6915 C 155.0845 90.6652 152.1408 91.5935 149.662 99.02 C 147.1831 106.4465 151.5211 105.2087 151.5211 105.2087 C 151.5211 105.2087 154.1549 104.2804 155.2394 99.02 C 155.2394 99.02 154 94.8426 158.9577 90.9746 C 158.9577 90.9746 156.169 95.7709 157.0986 102.7332 C 158.0282 109.6956 149.662 118.824 149.662 118.824 C 149.662 118.824 146.6889 121.0861 144.3968 122.3667 " stroke="#000000" stroke-width="1" fill="#221f20"/>
				<path d="M 126.1127 123.1561 C 126.1127 123.1561 133.1361 121.0932 136.6479 112.0163 C 136.6479 112.0163 136.798 110.1566 136.338 107.4908 C 136.1144 106.1946 136.0835 104.6473 135.5634 103.8162 C 135.5634 103.8162 134.9953 95.1004 138.507 93.4501 C 142.0188 91.7998 143.4648 88.4991 143.4648 88.4991 C 143.4648 88.4991 141.1925 94.069 144.0845 95.9256 C 146.9765 97.7822 149.0423 92.8312 149.0423 92.8312 C 149.0423 92.8312 152.1408 90.562 150.9014 79.8348 C 150.9014 79.8348 150.9014 77.7719 149.662 73.0272 C 148.4225 68.2825 149.2489 66.0133 150.9014 61.2686 C 150.9014 61.2686 150.6948 67.0448 155.2394 66.8385 C 159.7841 66.6322 159.5775 60.6497 159.5775 60.6497 L 159.5775 55.6987 C 159.5775 55.6987 162.6761 64.7756 162.0563 68.6951 C 162.0563 68.6951 164.1221 73.8524 155.2394 85.4047 C 146.3568 96.9571 145.9437 99.6388 145.9437 99.6388 C 145.9437 99.6388 145.0141 105.8276 147.8028 107.1685 C 147.8028 107.1685 150.2817 109.7471 154 106.4465 C 154 106.4465 151.7277 115.5233 143.4648 118.824 C 143.4648 118.824 135.4084 123.9812 126.1127 123.1561 Z" stroke="#ffdd00" stroke-width="1" fill="#fdc30d"/>
				<path d="M 136.0282 118.824 C 136.0282 118.824 138.8169 117.8956 138.507 114.4918 C 138.1972 111.088 137.2676 109.5408 137.2676 109.5408 C 137.2676 109.5408 136.9115 103.9591 137.2676 100.8766 C 137.7324 96.8539 140.0563 95.3067 140.7794 94.8941 C 140.7794 94.8941 140.6761 97.7822 141.3991 98.6074 C 142.1221 99.4325 144.4977 98.8137 144.4977 98.8137 C 144.4977 98.8137 142.4319 104.2804 145.3239 107.0653 C 145.3239 107.0653 145.7371 109.4377 149.662 110.1597 C 149.662 110.1597 149.5587 113.6667 142.2254 118.2051 C 142.2254 118.2051 137.4742 120.0617 136.0282 118.824 Z" fill="#ffde00"/>
				<path d="M 154.6197 83.5481 C 154.6197 83.5481 158.6479 77.8751 159.5775 74.265 C 160.507 70.6549 161.101 68.6435 160.2746 65.1366 C 160.2746 65.1366 159.5775 67.1479 154.6197 68.6951 C 154.6197 68.6951 151.3146 68.2052 150.5916 65.8328 C 150.5916 65.8328 150.8611 72.707 151.5211 74.265 C 152.6573 76.9468 152.5382 77.8583 152.4507 78.9065 C 152.3732 79.8348 152.1408 81.6915 152.1408 86.0236 C 152.1408 86.0236 153.4836 85.5079 154.6197 83.5481 Z" stroke="#ffffff00" stroke-width="1" fill="#ffde00"/>
				<path d="M 152.1408 69.9329 C 152.1408 69.9329 155.1362 72.7178 158.9577 69.9329 C 158.9577 69.9329 156.9953 77.6688 155.2394 79.216 C 155.2394 79.216 151.7277 73.543 152.1408 69.9329 Z" stroke="#fdd866" stroke-width="1" fill="#fff686"/>
				<path d="M 139.7465 100.8766 C 139.7465 100.8766 140.2629 102.5269 142.8451 102.7332 C 142.8451 102.7332 142.2254 110.1597 147.1831 112.0163 C 147.1831 112.0163 144.9108 115.8327 140.3662 117.5862 L 139.7465 100.8766 Z" stroke="#fdd866" stroke-width="1" fill="#fff686"/>
			</g>
		</g>
		<g>
			<path d="M 48.338 297.0599 L 23.5493 297.0599 L 23.5493 259.9274 L 42.1408 259.9274 L 42.1408 290.5907 L 48.338 290.5907 L 48.338 253.7387 L 17.3521 253.7387 L 17.3521 303.2487 L 42.1408 303.2487 L 42.1408 315.0363 C 42.1408 316.8929 41.066 318.4884 38.9357 319.8229 C 36.7958 321.1477 34.7623 321.8149 32.8451 321.8149 C 31.228 321.8149 29.4269 321.312 27.4516 320.3064 C 24.8468 318.9816 23.5493 317.2217 23.5493 315.0169 L 23.5493 309.2537 L 17.3521 309.2537 L 17.3521 315.5681 C 17.3521 319.204 19.2403 322.2887 23.0264 324.8029 C 26.2509 326.9303 29.5044 328.0036 32.7967 328.0036 C 36.4569 328.0036 39.8653 326.8916 43.0317 324.6675 C 46.566 322.25 48.338 319.291 48.338 315.7712 L 48.338 297.0599 L 48.338 297.0599 Z" stroke="#ffffff" stroke-width="1" fill="#ed1e26"/>
			<path d="M 91.0986 253.7387 L 60.1127 253.7387 L 60.1127 328.0036 L 66.3099 328.0036 L 66.3099 302.6298 L 78.3363 302.6298 C 80.8732 302.6298 83.6426 301.2567 86.625 298.5007 C 89.6074 295.7448 91.0986 293.1049 91.0986 290.5907 L 91.0986 253.7387 L 91.0986 253.7387 ZM 82.1901 294.1589 C 80.3794 295.6868 78.7623 296.441 77.3292 296.441 L 66.3099 296.441 L 66.3099 259.9274 L 84.9014 259.9274 L 84.9014 289.8655 C 84.9014 291.2096 83.9912 292.6407 82.1901 294.1589 L 82.1901 294.1589 Z" stroke="#ffffff" stroke-width="1" fill="#ed1e26"/>
			<path d="M 118.9859 321.8149 L 112.7887 321.8149 L 112.7887 259.9274 L 118.9859 259.9274 L 118.9859 253.7387 L 100.3944 253.7387 L 100.3944 259.9274 L 106.5916 259.9274 L 106.5916 321.8149 L 100.3944 321.8149 L 100.3944 328.0036 L 118.9859 328.0036 L 118.9859 321.8149 L 118.9859 321.8149 Z" stroke="#ffffff" stroke-width="1" fill="#ed1e26"/>
			<path d="M 160.507 309.2537 L 154.3099 309.2537 L 154.3099 314.9202 C 154.3099 316.7479 153.235 318.3531 151.1048 319.7359 C 148.9648 321.1187 146.9313 321.8149 145.0141 321.8149 C 142.9613 321.8149 140.9859 321.225 139.0687 320.055 C 136.8319 318.7012 135.7183 317.0573 135.7183 315.133 L 135.7183 259.9274 L 154.3099 259.9274 L 154.3099 296.8085 L 160.507 296.8085 L 160.507 253.7387 L 129.5211 253.7387 L 129.5211 315.2683 C 129.5211 318.9236 131.2254 321.989 134.6435 324.4741 C 137.7421 326.8239 141.1796 328.0036 144.9657 328.0036 C 148.6259 328.0036 152.0343 326.8723 155.2007 324.6095 C 158.735 322.1534 160.507 319.146 160.507 315.5681 L 160.507 309.2537 L 160.507 309.2537 Z" stroke="#ffffff" stroke-width="1" fill="#ed1e26"/>
			<path d="M 202.0282 309.2537 L 195.831 309.2537 L 195.831 314.9202 C 195.831 316.8156 194.7562 318.4304 192.6259 319.7842 C 190.4859 321.138 188.4525 321.8149 186.5352 321.8149 C 184.9181 321.8149 183.1171 321.3024 181.1417 320.287 C 178.537 318.9526 177.2394 317.1733 177.2394 314.9396 L 177.2394 302.6298 L 202.0282 302.6298 L 202.0282 296.441 L 177.2394 296.441 L 177.2394 259.9274 L 195.831 259.9274 L 195.831 290.5907 L 202.0282 290.5907 L 202.0282 253.7387 L 171.0423 253.7387 L 171.0423 315.2683 C 171.0423 318.9236 172.7465 321.989 176.1646 324.4741 C 179.2632 326.8239 182.7007 328.0036 186.4868 328.0036 C 190.147 328.0036 193.5555 326.8723 196.7218 324.6095 C 200.2562 322.1534 202.0282 319.146 202.0282 315.5681 L 202.0282 309.2537 L 202.0282 309.2537 Z" stroke="#ffffff" stroke-width="1" fill="#ed1e26"/>
		</g>
	</g>
</svg>