<?xml version="1.0" standalone="no"?>
<!-- Generator: Adobe Fireworks 10, Export SVG Extension by Aaron Beall (http://fireworks.abeall.com) . Version: 0.6.1  -->
<!DOCTYPE svg PUBLIC "-//W3C//DTD SVG 1.1//EN" "http://www.w3.org/Graphics/SVG/1.1/DTD/svg11.dtd">
<svg id="media_4_220_140.fw-Page%201" viewBox="0 0 220 140" style="background-color:#eeeeee" version="1.1"
	xmlns="http://www.w3.org/2000/svg" xmlns:xlink="http://www.w3.org/1999/xlink" xml:space="preserve"
	x="0px" y="0px" width="220px" height="140px"
>
	<g id="Layer%201">
		<path d="M 109.6825 -32.9614 L 198.5714 17.7273 L 198.5714 121.0055 L 109.6825 171.6942 L 22.0635 121.0055 L 22.0635 17.0937 L 109.6825 -32.9614 ZM 10 10.7576 L 10 127.9752 L 108.4127 185 L 110.9524 185 L 210 127.9752 L 210 11.3912 L 112.2222 -45 L 107.7778 -45 L 10 10.7576 Z" stroke="#000000" stroke-width="3" fill="#000000"/>
		<path d="M 109.6825 -14.5868 L 35.3968 26.5978 L 35.3968 59.5455 L 163.6508 89.9587 L 163.6508 100.0964 L 109.6825 131.1432 L 55.7143 101.3636 L 55.7143 87.4242 L 35.3968 79.8209 L 35.3968 110.8678 L 109.6825 153.3195 L 183.9683 111.5014 L 183.9683 77.9201 L 56.3492 47.5069 L 56.3492 38.0028 L 109.6825 6.9559 L 164.9206 37.3691 L 164.9206 50.6749 L 184.6032 58.9118 L 184.6032 27.2314 L 109.6825 -14.5868 Z" stroke="#221f20" stroke-width="3" fill="#ed1e26"/>
	</g>
</svg>