<?xml version="1.0" standalone="no"?>
<!-- Generator: Adobe Fireworks 10, Export SVG Extension by Aaron Beall (http://fireworks.abeall.com) . Version: 0.6.1  -->
<!DOCTYPE svg PUBLIC "-//W3C//DTD SVG 1.1//EN" "http://www.w3.org/Graphics/SVG/1.1/DTD/svg11.dtd">
<svg id="spice_slp_logo_trans_bg_white_outer_no_mascot.fw-Page%201" viewBox="0 0 355 551" style="background-color:#ffffff00" version="1.1"
	xmlns="http://www.w3.org/2000/svg" xmlns:xlink="http://www.w3.org/1999/xlink" xml:space="preserve"
	x="0px" y="0px" width="355px" height="551px"
>
	<g id="Layer%201">
		<path d="M 182 33 L 327 115 L 326 286 L 176 374 L 32 288 L 30 115 L 182 33 Z" fill="#000000"/>
		<path d="M 177 41 L 317 121 L 317 284 L 177 364 L 39 284 L 39 120 L 177 41 ZM 20 110 L 20 295 L 175 385 L 179 385 L 335 295 L 335 111 L 181 22 L 174 22 L 20 110 Z" stroke="#ffffff" stroke-width="4" fill="#ffffff"/>
		<path d="M 177 70 L 60 135 L 60 187 L 262 235 L 262 251 L 177 300 L 92 253 L 92 231 L 60 219 L 60 268 L 177 335 L 294 269 L 294 216 L 93 168 L 93 153 L 177 104 L 264 152 L 264 173 L 295 186 L 295 136 L 177 70 Z" stroke="#221f20" stroke-width="4" fill="#ed1e26"/>
		<g>
			<path d="M 78.5 480 L 38.5 480 L 38.5 420 L 68.5 420 L 68.5 469.5469 L 78.5 469.5469 L 78.5 410 L 28.5 410 L 28.5 490 L 68.5 490 L 68.5 509.0469 C 68.5 512.0469 66.7656 514.625 63.3281 516.7813 C 59.875 518.9219 56.5938 520 53.5 520 C 50.8906 520 47.9844 519.1875 44.7969 517.5625 C 40.5938 515.4219 38.5 512.5781 38.5 509.0156 L 38.5 499.7031 L 28.5 499.7031 L 28.5 509.9063 C 28.5 515.7813 31.5469 520.7656 37.6563 524.8281 C 42.8594 528.2656 48.1094 530 53.4219 530 C 59.3281 530 64.8281 528.2031 69.9375 524.6094 C 75.6406 520.7031 78.5 515.9219 78.5 510.2344 L 78.5 480 L 78.5 480 Z" stroke="#ffffff" stroke-width="2" fill="#ed1e26"/>
			<path d="M 147.5 410 L 97.5 410 L 97.5 530 L 107.5 530 L 107.5 489 L 126.9063 489 C 131 489 135.4688 486.7813 140.2813 482.3281 C 145.0938 477.875 147.5 473.6094 147.5 469.5469 L 147.5 410 L 147.5 410 ZM 133.125 475.3125 C 130.2031 477.7813 127.5938 479 125.2813 479 L 107.5 479 L 107.5 420 L 137.5 420 L 137.5 468.375 C 137.5 470.5469 136.0313 472.8594 133.125 475.3125 L 133.125 475.3125 Z" stroke="#ffffff" stroke-width="2" fill="#ed1e26"/>
			<path d="M 192.5 520 L 182.5 520 L 182.5 420 L 192.5 420 L 192.5 410 L 162.5 410 L 162.5 420 L 172.5 420 L 172.5 520 L 162.5 520 L 162.5 530 L 192.5 530 L 192.5 520 L 192.5 520 Z" stroke="#ffffff" stroke-width="2" fill="#ed1e26"/>
			<path d="M 259.5 499.7031 L 249.5 499.7031 L 249.5 508.8594 C 249.5 511.8125 247.7656 514.4063 244.3281 516.6406 C 240.875 518.875 237.5938 520 234.5 520 C 231.1875 520 228 519.0469 224.9063 517.1563 C 221.2969 514.9688 219.5 512.3125 219.5 509.2031 L 219.5 420 L 249.5 420 L 249.5 479.5938 L 259.5 479.5938 L 259.5 410 L 209.5 410 L 209.5 509.4219 C 209.5 515.3281 212.25 520.2813 217.7656 524.2969 C 222.7656 528.0938 228.3125 530 234.4219 530 C 240.3281 530 245.8281 528.1719 250.9375 524.5156 C 256.6406 520.5469 259.5 515.6875 259.5 509.9063 L 259.5 499.7031 L 259.5 499.7031 Z" stroke="#ffffff" stroke-width="2" fill="#ed1e26"/>
			<path d="M 326.5 499.7031 L 316.5 499.7031 L 316.5 508.8594 C 316.5 511.9219 314.7656 514.5313 311.3281 516.7188 C 307.875 518.9063 304.5938 520 301.5 520 C 298.8906 520 295.9844 519.1719 292.7969 517.5313 C 288.5938 515.375 286.5 512.5 286.5 508.8906 L 286.5 489 L 326.5 489 L 326.5 479 L 286.5 479 L 286.5 420 L 316.5 420 L 316.5 469.5469 L 326.5 469.5469 L 326.5 410 L 276.5 410 L 276.5 509.4219 C 276.5 515.3281 279.25 520.2813 284.7656 524.2969 C 289.7656 528.0938 295.3125 530 301.4219 530 C 307.3281 530 312.8281 528.1719 317.9375 524.5156 C 323.6406 520.5469 326.5 515.6875 326.5 509.9063 L 326.5 499.7031 L 326.5 499.7031 Z" stroke="#ffffff" stroke-width="2" fill="#ed1e26"/>
		</g>
	</g>
</svg>