<?xml version="1.0" standalone="no"?>
<!-- Generator: Adobe Fireworks 10, Export SVG Extension by Aaron Beall (http://fireworks.abeall.com) . Version: 0.6.1  -->
<!DOCTYPE svg PUBLIC "-//W3C//DTD SVG 1.1//EN" "http://www.w3.org/Graphics/SVG/1.1/DTD/svg11.dtd">
<svg id="spice_master_white_bg_black_outer.fw-Page%201" viewBox="0 0 339 387" style="background-color:#ffffff00" version="1.1"
	xmlns="http://www.w3.org/2000/svg" xmlns:xlink="http://www.w3.org/1999/xlink" xml:space="preserve"
	x="0px" y="0px" width="339px" height="387px"
>
	<g id="Layer%201">
		<path d="M 171 22 L 319 109 L 315 274 L 168 364 L 24 279 L 22 103 L 171 22 Z" fill="#ffffff"/>
		<path d="M 169 31 L 309 111 L 309 274 L 169 354 L 31 274 L 31 110 L 169 31 ZM 12 100 L 12 285 L 167 375 L 171 375 L 327 285 L 327 101 L 173 12 L 166 12 L 12 100 Z" stroke="#000000" stroke-width="4" fill="#000000"/>
		<path d="M 169 60 L 52 125 L 52 177 L 254 225 L 254 241 L 169 290 L 84 243 L 84 221 L 52 209 L 52 258 L 169 325 L 286 259 L 286 206 L 85 158 L 85 143 L 169 94 L 256 142 L 256 163 L 287 176 L 287 126 L 169 60 Z" stroke="#221f20" stroke-width="4" fill="#ed1e26"/>
	</g>
</svg>