<?xml version="1.0" standalone="no"?>
<!-- Generator: Adobe Fireworks 10, Export SVG Extension by Aaron Beall (http://fireworks.abeall.com) . Version: 0.6.1  -->
<!DOCTYPE svg PUBLIC "-//W3C//DTD SVG 1.1//EN" "http://www.w3.org/Graphics/SVG/1.1/DTD/svg11.dtd">
<svg id="spice_master_white_bg_black_outer_horizontal.fw-Page%201" viewBox="0 0 1301 407" style="background-color:#ffffff00" version="1.1"
	xmlns="http://www.w3.org/2000/svg" xmlns:xlink="http://www.w3.org/1999/xlink" xml:space="preserve"
	x="0px" y="0px" width="1301px" height="407px"
>
	<g id="Layer%201">
		<path d="M 161 32 L 309 119 L 305 284 L 158 374 L 14 289 L 12 113 L 161 32 Z" fill="#ffffff"/>
		<g>
			<path d="M 159 41 L 299 121 L 299 284 L 159 364 L 21 284 L 21 120 L 159 41 ZM 2 110 L 2 295 L 157 385 L 161 385 L 317 295 L 317 111 L 163 22 L 156 22 L 2 110 Z" stroke="#000000" stroke-width="4" fill="#000000"/>
			<path d="M 159 70 L 42 135 L 42 187 L 244 235 L 244 251 L 159 300 L 74 253 L 74 231 L 42 219 L 42 268 L 159 335 L 276 269 L 276 216 L 75 168 L 75 153 L 159 104 L 246 152 L 246 173 L 277 186 L 277 136 L 159 70 Z" stroke="#221f20" stroke-width="4" fill="#ed1e26"/>
			<g>
				<path d="M 162 47 C 162 47 167.25 40.75 176 44 C 184.75 47.25 188 70 188 70 C 188 70 188.5 74 188 84 C 188 84 196.5 82 202 84 C 202 84 195.25 86 194 88 C 194 88 207 87 213 90 C 219 93 222.6667 92.3333 222.6667 92.3333 C 222.6667 92.3333 211.6667 110.9167 211.6667 110.1667 C 211.6667 109.4167 209 112 209 112 L 217 113 C 217 113 217.25 115.5 213 119 L 208 119 C 208 119 212 133 212 140 C 212 140 215 141 215 126 C 215 126 220.5 129.25 219 140 C 219 140 215.5 146.75 217 149 C 218.5 151.25 223 145 223 145 C 223 145 224.6667 135.3333 221 123.6667 C 221 123.6667 215 96 234 81 C 234 81 224.25 97.5 231 102 C 237.75 106.5 236 89 236 89 C 236 89 233.75 71.25 245 65 C 245 65 239 79.5 246 94 C 246 94 253.25 117.5 243 132 C 232.75 146.5 228 148 224 160 C 220 172 227 170 227 170 C 227 170 231.25 168.5 233 160 C 233 160 231 153.25 239 147 C 239 147 234.5 154.75 236 166 C 237.5 177.25 224 192 224 192 C 224 192 218.75 196 215 198 C 215 198 213 210.25 209 214 C 209 214 207.75 237 198 260 C 188.25 283 167 302 167 302 C 167 302 149 317.75 126 328 C 108.0287 336.0089 95.5522 329.6706 90.9555 326.5161 C 89.6693 325.6334 89.125 322.125 89.1959 321.2667 C 89.5502 316.9778 90.6982 310.1367 94 307 C 94 307 97.25 299.75 110 286 C 110 286 117.25 275.25 119 251 L 119 230 C 119 230 112.5 226.5 111 220 C 109.5 213.5 112 211 112 211 C 112 211 114.25 207 124 204 C 124 204 118.25 200.5 115 189 C 115 189 108.75 179 110 172 C 110 172 94 161.25 104 141 C 104 141 108.5 131.75 117 128 C 117 128 115.5 117 120 109 C 124.5 101 128 99 128 99 C 128 99 133.25 95.25 135 95 L 140 98 L 150 98 C 150 98 146.75 92.25 132 91 C 132 91 127 87 149 86 C 149 86 130.75 74.25 141 57 C 141 57 147.5 71 172 77 C 172 77 177 78.25 184 82 C 184 82 184.25 62.75 162 47 Z" stroke="#000000" stroke-width="2" fill="#221f20"/>
				<path d="M 94.6667 314.6667 C 96.3698 311.0474 110.6667 293.3333 110.6667 293.3333 C 117.3333 287.3333 125 273.6667 125 273.6667 L 116.3333 280.6667 C 123.3333 270.3333 124 234 124 234 C 148 241 146 235 146 235 C 146 235 127.1667 235.5 117 222 C 117 222 109.8333 211 125 208 L 126 213 L 126 214 L 122 214 L 123 216 C 123 216 136.6667 232.6667 168 228 C 199.3333 223.3333 199.3333 207 204 202 L 210 201 C 210 201 201.6667 224 184 231 C 184 231 188 234.3333 204 222 C 204 222 194.3333 263.3333 184 274 C 184 274 172 293.3333 141 314 C 141 314 113.3333 332.6667 95.6667 324.6667 C 95.6667 324.6667 92 320.3333 94.6667 314.6667 Z" stroke="#ed1e26" stroke-width="1" fill="#ca151f"/>
				<path d="M 189.5 234.75 C 189.5 234.75 178.25 243 165 243 C 151.75 243 133 240.75 133 240.75 L 132 242 C 132 242 133.5 269.75 130 275 C 126.5 280.25 121.75 288.5 103 309 C 100.25 313.25 99.9977 317.2749 104.7965 319.4307 C 117.75 325.25 167.0808 284.1818 171.5 278.5 C 176.75 271.75 189.75 257 189.5 234.75 Z" fill="#ed1e26"/>
				<path d="M 141 249 C 141 249 149.5 241.75 155 252 C 155 252 156.5 257.75 147 274 C 137.5 290.25 116 315.25 111 312 C 106 308.75 115.3333 299.6667 115.3333 299.6667 L 133 277 C 133 277 141 266.5 140 262 L 141 249 Z" stroke="#ffffff00" stroke-width="1" fill="#f79274"/>
				<path d="M 169 228 C 169 228 175.75 228.75 181 229 C 186.25 229.25 172.5 233.75 172.5 233.75 C 172.5 233.75 148 237.25 135 233 C 122 228.75 123 223 123 223 C 123 223 123.75 220.25 126 221 C 128.25 221.75 131 223 131 223 C 131 223 140.75 227 143 227 C 145.25 227 151.75 230.25 169 228 Z" stroke="#ffffff00" stroke-width="1" fill="#ed1d25"/>
				<path d="M 157 232 C 157 232 157.5 234.5 149 234 C 140.5 233.5 135 229 135 229 C 135 229 131.5 225.75 138 226 C 138 226 142.75 230 155 231 C 158.9885 231.3256 157 232 157 232 Z" stroke="#ffffff00" stroke-width="1" fill="#f49678"/>
				<path d="M 136 207 L 134 206 L 128.375 209.25 C 128 216.75 130 216 130 216 L 130.625 215 L 131 215 L 131 217 C 132.125 222.875 145 224 145 224 L 146 223 L 146 219 L 146.25 217.375 L 146.5 217.125 L 147.375 223.625 C 156.875 228.875 168 225 168 225 L 168.875 222.75 L 169.625 220.125 L 170 220 L 170 224 C 180.625 223.875 185 219 185 219 L 185.25 215.75 L 186 215.25 L 187 217 C 191.375 216 198 208 198 208 L 196 206 C 196 206 168.125 220.25 134 209 L 136 207 Z" stroke="#000000" stroke-width="1" fill="#ffffff"/>
				<path d="M 199 182 C 199 182 198.25 199.125 159 206 C 159 206 132.875 208.375 122 199 L 119 193 L 121 190 C 121 190 125.375 195 128 195 L 128 198 L 129 197 L 129 195 C 129 195 131.75 198 143 199 L 145 201 L 145 202 L 146 200 L 147 199 C 147 199 160.5 200.375 170 197 L 171 199 L 172 198 L 172 196 C 172 196 184.625 189.875 189 185 L 190 189 L 190 185 L 190 183 C 190 183 196.25 178.75 197 173 L 199 174 L 199 182 Z" stroke="#000000" stroke-width="1" fill="#fdfdfd"/>
				<path d="M 117 177 C 117 177 115.5 176.5 116 178 C 116.5 179.5 123.1667 182.8333 121 183 C 118.8333 183.1667 114 180 114 180 C 114 180 127.1667 202.1667 165 194 C 165 194 185 189.3333 197.5 166 L 197.6667 159.5 L 195.5 158.6667 L 194.6667 159.6667 C 194.6667 159.6667 195 163.1667 192 171 C 189 178.8333 167 188 167 188 L 163 188 L 170 182 C 170 182 157.6667 180.1667 154 175 C 154 175 148 182.6667 134 181 C 134 181 127 182.3333 117 177 Z" stroke="#ed1e26" stroke-width="1" fill="#ca151f"/>
				<path d="M 148 182 C 148 182 154 177.875 159 182 C 159 182 161.625 184.5 156 188 C 156 188 155 189.375 165 189 L 169 188 L 168 190 C 168 190 165 192.5 150 194 C 135 195.5 127 189 127 189 C 127 189 125.75 187.625 127 187 C 127 187 126.125 185.5 133 186 L 131.75 183 C 131.75 183 141.625 183.625 148 182 Z" fill="#ed1e26"/>
				<path d="M 150 188 C 150 188 144 189 142 188 C 140 187 142 185 142 185 C 142 185 145.5 182.1667 151 186 C 151 186 151.6667 187.1667 150 188 Z" stroke="#ffffff00" stroke-width="1" fill="#f79274"/>
				<path d="M 159 146 C 159 146 145.1667 118.3333 121 131 C 96.8333 143.6667 109 164 109 164 C 109 164 118.1667 178.1667 135 178 C 151.8333 177.8333 152 171 152 171 L 151 169 C 151 169 144.8333 179.6667 127 172 C 127 172 112.3333 165.6667 123 148 C 123 148 127.8333 142.6667 136 141 C 144.1667 139.3333 154 150 154 150 L 159 146 Z" stroke="#000000" stroke-width="1" fill="#ffffff"/>
				<path d="M 153 154 C 153 154 150 158 150 164 C 150 170 138 171 138 171 C 138 171 127.8333 171.8333 123 164 C 118.1667 156.1667 126 147 126 147 C 126 147 132.5 141 141 144 C 149.5 147 152.6667 150.6667 153 154 Z" stroke="#000000" stroke-width="1" fill="#ffff04"/>
				<path d="M 148 163 C 148 163 145.3333 169.1667 134 169 C 134 169 127 167.3333 126 164 C 125 160.6667 130 162 130 162 C 130 162 130.8333 166 135 166 C 139.1667 166 144.3333 164.6667 146 163 C 147.6667 161.3333 148 163 148 163 Z" stroke="#ffffff00" stroke-width="1" fill="#fcda00"/>
				<path d="M 126 151 C 126 151 120.5 157.6667 126 165 L 130 162 C 130 162 129 156.1667 130 154 C 131 151.8333 126 151 126 151 Z" stroke="#ffffff00" stroke-width="1" fill="#fdc50d"/>
				<path d="M 130 155 L 125.25 152.5 C 125.25 152.5 127 145.3333 136 146 C 145 146.6667 148.6667 151.3333 149.3333 151.1667 C 150 151 147.1667 154.1667 147.1667 154.1667 C 147.1667 154.1667 141.6667 146.8333 135 151 C 128.3333 155.1667 130 155 130 155 Z" fill="#eaa319"/>
				<path d="M 128 149 L 128 150 L 130 151 L 132 150 L 134 149 L 135 147 L 134 146 L 132 145 L 130 146 L 129 147 L 128 149 Z" fill="#ffff92"/>
				<path d="M 141 164 L 143 164 L 144 165 L 143 167 L 141 168 L 139 168 L 137 168 L 137 167 L 138 166 L 139 165 L 141 164 Z" fill="#fdf583"/>
				<path d="M 132 157 C 132 157 135.8333 150.3333 141 152 C 146.1667 153.6667 145 158 145 158 C 145 158 145.3333 161.5 142 163 C 138.6667 164.5 134 163 134 163 C 134 163 132.8333 162 132 161 C 131.1667 160 132 157 132 157 Z" stroke="#000000" stroke-width="1" fill="#221f20"/>
				<path d="M 156 134 C 156 134 146.75 124.25 134 123 C 134 123 123.75 123.5 121 126 C 121 126 120.25 114 123 111 C 123 111 126.5 105.5 133 106 C 139.5 106.5 150 123 150 123 C 150 123 152.75 126.75 156 127 C 159.25 127.25 162 124 162 124 C 162 124 165.75 118 165 110 L 159 114 C 159 114 150.75 104.5 147 103 C 143.25 101.5 152 102 152 102 C 152 102 158.5 102.75 160 105 C 160 105 163.25 105 156 100 C 156 100 181.25 94 190 102 C 198.75 110 202.75 118.5 203 121 C 203 121 207.5 127.75 209 143 C 209 143 198.5 150.5 198 155 L 195 155 C 195 155 195 151 192 147 C 189 143 202 143 202 143 C 202 143 205.5 144.5 205 145 C 205 145 206 139.75 194 140 C 194 140 191 139.75 188 143 C 188 143 183.5 140.25 180 141 C 180 141 193 130 193 126 C 193 122 202.25 137 202 139 C 202 139 204.5 138.25 202 126 C 199.5 113.75 188 110 188 110 L 188 112 C 188 112 174.5 110.25 171 118 C 171 118 181.75 113.25 186 116 C 186 116 180 125.75 172 128 C 172 128 170.5 130 167 125 C 167 125 158.75 135.25 164 141 L 164 143 C 164 143 158.5 140 160 134 C 160 134 159.75 130.5 164 125 C 164 125 157 128.75 156 134 Z" stroke="#ed1e26" stroke-width="1" fill="#ca151f"/>
				<path d="M 155.75 156.75 C 155.75 156.75 160 146 171 144 C 182 142 188 150 188 150 C 188 150 195 157.25 188.5 167 C 184.181 173.4785 185.75 174.5 171 178 C 171 178 158.5 177.25 156 170 C 154.8609 166.6967 154.305 164.109 154.25 162 C 154.1842 159.4802 155.75 156.75 155.75 156.75 Z" stroke="#000000" stroke-width="1" fill="#ffffff"/>
				<path d="M 162 156 C 162 156 166.75 149.75 172.5 149.5 C 178.25 149.25 183 153 183 153 C 183 153 188.25 158.5 186 165 C 183.75 171.5 178.5 173.25 178 173 C 177.5 172.75 169.5 176.75 164 171 C 158.5 165.25 160.25 160.75 160.25 160.75 C 160.25 160.75 161.25 156.5 162 156 Z" stroke="#000000" stroke-width="1" fill="#221f20"/>
				<path d="M 184 164 C 184 164 177.5 171.25 169 170 C 169 170 162.75 167.5 162 163 C 161.25 158.5 165 156 165 156 C 165 156 165.75 152.5 173 151 C 180.25 149.5 185 158 185 158 C 185 158 185.75 162.5 184 164 Z" stroke="#000000" stroke-width="1" fill="#ffff04"/>
				<path d="M 182.5 163 C 182.5 163 179.9887 168.1089 171.6681 167.9978 C 171.6681 167.9978 166.2342 167.3886 165.5 165.1667 C 164.7658 162.9448 168 163.1667 168 163.1667 C 168 163.1667 169.3432 165.9981 172.4022 165.9981 C 175.4613 165.9981 179.1097 163.7776 180.3333 162.6667 C 181.5569 161.5557 182.5 163 182.5 163 Z" stroke="#ffffff00" stroke-width="1" fill="#fcda00"/>
				<path d="M 165.7946 155.9995 C 165.7946 155.9995 161.462 160.4451 165.5 165.3333 L 168.1667 163.5 C 168.1667 163.5 167.9972 159.4434 168.7314 157.9992 C 169.4655 156.5549 165.7946 155.9995 165.7946 155.9995 Z" stroke="#ffffff00" stroke-width="1" fill="#fdc50d"/>
				<path d="M 168.5 158.6667 L 165.244 156.9993 C 165.244 156.9993 166.5288 152.2222 173.1364 152.6666 C 179.744 153.1109 181.5105 156.4444 182 156.3333 C 182.4894 156.2222 180.1667 158.6667 180.1667 158.6667 C 180.1667 158.6667 176.2278 152.8893 171.3333 155.6667 C 166.4388 158.4441 168.5 158.6667 168.5 158.6667 Z" fill="#eaa319"/>
				<path d="M 167.263 154.6663 L 167.263 155.3329 L 168.7314 155.9995 L 170.1997 155.3329 L 171.6681 154.6663 L 172.4022 153.3331 L 171.6681 152.6666 L 170.1997 152 L 168.7314 152.6666 L 167.9972 153.3331 L 167.263 154.6663 Z" fill="#ffff92"/>
				<path d="M 176.8073 164.6649 L 178.2757 164.6649 L 179.0098 165.3315 L 178.2757 166.6646 L 176.8073 167.3312 L 175.3389 167.3312 L 173.8706 167.3312 L 173.8706 166.6646 L 174.6048 165.9981 L 175.3389 165.3315 L 176.8073 164.6649 Z" fill="#fdf583"/>
				<path d="M 169 162 C 169 162 170 153.5 176 157 C 182 160.5 175 164 175 164 C 175 164 171.25 166.25 169 162 Z" stroke="#000000" stroke-width="1" fill="#221f20"/>
				<path d="M 186 199 C 186 199 197.3333 195.6667 203 181 C 203 181 203.2422 177.995 202.5 173.6875 C 202.1391 171.5931 202.0893 169.0928 201.25 167.75 C 201.25 167.75 200.3333 153.6667 206 151 C 211.6667 148.3333 214 143 214 143 C 214 143 210.3333 152 215 155 C 219.6667 158 223 150 223 150 C 223 150 228 146.3333 226 129 C 226 129 226 125.6667 224 118 C 222 110.3333 223.3333 106.6667 226 99 C 226 99 225.6667 108.3333 233 108 C 240.3333 107.6667 240 98 240 98 L 240 90 C 240 90 245 104.6667 244 111 C 244 111 247.3333 119.3333 233 138 C 218.6667 156.6667 218 161 218 161 C 218 161 216.5 171 221 173.1667 C 221 173.1667 225 177.3333 231 172 C 231 172 227.3333 186.6667 214 192 C 214 192 201 200.3333 186 199 Z" stroke="#ffdd00" stroke-width="1" fill="#fdc30d"/>
				<path d="M 202 192 C 202 192 206.5 190.5 206 185 C 205.5 179.5 204 177 204 177 C 204 177 203.4253 167.9808 204 163 C 204.75 156.5 208.5 154 209.6667 153.3333 C 209.6667 153.3333 209.5 158 210.6667 159.3333 C 211.8333 160.6667 215.6667 159.6667 215.6667 159.6667 C 215.6667 159.6667 212.3333 168.5 217 173 C 217 173 217.6667 176.8333 224 178 C 224 178 223.8333 183.6667 212 191 C 212 191 204.3333 194 202 192 Z" fill="#ffde00"/>
				<path d="M 232 135 C 232 135 238.5 125.8333 240 120 C 241.5 114.1667 242.4583 110.9167 241.125 105.25 C 241.125 105.25 240 108.5 232 111 C 232 111 226.6667 110.2083 225.5 106.375 C 225.5 106.375 225.9349 117.4825 227 120 C 228.8333 124.3333 228.6411 125.8062 228.5 127.5 C 228.375 129 228 132 228 139 C 228 139 230.1667 138.1667 232 135 Z" stroke="#ffffff00" stroke-width="1" fill="#ffde00"/>
				<path d="M 228 113 C 228 113 232.8333 117.5 239 113 C 239 113 235.8333 125.5 233 128 C 233 128 227.3333 118.8333 228 113 Z" stroke="#fdd866" stroke-width="1" fill="#fff686"/>
				<path d="M 208 163 C 208 163 208.8333 165.6667 213 166 C 213 166 212 178 220 181 C 220 181 216.3333 187.1667 209 190 L 208 163 Z" stroke="#fdd866" stroke-width="1" fill="#fff686"/>
				<path d="M 109 151 C 109 151 110 162 116 164 C 116 164 119 168.1667 123 172 C 127 175.8333 116.6667 170.3333 116 169 C 115.3333 167.6667 116.8333 166 115 165 C 113.1667 164 112 165 112 165 C 112 165 107.1667 159.3333 109 151 Z" fill="#e6e6e6"/>
				<path d="M 125 122 C 125 122 121.5 115.3333 128 111 C 134.5 106.6667 144 120 144 120 C 144 120 144.5 122.1667 142 122 C 139.5 121.8333 134.1667 120.5 125 122 Z" fill="#ed1e26"/>
				<path d="M 128 114 C 128 114 130.3333 110 134 114 C 137.6667 118 133 118 133 118 C 133 118 130.1667 118.5 128 114 Z" fill="#f79274"/>
				<path d="M 164 102 C 164 102 174.3333 95.1667 189 105 C 189 105 191.6667 109.6667 179 110 C 166.3333 110.3333 164 102 164 102 Z" stroke="#ffffff00" stroke-width="1" fill="#ed1e26"/>
				<path d="M 172 105 C 172 105 171 101.8333 175 102 C 179 102.1667 180 104 180 104 C 180 104 179.8333 105.8333 178 106 C 176.1667 106.1667 172.8333 106.5 172 105 Z" stroke="#ffffff00" stroke-width="1" fill="#f79274"/>
				<path d="M 170.6667 122 C 170.6667 122 168 117.8333 181 117 C 181 117 173.3333 124 173 124 C 172.6667 124 170.6667 125.1667 170.6667 122 Z" stroke="#ffffff00" stroke-width="1" fill="#ed1e26"/>
				<path d="M 172 121 C 172 121 172.1667 117.3333 176 120 C 176 120 174.3333 124.3333 172 121 Z" stroke="#ffffff00" stroke-width="1" fill="#f79274"/>
				<path d="M 194 148 C 194 148 197.25 144.25 200 146 C 202.75 147.75 198 150 198 150 L 194 148 Z" stroke="#ffffff00" stroke-width="1" fill="#ed1e26"/>
				<path d="M 196 147 C 196 147 196.1667 143.3333 200 146 C 200 146 198.3333 150.3333 196 147 Z" stroke="#ffffff00" stroke-width="1" fill="#f79274"/>
				<path d="M 148 79 C 148 79 140 69.1667 142 62.3333 C 142 62.3333 140 69.1667 169 79 C 169 79 181.6667 83.6667 187 89 L 188 91 C 188 91 195.8333 87.1667 218 95 L 210 107 C 210 107 210.8333 100.5 197 96 C 197 96 188.1667 93.5 186 96 C 186 96 171.3333 79.8333 148 79 Z" stroke="#568e37" stroke-width="1" fill="#416b2a"/>
				<path d="M 151 89 L 151 94 C 151 94 148 90 141 90 L 151 89 Z" stroke="#568e37" stroke-width="1" fill="#416b2a"/>
				<path d="M 168 48 C 168 48 171.5 45.6667 174 46 C 174 46 185.1667 59.8333 186 75 C 186 75 180.3333 57 168 48 Z" stroke="#568e37" stroke-width="1" fill="#416b2a"/>
				<path d="M 190 86 C 190 86 195.1667 85 197 85 L 192 87 L 190 86 Z" stroke="#568e37" stroke-width="1" fill="none"/>
				<path d="M 207 115 C 207.3333 114.3333 214 115.6667 215 115 C 215 115 214.1667 115.8333 208 117 C 208 117 206.6667 115.6667 207 115 Z" stroke="#568e37" stroke-width="1" fill="#416b2a"/>
			</g>
			<path d="M 75 160 L 75 153 L 159 104 L 246 152 L 246 173 L 277 186 L 277 136 L 159 70 L 42 135 L 42 160 " stroke="#221f20" stroke-width="4" fill="#ed1e26"/>
			<path d="M 244 244 L 244 251 L 159 300 L 74 253 L 74 231 L 42 219 L 42 268 L 159 335 L 276 269 L 276 244 " stroke="#221f20" stroke-width="4" fill="#ed1e26"/>
			<g>
				<path d="M 212.4229 139.9434 C 213.2496 139.58 215 137.4576 215 126 C 215 126 220.5 129.25 219 140 C 219 140 215.5 146.75 217 149 C 218.5 151.25 223 145 223 145 C 223 145 224.6667 135.3333 221 123.6667 C 221 123.6667 215 96 234 81 C 234 81 224.25 97.5 231 102 C 237.75 106.5 236 89 236 89 C 236 89 233.75 71.25 245 65 C 245 65 239 79.5 246 94 C 246 94 253.25 117.5 243 132 C 232.75 146.5 228 148 224 160 C 220 172 227 170 227 170 C 227 170 231.25 168.5 233 160 C 233 160 231 153.25 239 147 C 239 147 234.5 154.75 236 166 C 237.5 177.25 224 192 224 192 C 224 192 219.2026 195.6552 215.504 197.7244 " stroke="#000000" stroke-width="2" fill="#221f20"/>
				<path d="M 186 199 C 186 199 197.3333 195.6667 203 181 C 203 181 203.2422 177.995 202.5 173.6875 C 202.1391 171.5931 202.0893 169.0928 201.25 167.75 C 201.25 167.75 200.3333 153.6667 206 151 C 211.6667 148.3333 214 143 214 143 C 214 143 210.3333 152 215 155 C 219.6667 158 223 150 223 150 C 223 150 228 146.3333 226 129 C 226 129 226 125.6667 224 118 C 222 110.3333 223.3333 106.6667 226 99 C 226 99 225.6667 108.3333 233 108 C 240.3333 107.6667 240 98 240 98 L 240 90 C 240 90 245 104.6667 244 111 C 244 111 247.3333 119.3333 233 138 C 218.6667 156.6667 218 161 218 161 C 218 161 216.5 171 221 173.1667 C 221 173.1667 225 177.3333 231 172 C 231 172 227.3333 186.6667 214 192 C 214 192 201 200.3333 186 199 Z" stroke="#ffdd00" stroke-width="1" fill="#fdc30d"/>
				<path d="M 202 192 C 202 192 206.5 190.5 206 185 C 205.5 179.5 204 177 204 177 C 204 177 203.4253 167.9808 204 163 C 204.75 156.5 208.5 154 209.6667 153.3333 C 209.6667 153.3333 209.5 158 210.6667 159.3333 C 211.8333 160.6667 215.6667 159.6667 215.6667 159.6667 C 215.6667 159.6667 212.3333 168.5 217 173 C 217 173 217.6667 176.8333 224 178 C 224 178 223.8333 183.6667 212 191 C 212 191 204.3333 194 202 192 Z" fill="#ffde00"/>
				<path d="M 232 135 C 232 135 238.5 125.8333 240 120 C 241.5 114.1667 242.4583 110.9167 241.125 105.25 C 241.125 105.25 240 108.5 232 111 C 232 111 226.6667 110.2083 225.5 106.375 C 225.5 106.375 225.9349 117.4825 227 120 C 228.8333 124.3333 228.6411 125.8062 228.5 127.5 C 228.375 129 228 132 228 139 C 228 139 230.1667 138.1667 232 135 Z" stroke="#ffffff00" stroke-width="1" fill="#ffde00"/>
				<path d="M 228 113 C 228 113 232.8333 117.5 239 113 C 239 113 235.8333 125.5 233 128 C 233 128 227.3333 118.8333 228 113 Z" stroke="#fdd866" stroke-width="1" fill="#fff686"/>
				<path d="M 208 163 C 208 163 208.8333 165.6667 213 166 C 213 166 212 178 220 181 C 220 181 216.3333 187.1667 209 190 L 208 163 Z" stroke="#fdd866" stroke-width="1" fill="#fff686"/>
			</g>
		</g>
		<g>
			<path d="M 515.2969 168.4063 L 540.5 168.4063 L 540.5 155.7969 C 540.5 147.4063 538.8438 139.3594 535.5469 131.6563 C 532.2344 123.9531 527.3906 117.25 521 111.5469 C 514.5938 105.8594 506.75 101.3125 497.4531 97.9063 C 488.1406 94.5 477.5938 92.7969 465.7969 92.7969 C 455.5938 92.7969 446.25 94.1563 437.75 96.8594 C 429.25 99.5625 421.9375 103.4063 415.8438 108.4063 C 409.75 113.4063 405 119.3125 401.5938 126.1094 C 398.1875 132.9063 396.5 140.4063 396.5 148.5938 L 396.5 152.2031 C 396.5 161.2031 398.0938 169.0156 401.2969 175.6094 C 404.4844 182.2031 409.0938 187.8594 415.0938 192.5469 C 421.0938 197.25 428.3438 201.0469 436.8438 203.9531 C 445.3438 206.8594 454.8906 209 465.5 210.4063 C 483.6875 213 496.8438 217.2031 504.9375 223 C 513.0313 228.8125 517.0938 237.2031 517.0938 248.2031 L 517.0938 250 C 517.0938 261.4063 513.1406 270.5469 505.25 277.4531 C 497.3438 284.3594 485.5938 287.7969 470 287.7969 C 452 287.7969 437.9375 283.2031 427.8438 274 C 417.75 264.8125 412.7031 251 412.7031 232.5938 L 412.7031 225.4063 L 387.5 225.4063 L 387.5 234.4063 C 387.5 245.4063 389.2969 255.5625 392.8906 264.8594 C 396.4844 274.1563 401.7344 282.25 408.6406 289.1563 C 415.5469 296.0625 424.1406 301.4531 434.4531 305.3594 C 444.75 309.25 456.5938 311.2031 470 311.2031 C 481.7969 311.2031 492.2031 309.7031 501.2031 306.7031 C 510.2031 303.7031 517.75 299.5156 523.8438 294.1094 C 529.9375 288.7031 534.5469 282.25 537.6406 274.75 C 540.7344 267.25 542.2969 259 542.2969 250 L 542.2969 246.4063 C 542.2969 230.4063 537.0938 217.6563 526.6875 208.1563 C 516.2813 198.6563 500.0938 192.2031 478.0938 188.7969 C 468.6875 187.4063 460.5 185.7656 453.5 183.8594 C 446.5 181.9531 440.6406 179.5625 435.9531 176.6563 C 431.25 173.75 427.7031 170.25 425.2969 166.1563 C 422.8906 162.0625 421.7031 157.1094 421.7031 151.2969 L 421.7031 149.5 C 421.7031 144.1094 422.8906 139.3594 425.2969 135.25 C 427.7031 131.1563 430.9531 127.7031 435.0469 124.9063 C 439.1406 122.1094 443.7969 119.9531 449 118.4531 C 454.1875 116.9531 459.6875 116.2031 465.5 116.2031 C 472.0938 116.2031 478.4063 117.1094 484.4063 118.9063 C 490.4063 120.7031 495.7031 123.2969 500.2969 126.7031 C 504.8906 130.1094 508.5469 134.4063 511.25 139.6094 C 513.9375 144.8125 515.2969 150.8125 515.2969 157.5938 L 515.2969 168.4063 L 515.2969 168.4063 Z" stroke="#ca151f" stroke-width="4" fill="#ec1e26"/>
			<path d="M 666.5 220.5938 C 677.0938 220.5938 686.4063 219.0469 694.4063 215.9531 C 702.4063 212.8594 709.0938 208.6563 714.5 203.3594 C 719.8906 198.0625 723.9375 191.9063 726.6406 184.9063 C 729.3438 177.9063 730.7031 170.6094 730.7031 163 L 730.7031 154 C 730.7031 146.4063 729.3438 139.1563 726.6406 132.25 C 723.9375 125.3594 719.9375 119.3125 714.6406 114.1094 C 709.3438 108.9063 702.7031 104.75 694.7031 101.6563 C 686.7031 98.5625 677.2969 97 666.5 97 L 591.5 97 L 591.5 307 L 616.7031 307 L 616.7031 220.5938 L 666.5 220.5938 L 666.5 220.5938 ZM 616.7031 120.4063 L 663.5 120.4063 C 677.6875 120.4063 688.2344 123.6563 695.1406 130.1563 C 702.0469 136.6563 705.5 145.2031 705.5 155.7969 L 705.5 161.2031 C 705.5 185.2031 691.5 197.2031 663.5 197.2031 L 616.7031 197.2031 L 616.7031 120.4063 L 616.7031 120.4063 Z" stroke="#ca151f" stroke-width="4" fill="#ec1e26"/>
			<path d="M 783.2031 120.4063 L 837.2031 120.4063 L 837.2031 283.5938 L 783.2031 283.5938 L 783.2031 307 L 916.4063 307 L 916.4063 283.5938 L 862.4063 283.5938 L 862.4063 120.4063 L 916.4063 120.4063 L 916.4063 97 L 783.2031 97 L 783.2031 120.4063 L 783.2031 120.4063 Z" stroke="#ca151f" stroke-width="4" fill="#ec1e26"/>
			<path d="M 1006.5469 271.1563 C 998.4531 260.0625 994.4063 244.2031 994.4063 223.5938 L 994.4063 180.4063 C 994.4063 161.2031 998.4531 145.7031 1006.5469 133.9063 C 1014.6406 122.1094 1026.7969 116.2031 1043 116.2031 C 1051.5938 116.2031 1058.9063 117.6563 1064.9063 120.5625 C 1070.9063 123.4688 1075.8438 127.3594 1079.75 132.25 C 1083.6406 137.1563 1086.5313 142.7969 1088.4375 149.2031 C 1090.3438 155.6094 1091.3906 162.2031 1091.5938 169 L 1091.5938 172.5938 L 1116.7969 172.5938 L 1116.7969 169 C 1116.7969 158.4063 1115.1875 148.4531 1112 139.1563 C 1108.7969 129.8594 1104.0938 121.7656 1097.8906 114.8594 C 1091.6875 107.9531 1083.9844 102.5625 1074.7969 98.6563 C 1065.5938 94.75 1055 92.7969 1043 92.7969 C 1019.7969 92.7969 1001.7031 100.2969 988.7031 115.2969 C 975.7031 130.2969 969.2031 151.4063 969.2031 178.5938 L 969.2031 225.4063 C 969.2031 253.4063 975.7031 274.7188 988.7031 289.3125 C 1001.7031 303.9063 1019.7969 311.2031 1043 311.2031 C 1055 311.2031 1065.5938 309.25 1074.7969 305.3594 C 1083.9844 301.4531 1091.6875 296.0625 1097.8906 289.1563 C 1104.0938 282.25 1108.7969 274.1563 1112 264.8594 C 1115.1875 255.5625 1116.7969 245.6094 1116.7969 235 L 1116.7969 231.4063 L 1091.5938 231.4063 L 1091.5938 235 C 1091.5938 242 1090.6406 248.6563 1088.75 254.9531 C 1086.8438 261.2656 1083.9531 266.8594 1080.0469 271.75 C 1076.1406 276.6563 1071.1406 280.5469 1065.0469 283.4531 C 1058.9531 286.3594 1051.5938 287.7969 1043 287.7969 C 1026.7969 287.7969 1014.6406 282.25 1006.5469 271.1563 L 1006.5469 271.1563 Z" stroke="#ca151f" stroke-width="4" fill="#ec1e26"/>
			<path d="M 1170.2031 307 L 1299.2031 307 L 1299.2031 283.5938 L 1195.4063 283.5938 L 1195.4063 213.4063 L 1295.5938 213.4063 L 1295.5938 190 L 1195.4063 190 L 1195.4063 120.4063 L 1297.4063 120.4063 L 1297.4063 97 L 1170.2031 97 L 1170.2031 307 L 1170.2031 307 Z" stroke="#ca151f" stroke-width="4" fill="#ec1e26"/>
		</g>
	</g>
</svg>