<?xml version="1.0" standalone="no"?>
<!-- Generator: Adobe Fireworks 10, Export SVG Extension by Aaron Beall (http://fireworks.abeall.com) . Version: 0.6.1  -->
<!DOCTYPE svg PUBLIC "-//W3C//DTD SVG 1.1//EN" "http://www.w3.org/Graphics/SVG/1.1/DTD/svg11.dtd">
<svg id="logo.fw-Page%201" viewBox="0 0 1229 407" style="background-color:#ffffff00" version="1.1"
	xmlns="http://www.w3.org/2000/svg" xmlns:xlink="http://www.w3.org/1999/xlink" xml:space="preserve"
	x="0px" y="0px" width="1229px" height="407px"
>
	<g id="Layer%201">
		<text visibility="hidden" x="364" y="407" width="874" stroke="#ca151f" stroke-width="3" fill="#ec1e26" style="font-size: 320px; font-family: Roboto; color: #ec1e26; text-align: center; "><tspan><![CDATA[SPICE]]></tspan></text>
		<path d="M 161 32 L 309 119 L 305 284 L 158 374 L 14 289 L 12 113 L 161 32 Z" fill="#ffffff"/>
		<g>
			<path d="M 159 41 L 299 121 L 299 284 L 159 364 L 21 284 L 21 120 L 159 41 ZM 2 110 L 2 295 L 157 385 L 161 385 L 317 295 L 317 111 L 163 22 L 156 22 L 2 110 Z" stroke="#000000" stroke-width="4" fill="#000000"/>
			<path d="M 159 70 L 42 135 L 42 187 L 244 235 L 244 251 L 159 300 L 74 253 L 74 231 L 42 219 L 42 268 L 159 335 L 276 269 L 276 216 L 75 168 L 75 153 L 159 104 L 246 152 L 246 173 L 277 186 L 277 136 L 159 70 Z" stroke="#221f20" stroke-width="4" fill="#ed1e26"/>
			<g>
				<path d="M 162 47 C 162 47 167.25 40.75 176 44 C 184.75 47.25 188 70 188 70 C 188 70 188.5 74 188 84 C 188 84 196.5 82 202 84 C 202 84 195.25 86 194 88 C 194 88 207 87 213 90 C 219 93 222.6667 92.3333 222.6667 92.3333 C 222.6667 92.3333 211.6667 110.9167 211.6667 110.1667 C 211.6667 109.4167 209 112 209 112 L 217 113 C 217 113 217.25 115.5 213 119 L 208 119 C 208 119 212 133 212 140 C 212 140 215 141 215 126 C 215 126 220.5 129.25 219 140 C 219 140 215.5 146.75 217 149 C 218.5 151.25 223 145 223 145 C 223 145 224.6667 135.3333 221 123.6667 C 221 123.6667 215 96 234 81 C 234 81 224.25 97.5 231 102 C 237.75 106.5 236 89 236 89 C 236 89 233.75 71.25 245 65 C 245 65 239 79.5 246 94 C 246 94 253.25 117.5 243 132 C 232.75 146.5 228 148 224 160 C 220 172 227 170 227 170 C 227 170 231.25 168.5 233 160 C 233 160 231 153.25 239 147 C 239 147 234.5 154.75 236 166 C 237.5 177.25 224 192 224 192 C 224 192 218.75 196 215 198 C 215 198 213 210.25 209 214 C 209 214 207.75 237 198 260 C 188.25 283 167 302 167 302 C 167 302 149 317.75 126 328 C 108.0287 336.0089 95.5522 329.6706 90.9555 326.5161 C 89.6693 325.6334 89.125 322.125 89.1959 321.2667 C 89.5502 316.9778 90.6982 310.1367 94 307 C 94 307 97.25 299.75 110 286 C 110 286 117.25 275.25 119 251 L 119 230 C 119 230 112.5 226.5 111 220 C 109.5 213.5 112 211 112 211 C 112 211 114.25 207 124 204 C 124 204 118.25 200.5 115 189 C 115 189 108.75 179 110 172 C 110 172 94 161.25 104 141 C 104 141 108.5 131.75 117 128 C 117 128 115.5 117 120 109 C 124.5 101 128 99 128 99 C 128 99 133.25 95.25 135 95 L 140 98 L 150 98 C 150 98 146.75 92.25 132 91 C 132 91 127 87 149 86 C 149 86 130.75 74.25 141 57 C 141 57 147.5 71 172 77 C 172 77 177 78.25 184 82 C 184 82 184.25 62.75 162 47 Z" stroke="#000000" stroke-width="2" fill="#221f20"/>
				<path d="M 94.6667 314.6667 C 96.3698 311.0474 110.6667 293.3333 110.6667 293.3333 C 117.3333 287.3333 125 273.6667 125 273.6667 L 116.3333 280.6667 C 123.3333 270.3333 124 234 124 234 C 148 241 146 235 146 235 C 146 235 127.1667 235.5 117 222 C 117 222 109.8333 211 125 208 L 126 213 L 126 214 L 122 214 L 123 216 C 123 216 136.6667 232.6667 168 228 C 199.3333 223.3333 199.3333 207 204 202 L 210 201 C 210 201 201.6667 224 184 231 C 184 231 188 234.3333 204 222 C 204 222 194.3333 263.3333 184 274 C 184 274 172 293.3333 141 314 C 141 314 113.3333 332.6667 95.6667 324.6667 C 95.6667 324.6667 92 320.3333 94.6667 314.6667 Z" stroke="#ed1e26" stroke-width="1" fill="#ca151f"/>
				<path d="M 189.5 234.75 C 189.5 234.75 178.25 243 165 243 C 151.75 243 133 240.75 133 240.75 L 132 242 C 132 242 133.5 269.75 130 275 C 126.5 280.25 121.75 288.5 103 309 C 100.25 313.25 99.9977 317.2749 104.7965 319.4307 C 117.75 325.25 167.0808 284.1818 171.5 278.5 C 176.75 271.75 189.75 257 189.5 234.75 Z" fill="#ed1e26"/>
				<path d="M 141 249 C 141 249 149.5 241.75 155 252 C 155 252 156.5 257.75 147 274 C 137.5 290.25 116 315.25 111 312 C 106 308.75 115.3333 299.6667 115.3333 299.6667 L 133 277 C 133 277 141 266.5 140 262 L 141 249 Z" stroke="#ffffff00" stroke-width="1" fill="#f79274"/>
				<path d="M 169 228 C 169 228 175.75 228.75 181 229 C 186.25 229.25 172.5 233.75 172.5 233.75 C 172.5 233.75 148 237.25 135 233 C 122 228.75 123 223 123 223 C 123 223 123.75 220.25 126 221 C 128.25 221.75 131 223 131 223 C 131 223 140.75 227 143 227 C 145.25 227 151.75 230.25 169 228 Z" stroke="#ffffff00" stroke-width="1" fill="#ed1d25"/>
				<path d="M 157 232 C 157 232 157.5 234.5 149 234 C 140.5 233.5 135 229 135 229 C 135 229 131.5 225.75 138 226 C 138 226 142.75 230 155 231 C 158.9885 231.3256 157 232 157 232 Z" stroke="#ffffff00" stroke-width="1" fill="#f49678"/>
				<path d="M 136 207 L 134 206 L 128.375 209.25 C 128 216.75 130 216 130 216 L 130.625 215 L 131 215 L 131 217 C 132.125 222.875 145 224 145 224 L 146 223 L 146 219 L 146.25 217.375 L 146.5 217.125 L 147.375 223.625 C 156.875 228.875 168 225 168 225 L 168.875 222.75 L 169.625 220.125 L 170 220 L 170 224 C 180.625 223.875 185 219 185 219 L 185.25 215.75 L 186 215.25 L 187 217 C 191.375 216 198 208 198 208 L 196 206 C 196 206 168.125 220.25 134 209 L 136 207 Z" stroke="#000000" stroke-width="1" fill="#ffffff"/>
				<path d="M 199 182 C 199 182 198.25 199.125 159 206 C 159 206 132.875 208.375 122 199 L 119 193 L 121 190 C 121 190 125.375 195 128 195 L 128 198 L 129 197 L 129 195 C 129 195 131.75 198 143 199 L 145 201 L 145 202 L 146 200 L 147 199 C 147 199 160.5 200.375 170 197 L 171 199 L 172 198 L 172 196 C 172 196 184.625 189.875 189 185 L 190 189 L 190 185 L 190 183 C 190 183 196.25 178.75 197 173 L 199 174 L 199 182 Z" stroke="#000000" stroke-width="1" fill="#fdfdfd"/>
				<path d="M 117 177 C 117 177 115.5 176.5 116 178 C 116.5 179.5 123.1667 182.8333 121 183 C 118.8333 183.1667 114 180 114 180 C 114 180 127.1667 202.1667 165 194 C 165 194 185 189.3333 197.5 166 L 197.6667 159.5 L 195.5 158.6667 L 194.6667 159.6667 C 194.6667 159.6667 195 163.1667 192 171 C 189 178.8333 167 188 167 188 L 163 188 L 170 182 C 170 182 157.6667 180.1667 154 175 C 154 175 148 182.6667 134 181 C 134 181 127 182.3333 117 177 Z" stroke="#ed1e26" stroke-width="1" fill="#ca151f"/>
				<path d="M 148 182 C 148 182 154 177.875 159 182 C 159 182 161.625 184.5 156 188 C 156 188 155 189.375 165 189 L 169 188 L 168 190 C 168 190 165 192.5 150 194 C 135 195.5 127 189 127 189 C 127 189 125.75 187.625 127 187 C 127 187 126.125 185.5 133 186 L 131.75 183 C 131.75 183 141.625 183.625 148 182 Z" fill="#ed1e26"/>
				<path d="M 150 188 C 150 188 144 189 142 188 C 140 187 142 185 142 185 C 142 185 145.5 182.1667 151 186 C 151 186 151.6667 187.1667 150 188 Z" stroke="#ffffff00" stroke-width="1" fill="#f79274"/>
				<path d="M 159 146 C 159 146 145.1667 118.3333 121 131 C 96.8333 143.6667 109 164 109 164 C 109 164 118.1667 178.1667 135 178 C 151.8333 177.8333 152 171 152 171 L 151 169 C 151 169 144.8333 179.6667 127 172 C 127 172 112.3333 165.6667 123 148 C 123 148 127.8333 142.6667 136 141 C 144.1667 139.3333 154 150 154 150 L 159 146 Z" stroke="#000000" stroke-width="1" fill="#ffffff"/>
				<path d="M 153 154 C 153 154 150 158 150 164 C 150 170 138 171 138 171 C 138 171 127.8333 171.8333 123 164 C 118.1667 156.1667 126 147 126 147 C 126 147 132.5 141 141 144 C 149.5 147 152.6667 150.6667 153 154 Z" stroke="#000000" stroke-width="1" fill="#ffff04"/>
				<path d="M 148 163 C 148 163 145.3333 169.1667 134 169 C 134 169 127 167.3333 126 164 C 125 160.6667 130 162 130 162 C 130 162 130.8333 166 135 166 C 139.1667 166 144.3333 164.6667 146 163 C 147.6667 161.3333 148 163 148 163 Z" stroke="#ffffff00" stroke-width="1" fill="#fcda00"/>
				<path d="M 126 151 C 126 151 120.5 157.6667 126 165 L 130 162 C 130 162 129 156.1667 130 154 C 131 151.8333 126 151 126 151 Z" stroke="#ffffff00" stroke-width="1" fill="#fdc50d"/>
				<path d="M 130 155 L 125.25 152.5 C 125.25 152.5 127 145.3333 136 146 C 145 146.6667 148.6667 151.3333 149.3333 151.1667 C 150 151 147.1667 154.1667 147.1667 154.1667 C 147.1667 154.1667 141.6667 146.8333 135 151 C 128.3333 155.1667 130 155 130 155 Z" fill="#eaa319"/>
				<path d="M 128 149 L 128 150 L 130 151 L 132 150 L 134 149 L 135 147 L 134 146 L 132 145 L 130 146 L 129 147 L 128 149 Z" fill="#ffff92"/>
				<path d="M 141 164 L 143 164 L 144 165 L 143 167 L 141 168 L 139 168 L 137 168 L 137 167 L 138 166 L 139 165 L 141 164 Z" fill="#fdf583"/>
				<path d="M 132 157 C 132 157 135.8333 150.3333 141 152 C 146.1667 153.6667 145 158 145 158 C 145 158 145.3333 161.5 142 163 C 138.6667 164.5 134 163 134 163 C 134 163 132.8333 162 132 161 C 131.1667 160 132 157 132 157 Z" stroke="#000000" stroke-width="1" fill="#221f20"/>
				<path d="M 156 134 C 156 134 146.75 124.25 134 123 C 134 123 123.75 123.5 121 126 C 121 126 120.25 114 123 111 C 123 111 126.5 105.5 133 106 C 139.5 106.5 150 123 150 123 C 150 123 152.75 126.75 156 127 C 159.25 127.25 162 124 162 124 C 162 124 165.75 118 165 110 L 159 114 C 159 114 150.75 104.5 147 103 C 143.25 101.5 152 102 152 102 C 152 102 158.5 102.75 160 105 C 160 105 163.25 105 156 100 C 156 100 181.25 94 190 102 C 198.75 110 202.75 118.5 203 121 C 203 121 207.5 127.75 209 143 C 209 143 198.5 150.5 198 155 L 195 155 C 195 155 195 151 192 147 C 189 143 202 143 202 143 C 202 143 205.5 144.5 205 145 C 205 145 206 139.75 194 140 C 194 140 191 139.75 188 143 C 188 143 183.5 140.25 180 141 C 180 141 193 130 193 126 C 193 122 202.25 137 202 139 C 202 139 204.5 138.25 202 126 C 199.5 113.75 188 110 188 110 L 188 112 C 188 112 174.5 110.25 171 118 C 171 118 181.75 113.25 186 116 C 186 116 180 125.75 172 128 C 172 128 170.5 130 167 125 C 167 125 158.75 135.25 164 141 L 164 143 C 164 143 158.5 140 160 134 C 160 134 159.75 130.5 164 125 C 164 125 157 128.75 156 134 Z" stroke="#ed1e26" stroke-width="1" fill="#ca151f"/>
				<path d="M 155.75 156.75 C 155.75 156.75 160 146 171 144 C 182 142 188 150 188 150 C 188 150 195 157.25 188.5 167 C 184.181 173.4785 185.75 174.5 171 178 C 171 178 158.5 177.25 156 170 C 154.8609 166.6967 154.305 164.109 154.25 162 C 154.1842 159.4802 155.75 156.75 155.75 156.75 Z" stroke="#000000" stroke-width="1" fill="#ffffff"/>
				<path d="M 162 156 C 162 156 166.75 149.75 172.5 149.5 C 178.25 149.25 183 153 183 153 C 183 153 188.25 158.5 186 165 C 183.75 171.5 178.5 173.25 178 173 C 177.5 172.75 169.5 176.75 164 171 C 158.5 165.25 160.25 160.75 160.25 160.75 C 160.25 160.75 161.25 156.5 162 156 Z" stroke="#000000" stroke-width="1" fill="#221f20"/>
				<path d="M 184 164 C 184 164 177.5 171.25 169 170 C 169 170 162.75 167.5 162 163 C 161.25 158.5 165 156 165 156 C 165 156 165.75 152.5 173 151 C 180.25 149.5 185 158 185 158 C 185 158 185.75 162.5 184 164 Z" stroke="#000000" stroke-width="1" fill="#ffff04"/>
				<path d="M 182.5 163 C 182.5 163 179.9887 168.1089 171.6681 167.9978 C 171.6681 167.9978 166.2342 167.3886 165.5 165.1667 C 164.7658 162.9448 168 163.1667 168 163.1667 C 168 163.1667 169.3432 165.9981 172.4022 165.9981 C 175.4613 165.9981 179.1097 163.7776 180.3333 162.6667 C 181.5569 161.5557 182.5 163 182.5 163 Z" stroke="#ffffff00" stroke-width="1" fill="#fcda00"/>
				<path d="M 165.7946 155.9995 C 165.7946 155.9995 161.462 160.4451 165.5 165.3333 L 168.1667 163.5 C 168.1667 163.5 167.9972 159.4434 168.7314 157.9992 C 169.4655 156.5549 165.7946 155.9995 165.7946 155.9995 Z" stroke="#ffffff00" stroke-width="1" fill="#fdc50d"/>
				<path d="M 168.5 158.6667 L 165.244 156.9993 C 165.244 156.9993 166.5288 152.2222 173.1364 152.6666 C 179.744 153.1109 181.5105 156.4444 182 156.3333 C 182.4894 156.2222 180.1667 158.6667 180.1667 158.6667 C 180.1667 158.6667 176.2278 152.8893 171.3333 155.6667 C 166.4388 158.4441 168.5 158.6667 168.5 158.6667 Z" fill="#eaa319"/>
				<path d="M 167.263 154.6663 L 167.263 155.3329 L 168.7314 155.9995 L 170.1997 155.3329 L 171.6681 154.6663 L 172.4022 153.3331 L 171.6681 152.6666 L 170.1997 152 L 168.7314 152.6666 L 167.9972 153.3331 L 167.263 154.6663 Z" fill="#ffff92"/>
				<path d="M 176.8073 164.6649 L 178.2757 164.6649 L 179.0098 165.3315 L 178.2757 166.6646 L 176.8073 167.3312 L 175.3389 167.3312 L 173.8706 167.3312 L 173.8706 166.6646 L 174.6048 165.9981 L 175.3389 165.3315 L 176.8073 164.6649 Z" fill="#fdf583"/>
				<path d="M 169 162 C 169 162 170 153.5 176 157 C 182 160.5 175 164 175 164 C 175 164 171.25 166.25 169 162 Z" stroke="#000000" stroke-width="1" fill="#221f20"/>
				<path d="M 186 199 C 186 199 197.3333 195.6667 203 181 C 203 181 203.2422 177.995 202.5 173.6875 C 202.1391 171.5931 202.0893 169.0928 201.25 167.75 C 201.25 167.75 200.3333 153.6667 206 151 C 211.6667 148.3333 214 143 214 143 C 214 143 210.3333 152 215 155 C 219.6667 158 223 150 223 150 C 223 150 228 146.3333 226 129 C 226 129 226 125.6667 224 118 C 222 110.3333 223.3333 106.6667 226 99 C 226 99 225.6667 108.3333 233 108 C 240.3333 107.6667 240 98 240 98 L 240 90 C 240 90 245 104.6667 244 111 C 244 111 247.3333 119.3333 233 138 C 218.6667 156.6667 218 161 218 161 C 218 161 216.5 171 221 173.1667 C 221 173.1667 225 177.3333 231 172 C 231 172 227.3333 186.6667 214 192 C 214 192 201 200.3333 186 199 Z" stroke="#ffdd00" stroke-width="1" fill="#fdc30d"/>
				<path d="M 202 192 C 202 192 206.5 190.5 206 185 C 205.5 179.5 204 177 204 177 C 204 177 203.4253 167.9808 204 163 C 204.75 156.5 208.5 154 209.6667 153.3333 C 209.6667 153.3333 209.5 158 210.6667 159.3333 C 211.8333 160.6667 215.6667 159.6667 215.6667 159.6667 C 215.6667 159.6667 212.3333 168.5 217 173 C 217 173 217.6667 176.8333 224 178 C 224 178 223.8333 183.6667 212 191 C 212 191 204.3333 194 202 192 Z" fill="#ffde00"/>
				<path d="M 232 135 C 232 135 238.5 125.8333 240 120 C 241.5 114.1667 242.4583 110.9167 241.125 105.25 C 241.125 105.25 240 108.5 232 111 C 232 111 226.6667 110.2083 225.5 106.375 C 225.5 106.375 225.9349 117.4825 227 120 C 228.8333 124.3333 228.6411 125.8062 228.5 127.5 C 228.375 129 228 132 228 139 C 228 139 230.1667 138.1667 232 135 Z" stroke="#ffffff00" stroke-width="1" fill="#ffde00"/>
				<path d="M 228 113 C 228 113 232.8333 117.5 239 113 C 239 113 235.8333 125.5 233 128 C 233 128 227.3333 118.8333 228 113 Z" stroke="#fdd866" stroke-width="1" fill="#fff686"/>
				<path d="M 208 163 C 208 163 208.8333 165.6667 213 166 C 213 166 212 178 220 181 C 220 181 216.3333 187.1667 209 190 L 208 163 Z" stroke="#fdd866" stroke-width="1" fill="#fff686"/>
				<path d="M 109 151 C 109 151 110 162 116 164 C 116 164 119 168.1667 123 172 C 127 175.8333 116.6667 170.3333 116 169 C 115.3333 167.6667 116.8333 166 115 165 C 113.1667 164 112 165 112 165 C 112 165 107.1667 159.3333 109 151 Z" fill="#e6e6e6"/>
				<path d="M 125 122 C 125 122 121.5 115.3333 128 111 C 134.5 106.6667 144 120 144 120 C 144 120 144.5 122.1667 142 122 C 139.5 121.8333 134.1667 120.5 125 122 Z" fill="#ed1e26"/>
				<path d="M 128 114 C 128 114 130.3333 110 134 114 C 137.6667 118 133 118 133 118 C 133 118 130.1667 118.5 128 114 Z" fill="#f79274"/>
				<path d="M 164 102 C 164 102 174.3333 95.1667 189 105 C 189 105 191.6667 109.6667 179 110 C 166.3333 110.3333 164 102 164 102 Z" stroke="#ffffff00" stroke-width="1" fill="#ed1e26"/>
				<path d="M 172 105 C 172 105 171 101.8333 175 102 C 179 102.1667 180 104 180 104 C 180 104 179.8333 105.8333 178 106 C 176.1667 106.1667 172.8333 106.5 172 105 Z" stroke="#ffffff00" stroke-width="1" fill="#f79274"/>
				<path d="M 170.6667 122 C 170.6667 122 168 117.8333 181 117 C 181 117 173.3333 124 173 124 C 172.6667 124 170.6667 125.1667 170.6667 122 Z" stroke="#ffffff00" stroke-width="1" fill="#ed1e26"/>
				<path d="M 172 121 C 172 121 172.1667 117.3333 176 120 C 176 120 174.3333 124.3333 172 121 Z" stroke="#ffffff00" stroke-width="1" fill="#f79274"/>
				<path d="M 194 148 C 194 148 197.25 144.25 200 146 C 202.75 147.75 198 150 198 150 L 194 148 Z" stroke="#ffffff00" stroke-width="1" fill="#ed1e26"/>
				<path d="M 196 147 C 196 147 196.1667 143.3333 200 146 C 200 146 198.3333 150.3333 196 147 Z" stroke="#ffffff00" stroke-width="1" fill="#f79274"/>
				<path d="M 148 79 C 148 79 140 69.1667 142 62.3333 C 142 62.3333 140 69.1667 169 79 C 169 79 181.6667 83.6667 187 89 L 188 91 C 188 91 195.8333 87.1667 218 95 L 210 107 C 210 107 210.8333 100.5 197 96 C 197 96 188.1667 93.5 186 96 C 186 96 171.3333 79.8333 148 79 Z" stroke="#568e37" stroke-width="1" fill="#416b2a"/>
				<path d="M 151 89 L 151 94 C 151 94 148 90 141 90 L 151 89 Z" stroke="#568e37" stroke-width="1" fill="#416b2a"/>
				<path d="M 168 48 C 168 48 171.5 45.6667 174 46 C 174 46 185.1667 59.8333 186 75 C 186 75 180.3333 57 168 48 Z" stroke="#568e37" stroke-width="1" fill="#416b2a"/>
				<path d="M 190 86 C 190 86 195.1667 85 197 85 L 192 87 L 190 86 Z" stroke="#568e37" stroke-width="1" fill="none"/>
				<path d="M 207 115 C 207.3333 114.3333 214 115.6667 215 115 C 215 115 214.1667 115.8333 208 117 C 208 117 206.6667 115.6667 207 115 Z" stroke="#568e37" stroke-width="1" fill="#416b2a"/>
			</g>
			<path d="M 75 160 L 75 153 L 159 104 L 246 152 L 246 173 L 277 186 L 277 136 L 159 70 L 42 135 L 42 160 " stroke="#221f20" stroke-width="4" fill="#ed1e26"/>
			<path d="M 244 244 L 244 251 L 159 300 L 74 253 L 74 231 L 42 219 L 42 268 L 159 335 L 276 269 L 276 244 " stroke="#221f20" stroke-width="4" fill="#ed1e26"/>
			<g>
				<path d="M 212.4229 139.9434 C 213.2496 139.58 215 137.4576 215 126 C 215 126 220.5 129.25 219 140 C 219 140 215.5 146.75 217 149 C 218.5 151.25 223 145 223 145 C 223 145 224.6667 135.3333 221 123.6667 C 221 123.6667 215 96 234 81 C 234 81 224.25 97.5 231 102 C 237.75 106.5 236 89 236 89 C 236 89 233.75 71.25 245 65 C 245 65 239 79.5 246 94 C 246 94 253.25 117.5 243 132 C 232.75 146.5 228 148 224 160 C 220 172 227 170 227 170 C 227 170 231.25 168.5 233 160 C 233 160 231 153.25 239 147 C 239 147 234.5 154.75 236 166 C 237.5 177.25 224 192 224 192 C 224 192 219.2026 195.6552 215.504 197.7244 " stroke="#000000" stroke-width="2" fill="#221f20"/>
				<path d="M 186 199 C 186 199 197.3333 195.6667 203 181 C 203 181 203.2422 177.995 202.5 173.6875 C 202.1391 171.5931 202.0893 169.0928 201.25 167.75 C 201.25 167.75 200.3333 153.6667 206 151 C 211.6667 148.3333 214 143 214 143 C 214 143 210.3333 152 215 155 C 219.6667 158 223 150 223 150 C 223 150 228 146.3333 226 129 C 226 129 226 125.6667 224 118 C 222 110.3333 223.3333 106.6667 226 99 C 226 99 225.6667 108.3333 233 108 C 240.3333 107.6667 240 98 240 98 L 240 90 C 240 90 245 104.6667 244 111 C 244 111 247.3333 119.3333 233 138 C 218.6667 156.6667 218 161 218 161 C 218 161 216.5 171 221 173.1667 C 221 173.1667 225 177.3333 231 172 C 231 172 227.3333 186.6667 214 192 C 214 192 201 200.3333 186 199 Z" stroke="#ffdd00" stroke-width="1" fill="#fdc30d"/>
				<path d="M 202 192 C 202 192 206.5 190.5 206 185 C 205.5 179.5 204 177 204 177 C 204 177 203.4253 167.9808 204 163 C 204.75 156.5 208.5 154 209.6667 153.3333 C 209.6667 153.3333 209.5 158 210.6667 159.3333 C 211.8333 160.6667 215.6667 159.6667 215.6667 159.6667 C 215.6667 159.6667 212.3333 168.5 217 173 C 217 173 217.6667 176.8333 224 178 C 224 178 223.8333 183.6667 212 191 C 212 191 204.3333 194 202 192 Z" fill="#ffde00"/>
				<path d="M 232 135 C 232 135 238.5 125.8333 240 120 C 241.5 114.1667 242.4583 110.9167 241.125 105.25 C 241.125 105.25 240 108.5 232 111 C 232 111 226.6667 110.2083 225.5 106.375 C 225.5 106.375 225.9349 117.4825 227 120 C 228.8333 124.3333 228.6411 125.8062 228.5 127.5 C 228.375 129 228 132 228 139 C 228 139 230.1667 138.1667 232 135 Z" stroke="#ffffff00" stroke-width="1" fill="#ffde00"/>
				<path d="M 228 113 C 228 113 232.8333 117.5 239 113 C 239 113 235.8333 125.5 233 128 C 233 128 227.3333 118.8333 228 113 Z" stroke="#fdd866" stroke-width="1" fill="#fff686"/>
				<path d="M 208 163 C 208 163 208.8333 165.6667 213 166 C 213 166 212 178 220 181 C 220 181 216.3333 187.1667 209 190 L 208 163 Z" stroke="#fdd866" stroke-width="1" fill="#fff686"/>
			</g>
		</g>
		<g>
			<path d="M 500.5781 286.375 C 492.0781 292.9375 480.5469 296.2188 465.9688 296.2188 C 452.3125 296.2188 440.0781 292.3438 429.25 284.5781 C 418.4063 276.8281 413 265.8125 413 251.5313 L 383.625 251.5313 L 383.3125 252.4688 C 382.7813 273.0938 390.9375 289.5625 407.7656 301.8438 C 424.5781 314.1406 443.9844 320.2813 465.9688 320.2813 C 489.1875 320.2813 508.0156 314.7188 522.4531 303.5625 C 536.875 292.4219 544.0938 277.6875 544.0938 259.3438 C 544.0938 242.375 538.0938 228.0938 526.125 216.5313 C 514.1406 204.9688 496.6875 196.2188 473.7813 190.2813 C 454.9219 185.2813 441.2969 179.4844 432.9219 172.8594 C 424.5313 166.25 420.3438 158 420.3438 148.0938 C 420.3438 136.9531 424.1719 127.8906 431.8281 120.9063 C 439.4844 113.9375 450.5 110.4375 464.875 110.4375 C 478.9375 110.4375 490.4688 114.6563 499.4844 123.0938 C 508.4844 131.5313 513 142.2188 513 155.125 L 542.375 155.125 L 542.8438 154.1875 C 543.25 136.0625 536.3594 120.2031 522.1406 106.6094 C 507.9219 93.0156 488.8281 86.2188 464.875 86.2188 C 442.5781 86.2188 424.4531 92.1563 410.5 104.0313 C 396.5313 115.9063 389.5625 130.75 389.5625 148.5625 C 389.5625 165.4375 396.0469 179.4531 409.0156 190.5938 C 421.9844 201.75 440.0313 210.1875 463.1563 215.9063 C 481.7969 220.8125 494.8125 226.75 502.2188 233.7188 C 509.6094 240.7031 513.3125 249.3438 513.3125 259.6563 C 513.3125 270.9063 509.0625 279.8125 500.5781 286.375 L 500.5781 286.375 Z" stroke="#ca151f" stroke-width="4" fill="#ec1e26"/>
			<path d="M 675.0938 224.75 C 699.3594 224.75 718.2344 218.5625 731.7344 206.1563 C 745.2188 193.7656 751.9688 177.25 751.9688 156.625 C 751.9688 136.2188 745.2188 119.75 731.7344 107.25 C 718.2344 94.75 699.3594 88.5 675.0938 88.5 L 588.0625 88.5 L 588.0625 316 L 618.8438 316 L 618.8438 224.75 L 675.0938 224.75 L 675.0938 224.75 ZM 618.8438 112.7188 L 675.0938 112.7188 C 690.4063 112.7188 701.8906 116.9375 709.5469 125.375 C 717.2031 133.8125 721.0313 144.3438 721.0313 156.9375 C 721.0313 169.5469 717.2188 179.9844 709.625 188.2656 C 702.0156 196.5469 690.5 200.6875 675.0938 200.6875 L 618.8438 200.6875 L 618.8438 112.7188 L 618.8438 112.7188 Z" stroke="#ca151f" stroke-width="4" fill="#ec1e26"/>
			<path d="M 825.125 88.5 L 794.1875 88.5 L 794.1875 316 L 825.125 316 L 825.125 88.5 L 825.125 88.5 Z" stroke="#ca151f" stroke-width="4" fill="#ec1e26"/>
			<path d="M 1013.875 244.1875 C 1013.875 260.4375 1009.1875 273.1719 999.8125 282.3906 C 990.4375 291.6094 977.2031 296.2188 960.125 296.2188 C 942.9375 296.2188 929.2344 289.2969 919.0313 275.4375 C 908.8125 261.5938 903.7188 244.2969 903.7188 223.5625 L 903.7188 182.7813 C 903.7188 162.2656 908.8125 145.0781 919.0313 131.2188 C 929.2344 117.375 942.9375 110.4375 960.125 110.4375 C 977.2031 110.4375 990.4375 115.0781 999.8125 124.3438 C 1009.1875 133.625 1013.875 146.2188 1013.875 162.1563 L 1043.4063 162.1563 L 1043.7188 161.2188 C 1044.125 138.625 1036.7344 120.4688 1021.5313 106.7656 C 1006.3125 93.0781 985.8438 86.2188 960.125 86.2188 C 934.3906 86.2188 913.4219 95.3594 897.2344 113.6406 C 881.0313 131.9219 872.9375 155.0781 872.9375 183.0938 L 872.9375 223.5625 C 872.9375 251.5938 881.0313 274.7188 897.2344 292.9375 C 913.4219 311.1719 934.3906 320.2813 960.125 320.2813 C 985.4375 320.2813 1005.7969 313.0938 1021.2188 298.7188 C 1036.625 284.3438 1044.125 266.4844 1043.7188 245.125 L 1043.4063 244.1875 L 1013.875 244.1875 L 1013.875 244.1875 Z" stroke="#ca151f" stroke-width="4" fill="#ec1e26"/>
			<path d="M 1208.2813 186.3125 L 1114.8438 186.3125 L 1114.8438 112.7188 L 1222.5 112.7188 L 1222.5 88.5 L 1084.0625 88.5 L 1084.0625 316 L 1224.2188 316 L 1224.2188 291.9375 L 1114.8438 291.9375 L 1114.8438 210.5313 L 1208.2813 210.5313 L 1208.2813 186.3125 L 1208.2813 186.3125 Z" stroke="#ca151f" stroke-width="4" fill="#ec1e26"/>
		</g>
	</g>
</svg>